<?xml version="1.0" standalone="no"?>
<!DOCTYPE svg PUBLIC "-//W3C//DTD SVG 1.1//EN" "http://www.w3.org/Graphics/SVG/1.1/DTD/svg11.dtd" >
<svg xmlns="http://www.w3.org/2000/svg">
<metadata></metadata>
<defs>
<font id="amag_textbold" horiz-adv-x="786" >
<font-face units-per-em="2048" ascent="1638" descent="-410" />
<missing-glyph horiz-adv-x="451" />
<glyph unicode="ff" horiz-adv-x="1315" d="M6 887q0 50 22.5 83.5t77.5 33.5h70v30q0 100 20 165t62 103.5t107 54t155 15.5q73 0 116 -6t65 -20.5t28 -38.5t6 -60q0 -52 -34 -79t-85 -27q-14 0 -24 1t-20.5 2t-22.5 2t-29 1q-29 0 -46.5 -5t-28 -17t-14 -33t-3.5 -52v-36h385v30q0 100 20 165t62 103.5t107 54 t155 15.5q73 0 118 -6t69.5 -20.5t33 -38.5t8.5 -60q0 -52 -33.5 -79t-84.5 -27q-28 0 -52.5 3t-58.5 3q-29 0 -46.5 -5t-28 -17t-14 -33t-3.5 -52v-36h139q57 0 80 -33t23 -84t-23 -84t-80 -33h-139v-680q0 -57 -36.5 -81.5t-90.5 -24.5q-26 0 -49 6t-40 18.5t-26.5 32.5 t-9.5 49v680h-385v-680q0 -57 -36.5 -81.5t-90.5 -24.5q-26 0 -49 6t-40 18.5t-26.5 32.5t-9.5 49v680h-70q-55 0 -77.5 33t-22.5 84z" />
<glyph unicode="fi" horiz-adv-x="1210" d="M6 887q0 50 22.5 83.5t77.5 33.5h70v30q0 100 20 165t62 103.5t107 54t155 15.5q73 0 118 -6t70 -20.5t33.5 -38.5t8.5 -60q0 -52 -34 -79t-85 -27q-28 0 -52.5 3t-58.5 3q-29 0 -46.5 -5t-28 -17t-14 -33t-3.5 -52v-36h139q57 0 80 -33t23 -84t-23 -84t-80 -33h-139 v-680q0 -57 -36.5 -81.5t-90.5 -24.5q-26 0 -49 6t-40 18.5t-26.5 32.5t-9.5 49v680h-70q-55 0 -77.5 33t-22.5 84zM799 1227q0 30 11 56.5t29.5 46t44.5 31t56 11.5t56.5 -11.5t46 -31t31 -46t11.5 -56.5t-11.5 -56.5t-31 -46t-46 -30.5t-56.5 -11t-56 11t-44.5 30.5 t-29.5 46t-11 56.5zM813 90v805q0 28 10 49t27 34t40.5 19.5t49.5 6.5t49 -6.5t40.5 -19.5t27.5 -34t10 -49v-805q0 -29 -10 -49t-27.5 -32.5t-40.5 -18.5t-49 -6t-49.5 6t-40.5 18.5t-27 32.5t-10 49z" />
<glyph unicode="fl" horiz-adv-x="1210" d="M6 887q0 50 22.5 83.5t77.5 33.5h70v30q0 100 20 165t62 103.5t107 54t155 15.5q73 0 118 -6t70 -20.5t33.5 -38.5t8.5 -60q0 -52 -34 -79t-85 -27q-28 0 -52.5 3t-58.5 3q-29 0 -46.5 -5t-28 -17t-14 -33t-3.5 -52v-36h139q57 0 80 -33t23 -84t-23 -84t-80 -33h-139 v-680q0 -57 -36.5 -81.5t-90.5 -24.5q-26 0 -49 6t-40 18.5t-26.5 32.5t-9.5 49v680h-70q-55 0 -77.5 33t-22.5 84zM809 90v1174q0 28 10.5 48.5t28 33.5t41 19.5t49.5 6.5q54 0 91.5 -26t37.5 -82v-1174q0 -57 -37.5 -81.5t-91.5 -24.5q-26 0 -49.5 6t-41 18.5t-28 32.5 t-10.5 49z" />
<glyph unicode="ffi" horiz-adv-x="1845" d="M6 887q0 50 22.5 83.5t77.5 33.5h70v30q0 100 20 165t62 103.5t107 54t155 15.5q73 0 116 -6t65 -20.5t28 -38.5t6 -60q0 -52 -34 -79t-85 -27q-14 0 -24 1t-20.5 2t-22.5 2t-29 1q-29 0 -46.5 -5t-28 -17t-14 -33t-3.5 -52v-36h383v30q0 100 20 165t62 103.5t107 54 t155 15.5q73 0 118 -6t69.5 -20.5t33 -38.5t8.5 -60q0 -52 -33.5 -79t-84.5 -27q-28 0 -52.5 3t-58.5 3q-29 0 -46.5 -5t-28 -17t-14 -33t-3.5 -52v-36h139q57 0 80 -33t23 -84t-23 -84t-80 -33h-139v-680q0 -57 -36.5 -81.5t-90.5 -24.5q-26 0 -49 6t-40 18.5t-26.5 32.5 t-9.5 49v680h-383v-680q0 -57 -36.5 -81.5t-90.5 -24.5q-26 0 -49 6t-40 18.5t-26.5 32.5t-9.5 49v680h-70q-55 0 -77.5 33t-22.5 84zM1434 1227q0 30 11 56.5t29.5 46t44.5 31t56 11.5t56.5 -11.5t46 -31t31 -46t11.5 -56.5t-11.5 -56.5t-31 -46t-46 -30.5t-56.5 -11 t-56 11t-44.5 30.5t-29.5 46t-11 56.5zM1448 90v805q0 28 10 49t27 34t40.5 19.5t49.5 6.5t49 -6.5t40.5 -19.5t27.5 -34t10 -49v-805q0 -29 -10 -49t-27.5 -32.5t-40.5 -18.5t-49 -6t-49.5 6t-40.5 18.5t-27 32.5t-10 49z" />
<glyph unicode="ffl" horiz-adv-x="1845" d="M6 887q0 50 22.5 83.5t77.5 33.5h70v30q0 100 20 165t62 103.5t107 54t155 15.5q73 0 116 -6t65 -20.5t28 -38.5t6 -60q0 -52 -34 -79t-85 -27q-14 0 -24 1t-20.5 2t-22.5 2t-29 1q-29 0 -46.5 -5t-28 -17t-14 -33t-3.5 -52v-36h383v30q0 100 20 165t62 103.5t107 54 t155 15.5q73 0 118 -6t69.5 -20.5t33 -38.5t8.5 -60q0 -52 -33.5 -79t-84.5 -27q-28 0 -52.5 3t-58.5 3q-29 0 -46.5 -5t-28 -17t-14 -33t-3.5 -52v-36h139q57 0 80 -33t23 -84t-23 -84t-80 -33h-139v-680q0 -57 -36.5 -81.5t-90.5 -24.5q-26 0 -49 6t-40 18.5t-26.5 32.5 t-9.5 49v680h-383v-680q0 -57 -36.5 -81.5t-90.5 -24.5q-26 0 -49 6t-40 18.5t-26.5 32.5t-9.5 49v680h-70q-55 0 -77.5 33t-22.5 84zM1444 90v1174q0 28 10.5 48.5t28 33.5t41 19.5t49.5 6.5q54 0 91.5 -26t37.5 -82v-1174q0 -57 -37.5 -81.5t-91.5 -24.5q-26 0 -49.5 6 t-41 18.5t-28 32.5t-10.5 49z" />
<glyph unicode="fb" horiz-adv-x="1833" d="M6 887q0 50 22.5 83.5t77.5 33.5h70v30q0 100 20 165t62 103.5t107 54t155 15.5q73 0 118 -6t70 -20.5t33.5 -38.5t8.5 -60q0 -52 -34 -79t-85 -27q-28 0 -52.5 3t-58.5 3q-29 0 -46.5 -5t-28 -17t-14 -33t-3.5 -52v-36h139q57 0 80 -33t23 -84t-23 -84t-80 -33h-139 v-680q0 -57 -36.5 -81.5t-90.5 -24.5q-26 0 -49 6t-40 18.5t-26.5 32.5t-9.5 49v680h-70q-55 0 -77.5 33t-22.5 84zM817 500v768q0 27 11 47t29 32.5t41.5 18.5t49.5 6t49 -6t40.5 -18.5t27.5 -32.5t10 -47v-271q42 13 94.5 20t112.5 7q120 0 205 -21t139.5 -78.5t79.5 -159 t25 -261.5q0 -163 -24.5 -265t-78.5 -159.5t-140 -78.5t-208 -21q-81 0 -147 7.5t-117 28t-89 57t-62 94t-36 139.5t-12 194zM1073 504q0 -100 10 -159t34 -89.5t64 -39.5t99 -9q55 0 92.5 8t61 38t33.5 89.5t10 161.5q0 96 -12 154t-36 88.5t-61 40.5t-88 10 q-54 0 -93.5 -7.5t-64.5 -36.5t-37 -87.5t-12 -161.5z" />
<glyph unicode="fh" horiz-adv-x="1815" d="M6 887q0 50 22.5 83.5t77.5 33.5h70v30q0 100 20 165t62 103.5t107 54t155 15.5q73 0 118 -6t70 -20.5t33.5 -38.5t8.5 -60q0 -52 -34 -79t-85 -27q-28 0 -52.5 3t-58.5 3q-29 0 -46.5 -5t-28 -17t-14 -33t-3.5 -52v-36h139q57 0 80 -33t23 -84t-23 -84t-80 -33h-139 v-680q0 -57 -36.5 -81.5t-90.5 -24.5q-26 0 -49 6t-40 18.5t-26.5 32.5t-9.5 49v680h-70q-55 0 -77.5 33t-22.5 84zM813 90v1174q0 28 10.5 48.5t28 33.5t41 19.5t49.5 6.5q54 0 91.5 -26t37.5 -82v-263q42 10 90 16.5t101 6.5q114 0 192.5 -14t126.5 -59t69 -130.5 t21 -228.5v-502q0 -29 -10 -49t-27.5 -32.5t-40.5 -18.5t-49 -6t-48.5 6t-39.5 18.5t-27 32.5t-10 49v490q0 70 -5.5 112.5t-23.5 65.5t-53.5 31t-95.5 8q-49 0 -93.5 -6.5t-76.5 -14.5v-686q0 -57 -37.5 -81.5t-91.5 -24.5q-26 0 -49.5 6t-41 18.5t-28 32.5t-10.5 49z" />
<glyph unicode="fj" horiz-adv-x="1210" d="M6 887q0 50 22.5 83.5t77.5 33.5h70v30q0 100 20 165t62 103.5t107 54t155 15.5q73 0 118 -6t70 -20.5t33.5 -38.5t8.5 -60q0 -52 -34 -79t-85 -27q-28 0 -52.5 3t-58.5 3q-29 0 -46.5 -5t-28 -17t-14 -33t-3.5 -52v-36h139q57 0 80 -33t23 -84t-23 -84t-80 -33h-139 v-680q0 -57 -36.5 -81.5t-90.5 -24.5q-26 0 -49 6t-40 18.5t-26.5 32.5t-9.5 49v680h-70q-55 0 -77.5 33t-22.5 84zM616 -276q0 24 5.5 45.5t17.5 37.5t31 25.5t47 9.5q24 0 41.5 5t29 17.5t16.5 33.5t5 53v944q0 58 36.5 83.5t90.5 25.5q26 0 50 -6t42 -19t28.5 -34 t10.5 -50v-954q0 -71 -12 -133t-44 -108t-89 -72.5t-148 -26.5q-38 0 -67 5.5t-49.5 19.5t-31 38t-10.5 60zM797 1227q0 30 11 56.5t29.5 46t44.5 31t56 11.5t56.5 -11.5t46 -31t31 -46t11.5 -56.5t-11.5 -56.5t-31 -46t-46 -30.5t-56.5 -11t-56 11t-44.5 30.5t-29.5 46 t-11 56.5z" />
<glyph unicode="fk" horiz-adv-x="1686" d="M6 887q0 50 22.5 83.5t77.5 33.5h70v30q0 100 20 165t62 103.5t107 54t155 15.5q73 0 118 -6t70 -20.5t33.5 -38.5t8.5 -60q0 -52 -34 -79t-85 -27q-28 0 -52.5 3t-58.5 3q-29 0 -46.5 -5t-28 -17t-14 -33t-3.5 -52v-36h139q57 0 80 -33t23 -84t-23 -84t-80 -33h-139 v-680q0 -57 -36.5 -81.5t-90.5 -24.5q-26 0 -49 6t-40 18.5t-26.5 32.5t-9.5 49v680h-70q-55 0 -77.5 33t-22.5 84zM809 90v1174q0 28 10.5 48.5t28 33.5t41 19.5t49.5 6.5q54 0 91.5 -26t37.5 -82v-664h4l336 373q22 25 47 35t51 10q36 0 67.5 -19t45.5 -49.5t5.5 -70.5 t-52.5 -82l-201 -195l266 -409q27 -42 28 -79.5t-15.5 -66t-45.5 -45.5t-62 -19t-65.5 13.5t-54.5 52.5l-237 395l-117 -108v-246q0 -57 -37.5 -81.5t-91.5 -24.5q-26 0 -49.5 6t-41 18.5t-28 32.5t-10.5 49z" />
<glyph unicode="ffb" horiz-adv-x="2468" d="M6 887q0 50 22.5 83.5t77.5 33.5h70v30q0 100 20 165t62 103.5t107 54t155 15.5q73 0 116 -6t65 -20.5t28 -38.5t6 -60q0 -52 -34 -79t-85 -27q-14 0 -24 1t-20.5 2t-22.5 2t-29 1q-29 0 -46.5 -5t-28 -17t-14 -33t-3.5 -52v-36h383v30q0 100 20 165t62 103.5t107 54 t155 15.5q73 0 118 -6t69.5 -20.5t33 -38.5t8.5 -60q0 -52 -33.5 -79t-84.5 -27q-28 0 -52.5 3t-58.5 3q-29 0 -46.5 -5t-28 -17t-14 -33t-3.5 -52v-36h139q57 0 80 -33t23 -84t-23 -84t-80 -33h-139v-680q0 -57 -36.5 -81.5t-90.5 -24.5q-26 0 -49 6t-40 18.5t-26.5 32.5 t-9.5 49v680h-383v-680q0 -57 -36.5 -81.5t-90.5 -24.5q-26 0 -49 6t-40 18.5t-26.5 32.5t-9.5 49v680h-70q-55 0 -77.5 33t-22.5 84zM1452 500v768q0 27 10.5 47t28.5 32.5t42 18.5t50 6t49 -6t40.5 -18.5t27.5 -32.5t10 -47v-271q42 13 94.5 20t112.5 7q120 0 205 -21 t139 -78.5t79 -159t25 -261.5q0 -163 -24.5 -265t-78.5 -159.5t-139.5 -78.5t-207.5 -21q-81 0 -147 7.5t-117 28t-89 57t-62 94t-36 139.5t-12 194zM1708 504q0 -100 10 -159t34 -89.5t64 -39.5t99 -9q55 0 92.5 8t60.5 38t33 89.5t10 161.5q0 96 -11.5 154t-35.5 88.5 t-61 40.5t-88 10q-55 0 -94 -7.5t-64 -36.5t-37 -87.5t-12 -161.5z" />
<glyph unicode="ffh" horiz-adv-x="2449" d="M6 887q0 50 22.5 83.5t77.5 33.5h70v30q0 100 20 165t62 103.5t107 54t155 15.5q73 0 116 -6t65 -20.5t28 -38.5t6 -60q0 -52 -34 -79t-85 -27q-14 0 -24 1t-20.5 2t-22.5 2t-29 1q-29 0 -46.5 -5t-28 -17t-14 -33t-3.5 -52v-36h383v30q0 100 20 165t62 103.5t107 54 t155 15.5q73 0 118 -6t69.5 -20.5t33 -38.5t8.5 -60q0 -52 -33.5 -79t-84.5 -27q-28 0 -52.5 3t-58.5 3q-29 0 -46.5 -5t-28 -17t-14 -33t-3.5 -52v-36h139q57 0 80 -33t23 -84t-23 -84t-80 -33h-139v-680q0 -57 -36.5 -81.5t-90.5 -24.5q-26 0 -49 6t-40 18.5t-26.5 32.5 t-9.5 49v680h-383v-680q0 -57 -36.5 -81.5t-90.5 -24.5q-26 0 -49 6t-40 18.5t-26.5 32.5t-9.5 49v680h-70q-55 0 -77.5 33t-22.5 84zM1448 90v1174q0 28 10.5 48.5t28 33.5t41 19.5t49.5 6.5q54 0 91.5 -26t37.5 -82v-263q42 10 90 16.5t100 6.5q115 0 193.5 -14t126.5 -59 t69 -130.5t21 -228.5v-502q0 -29 -10 -49t-27.5 -32.5t-40.5 -18.5t-49 -6t-49 6t-40 18.5t-26.5 32.5t-9.5 49v490q0 70 -5.5 112.5t-23.5 65.5t-53.5 31t-95.5 8q-50 0 -94 -6.5t-76 -14.5v-686q0 -57 -37.5 -81.5t-91.5 -24.5q-26 0 -49.5 6t-41 18.5t-28 32.5t-10.5 49z " />
<glyph unicode="ffj" horiz-adv-x="1845" d="M6 887q0 50 22.5 83.5t77.5 33.5h70v30q0 100 20 165t62 103.5t107 54t155 15.5q73 0 116 -6t65 -20.5t28 -38.5t6 -60q0 -52 -34 -79t-85 -27q-14 0 -24 1t-20.5 2t-22.5 2t-29 1q-29 0 -46.5 -5t-28 -17t-14 -33t-3.5 -52v-36h383v30q0 100 20 165t62 103.5t107 54 t155 15.5q73 0 118 -6t69.5 -20.5t33 -38.5t8.5 -60q0 -52 -33.5 -79t-84.5 -27q-28 0 -52.5 3t-58.5 3q-29 0 -46.5 -5t-28 -17t-14 -33t-3.5 -52v-36h139q57 0 80 -33t23 -84t-23 -84t-80 -33h-139v-680q0 -57 -36.5 -81.5t-90.5 -24.5q-26 0 -49 6t-40 18.5t-26.5 32.5 t-9.5 49v680h-383v-680q0 -57 -36.5 -81.5t-90.5 -24.5q-26 0 -49 6t-40 18.5t-26.5 32.5t-9.5 49v680h-70q-55 0 -77.5 33t-22.5 84zM1251 -276q0 24 5.5 45.5t17.5 37.5t31 25.5t47 9.5q24 0 41.5 5t29 17.5t16.5 33.5t5 53v944q0 58 36.5 83.5t90.5 25.5q26 0 49.5 -6 t41.5 -19t29 -34t11 -50v-954q0 -71 -12 -133t-44 -108t-89 -72.5t-148 -26.5q-38 0 -67 5.5t-49.5 19.5t-31 38t-10.5 60zM1432 1227q0 30 11 56.5t29.5 46t44.5 31t56 11.5t56.5 -11.5t46 -31t31 -46t11.5 -56.5t-11.5 -56.5t-31 -46t-46 -30.5t-56.5 -11t-56 11 t-44.5 30.5t-29.5 46t-11 56.5z" />
<glyph unicode="ffk" horiz-adv-x="2320" d="M6 887q0 50 22.5 83.5t77.5 33.5h70v30q0 100 20 165t62 103.5t107 54t155 15.5q73 0 116 -6t65 -20.5t28 -38.5t6 -60q0 -52 -34 -79t-85 -27q-14 0 -24 1t-20.5 2t-22.5 2t-29 1q-29 0 -46.5 -5t-28 -17t-14 -33t-3.5 -52v-36h383v30q0 100 20 165t62 103.5t107 54 t155 15.5q73 0 118 -6t69.5 -20.5t33 -38.5t8.5 -60q0 -52 -33.5 -79t-84.5 -27q-28 0 -52.5 3t-58.5 3q-29 0 -46.5 -5t-28 -17t-14 -33t-3.5 -52v-36h139q57 0 80 -33t23 -84t-23 -84t-80 -33h-139v-680q0 -57 -36.5 -81.5t-90.5 -24.5q-26 0 -49 6t-40 18.5t-26.5 32.5 t-9.5 49v680h-383v-680q0 -57 -36.5 -81.5t-90.5 -24.5q-26 0 -49 6t-40 18.5t-26.5 32.5t-9.5 49v680h-70q-55 0 -77.5 33t-22.5 84zM1444 90v1174q0 28 10.5 48.5t28 33.5t41 19.5t49.5 6.5q54 0 91.5 -26t37.5 -82v-664h4l336 373q22 25 47 35t51 10q36 0 67 -19 t45.5 -49.5t5.5 -70.5t-52 -82l-201 -195l266 -409q27 -42 28 -79.5t-15.5 -66t-45.5 -45.5t-62 -19t-65.5 13.5t-54.5 52.5l-237 395l-117 -108v-246q0 -57 -37.5 -81.5t-91.5 -24.5q-26 0 -49.5 6t-41 18.5t-28 32.5t-10.5 49z" />
<glyph unicode="ft" horiz-adv-x="1407" d="M6 887q0 50 22.5 83.5t77.5 33.5h70v30q0 100 20 165t62 103.5t107 54t155 15.5q73 0 118 -6t70 -20.5t33.5 -38.5t8.5 -60q0 -52 -34 -79t-85 -27q-28 0 -52.5 3t-58.5 3q-29 0 -46.5 -5t-28 -17t-14 -33t-3.5 -52v-36h139q57 0 80 -33t23 -84t-23 -84t-80 -33h-139 v-680q0 -57 -36.5 -81.5t-90.5 -24.5q-26 0 -49 6t-40 18.5t-26.5 32.5t-9.5 49v680h-70q-55 0 -77.5 33t-22.5 84zM690 887q0 49 22.5 83t75.5 34h72v161q0 28 10 47.5t27.5 32.5t40 19t47.5 6q54 0 91.5 -25t37.5 -80v-161h172q27 0 44.5 -9t28 -25t15 -37.5t4.5 -45.5 q0 -51 -19 -84t-73 -33h-172v-502q0 -35 17 -48t45 -13q27 0 54.5 3t59.5 3q51 0 73.5 -25.5t22.5 -74.5q0 -36 -13 -61t-42 -41t-76.5 -23.5t-117.5 -7.5q-73 0 -125.5 12t-86 43.5t-49.5 86t-16 140.5v508h-72q-53 0 -75.5 33t-22.5 84z" />
<glyph horiz-adv-x="0" />
<glyph horiz-adv-x="0" />
<glyph unicode=" "  horiz-adv-x="451" />
<glyph unicode="&#x09;" horiz-adv-x="451" />
<glyph unicode="&#xa0;" horiz-adv-x="451" />
<glyph unicode="!" horiz-adv-x="580" d="M133 141q0 33 11.5 62t32.5 51t49.5 34.5t62.5 12.5q33 0 61.5 -12.5t50 -34.5t33.5 -51t12 -62q0 -35 -12 -63.5t-33.5 -49.5t-50 -32.5t-61.5 -11.5q-34 0 -62.5 11.5t-49.5 32.5t-32.5 49.5t-11.5 63.5zM137 1223q-2 32 10.5 56.5t35 40.5t52 24t60.5 8q29 0 57 -8 t49.5 -23.5t33.5 -40t9 -57.5l-51 -744q-2 -21 -11.5 -37.5t-24 -27t-32.5 -16t-36 -5.5q-37 0 -67 20.5t-34 65.5z" />
<glyph unicode="&#x22;" horiz-adv-x="840" d="M88 1235q-5 38 15.5 63.5t52.5 39t70.5 14t70.5 -12t52 -38.5t16 -66l-46 -397q-3 -26 -17 -43.5t-33.5 -26t-41.5 -9t-41.5 8t-33.5 26t-17 44.5zM477 1235q-4 38 16 63.5t52 39t70.5 14t70.5 -12t52 -38.5t16 -66l-45 -397q-5 -39 -32.5 -58.5t-60 -20t-60 19 t-32.5 59.5z" />
<glyph unicode="#" horiz-adv-x="1147" d="M55 442q0 48 24 82.5t75 34.5h79v213h-79q-51 0 -75 34.5t-24 82.5q0 24 6 45t18 37t30.5 25.5t44.5 9.5h79v243q0 25 9.5 44t25.5 31t37 18t45 6q48 0 82.5 -24t34.5 -75v-243h213v243q0 51 34.5 75t82.5 24q24 0 45 -6t36.5 -18t25 -31t9.5 -44v-243h82q25 0 43.5 -9.5 t30.5 -25.5t17.5 -37t5.5 -45q0 -48 -23 -82.5t-74 -34.5h-82v-213h82q51 0 74 -34.5t23 -82.5q0 -24 -5.5 -45t-17.5 -36.5t-30.5 -25t-43.5 -9.5h-82v-246q0 -26 -9.5 -44t-25 -29.5t-36.5 -17t-45 -5.5q-48 0 -82.5 22.5t-34.5 73.5v246h-213v-246q0 -51 -34.5 -73.5 t-82.5 -22.5q-24 0 -45 5.5t-37 17t-25.5 29.5t-9.5 44v246h-79q-26 0 -44.5 9.5t-30.5 25t-18 36.5t-6 45zM467 559h213v213h-213v-213z" />
<glyph unicode="$" horiz-adv-x="1147" d="M90 961q0 175 96 266t275 114v76q0 45 30.5 66.5t73.5 21.5q44 0 74.5 -21.5t30.5 -66.5v-67q76 -2 133.5 -9.5t96 -24t58 -43.5t19.5 -67q0 -54 -31.5 -85t-81.5 -31q-48 0 -95.5 9t-98.5 15v-336q68 -11 135 -30t120 -58t86 -104.5t33 -169.5q0 -188 -89.5 -294 t-284.5 -132v-129q0 -45 -30.5 -65.5t-74.5 -20.5q-43 0 -73.5 20.5t-30.5 65.5v119q-78 2 -144.5 10.5t-114.5 26.5t-75 48.5t-27 77.5q0 50 26.5 84.5t76.5 34.5q27 0 58.5 -4t64.5 -9.5t67 -11.5t68 -10v320q-45 8 -90.5 19.5t-86.5 31.5t-76.5 49.5t-61.5 73t-41 102.5 t-15 138zM348 971q0 -122 113 -148v285q-29 -6 -50.5 -20t-35.5 -32.5t-20.5 -40.5t-6.5 -44zM670 225q32 4 54.5 17.5t36.5 34.5t20.5 48t6.5 58q0 56 -26.5 88.5t-91.5 46.5v-293z" />
<glyph unicode="%" horiz-adv-x="1726" d="M82 969q0 111 19.5 181t60 110.5t102.5 55.5t146 15q83 0 145 -15t103.5 -55.5t62 -110.5t20.5 -181t-20.5 -180t-62 -107t-103.5 -51t-145 -13q-84 0 -146 13t-102.5 51t-60 107t-19.5 180zM293 971q0 -59 6.5 -93t20.5 -51.5t36 -22.5t54 -5q31 0 54 5t37.5 22.5 t21.5 51.5t7 93q0 60 -7 95.5t-21.5 54t-37.5 24.5t-54 6q-32 0 -54 -6t-36 -24.5t-20.5 -54t-6.5 -95.5zM428 66q0 17 12 43l674 1202q12 21 30.5 31t37.5 10q17 0 35 -7t33 -19t24.5 -28t9.5 -34q0 -19 -12 -43l-674 -1203q-12 -21 -31 -29.5t-39 -8.5q-21 0 -39 7.5 t-31.5 20t-21.5 28t-8 30.5zM985 350q0 111 20 181.5t60.5 111t102 55.5t145.5 15q83 0 145 -15t103.5 -55.5t62.5 -111t21 -181.5t-21 -180t-62.5 -106.5t-103.5 -50.5t-145 -13q-84 0 -145.5 13t-102 50.5t-60.5 106.5t-20 180zM1196 352q0 -58 6.5 -92t20.5 -52t36 -23 t54 -5q31 0 54 5t38 23t22 52t7 92q0 60 -7 95.5t-22 54.5t-38 24.5t-54 5.5q-32 0 -54 -5.5t-36 -24.5t-20.5 -54.5t-6.5 -95.5z" />
<glyph unicode="&#x26;" horiz-adv-x="1436" d="M123 416q0 54 10.5 96.5t29.5 76t44.5 58t54.5 41.5v6q-19 18 -37.5 44.5t-32.5 59t-23 69.5t-9 77q0 118 22.5 193.5t73.5 118.5t132.5 59t199.5 16h373q27 0 46 -9.5t31 -25.5t17.5 -37.5t5.5 -46.5q0 -50 -22.5 -84t-77.5 -34h-363q-52 0 -86.5 -5t-55.5 -21 t-29.5 -46t-8.5 -80q0 -48 10 -77.5t33.5 -46t63.5 -22t100 -5.5h211v81q0 28 10 48.5t27 33.5t40.5 19t49.5 6q52 0 88 -25t36 -82v-81h183q27 0 46 -9t31 -25t17.5 -38t5.5 -47q0 -50 -23.5 -83.5t-76.5 -33.5h-183v-283q0 -18 11 -26t20 -8h152q27 0 46 -9.5t31 -25.5 t17.5 -38t5.5 -46q0 -50 -23.5 -84.5t-76.5 -34.5h-103q-58 0 -107 10.5t-87 36.5q-23 -15 -45 -24.5t-50.5 -14.5t-65.5 -6.5t-89 -1.5h-199q-85 0 -148 7.5t-107.5 25.5t-72.5 48.5t-44.5 76.5t-22.5 109.5t-6 148.5zM381 420q0 -58 8 -93.5t31 -55t63 -26.5t105 -7h80 q46 0 78 1t52 6t29 14.5t9 27.5v268h-201q-63 0 -110.5 -2.5t-79.5 -15t-48 -40t-16 -77.5z" />
<glyph unicode="'" horiz-adv-x="451" d="M88 1235q-5 38 15.5 63.5t52.5 39t70.5 14t70.5 -12t52 -38.5t16 -66l-46 -397q-3 -26 -17 -43.5t-33.5 -26t-41.5 -9t-41.5 8t-33.5 26t-17 44.5z" />
<glyph unicode="(" horiz-adv-x="586" d="M76 524q0 148 18 277.5t48 237t69.5 191.5t83.5 142t88.5 88.5t85.5 30.5q19 0 37.5 -7t32.5 -20t23 -32t9 -43q0 -32 -15 -62.5t-32 -56.5q-24 -38 -56 -101t-61.5 -155t-50 -215t-20.5 -281q0 -150 18.5 -265.5t45 -200t56 -140.5t50.5 -86q12 -16 23 -30t20 -28 t14.5 -29.5t5.5 -33.5q0 -23 -8.5 -42t-23.5 -33t-34.5 -21.5t-41.5 -7.5q-42 0 -86.5 28t-87 82t-81 133t-67.5 181.5t-46 227.5t-17 271z" />
<glyph unicode=")" horiz-adv-x="586" d="M14 1389q0 24 9 43t23.5 32t33 20t37.5 7q40 0 85 -30.5t89 -88.5t83.5 -142t69.5 -191.5t48 -237t18 -277.5q0 -146 -17 -271t-46 -227.5t-67.5 -181.5t-81 -133t-87.5 -82t-86 -28q-22 0 -42 7.5t-35 21.5t-23.5 33t-8.5 42q0 18 5.5 33.5t14.5 29.5t20.5 28t23.5 30 q21 30 50.5 86t56 140.5t45 200t18.5 265.5q0 158 -20.5 281t-50 215t-62 155t-56.5 101q-17 26 -32 56.5t-15 62.5z" />
<glyph unicode="*" horiz-adv-x="928" d="M102 1061q0 21 8 42t21.5 35.5t32 21t39.5 -0.5l174 -61v196q0 39 25 55.5t63 16.5q35 0 60.5 -16.5t25.5 -55.5v-196l129 51q15 6 31 10t34 4t32.5 -9t25 -23.5t16.5 -33t6 -36.5q0 -20 -11.5 -39t-33.5 -27l-180 -61l107 -154q11 -15 14.5 -27t3.5 -20q0 -16 -10 -32 t-25 -29t-32.5 -21t-32.5 -8q-17 0 -33.5 9.5t-26.5 23.5l-102 151l-101 -151q-18 -31 -61 -31q-14 0 -31.5 7.5t-32.5 20.5t-25.5 29t-10.5 33q0 11 5 22.5t11 20.5l111 156l-178 59q-26 10 -37 26.5t-11 41.5z" />
<glyph unicode="+" horiz-adv-x="1147" d="M127 688q0 48 23 81.5t73 33.5h234v272q0 25 9 44t24.5 31t36 18t44.5 6q48 0 82.5 -24t34.5 -75v-272h234q51 0 74.5 -33.5t23.5 -81.5q0 -24 -6 -45t-18 -37t-30.5 -25.5t-43.5 -9.5h-234v-276q0 -51 -34.5 -73.5t-82.5 -22.5q-24 0 -44.5 5.5t-36 17t-24.5 29.5t-9 44 v276h-234q-25 0 -43 9.5t-30 25.5t-17.5 37t-5.5 45z" />
<glyph unicode="," horiz-adv-x="451" d="M23 -211q0 8 1 18t3 15l86 352q9 39 24 65t34 41.5t42 22t47 6.5q46 0 73 -18t38 -47t6.5 -65.5t-21.5 -74.5l-151 -340q-6 -11 -15 -22.5t-21.5 -21t-27 -15.5t-30.5 -6q-19 0 -35 7.5t-28 20.5t-18.5 29t-6.5 33z" />
<glyph unicode="-" horiz-adv-x="655" d="M41 553q0 24 5.5 44.5t17.5 36.5t30.5 25t44.5 9h375q26 0 45 -9t31 -25t18 -36.5t6 -44.5q0 -48 -24 -82.5t-76 -34.5h-375q-26 0 -44.5 9.5t-30.5 25t-17.5 37t-5.5 45.5z" />
<glyph unicode="." horiz-adv-x="451" d="M68 141q0 33 11.5 62t32 51t49 34.5t62.5 12.5q33 0 62 -12.5t50 -34.5t33.5 -51t12.5 -62q0 -35 -12.5 -63.5t-33.5 -49.5t-50 -32.5t-62 -11.5q-34 0 -62.5 11.5t-49 32.5t-32 49.5t-11.5 63.5z" />
<glyph unicode="/" horiz-adv-x="918" d="M4 4q0 19 12 43l727 1323q13 22 31 31.5t37 9.5q17 0 35 -7t33 -19t24.5 -28t9.5 -34q0 -19 -12 -43l-727 -1323q-12 -22 -31 -30.5t-39 -8.5q-21 0 -39 7.5t-31.5 20t-21.5 28t-8 30.5z" />
<glyph unicode="0" horiz-adv-x="1147" d="M106 653q0 204 23 338.5t76 214.5t141 113t219 33q132 0 223 -33t147 -113t80.5 -214.5t24.5 -338.5q0 -136 -10.5 -238.5t-34 -177.5t-60.5 -124.5t-90 -79t-122.5 -41.5t-157.5 -12q-87 0 -155 12t-119 41.5t-86 79t-57 124.5t-32 177.5t-10 238.5zM360 659 q0 -136 8.5 -223.5t31 -138.5t62.5 -70.5t103 -19.5t104 17t64.5 65.5t33 137t9.5 232.5q0 146 -9.5 237t-33 141.5t-64.5 68.5t-104 18t-103 -18t-62.5 -68.5t-31 -141.5t-8.5 -237z" />
<glyph unicode="1" horiz-adv-x="1147" d="M147 119q0 24 5.5 46t17.5 38t31 25.5t47 9.5h219v854h-219q-28 0 -47 9.5t-31 25.5t-17.5 37.5t-5.5 45.5q0 25 5.5 47t17.5 38.5t31 26t47 9.5h370q27 0 46 -9.5t31.5 -26t18 -38.5t5.5 -47v-972h219q28 0 47.5 -9.5t31.5 -25.5t17.5 -38t5.5 -46q0 -25 -5.5 -46.5 t-17.5 -37.5t-31.5 -25.5t-47.5 -9.5h-690q-28 0 -47 9.5t-31 25.5t-17.5 37.5t-5.5 46.5z" />
<glyph unicode="2" horiz-adv-x="1147" d="M129 106v142q0 69 14 122.5t44 96t77 76.5t113 65l184 84q47 22 78 44t50 49t26.5 62t7.5 83q0 53 -10.5 89.5t-35 59.5t-63.5 33t-96 10q-38 0 -72.5 -3.5t-69 -7.5t-70.5 -7.5t-77 -3.5q-55 0 -77.5 29.5t-22.5 78.5q0 45 23 75t65 42q12 4 35.5 8.5t61 8.5t91 7 t127.5 3q121 0 207.5 -19.5t141.5 -67.5t80.5 -129.5t25.5 -205.5q0 -100 -19 -168.5t-57.5 -119t-97 -88t-137.5 -75.5l-146 -69q-46 -23 -74.5 -40.5t-44 -34t-21 -32.5t-5.5 -35v-30h522q55 0 79 -35t24 -84q0 -50 -24 -84.5t-79 -34.5h-653q-53 0 -89 25t-36 81z" />
<glyph unicode="3" horiz-adv-x="1147" d="M119 145q0 51 27.5 84t76.5 33q39 0 78 -6.5t79 -14t80.5 -14t82.5 -6.5q61 0 108.5 10t80.5 31.5t50 55t17 81.5q0 46 -12.5 78.5t-39.5 52.5t-70 29.5t-104 9.5h-186q-29 0 -48.5 9t-32 25t-18 38t-5.5 47q0 51 23.5 85t80.5 34h186q49 0 85.5 8t59.5 26.5t34.5 50 t11.5 79.5t-19 78t-51.5 46t-76 21.5t-91.5 5.5q-38 0 -72.5 -3.5t-69 -7.5t-70.5 -7.5t-76 -3.5q-56 0 -78.5 29.5t-22.5 78.5q0 45 23 75t65 42q12 4 35.5 8.5t61 8.5t91.5 7t128 3q111 0 200.5 -19.5t151.5 -62.5t95.5 -110.5t33.5 -164.5q0 -62 -10.5 -105.5t-29 -75.5 t-43 -55t-52.5 -44v-13q37 -21 68 -46t52.5 -59.5t33.5 -83.5t12 -118q0 -122 -38.5 -202t-105.5 -127.5t-157 -66.5t-193 -19q-90 0 -170 6.5t-140 24.5t-95 50.5t-35 83.5z" />
<glyph unicode="4" horiz-adv-x="1147" d="M23 408q0 27 12 57.5t31 56.5l561 776q21 31 53 42.5t63 11.5q25 0 48 -6.5t40 -19.5t27 -34t10 -49v-723h78q57 0 83 -32.5t26 -86.5t-26 -86t-83 -32h-78v-193q0 -57 -34.5 -81.5t-88.5 -24.5t-87 24.5t-33 81.5v193h-478q-27 0 -49.5 10t-39 27.5t-26 40t-9.5 47.5z M340 520h285v393h-4z" />
<glyph unicode="5" horiz-adv-x="1147" d="M100 145q0 51 27.5 84t77.5 33q38 0 77.5 -6.5t79 -14t80.5 -14t82 -6.5q122 0 189 50.5t67 146.5t-55.5 150.5t-155.5 54.5q-62 0 -104 -9.5t-75 -20.5t-62 -20.5t-66 -9.5q-57 0 -93 26.5t-36 82.5v553q0 56 36 81t89 25h616q28 0 47 -9.5t31 -25.5t17.5 -37.5 t5.5 -46.5q0 -49 -23 -83.5t-78 -34.5h-489v-279h4q21 7 42.5 13.5t48.5 12t61.5 8.5t79.5 3q101 0 178.5 -22t129.5 -71.5t78.5 -130.5t26.5 -198q0 -131 -41 -217.5t-111.5 -138t-164.5 -73t-201 -21.5q-90 0 -166.5 6.5t-132 24.5t-86.5 50.5t-31 83.5z" />
<glyph unicode="6" horiz-adv-x="1147" d="M109 424q0 143 39.5 271.5t110 242.5t168 212.5t214.5 182.5q16 11 34 15t34 4q57 0 91 -32t34 -89q0 -17 -5.5 -33.5t-14 -31t-19 -26t-19.5 -18.5q-88 -66 -165.5 -142t-131.5 -161l4 -4q15 5 33.5 10t39 8.5t40 6t35.5 2.5q105 0 185.5 -17t134.5 -62.5t82 -126.5 t28 -208q0 -105 -23.5 -188.5t-78.5 -141t-146 -88t-227 -30.5q-128 0 -218.5 28t-148 83.5t-84 138.5t-26.5 194zM373 410q0 -43 9 -80t32.5 -64.5t64.5 -43t105 -15.5q67 0 110 14.5t67 42t33 67.5t9 91q0 55 -8.5 93.5t-31.5 62.5t-65.5 34.5t-109.5 10.5q-47 0 -99.5 -4 t-91.5 -9q-24 -95 -24 -200z" />
<glyph unicode="7" horiz-adv-x="1147" d="M78 1212q0 25 5 46.5t16.5 37.5t30 25.5t46.5 9.5h744q18 0 37.5 -6.5t35.5 -20t26.5 -34.5t10.5 -51q0 -20 -7 -47t-19 -56l-437 -1044q-20 -47 -56.5 -68.5t-74.5 -21.5q-24 0 -47 8t-41 22.5t-28.5 35.5t-10.5 48q0 16 3.5 31.5t11.5 34.5l409 932h-557 q-28 0 -46.5 9.5t-30 25.5t-16.5 37.5t-5 45.5z" />
<glyph unicode="8" horiz-adv-x="1147" d="M94 371q0 69 14 121.5t37.5 91.5t53 66.5t61.5 47.5v13q-24 18 -48.5 41t-43.5 55t-31 76t-12 106q0 97 28 165.5t84.5 112.5t140.5 64.5t195 20.5t195.5 -20.5t140.5 -64.5t84.5 -112.5t28.5 -165.5q0 -62 -10.5 -105t-29 -74.5t-43 -54.5t-52.5 -44v-13 q37 -27 68 -55.5t52.5 -66t33.5 -87t12 -118.5q0 -122 -36.5 -198.5t-100.5 -119.5t-152 -58t-191 -15t-190.5 15t-151.5 58t-100.5 119.5t-36.5 198.5zM348 391q0 -96 52 -140t173 -44t173.5 44.5t52.5 139.5q0 92 -51.5 135t-174.5 43q-122 0 -173.5 -43t-51.5 -135z M383 952q0 -48 11.5 -79t34.5 -49t59 -25.5t85 -7.5t85.5 7.5t59.5 25.5t34.5 49t11.5 79t-11.5 81t-35.5 53.5t-60 29t-84 8.5t-84 -8.5t-59.5 -29t-35 -53.5t-11.5 -81z" />
<glyph unicode="9" horiz-adv-x="1147" d="M88 903q0 105 23.5 188.5t78.5 141.5t146 88.5t227 30.5q128 0 218.5 -28t148 -84t84 -139t26.5 -194q0 -143 -39.5 -271.5t-110 -242.5t-168 -212.5t-214.5 -182.5q-16 -11 -34 -14.5t-34 -3.5q-57 0 -91 31.5t-34 88.5q0 17 5.5 33.5t14 31t19 26t19.5 18.5 q86 65 162.5 140.5t130.5 160.5h-7q-26 -6 -66.5 -13.5t-94.5 -7.5q-98 0 -174 17t-128.5 62.5t-80 126t-27.5 208.5zM346 909q0 -55 8.5 -93t31.5 -62t65 -34.5t110 -10.5q22 0 47.5 1t51 2.5t49 4t43.5 4.5q24 91 24 201q0 43 -9 80t-32.5 64t-64.5 42.5t-105 15.5 q-68 0 -110.5 -14t-66.5 -41.5t-33 -67.5t-9 -92z" />
<glyph unicode=":" horiz-adv-x="451" d="M68 141q0 33 11.5 62t32 51t49 34.5t62.5 12.5q33 0 62 -12.5t50 -34.5t33.5 -51t12.5 -62q0 -35 -12.5 -63.5t-33.5 -49.5t-50 -32.5t-62 -11.5q-34 0 -62.5 11.5t-49 32.5t-32 49.5t-11.5 63.5zM68 856q0 33 11.5 62t32 51t49 34.5t62.5 12.5q33 0 62 -12.5t50 -34.5 t33.5 -51t12.5 -62q0 -35 -12.5 -64t-33.5 -50t-50 -32.5t-62 -11.5q-34 0 -62.5 11.5t-49 32.5t-32 50t-11.5 64z" />
<glyph unicode=";" horiz-adv-x="451" d="M23 -211q0 8 1 18t3 15l86 352q9 39 24 65t34 41.5t42 22t47 6.5q46 0 73 -18t38 -47t6.5 -65.5t-21.5 -74.5l-151 -340q-6 -11 -15 -22.5t-21.5 -21t-27 -15.5t-30.5 -6q-19 0 -35 7.5t-28 20.5t-18.5 29t-6.5 33zM68 856q0 33 11.5 62t32 51t49 34.5t62.5 12.5 q33 0 62 -12.5t50 -34.5t33.5 -51t12.5 -62q0 -35 -12.5 -64t-33.5 -50t-50 -32.5t-62 -11.5q-34 0 -62.5 11.5t-49 32.5t-32 50t-11.5 64z" />
<glyph unicode="&#x3c;" horiz-adv-x="1147" d="M127 686q0 57 35.5 100t89.5 68l622 279q33 14 61 10.5t48.5 -19.5t32.5 -40t12 -50q0 -29 -17.5 -57t-56.5 -45l-577 -244v-4l577 -244q41 -17 57.5 -45t16.5 -57q0 -26 -12 -50t-32.5 -39.5t-48.5 -19.5t-61 11l-622 278q-54 25 -89.5 68t-35.5 100z" />
<glyph unicode="=" horiz-adv-x="1147" d="M127 483q0 48 23 81.5t73 33.5h699q51 0 74.5 -33.5t23.5 -81.5q0 -24 -6 -45t-18 -36.5t-30.5 -25t-43.5 -9.5h-699q-25 0 -43 9.5t-30 25t-17.5 36.5t-5.5 45zM127 893q0 24 5.5 44.5t17.5 36.5t30 25t43 9h699q25 0 43.5 -9t30.5 -25t18 -36.5t6 -44.5 q0 -48 -24 -82.5t-74 -34.5h-699q-50 0 -73 34.5t-23 82.5z" />
<glyph unicode="&#x3e;" horiz-adv-x="1147" d="M127 338q0 29 16.5 57t57.5 45l577 244v4l-577 244q-38 17 -56 45t-18 57q0 26 12 50t33 40t49 19.5t60 -10.5l622 -279q54 -25 89.5 -68t35.5 -100t-35.5 -100t-89.5 -68l-622 -278q-32 -15 -60 -11t-49 19.5t-33 39.5t-12 50z" />
<glyph unicode="?" horiz-adv-x="899" d="M31 1206q0 44 16.5 71.5t67.5 43.5q23 8 91.5 19.5t170.5 11.5q107 0 189.5 -18t138.5 -58.5t85 -105t29 -156.5q0 -74 -18 -130.5t-46 -101t-61 -80t-62.5 -67.5t-51.5 -64t-27 -69q-2 -16 -6.5 -35.5t-18 -36t-39 -28t-69.5 -11.5q-60 0 -92.5 28t-32.5 97 q0 53 19.5 96.5t48 81.5t62.5 73t62.5 70.5t48 74t19.5 83.5q0 60 -41.5 94.5t-134.5 34.5q-32 0 -65 -3.5t-64.5 -7.5t-60.5 -7.5t-52 -3.5q-51 0 -78.5 23.5t-27.5 80.5zM258 141q0 33 11.5 62t32.5 51t49.5 34.5t62.5 12.5q33 0 61.5 -12.5t50 -34.5t33.5 -51t12 -62 q0 -35 -12 -63.5t-33.5 -49.5t-50 -32.5t-61.5 -11.5q-34 0 -62.5 11.5t-49.5 32.5t-32.5 49.5t-11.5 63.5z" />
<glyph unicode="@" horiz-adv-x="1677" d="M84 528q0 217 56.5 369t155 248t233 140t290.5 44q104 0 200 -14t178.5 -46t149.5 -84.5t114.5 -130t73.5 -181.5t26 -240q0 -110 -27 -195.5t-75.5 -149.5t-116 -108t-148 -71.5t-171.5 -39.5t-187 -12q-82 0 -153.5 10.5t-125 41.5t-84.5 87t-31 148q0 75 10.5 129.5 t43 90.5t91.5 53.5t156 17.5h252v70q0 27 -7.5 45t-26 28.5t-48.5 14.5t-75 4q-29 0 -61.5 -3.5t-63.5 -7.5q-32 -5 -67.5 -7.5t-70.5 -2.5q-42 0 -59.5 26t-17.5 64q0 29 16.5 50.5t56.5 36t107.5 21.5t169.5 7t169 -17t106 -53.5t55 -94t16 -138.5v-342v-31.5t-2 -30.5 q29 16 57 43t50 67.5t35.5 96.5t13.5 131q0 115 -21.5 199.5t-58.5 143.5t-87.5 95.5t-109.5 57t-123.5 28t-128.5 7.5q-98 0 -193 -27.5t-170.5 -96.5t-122 -187.5t-46.5 -299.5q0 -177 41 -300t111 -199t163 -110t197 -34q57 0 107 8t95 17q35 6 64 11t55 5q44 0 72.5 -19 t28.5 -61q0 -29 -19.5 -50.5t-44.5 -32.5q-21 -11 -56.5 -21.5t-82 -18.5t-102.5 -13t-117 -5q-163 0 -295 48t-225.5 148.5t-144 255t-50.5 367.5zM643 346q0 -30 8 -50t28 -32t54 -17t86 -5q48 0 81.5 3.5t54.5 13t30.5 25.5t9.5 42v139h-207q-45 0 -73.5 -5t-44 -18 t-21.5 -36t-6 -60z" />
<glyph unicode="A" horiz-adv-x="1305" d="M12 96q0 16 3.5 31.5t11.5 32.5l434 1059q31 74 81 103.5t109 29.5q68 0 116.5 -34t74.5 -99l436 -1059q12 -35 12 -62t-11 -48.5t-29.5 -36t-42.5 -22t-50 -7.5q-21 0 -42.5 5.5t-40.5 17t-34 29t-24 42.5l-103 268h-526l-98 -266q-19 -51 -60 -74.5t-86 -23.5 q-25 0 -48.5 7.5t-42 22t-29.5 36t-11 48.5zM475 580h350l-161 430h-29z" />
<glyph unicode="B" horiz-adv-x="1243" d="M162 109v1112q0 57 36.5 83.5t90.5 26.5h379q132 0 219.5 -19t139.5 -63.5t73.5 -116.5t21.5 -178q0 -51 -11 -92.5t-29 -73t-42 -54t-49 -36.5v-6q32 -14 62.5 -35.5t54.5 -54.5t38.5 -79.5t14.5 -110.5q0 -106 -21 -183.5t-75.5 -128.5t-150 -75.5t-244.5 -24.5h-385 q-56 0 -89.5 26.5t-33.5 82.5zM428 238h240q69 0 113 9.5t69.5 30.5t35 55.5t9.5 84.5q0 43 -13 71t-41.5 44.5t-73 23t-108.5 6.5h-55q-57 0 -78.5 32t-21.5 83t21.5 82t78.5 31h64q60 0 97 6.5t57.5 24t28 47.5t7.5 77q0 48 -9.5 77.5t-31.5 45.5t-58 21.5t-89 5.5h-242 v-858z" />
<glyph unicode="C" horiz-adv-x="1090" d="M131 653q0 207 28 342.5t91 214.5t165 110.5t251 31.5q50 0 97 -3t86 -7.5t66.5 -9t38.5 -7.5q48 -14 69 -41.5t21 -77.5q0 -25 -5.5 -47.5t-17.5 -39t-31.5 -26.5t-47.5 -10q-32 0 -64.5 4t-65.5 8.5t-67 8.5t-71 4q-53 0 -94 -5t-71.5 -21.5t-52 -47t-34.5 -80.5 t-19 -123t-6 -174t8 -172t23.5 -119t39.5 -76t55.5 -42.5t70.5 -18.5t86 -4q34 0 58 1t42.5 3t33.5 5l30 6q20 5 45 7.5t53 2.5t47.5 -9.5t31.5 -25.5t17.5 -37.5t5.5 -46.5q0 -46 -23 -79t-67 -46q-12 -4 -40.5 -8.5t-67.5 -8.5t-85.5 -6.5t-94.5 -2.5q-97 0 -174 10 t-136.5 36.5t-102 73.5t-69.5 122t-40 181t-13 250z" />
<glyph unicode="D" horiz-adv-x="1389" d="M162 109v1112q0 56 36.5 83t92.5 27h356q106 0 192.5 -10t154 -36.5t117.5 -73.5t82.5 -121.5t48 -180.5t15.5 -250t-18.5 -248.5t-55 -178t-89 -119t-120 -70.5t-150 -34t-177.5 -9h-356q-28 0 -51.5 6t-41 19t-27 34t-9.5 50zM428 242h209q87 0 153 14t110.5 58.5 t67.5 127t23 220.5q0 139 -22 223.5t-66 130.5t-110.5 61t-155.5 15h-209v-850z" />
<glyph unicode="E" horiz-adv-x="1135" d="M162 111v1110q0 57 36.5 83.5t90.5 26.5h682q57 0 80.5 -35t23.5 -86q0 -25 -5.5 -46.5t-18 -37.5t-32.5 -25t-48 -9h-543v-295h395q28 0 48 -9t33 -25t18.5 -38t5.5 -47q0 -51 -24 -85t-81 -34h-395v-317h563q28 0 47.5 -9t32 -25t18 -38t5.5 -47q0 -26 -5.5 -48 t-18 -39t-32 -26.5t-47.5 -9.5h-702q-54 0 -90.5 27t-36.5 84z" />
<glyph unicode="F" horiz-adv-x="1133" d="M162 109v1112q0 57 36.5 83.5t90.5 26.5h702q57 0 81 -35t24 -86t-24 -84.5t-81 -33.5h-563v-283h436q57 0 80 -34t23 -85q0 -25 -5.5 -47t-17.5 -38t-32 -25t-48 -9h-436v-462q0 -29 -10.5 -50t-29 -34t-42.5 -19t-51 -6t-51 6t-42.5 19t-29 34t-10.5 50z" />
<glyph unicode="G" horiz-adv-x="1354" d="M131 653q0 141 13.5 248t43.5 184.5t76.5 129t112 82t151.5 43t195 12.5q51 0 107 -3.5t105.5 -8t86 -9.5t47.5 -8q48 -14 69 -45.5t21 -81.5q0 -51 -22 -83t-78 -32q-37 0 -77 4t-82 9.5t-84.5 9.5t-84.5 4q-63 0 -112 -4.5t-86.5 -20.5t-63 -45.5t-42 -79.5t-23.5 -124 t-7 -177q0 -98 8.5 -168t25.5 -118.5t42.5 -78t59.5 -45.5t76 -21t93 -5q73 0 123 16t80.5 51t42.5 90q11 43 11 103q0 14 -1 29h-190q-57 0 -80.5 33.5t-23.5 83.5q0 25 5.5 47.5t18 39t32 26.5t48.5 10h328q26 0 49 -6.5t40.5 -21t27.5 -36t10 -51.5q0 -126 -10 -224 t-34 -170.5t-63 -122.5t-98 -80.5t-139 -44t-185 -13.5q-96 0 -175 9.5t-141.5 35.5t-109 73t-77 121.5t-45.5 181t-15 252.5z" />
<glyph unicode="H" horiz-adv-x="1370" d="M162 94v1141q0 29 10.5 50.5t28.5 35.5t42 20.5t52 6.5q26 0 50 -6.5t42.5 -20.5t29.5 -35.5t11 -50.5v-436h514v436q0 29 10.5 50.5t28.5 35.5t42 20.5t52 6.5q27 0 51 -6.5t42.5 -20.5t29 -35.5t10.5 -50.5v-1141q0 -30 -10.5 -51t-29 -34t-42.5 -19t-51 -6 q-28 0 -52 6t-42 19t-28.5 34t-10.5 51v465h-514v-465q0 -30 -11 -51t-29.5 -34t-42.5 -19t-50 -6q-28 0 -52 6t-42 19t-28.5 34t-10.5 51z" />
<glyph unicode="I" horiz-adv-x="774" d="M57 117q0 52 23 84t80 32h94v863h-94q-57 0 -80 32t-23 84q0 53 23 86t80 33h454q57 0 80 -33t23 -86q0 -52 -23 -84t-80 -32h-94v-863h94q57 0 80 -32t23 -84q0 -53 -23 -85t-80 -32h-454q-57 0 -80 32t-23 85z" />
<glyph unicode="J" horiz-adv-x="1024" d="M53 403v37q0 29 10 50t27.5 34t41 19t50.5 6q28 0 51.5 -6t40.5 -19t27 -34t10 -50v-14q0 -75 5.5 -118.5t21 -66t44 -28.5t73.5 -6t73 5.5t43.5 27.5t21 66t5.5 120v813q0 29 10.5 50t28 34t41 19t49.5 6q27 0 52 -6t43.5 -19t30 -34t11.5 -50v-836q0 -124 -20 -205.5 t-67 -130t-126 -68t-196 -19.5q-71 0 -128.5 5t-102.5 21t-77 44.5t-53 75.5t-31 115t-10 162z" />
<glyph unicode="K" horiz-adv-x="1208" d="M162 94v1141q0 29 10.5 50.5t28 35.5t41.5 20.5t51 6.5t51.5 -6.5t43 -20.5t29.5 -35.5t11 -50.5v-1141q0 -30 -11 -51t-29.5 -34t-43 -19t-51.5 -6t-51 6t-41.5 19t-28 34t-10.5 51zM483 645q0 43 23.5 90.5t71.5 104.5l372 465q19 23 43.5 33t48.5 10q26 0 51.5 -10 t45.5 -27t32.5 -39.5t12.5 -46.5q0 -17 -7 -35.5t-24 -38.5l-416 -498l426 -442q23 -25 34 -52t11 -53q0 -30 -10.5 -53.5t-28.5 -39t-42 -23.5t-52 -8q-18 0 -39 8.5t-35 23.5l-428 453q-43 46 -66.5 89.5t-23.5 88.5z" />
<glyph unicode="L" horiz-adv-x="1063" d="M164 109v1128q0 28 10.5 49t29 35t43 20.5t52.5 6.5q27 0 51 -6.5t41.5 -20.5t28 -35t10.5 -49v-995h508q28 0 48 -9.5t32.5 -26t18 -38.5t5.5 -47q0 -51 -23.5 -86t-80.5 -35h-645q-28 0 -51.5 6t-41 19t-27 34t-9.5 50z" />
<glyph unicode="M" horiz-adv-x="1548" d="M164 94v1041q0 58 17.5 99t46 67.5t65 38.5t74.5 12q71 0 119 -36.5t73 -96.5l219 -521l215 521q26 63 72.5 98t114.5 35q37 0 74 -12t65.5 -38.5t46.5 -67.5t18 -99v-1041q0 -57 -37.5 -83.5t-91.5 -26.5q-27 0 -50 6.5t-40 20t-27 34t-10 49.5v862h-2l-176 -419 q-9 -23 -22.5 -45.5t-34 -41.5t-50 -30.5t-71.5 -11.5q-41 0 -69 11t-47.5 29.5t-32.5 41.5t-23 47l-178 419h-2v-862q0 -29 -10 -49.5t-27.5 -34t-41 -20t-50.5 -6.5q-54 0 -90.5 26.5t-36.5 83.5z" />
<glyph unicode="N" horiz-adv-x="1423" d="M164 94v1041q0 58 17.5 99t44.5 67.5t60.5 38.5t65.5 12q45 0 77 -10.5t56 -28.5t41.5 -41.5t32.5 -50.5l445 -842h8v858q0 57 36 84t89 27q55 0 89 -27t34 -84v-1040q0 -59 -17.5 -100t-45.5 -67t-61.5 -38t-64.5 -12q-45 0 -77 10.5t-55.5 28.5t-40.5 42t-32 50 l-448 843h-4v-860q0 -29 -10 -49.5t-27.5 -34t-40.5 -20t-49 -6.5q-57 0 -90 26.5t-33 83.5z" />
<glyph unicode="O" horiz-adv-x="1409" d="M131 653q0 143 13 251t41 185.5t73 128.5t109 80.5t147.5 41.5t190.5 12q106 0 190 -12t147.5 -42t108.5 -80.5t73 -128t41 -185.5t13 -251q0 -144 -13 -250t-41 -181t-73 -122t-108.5 -73.5t-147.5 -36.5t-190 -10t-190 10t-148 36.5t-109 73.5t-73 122t-41 181t-13 250 zM397 657q0 -104 7 -176.5t22.5 -121t39.5 -76t58.5 -41.5t79 -17.5t101.5 -3.5q56 0 100.5 3.5t79 17.5t58.5 41.5t39.5 76t22.5 121t7 176.5q0 106 -7 181.5t-22.5 126t-39.5 80t-58.5 44.5t-79 19t-100.5 4q-57 0 -101.5 -4t-79 -19t-58.5 -44.5t-39.5 -80t-22.5 -126 t-7 -181.5z" />
<glyph unicode="P" horiz-adv-x="1229" d="M162 92v1129q0 55 33.5 82.5t89.5 27.5h448q119 0 202.5 -19t136 -65.5t76 -125t23.5 -197.5q0 -95 -17.5 -172.5t-65.5 -133t-133.5 -86t-221.5 -30.5h-305v-410q0 -29 -10.5 -49.5t-29 -33.5t-42.5 -19t-51 -6t-51 6t-42.5 19t-29 33.5t-10.5 49.5zM428 735h305 q48 0 80.5 10.5t53 33t29.5 58t9 85.5t-9 82.5t-29.5 52t-54 27.5t-81.5 8h-303v-357z" />
<glyph unicode="Q" horiz-adv-x="1409" d="M131 653q0 143 13 251t41 185.5t73 128.5t109 80.5t147.5 41.5t190.5 12q106 0 190 -12t147.5 -42t108.5 -80.5t73 -128t41 -185.5t13 -251q0 -195 -24 -321t-76 -201l55 -70q22 -31 22 -59q0 -25 -14 -47t-39 -41q-40 -31 -80 -31q-20 0 -38 8.5t-33 28.5l-68 86 q-57 -14 -126 -20t-152 -6q-106 0 -190 10t-148 36.5t-109 73.5t-73 122t-41 181t-13 250zM397 657q0 -104 7 -176.5t22.5 -121t39.5 -76t58.5 -41.5t79 -17.5t101.5 -3.5q29 0 56 0.5t50 3.5l-51 66q-11 14 -16 27.5t-5 27.5q0 26 14.5 50t39.5 42q38 31 79 31 q19 0 37 -8.5t33 -28.5l45 -57q13 48 19 116.5t6 165.5q0 106 -7 181.5t-22.5 126t-39.5 80t-58.5 44.5t-79 19t-100.5 4q-57 0 -101.5 -4t-79 -19t-58.5 -44.5t-39.5 -80t-22.5 -126t-7 -181.5z" />
<glyph unicode="R" horiz-adv-x="1260" d="M162 92v1129q0 55 33.5 82.5t89.5 27.5h448q119 0 202.5 -19t136 -65.5t76 -125t23.5 -197.5q0 -85 -13 -149.5t-47 -111.5t-94.5 -78.5t-154.5 -49.5v-7l314 -311q36 -35 46 -73q5 -18 4 -35q0 -18 -5 -34q-10 -32 -35 -55.5t-58 -31.5q-13 -3 -27 -3q-21 0 -43 7 q-38 11 -73 49l-405 432q-44 47 -56 93q-7 24 -7 46q-1 20 5 38q12 37 44 60t77 23h90q48 0 80.5 10.5t53 33.5t29.5 59t9 86t-9 82.5t-29.5 52t-54 27.5t-81.5 8h-303v-1000q0 -29 -10.5 -49.5t-29 -33.5t-42.5 -19t-51 -6t-51 6t-42.5 19t-29 33.5t-10.5 49.5z" />
<glyph unicode="S" horiz-adv-x="1178" d="M106 145q0 51 27.5 87t77.5 36q38 0 80 -6.5t85 -14t86 -14t85 -6.5q130 0 196 38t66 132q0 48 -20.5 76t-55 43.5t-80 22.5t-94.5 12q-52 5 -104.5 12.5t-102 23t-92.5 41.5t-74.5 69.5t-50 106.5t-18.5 152q0 102 30 176.5t93 123t161.5 72.5t235.5 24q89 0 160.5 -6.5 t122 -23.5t77.5 -46t27 -74q0 -56 -32.5 -87.5t-82.5 -31.5q-34 0 -67.5 5t-67.5 10q-37 6 -77 10t-81 4q-123 0 -179 -40.5t-56 -113.5q0 -51 21.5 -80t57 -45t82 -22.5t97.5 -11.5q52 -6 104 -13.5t100 -22t89.5 -39.5t72.5 -65.5t48.5 -100t17.5 -142.5 q0 -108 -28.5 -189.5t-91 -136t-162 -82.5t-242.5 -28q-90 0 -170 6.5t-140.5 24.5t-95.5 50.5t-35 83.5z" />
<glyph unicode="T" horiz-adv-x="1196" d="M41 1210q0 51 23 86t79 35h910q55 0 78.5 -35t23.5 -86q0 -50 -23.5 -84t-78.5 -34h-322v-1000q0 -29 -10.5 -49.5t-29 -33.5t-42.5 -19t-51 -6t-51 6t-42.5 19t-29 33.5t-10.5 49.5v1000h-322q-28 0 -47.5 9t-31.5 25t-17.5 37.5t-5.5 46.5z" />
<glyph unicode="U" horiz-adv-x="1354" d="M160 440v799q0 29 10.5 50t29 34t42.5 19t51 6t51 -6t42.5 -19t29 -34t10.5 -50v-774q0 -79 12.5 -127.5t41.5 -74.5t76 -35t116 -9q68 0 117 9t80.5 35t46 74.5t14.5 127.5v774q0 29 10.5 50t29 34t42.5 19t51 6t51 -6t41.5 -19t28 -34t10.5 -50v-799q0 -106 -16 -181.5 t-46.5 -127t-75 -81.5t-102.5 -45.5t-129 -20t-153 -4.5q-83 0 -153 4.5t-126.5 20t-100 45.5t-73 81.5t-44.5 126.5t-15 182z" />
<glyph unicode="V" horiz-adv-x="1300" d="M23 1233q0 28 11 49t30 35t42.5 21.5t49.5 7.5q44 0 84 -23.5t57 -69.5l342 -913h29l336 911q9 25 24.5 43.5t35 31t41.5 18.5t44 6q25 0 49 -7.5t42 -22t29 -36t11 -49.5q0 -14 -3 -30.5t-11 -33.5l-424 -1058q-15 -37 -35.5 -62.5t-45.5 -41t-53 -22.5t-57 -7 q-68 0 -116 34t-74 99l-426 1058q-12 34 -12 62z" />
<glyph unicode="W" horiz-adv-x="1915" d="M23 1231q0 28 11 50t30 36t42.5 21.5t49.5 7.5q44 0 84 -23.5t57 -69.5l326 -921h28l164 422l-182 420q-8 18 -12.5 35t-4.5 32q0 26 10.5 46t27.5 33.5t39 20.5t46 7q44 0 83 -23.5t55 -71.5l79 -247l84 247q9 25 23.5 43t33.5 30t40 18t43 6q23 0 44 -7t37.5 -20.5 t26.5 -33.5t10 -46q0 -29 -16 -72l-182 -417l172 -420h28l318 917q17 50 58.5 74.5t86.5 24.5q25 0 48 -7.5t41 -22t29 -36t11 -49.5q0 -30 -12 -64l-403 -1058q-26 -68 -73 -100.5t-112 -32.5q-68 0 -114 34t-72 99l-150 370l-143 -370q-14 -36 -34.5 -61.5t-45.5 -41.5 t-53 -23t-57 -7q-66 0 -112 34t-71 99l-405 1058q-12 34 -12 60z" />
<glyph unicode="X" horiz-adv-x="1149" d="M18 104q0 22 8.5 47.5t28.5 51.5l361 475l-355 463q-32 41 -32 86q0 25 10.5 47t28.5 38.5t41 26t49 9.5q31 0 60.5 -15t55.5 -49l299 -397l301 397q26 34 57 49t60 15q25 0 48.5 -9.5t41.5 -26t28.5 -38.5t10.5 -47q0 -20 -8 -42.5t-25 -43.5l-354 -463l361 -475 q20 -26 28 -51.5t8 -47.5q0 -27 -10 -49t-27 -38.5t-39 -25.5t-46 -9q-26 0 -53.5 13t-49.5 42l-332 432l-329 -432q-23 -29 -50 -42t-53 -13q-24 0 -46.5 9t-39.5 25.5t-27 38.5t-10 49z" />
<glyph unicode="Y" horiz-adv-x="1094" d="M16 1235q0 59 35 86t90 27q47 0 77 -24t50 -56l279 -463l278 463q20 34 51 57t76 23q56 0 90.5 -25t34.5 -84q0 -15 -4 -34t-12 -31l-381 -613v-469q0 -29 -11 -49.5t-29 -33.5t-42 -19t-51 -6q-28 0 -52 6t-42 19t-28.5 33.5t-10.5 49.5v471l-379 611q-6 11 -12.5 27.5 t-6.5 33.5z" />
<glyph unicode="Z" horiz-adv-x="1100" d="M25 180q0 22 6.5 45.5t17 46.5t23.5 43t26 35l645 742h-591q-28 0 -47.5 9.5t-32 25.5t-18 38t-5.5 47q0 51 23.5 85t79.5 34h714q39 0 74 -14.5t61 -39.5t41 -59t15 -73q0 -47 -22 -89t-50 -73l-643 -741h631q28 0 47.5 -9.5t31.5 -26t17.5 -38.5t5.5 -47 q0 -51 -22.5 -86t-79.5 -35h-762q-40 0 -74 12.5t-59 36t-39 57t-14 74.5z" />
<glyph unicode="[" horiz-adv-x="586" d="M135 -117v1325q0 85 13.5 140t46 87t86 44t133.5 12h61q54 0 75 -32.5t21 -80.5q0 -24 -5 -44.5t-16 -35.5t-29.5 -23.5t-45.5 -8.5h-59q-14 0 -27.5 -10t-13.5 -33v-1354q0 -23 13.5 -33t27.5 -10h59q27 0 45.5 -9t29.5 -24.5t16 -36t5 -43.5q0 -24 -5 -44.5t-16 -35.5 t-29.5 -23.5t-45.5 -8.5h-61q-80 0 -133.5 10.5t-86 41.5t-46 86t-13.5 144z" />
<glyph unicode="\" horiz-adv-x="918" d="M4 1323q0 18 9.5 34t24.5 28t33 19t35 7q19 0 37.5 -9.5t30.5 -31.5l727 -1323q12 -24 12 -43q0 -15 -8 -30.5t-21.5 -28t-31.5 -20t-39 -7.5q-20 0 -38.5 8.5t-31.5 30.5l-727 1323q-12 24 -12 43z" />
<glyph unicode="]" horiz-adv-x="586" d="M14 -287q0 23 5 43.5t16.5 36t30 24.5t45.5 9h59q14 0 27.5 10t13.5 33v1354q0 23 -13.5 33t-27.5 10h-59q-27 0 -45.5 8.5t-30 23.5t-16.5 35.5t-5 44.5q0 48 21.5 80.5t75.5 32.5h61q80 0 133.5 -12t86 -44t46 -87t13.5 -140v-1325q0 -89 -13.5 -144t-46 -86t-86 -41.5 t-133.5 -10.5h-61q-27 0 -45.5 8.5t-30 23.5t-16.5 35.5t-5 44.5z" />
<glyph unicode="^" horiz-adv-x="539" d="M-20 1233q0 34 18.5 61.5t44.5 38.5l72 27l22 8q40 14 73 23.5t56 9.5q25 0 57 -10t78 -25l21 -6l74 -27q26 -11 44.5 -38.5t18.5 -61.5q0 -24 -7.5 -43.5t-19 -34t-26 -22t-29.5 -7.5q-6 0 -15.5 1.5t-12.5 5.5h2l-183 63l-180 -63h2q-5 -4 -11.5 -4.5t-12.5 -0.5 q-15 0 -30 7.5t-27.5 21t-20.5 33t-8 43.5z" />
<glyph unicode="_" horiz-adv-x="733" d="M-96 -190q0 24 5.5 44.5t17 36t29.5 24.5t44 9h733q25 0 43.5 -9t30.5 -24.5t18 -36t6 -44.5q0 -48 -23.5 -82.5t-74.5 -34.5h-733q-51 0 -73.5 34.5t-22.5 82.5z" />
<glyph unicode="`" horiz-adv-x="573" d="M10 1294q0 19 8.5 37t23 32t33.5 22t40 8q20 0 39.5 -8.5t38.5 -28.5l137 -139q14 -14 20 -30t6 -30q0 -31 -24.5 -52.5t-59.5 -21.5q-31 0 -61 21l-160 119q-21 17 -31 35t-10 36z" />
<glyph unicode="a" horiz-adv-x="1092" d="M94 305q0 85 16 145.5t60.5 99.5t122.5 57t203 18h204v41q0 37 -8 61.5t-26.5 38.5t-50 19.5t-78.5 5.5t-88 -4t-75.5 -8.5t-63 -8.5t-50.5 -4q-60 0 -84 31.5t-24 85.5q0 34 12.5 60.5t50.5 44.5t108 27t185 9q126 0 211 -13.5t137 -51t74 -103t22 -170.5v-387 q0 -101 -26 -163.5t-80 -97t-138 -46.5t-200 -12t-195 12t-128 47t-70 98.5t-21 167.5zM342 313q0 -32 7 -53.5t26.5 -34t53 -17.5t87.5 -5q53 0 88.5 4t56.5 13t30 24t9 37v137h-219q-42 0 -69 -5t-42.5 -17.5t-21.5 -32.5t-6 -50z" />
<glyph unicode="b" horiz-adv-x="1155" d="M139 500v768q0 27 11 47t29 32.5t41.5 18.5t49.5 6t49 -6t40.5 -18.5t27.5 -32.5t10 -47v-271q42 13 94.5 20t112.5 7q120 0 205 -21t139.5 -78.5t79.5 -159t25 -261.5q0 -163 -24.5 -265t-78.5 -159.5t-140 -78.5t-208 -21q-81 0 -146.5 7.5t-117 28t-89 57t-62 94 t-36.5 139.5t-12 194zM395 504q0 -100 10 -159t34 -89.5t64 -39.5t99 -9q55 0 93 8t61 38t33 89.5t10 161.5q0 96 -12 154t-36 88.5t-61 40.5t-88 10q-54 0 -93.5 -7.5t-64.5 -36.5t-37 -87.5t-12 -161.5z" />
<glyph unicode="c" horiz-adv-x="926" d="M131 354v287q0 110 23.5 183.5t74.5 118t132 63t196 18.5q101 0 160.5 -9.5t90 -27.5t39.5 -45t9 -61q0 -50 -20.5 -78.5t-75.5 -28.5q-27 0 -51 3t-49 6.5t-51.5 6.5t-57.5 3q-48 0 -80 -9.5t-51 -29t-27 -49.5t-8 -70v-270q0 -34 9 -62t28.5 -48t51.5 -31t77 -11 q28 0 52 3t47.5 7t49 7t56.5 3q55 0 77.5 -30.5t22.5 -81.5q0 -48 -21.5 -75t-66.5 -40q-11 -3 -29 -7.5t-45 -8.5t-64.5 -7t-88.5 -3q-114 0 -192.5 23t-127 69.5t-69.5 116.5t-21 165z" />
<glyph unicode="d" horiz-adv-x="1155" d="M102 500q0 162 25 264t79.5 160t140.5 79t208 21q115 0 199 -18v282q0 28 10.5 49t28 34t41 19.5t49.5 6.5t49.5 -6.5t41 -19.5t28 -34t10.5 -49v-788q0 -163 -26 -264.5t-81 -158.5t-142 -77t-208 -20q-81 0 -146.5 8.5t-116 30t-86.5 59t-59 95t-34 138t-11 189.5z M356 504q0 -100 10.5 -159t34.5 -89.5t62 -39.5t92 -9t92 9t63 39.5t36.5 89.5t11.5 159q0 103 -11.5 161.5t-36.5 87.5t-63 36.5t-92 7.5t-92 -7.5t-62 -36.5t-34.5 -87.5t-10.5 -161.5z" />
<glyph unicode="e" horiz-adv-x="1094" d="M131 367v266q0 117 26 193t80 120t136.5 61t195.5 17q110 0 187 -18t126 -62.5t71 -118.5t22 -186v-117q0 -66 -26 -92.5t-83 -26.5h-481v-51q0 -80 46.5 -113.5t135.5 -33.5q31 0 68.5 3t76 6t75 6t65.5 3q55 0 80.5 -21t25.5 -79q0 -47 -17.5 -73t-68.5 -40 q-31 -9 -107 -19.5t-187 -10.5q-122 0 -207 18.5t-138 63.5t-77.5 119.5t-24.5 185.5zM385 612h340v39q0 45 -7.5 74.5t-27 47t-52 24t-83.5 6.5q-47 0 -79.5 -6t-52.5 -23t-29 -46.5t-9 -76.5v-39z" />
<glyph unicode="f" horiz-adv-x="678" d="M6 887q0 50 22.5 83.5t77.5 33.5h70v30q0 100 20 165t62 103.5t107 54t155 15.5q73 0 118 -6t70 -20.5t33.5 -38.5t8.5 -60q0 -52 -34 -79t-85 -27q-28 0 -52.5 3t-58.5 3q-29 0 -46.5 -5t-28 -17t-14 -33t-3.5 -52v-36h139q57 0 80 -33t23 -84t-23 -84t-80 -33h-139 v-680q0 -57 -36.5 -81.5t-90.5 -24.5q-26 0 -49 6t-40 18.5t-26.5 32.5t-9.5 49v680h-70q-55 0 -77.5 33t-22.5 84z" />
<glyph unicode="g" horiz-adv-x="1184" d="M143 -57v757q0 108 25 172t78 97.5t134.5 44t194.5 10.5q73 0 125 -5t97 -18h6v93q0 27 10 46t27 31t39.5 17.5t48.5 5.5q24 0 46.5 -5.5t39.5 -17.5t27 -31t10 -46v-426q0 -103 -25 -168t-78 -101.5t-135 -49.5t-195 -13q-43 0 -74 2t-56 5t-46.5 7.5t-44.5 9.5h-6v-127 h334q103 0 172.5 -15t111.5 -48.5t60 -88t18 -132.5q0 -98 -27 -164.5t-86 -107t-153 -58.5t-227 -18q-125 0 -211 16t-139 55.5t-77 105.5t-24 165zM391 12v-49q0 -45 8.5 -72.5t31.5 -42.5t63 -20.5t104 -5.5q73 0 120 5t74 17.5t37.5 33t10.5 52.5q0 24 -7 40t-25 25 t-49 13t-79 4h-289zM391 651q0 -30 6 -49t27.5 -29.5t62 -14t109.5 -3.5q74 0 115.5 4.5t62 18.5t25 40t4.5 68v100q-38 7 -95.5 12t-123.5 5q-69 0 -107.5 -5.5t-57.5 -18.5t-23.5 -33.5t-4.5 -51.5v-43z" />
<glyph unicode="h" horiz-adv-x="1145" d="M143 90v1174q0 28 10.5 48.5t28 33.5t41 19.5t49.5 6.5q54 0 91.5 -26t37.5 -82v-263q42 10 90 16.5t101 6.5q114 0 192.5 -14t126.5 -59t69 -130.5t21 -228.5v-502q0 -29 -10 -49t-27.5 -32.5t-40.5 -18.5t-49 -6t-48.5 6t-39.5 18.5t-26.5 32.5t-9.5 49v490 q0 70 -5.5 112.5t-24 65.5t-54 31t-95.5 8q-49 0 -93.5 -6.5t-76.5 -14.5v-686q0 -57 -37.5 -81.5t-91.5 -24.5q-26 0 -49.5 6t-41 18.5t-28 32.5t-10.5 49z" />
<glyph unicode="i" horiz-adv-x="541" d="M129 1247q0 30 11 56.5t29.5 46.5t44.5 31.5t56 11.5t56.5 -11.5t46.5 -31.5t31.5 -46.5t11.5 -56.5t-11.5 -56t-31.5 -45.5t-46.5 -30.5t-56.5 -11t-56 11t-44.5 30.5t-29.5 45.5t-11 56zM143 90v821q0 28 10 49t27.5 34t40.5 19.5t49 6.5t49 -6.5t40.5 -19.5t27.5 -34 t10 -49v-821q0 -29 -10 -49t-27.5 -32.5t-40.5 -18.5t-49 -6t-49 6t-40.5 18.5t-27.5 32.5t-10 49z" />
<glyph unicode="j" horiz-adv-x="545" d="M-49 -276q0 24 5 45.5t17 37.5t31 25.5t47 9.5q25 0 42.5 5t28.5 17.5t16 33.5t5 53v954q0 29 10 50t27 34t40 19t50 6q26 0 50 -6t42 -19t28.5 -34t10.5 -50v-964q0 -71 -11.5 -133t-44 -108t-89.5 -72.5t-147 -26.5q-38 0 -67.5 5.5t-49.5 19.5t-30.5 38t-10.5 60z M131 1247q0 30 11 56.5t30 46.5t44.5 31.5t55.5 11.5t56.5 -11.5t46.5 -31.5t31.5 -46.5t11.5 -56.5t-11.5 -56t-31.5 -45.5t-46.5 -30.5t-56.5 -11t-55.5 11t-44.5 30.5t-30 45.5t-11 56z" />
<glyph unicode="k" horiz-adv-x="1020" d="M143 90v1174q0 28 10.5 48.5t28 33.5t41 19.5t49.5 6.5q54 0 91.5 -26t37.5 -82v-664h5l335 373q22 25 47.5 35t51.5 10q24 0 46 -8.5t39 -23t27.5 -35t10.5 -44.5q0 -25 -13.5 -53t-44.5 -57l-200 -195l266 -409q15 -23 21.5 -45t6.5 -42q0 -27 -11 -50t-29 -39.5 t-42 -25.5t-49 -9q-31 0 -61 16t-51 51l-238 395l-117 -108v-246q0 -57 -37.5 -81.5t-91.5 -24.5q-26 0 -49.5 6t-41 18.5t-28 32.5t-10.5 49z" />
<glyph unicode="l" horiz-adv-x="545" d="M143 90v1174q0 28 10.5 48.5t28 33.5t41 19.5t49.5 6.5q54 0 91.5 -26t37.5 -82v-1174q0 -57 -37.5 -81.5t-91.5 -24.5q-26 0 -49.5 6t-41 18.5t-28 32.5t-10.5 49z" />
<glyph unicode="m" horiz-adv-x="1688" d="M143 90v502q0 143 20.5 228.5t68.5 130.5t127 59t196 14q96 0 166.5 -13t120.5 -42q48 29 118.5 42t167.5 13q116 0 195.5 -14t128.5 -59t70.5 -130.5t21.5 -228.5v-502q0 -29 -10.5 -49t-28 -32.5t-41 -18.5t-49.5 -6t-48.5 6t-39.5 18.5t-27 32.5t-10 49v483 q0 70 -5 113t-22 66t-49 31t-86 8t-85 -8t-47 -31t-20.5 -66t-4.5 -113v-483q0 -29 -10 -49t-27.5 -32.5t-40.5 -18.5t-49 -6q-54 0 -90.5 24.5t-36.5 81.5v502q0 64 -7 103.5t-25 60.5t-49.5 28t-80.5 7q-54 0 -85 -8t-47.5 -31t-21 -66t-4.5 -113v-483q0 -29 -10 -49 t-27.5 -32.5t-40.5 -18.5t-49 -6q-27 0 -50 6t-40 18.5t-27 32.5t-10 49z" />
<glyph unicode="n" horiz-adv-x="1145" d="M143 90v502q0 143 21 228.5t70.5 130.5t131.5 59t205 14q122 0 204.5 -14t132.5 -59t71.5 -130.5t21.5 -228.5v-502q0 -29 -10 -49t-27.5 -32.5t-40.5 -18.5t-49 -6t-48.5 6t-39.5 18.5t-26.5 32.5t-9.5 49v490q0 70 -5.5 112.5t-24 65.5t-54 31t-95.5 8t-94.5 -8 t-52 -31t-22.5 -65.5t-5 -112.5v-490q0 -29 -10 -49t-27.5 -32.5t-40.5 -18.5t-49 -6q-27 0 -50 6t-40 18.5t-27 32.5t-10 49z" />
<glyph unicode="o" horiz-adv-x="1116" d="M102 492q0 162 25 265.5t79.5 162.5t141 81.5t209.5 22.5q121 0 208 -22.5t142 -81.5t81 -162.5t26 -265.5q0 -163 -26 -263.5t-81 -155.5t-142 -74t-208 -19q-123 0 -209.5 19t-141 74t-79.5 155.5t-25 263.5zM356 496q0 -100 11 -157.5t35 -87t62.5 -37t92.5 -7.5 q53 0 91.5 7.5t63 37t36.5 87t12 157.5q0 103 -12 162.5t-36.5 90.5t-63 39.5t-91.5 8.5q-54 0 -92.5 -8.5t-62.5 -39.5t-35 -90.5t-11 -162.5z" />
<glyph unicode="p" horiz-adv-x="1141" d="M139 -256v770q0 163 26 263.5t81 155t141 73t207 18.5q123 0 207.5 -18.5t137 -73t76 -155t23.5 -263.5q0 -162 -23.5 -265.5t-76 -163.5t-137 -82.5t-207.5 -22.5q-53 0 -101.5 7.5t-89.5 16.5h-6v-260q0 -29 -10.5 -49.5t-28.5 -33t-42 -18t-50 -5.5q-27 0 -50 5.5 t-40 18t-27 33t-10 49.5zM393 510q0 -103 11.5 -163t36 -91t62.5 -40t91 -9q54 0 92.5 9t62.5 40t35 91t11 163q0 100 -11 157t-35 86t-62.5 36.5t-92.5 7.5q-53 0 -91 -7.5t-62.5 -36.5t-36 -86t-11.5 -157z" />
<glyph unicode="q" horiz-adv-x="1151" d="M102 514q0 163 24.5 263.5t79 155t140.5 73t209 18.5q121 0 208 -18.5t142 -73t81 -155t26 -263.5v-774q0 -29 -11 -49.5t-29.5 -33.5t-42.5 -18.5t-50 -5.5q-27 0 -50 5.5t-39.5 18.5t-26 33.5t-9.5 49.5v262h-6q-41 -9 -90.5 -15.5t-102.5 -6.5q-123 0 -209 22.5 t-140.5 82.5t-79 163.5t-24.5 265.5zM354 510q0 -103 11 -163t35 -91t62.5 -40t92.5 -9q53 0 91 9t62.5 40t36 91t11.5 163q0 100 -11.5 157t-36 86t-62.5 36.5t-91 7.5q-54 0 -92.5 -7.5t-62.5 -36.5t-35 -86t-11 -157z" />
<glyph unicode="r" horiz-adv-x="764" d="M143 90v563q0 118 19 190.5t64 112.5t118.5 54t183.5 14q68 0 111.5 -9t69 -25.5t35.5 -40t10 -52.5q0 -53 -28.5 -85t-82.5 -32q-31 0 -56.5 4t-62.5 4q-41 0 -65.5 -5t-38.5 -21t-18.5 -47t-4.5 -82v-543q0 -29 -9.5 -49t-26.5 -32.5t-40 -18.5t-49 -6q-27 0 -50.5 6 t-41 18.5t-27.5 32.5t-10 49z" />
<glyph unicode="s" horiz-adv-x="911" d="M70 709q0 65 26 122.5t78 100t130.5 67.5t184.5 25q96 0 157.5 -10t97.5 -29t49.5 -45.5t13.5 -60.5q0 -50 -24 -75.5t-87 -25.5q-23 0 -45 3.5t-48.5 8t-59.5 8t-78 3.5q-71 0 -106 -18.5t-35 -49.5q0 -25 22.5 -41.5t59.5 -31t84 -28t96 -31t96 -42t84 -60t59.5 -85 t22.5 -117.5q0 -85 -29.5 -145t-83.5 -98.5t-130 -56t-169 -17.5q-116 0 -186.5 9.5t-109 27.5t-51.5 43t-13 57q0 54 24.5 82t87.5 28q24 0 48 -4t52 -8.5t62 -8t78 -3.5q76 0 121 17.5t45 64.5q0 23 -22.5 39t-59.5 29.5t-84 27t-96 31t-96 41.5t-84 59t-59.5 83 t-22.5 114z" />
<glyph unicode="t" horiz-adv-x="729" d="M12 887q0 49 22.5 83t76.5 34h71v161q0 28 10 47.5t27.5 32.5t40 19t47.5 6q54 0 91.5 -25t37.5 -80v-161h172q27 0 44.5 -9t28 -25t15 -37.5t4.5 -45.5q0 -51 -19 -84t-73 -33h-172v-502q0 -35 17 -48t45 -13t55 3t59 3q51 0 74 -25.5t23 -74.5q0 -36 -13 -61t-42.5 -41 t-77 -23.5t-117.5 -7.5q-73 0 -125.5 12t-86 43.5t-49.5 86t-16 140.5v508h-71q-54 0 -76.5 33t-22.5 84z" />
<glyph unicode="u" horiz-adv-x="1137" d="M143 412v501q0 28 10 48.5t27 33.5t40 19t50 6q26 0 49 -6t40.5 -19t27.5 -33.5t10 -48.5v-489q0 -70 4 -112.5t21 -66t51 -31t94 -7.5t94.5 7.5t52.5 31t22.5 66t4.5 112.5v489q0 28 10 48.5t27 33.5t39.5 19t48.5 6t49 -6t40.5 -19t27.5 -33.5t10 -48.5v-501 q0 -143 -20.5 -228.5t-70 -130.5t-131.5 -59t-204 -14q-82 0 -145 5.5t-110 22t-79.5 46t-52.5 77.5t-28.5 117t-8.5 164z" />
<glyph unicode="v" horiz-adv-x="1016" d="M20 907q0 27 10.5 47.5t28 34t39.5 20.5t45 7q42 0 81 -22t55 -68l210 -609h29l221 607q19 49 58.5 72.5t81.5 23.5q23 0 44 -7t37.5 -20.5t26.5 -34t10 -47.5q0 -15 -3 -32t-11 -35l-299 -731q-31 -74 -74.5 -103.5t-101.5 -29.5q-68 0 -115 34t-71 99l-287 731 q-8 17 -11.5 33t-3.5 30z" />
<glyph unicode="w" horiz-adv-x="1653" d="M53 899q0 30 11 52.5t29 38t40.5 23t46.5 7.5q42 0 78.5 -23t48.5 -71l158 -609h29l155 570q17 62 60 97.5t120 35.5q25 0 51.5 -5.5t50.5 -20t43 -40.5t30 -67l151 -570h29l159 607q14 50 52 74t80 24q23 0 45 -7.5t39 -22t27.5 -37t10.5 -52.5q0 -12 -2.5 -27t-7.5 -32 l-237 -731q-12 -38 -30.5 -63.5t-41 -41t-49 -22t-55.5 -6.5q-68 0 -119 32.5t-68 100.5l-149 569h-29l-158 -569q-11 -39 -28.5 -64.5t-40.5 -40.5t-50 -21.5t-55 -6.5q-69 0 -118.5 33.5t-69.5 99.5l-226 731q-5 15 -7.5 29t-2.5 26z" />
<glyph unicode="x" horiz-adv-x="956" d="M51 98q0 19 6.5 38.5t20.5 37.5l260 342l-232 303q-32 45 -32 86q0 25 10.5 46.5t27.5 36.5t39.5 23.5t45.5 8.5q24 0 48.5 -11t43.5 -36l198 -260l199 260q19 25 42.5 36t49.5 11q22 0 43.5 -8.5t38.5 -23.5t27 -35.5t10 -45.5q0 -20 -8 -42.5t-25 -45.5l-229 -299 l262 -340q27 -36 27 -76q0 -24 -10 -46t-27 -38.5t-38.5 -26t-45.5 -9.5q-25 0 -50 13t-48 42l-220 285l-215 -285q-23 -31 -49.5 -44t-52.5 -13q-23 0 -44.5 9.5t-37.5 25t-25.5 36.5t-9.5 45z" />
<glyph unicode="y" horiz-adv-x="1016" d="M23 927q7 35 30 56.5t56 29.5q18 4 35 4q16 0 32 -3q33 -7 61.5 -29t41.5 -59l210 -609h29l221 607q14 39 43.5 61.5t63.5 30.5q17 3 34 3t34 -3q33 -8 55 -30t28 -58q1 -8 1 -17q0 -29 -15 -67l-481 -1147q-16 -38 -46.5 -60.5t-65.5 -30.5q-16 -3 -33 -3t-35 4 q-33 8 -55 29.5t-27 57.5q-1 6 -1 13q0 31 19 70l117 252q-36 34 -53 84l-287 731q-14 35 -14 63q0 11 2 20z" />
<glyph unicode="z" horiz-adv-x="891" d="M36 84q-3 13 -3 28q0 27 10 57q15 47 53 95l406 512h-332q-28 0 -47 8.5t-31 23.5t-17 35.5t-5 45.5q0 50 22 82.5t78 32.5h541q57 0 89.5 -23.5t40.5 -61.5q3 -13 3 -27q0 -27 -10 -58q-16 -47 -54 -95l-405 -512h368q56 0 78.5 -31.5t22.5 -80.5q0 -51 -22.5 -83 t-78.5 -32h-577q-58 0 -90 23t-40 61z" />
<glyph unicode="{" horiz-adv-x="586" d="M10 582q0 34 6 54.5t17 32.5t27 18t36 11q19 6 30.5 14.5t17.5 23.5t8 37t2 54v340q0 78 10.5 138t40.5 101.5t84 63t141 21.5q36 0 62.5 -4.5t44 -17t26 -34t8.5 -55.5q0 -49 -21 -81.5t-75 -32.5h-18q-37 0 -50.5 -21.5t-13.5 -70.5v-381q0 -49 -13.5 -84t-34 -59 t-45 -39t-46.5 -25v-8q22 -9 46.5 -24.5t45 -39.5t34 -59t13.5 -84v-453q0 -49 13.5 -70.5t50.5 -21.5h18q54 0 75 -32.5t21 -82.5q0 -34 -8.5 -55.5t-26 -33.5t-44 -16.5t-62.5 -4.5q-87 0 -141 22t-84 63.5t-40.5 101.5t-10.5 136v412q0 30 -1.5 52t-7.5 37.5t-17.5 25 t-31.5 14.5t-36 11t-27 18t-17 32.5t-6 55.5z" />
<glyph unicode="|" horiz-adv-x="459" d="M172 -287v1639q0 26 16.5 38.5t40.5 12.5q23 0 40.5 -12t17.5 -35v-1647q0 -23 -17.5 -35t-40.5 -12q-24 0 -40.5 12.5t-16.5 38.5z" />
<glyph unicode="}" horiz-adv-x="586" d="M14 -289q0 50 21.5 82.5t75.5 32.5h18q37 0 50.5 21.5t13.5 70.5v453q0 49 13.5 84t33.5 59t44.5 39.5t47.5 24.5v8q-23 10 -47.5 25t-44.5 39t-33.5 59t-13.5 84v381q0 49 -13.5 70.5t-50.5 21.5h-18q-54 0 -75.5 32.5t-21.5 81.5q0 34 8.5 55.5t26 34t44.5 17t63 4.5 q87 0 141 -21.5t84 -63t40.5 -101.5t10.5 -138v-340q0 -32 1.5 -54t7.5 -37t17.5 -23.5t30.5 -14.5q20 -5 36 -11t27 -18t17 -32.5t6 -54.5q0 -35 -6 -55.5t-17 -32.5t-27 -18t-36 -11t-31.5 -14.5t-17 -25t-7 -37.5t-1.5 -52v-412q0 -76 -10.5 -136t-40.5 -101.5t-84 -63.5 t-141 -22q-36 0 -63 4.5t-44.5 16.5t-26 33.5t-8.5 55.5z" />
<glyph unicode="~" horiz-adv-x="1147" d="M127 674q0 34 15 60t41.5 43t62.5 25.5t78 8.5q39 0 87 -6.5t103.5 -14t117 -14t128.5 -6.5q14 0 34 6t42 13.5t44 13.5t40 6q17 0 34.5 -6.5t31.5 -21t23 -36t9 -51.5q0 -38 -15.5 -63.5t-43.5 -41t-65.5 -22t-82.5 -6.5q-52 0 -108.5 6.5t-110 15t-101.5 15t-83 6.5 q-34 0 -56.5 -6t-40 -13.5t-34.5 -13.5t-41 -6q-54 0 -81.5 31t-27.5 78z" />
<glyph unicode="&#xa1;" horiz-adv-x="580" d="M133 866q0 34 11.5 63t32.5 50t49.5 33t62.5 12q33 0 61.5 -12t50 -33t33.5 -50t12 -63q0 -33 -12 -62t-33.5 -50.5t-50 -34t-61.5 -12.5q-34 0 -62.5 12.5t-49.5 34t-32.5 50.5t-11.5 62zM137 -215l51 743q4 45 34 65.5t67 20.5q18 0 36 -5.5t32.5 -16t24 -26.5 t11.5 -38l51 -743q3 -33 -9 -57.5t-33.5 -40t-49.5 -23.5t-57 -8q-31 0 -60.5 8t-52 24t-35 40.5t-10.5 56.5z" />
<glyph unicode="&#xa2;" horiz-adv-x="1167" d="M152 537v247q0 117 22.5 192.5t70.5 120t123.5 64t182.5 25.5v74q0 45 30.5 66.5t73.5 21.5q44 0 74.5 -21.5t30.5 -66.5v-74q72 -5 121.5 -16.5t80.5 -29.5t44.5 -42t13.5 -54q0 -49 -20.5 -77.5t-75.5 -28.5q-34 0 -76.5 3.5t-87.5 8.5v-567q40 5 81 9.5t79 4.5 q55 0 77.5 -30.5t22.5 -81.5q0 -48 -21.5 -75.5t-66.5 -39.5q-16 -5 -62.5 -11.5t-109.5 -11.5v-77q0 -45 -30.5 -65.5t-74.5 -20.5q-43 0 -73.5 20.5t-30.5 65.5v75q-109 6 -185 28t-123.5 68t-69 118.5t-21.5 177.5zM406 547q0 -42 8.5 -71.5t26 -49t45 -30.5t65.5 -15 v567q-80 -14 -112.5 -55t-32.5 -115v-231z" />
<glyph unicode="&#xa3;" horiz-adv-x="1167" d="M94 684q0 48 23 81.5t73 33.5h80v178q0 115 24 188t76 114.5t132.5 57t193.5 15.5q118 0 188.5 -9t108 -27t49 -45t11.5 -63q0 -49 -22 -81.5t-79 -32.5q-31 0 -60 3t-58 7t-60.5 7t-66.5 3q-57 0 -93 -6.5t-56.5 -22.5t-28 -43.5t-7.5 -68.5v-174h326q51 0 74.5 -33.5 t23.5 -81.5q0 -24 -6 -45t-18 -37t-30.5 -25.5t-43.5 -9.5h-326v-329h447q27 0 46 -9.5t31 -25.5t17.5 -38t5.5 -46q0 -25 -5.5 -46.5t-17.5 -37.5t-31 -25.5t-46 -9.5h-717q-51 0 -73.5 34t-22.5 85q0 22 4.5 38.5t14.5 30t26 24t39 21.5l30 15v319h-80q-25 0 -43 9.5 t-30 25.5t-17.5 37t-5.5 45z" />
<glyph unicode="&#xa4;" horiz-adv-x="1155" d="M70 723q0 94 30.5 178t87.5 150l-82 84q-6 8 -10 15.5t-4 16.5q0 19 14 33t31 14q19 0 35 -16l82 -82q65 54 147 84.5t174 30.5q91 0 173 -30.5t147 -84.5l84 84q14 14 33 14q18 0 32.5 -14t14.5 -33q0 -20 -17 -32l-81 -82q57 -66 89.5 -151t32.5 -179q0 -93 -30 -175 t-84 -147l82 -82q6 -8 10 -15.5t4 -16.5q0 -19 -15.5 -32t-33.5 -13q-19 0 -31 12l-82 82q-66 -57 -150 -88t-178 -31q-95 0 -179 32t-150 89l-86 -86q-14 -14 -33 -14t-32 15t-13 34q0 8 3 16t9 14l86 86q-52 67 -81 148t-29 172zM168 723q0 -87 32 -162.5t87 -132 t129.5 -89t158.5 -32.5q85 0 159 32.5t129.5 89t87.5 132t32 162.5t-32 163t-87.5 132.5t-129.5 89.5t-159 33q-84 0 -158.5 -33t-129.5 -89.5t-87 -132.5t-32 -163z" />
<glyph unicode="&#xa5;" horiz-adv-x="1147" d="M43 1235q0 59 34.5 86t90.5 27q46 0 76.5 -24t50.5 -56l278 -463l279 463q20 34 51 57t76 23q56 0 90.5 -25t34.5 -84q0 -15 -4.5 -34t-12.5 -31l-243 -392h119q25 0 43.5 -9t30.5 -24.5t18 -36t6 -44.5q0 -48 -24 -82.5t-74 -34.5h-256v-96h256q25 0 43.5 -9t30.5 -25 t18 -36.5t6 -44.5q0 -48 -24 -82.5t-74 -34.5h-256v-131q0 -29 -11 -49.5t-29 -33.5t-42.5 -19t-51.5 -6t-51.5 6t-42.5 19t-28.5 33.5t-10.5 49.5v131h-258q-50 0 -73 34.5t-23 82.5q0 24 5.5 44.5t17.5 36.5t30 25t43 9h258v96h-258q-50 0 -73 34.5t-23 82.5 q0 24 5.5 44.5t17.5 36t30 24.5t43 9h121l-242 392q-6 11 -12 27.5t-6 33.5z" />
<glyph unicode="&#xa6;" horiz-adv-x="459" d="M172 0v512q0 26 16.5 38.5t40.5 12.5q23 0 40.5 -12t17.5 -35v-520q0 -23 -17.5 -35t-40.5 -12q-24 0 -40.5 12.5t-16.5 38.5zM172 840v512q0 26 16.5 38.5t40.5 12.5q23 0 40.5 -12t17.5 -35v-520q0 -23 -17.5 -35.5t-40.5 -12.5q-24 0 -40.5 13t-16.5 39z" />
<glyph unicode="&#xa7;" horiz-adv-x="1147" d="M111 641q0 83 44.5 135.5t123.5 89.5q-39 31 -62.5 74t-23.5 111q0 64 24 119.5t77.5 95.5t139 63t207.5 23q84 0 140 -11t89 -31t46.5 -47.5t13.5 -60.5q0 -46 -25 -71t-84 -25q-23 0 -47 3.5t-51 7.5t-57.5 7.5t-67.5 3.5q-80 0 -116 -17.5t-36 -45.5q0 -26 26 -40.5 t69 -23.5t97.5 -15t111 -16t111 -27t97.5 -47t69 -75.5t26 -113.5q0 -46 -12.5 -81.5t-35 -62t-53 -46t-65.5 -34.5q42 -34 63 -78t21 -116q0 -87 -30.5 -146t-89.5 -95.5t-144.5 -52t-196.5 -15.5q-97 0 -161 10.5t-102 30t-53.5 46.5t-15.5 60q0 21 6 39t19 31.5 t34.5 21.5t53.5 8q23 0 50.5 -4t60 -8.5t68.5 -8t75 -3.5q36 0 67.5 4t54.5 12.5t36.5 22t13.5 32.5q0 27 -26 43t-68.5 26.5t-97 19t-111.5 20t-111.5 29t-97 47t-68.5 73.5t-26 109zM365 698q0 -38 28 -58t74.5 -32.5t107 -21t125.5 -23.5q45 11 72 35.5t27 58.5 q0 36 -31 56.5t-80.5 33t-111.5 22t-123 24.5q-15 -4 -31 -11.5t-28.5 -19t-20.5 -27.5t-8 -37z" />
<glyph unicode="&#xa8;" horiz-adv-x="573" d="M4 1251q0 27 9.5 51t27 41.5t40.5 28t50 10.5t51 -10.5t41.5 -28t28 -41.5t10.5 -51t-10.5 -50.5t-28 -41t-41.5 -27.5t-51 -10t-50 10t-40.5 27.5t-27 41t-9.5 50.5zM313 1251q0 27 10 51t27 41.5t40 28t50 10.5t50.5 -10.5t41 -28t27.5 -41.5t10 -51t-10 -50.5 t-27.5 -41t-41 -27.5t-50.5 -10t-50 10t-40 27.5t-27 41t-10 50.5z" />
<glyph unicode="&#xa9;" horiz-adv-x="1464" d="M131 670q0 137 16 241t49 180t82.5 126t116 80t150.5 42.5t186 12.5q103 0 188 -11.5t152 -40.5t116.5 -78.5t81.5 -125.5t48 -181t16 -245q0 -141 -16 -247t-49 -182.5t-82.5 -126.5t-116.5 -79.5t-151.5 -41t-186.5 -11.5q-103 0 -187.5 11t-151 40t-116 78.5 t-81.5 126t-48 183t-16 249.5zM317 670q0 -167 23 -274t72.5 -168.5t128.5 -85t190 -23.5t190 23.5t128.5 85t72.5 168.5t23 274q0 163 -23 268t-72.5 166.5t-128.5 85.5t-190 24t-190 -24t-128.5 -85.5t-72.5 -166.5t-23 -268zM430 664q0 103 17.5 170.5t56.5 108t101.5 57 t152.5 16.5q31 0 60.5 -2.5t53.5 -5.5t41.5 -6.5t24.5 -4.5q29 -6 42 -28t13 -49q0 -26 -15.5 -47t-53.5 -21q-39 0 -76 9t-84 9q-44 0 -72 -8.5t-43.5 -31t-21.5 -62t-6 -100.5q0 -64 7.5 -103t24 -60.5t44 -28.5t67.5 -7t77.5 9t82.5 9q19 0 32 -7t21.5 -18.5t12 -25.5 t3.5 -28q0 -26 -12 -43t-43 -23q-8 -2 -25.5 -5t-42 -6t-53.5 -5t-59 -2q-88 0 -150 14t-101.5 51.5t-58 103.5t-18.5 171z" />
<glyph unicode="&#xaa;" horiz-adv-x="784" d="M90 498q0 34 17.5 58t52.5 24h409q35 0 53.5 -24t18.5 -58q0 -35 -18.5 -59.5t-53.5 -24.5h-409q-35 0 -52.5 24.5t-17.5 59.5zM90 870q0 55 8 96t31.5 68t67.5 40t116 13h156v33q0 29 -18.5 42.5t-71.5 13.5q-47 0 -90.5 -5.5t-91.5 -5.5q-38 0 -53 17t-15 49q0 27 7 46 t32.5 31t76.5 17.5t138 5.5q75 0 124.5 -12t79 -38.5t42 -69t12.5 -103.5v-242q0 -65 -14.5 -105t-47.5 -61.5t-85 -28.5t-127 -7q-81 0 -134 7t-85 29t-45 62.5t-13 107.5zM258 877q0 -17 4.5 -30t16.5 -22t33 -13.5t53 -4.5q58 0 81 14t23 37v94h-127q-51 0 -67.5 -17.5 t-16.5 -57.5z" />
<glyph unicode="&#xab;" horiz-adv-x="1135" d="M92 551q0 23 9 44.5t24.5 41.5t35 38.5t40.5 35.5l215 174q46 37 84.5 37.5t59.5 -21t20 -58.5t-33 -75l-180 -213v-8l180 -213q32 -39 33 -75.5t-20 -58t-59.5 -21t-84.5 37.5l-215 174q-21 17 -40.5 35.5t-35 38.5t-24.5 41.5t-9 44.5zM563 551q0 23 9 44.5t24.5 41.5 t35 38.5t40.5 35.5l215 174q46 37 84.5 37.5t59.5 -21t20 -58.5t-33 -75l-180 -213v-8l180 -213q32 -39 33 -75.5t-20 -58t-59.5 -21t-84.5 37.5l-215 174q-21 17 -40.5 35.5t-35 38.5t-24.5 41.5t-9 44.5z" />
<glyph unicode="&#xac;" horiz-adv-x="1147" d="M127 893q0 24 5.5 44.5t17.5 36.5t30 25t43 9h699q25 0 43.5 -9t30.5 -25t18 -36.5t6 -44.5v-393q0 -51 -34.5 -74t-82.5 -23q-24 0 -44.5 5.5t-36.5 17.5t-25 30t-9 44v276h-565q-50 0 -73 34.5t-23 82.5z" />
<glyph unicode="&#xad;" horiz-adv-x="0" />
<glyph unicode="&#xae;" horiz-adv-x="1464" d="M131 670q0 137 16 241t49 180t82.5 126t116 80t150.5 42.5t186 12.5q103 0 188 -11.5t152 -40.5t116.5 -78.5t81.5 -125.5t48 -181t16 -245q0 -141 -16 -247t-49 -182.5t-82.5 -126.5t-116.5 -79.5t-151.5 -41t-186.5 -11.5q-103 0 -187.5 11t-151 40t-116 78.5 t-81.5 126t-48 183t-16 249.5zM317 670q0 -167 23 -274t72.5 -168.5t128.5 -85t190 -23.5t190 23.5t128.5 85t72.5 168.5t23 274q0 163 -23 268t-72.5 166.5t-128.5 85.5t-190 24t-190 -24t-128.5 -85.5t-72.5 -166.5t-23 -268zM469 367v569q0 26 17 41.5t40 15.5h262 q106 0 164 -50.5t58 -149.5q0 -87 -38.5 -138t-103.5 -63l142 -150q17 -18 19.5 -38t-5 -37.5t-22.5 -31t-33.5 -19.5t-37.5 -2t-34 22l-201 225q-15 16 -18 37.5t3 41t20.5 33t35.5 13.5h17q52 0 73 19t21 69q0 47 -18 66.5t-60 19.5h-137v-493q0 -18 -9.5 -29t-23 -17 t-27.5 -8t-24 -2q-12 0 -26 2t-26 8t-20 17t-8 29z" />
<glyph unicode="&#xaf;" horiz-adv-x="573" d="M6 1237q0 48 22.5 76t73.5 28h369q51 0 74.5 -28t23.5 -76t-23.5 -77.5t-74.5 -29.5h-369q-51 0 -73.5 29.5t-22.5 77.5z" />
<glyph unicode="&#xb0;" horiz-adv-x="823" d="M82 969q0 111 19.5 181t60 110.5t102.5 55.5t146 15q83 0 145 -15t103.5 -55.5t62 -110.5t20.5 -181t-20.5 -180t-62 -107t-103.5 -51t-145 -13q-84 0 -146 13t-102.5 51t-60 107t-19.5 180zM293 971q0 -59 6.5 -93t20.5 -51.5t36 -22.5t54 -5q31 0 54 5t37.5 22.5 t21.5 51.5t7 93q0 60 -7 95.5t-21.5 54t-37.5 24.5t-54 6q-32 0 -54 -6t-36 -24.5t-20.5 -54t-6.5 -95.5z" />
<glyph unicode="&#xb1;" horiz-adv-x="1147" d="M127 117q0 24 5.5 44.5t17.5 36t30 24.5t43 9h256q-11 11 -16.5 26.5t-5.5 37.5v276h-234q-25 0 -43 9.5t-30 25.5t-17.5 37t-5.5 45q0 48 23 81.5t73 33.5h234v272q0 25 9 44t24.5 31t36 18t44.5 6q48 0 82.5 -24t34.5 -75v-272h234q51 0 74.5 -33.5t23.5 -81.5 q0 -24 -6 -45t-18 -37t-30.5 -25.5t-43.5 -9.5h-234v-276q0 -40 -22 -64h256q25 0 43.5 -9t30.5 -24.5t18 -36t6 -44.5q0 -48 -24 -82.5t-74 -34.5h-699q-50 0 -73 34.5t-23 82.5z" />
<glyph unicode="&#xb2;" d="M80 571v84q0 91 41.5 150.5t134.5 97.5l119 51q46 20 65 44.5t19 70.5q0 50 -22.5 70t-78.5 20q-45 0 -89 -7t-95 -7t-72.5 24t-21.5 66q0 37 21.5 60t56.5 32q16 4 63.5 10t145.5 6q85 0 145.5 -12.5t99 -44t56.5 -84t18 -133.5q0 -62 -14 -106t-41 -76.5t-67.5 -57 t-94.5 -47.5l-90 -41q-43 -20 -58.5 -37.5t-17.5 -29.5h303q25 0 43 -7.5t28.5 -20.5t15.5 -30t5 -36q0 -41 -20.5 -69t-71.5 -28h-434q-46 0 -69 20t-23 68z" />
<glyph unicode="&#xb3;" d="M76 594q0 40 25.5 67t68.5 27q29 0 52.5 -3.5t49.5 -8.5q25 -5 52.5 -8.5t50.5 -3.5q63 0 97 21t34 65q0 42 -25.5 60.5t-87.5 18.5h-119q-52 0 -74 28t-22 69q0 42 22 68t74 26h119q48 0 70 15t22 59q0 20 -10 32.5t-27 19t-39 9t-47 2.5q-45 0 -88 -7t-94 -7t-72.5 24 t-21.5 66q0 37 21.5 59t56.5 31q16 4 65 11t144 7q78 0 139.5 -13t105 -41t66.5 -72.5t23 -108.5q0 -63 -20 -101.5t-48 -64.5q43 -29 65.5 -73t22.5 -119q0 -79 -26.5 -132t-73 -85.5t-109 -46t-133.5 -13.5q-63 0 -119 5t-98.5 18.5t-67 37.5t-24.5 62z" />
<glyph unicode="&#xb4;" horiz-adv-x="573" d="M184 1157q0 31 27 60l137 139q36 37 78 37q21 0 39.5 -8t33 -22t23 -32t8.5 -37q0 -18 -9.5 -36t-31.5 -35l-159 -119q-32 -21 -62 -21q-35 0 -59.5 21.5t-24.5 52.5z" />
<glyph unicode="&#xb5;" horiz-adv-x="1137" d="M143 -256v1169q0 28 10 48.5t27 33.5t40 19t50 6q26 0 49 -6t40.5 -19t27.5 -33.5t10 -48.5v-489q0 -70 4 -112.5t21 -66t51 -31t94 -7.5t94.5 7.5t52.5 31t22.5 66t4.5 112.5v489q0 28 10 48.5t27 33.5t39.5 19t48.5 6t49 -6t40.5 -19t27.5 -33.5t10 -48.5v-501 q0 -143 -20.5 -228.5t-70 -130.5t-131.5 -59t-204 -14q-48 0 -89 1.5t-77 6.5v-244q0 -29 -10.5 -49.5t-28.5 -33t-42 -18t-50 -5.5q-27 0 -50 5.5t-40 18t-27 33t-10 49.5z" />
<glyph unicode="&#xb6;" horiz-adv-x="973" d="M113 936q0 129 17.5 209.5t57.5 125.5t104.5 61t158.5 16q21 0 34 -9.5t13 -27.5v-1532q0 -17 -13 -30t-34 -13q-22 0 -36 13t-14 30v762q-80 3 -135 21t-89 62t-49 119.5t-15 192.5zM702 -221v1530q0 18 16 28.5t38 10.5q21 0 37 -10.5t16 -28.5v-1530q0 -17 -16 -30 t-37 -13q-22 0 -38 13t-16 30z" />
<glyph unicode="&#xb7;" horiz-adv-x="451" d="M63 682q0 34 12 63.5t33.5 52t50.5 35.5t64 13q34 0 63.5 -13t51.5 -35.5t34.5 -52t12.5 -63.5q0 -35 -12.5 -65t-34.5 -51.5t-51.5 -33.5t-63.5 -12q-35 0 -64 12t-50.5 33.5t-33.5 51.5t-12 65z" />
<glyph unicode="&#xb8;" horiz-adv-x="573" d="M49 -309q0 31 22 52t54 21q12 0 26 -4t29 -8.5t30.5 -8t31.5 -3.5q37 0 60.5 7t23.5 30q0 17 -15.5 23.5t-39 9t-51 3.5t-51 7t-39 19.5t-15.5 41.5q0 30 30 62l56 57h190l-53 -61q34 -5 62.5 -15.5t49.5 -29t32.5 -46t11.5 -67.5q0 -56 -21.5 -91.5t-57 -55t-80 -26.5 t-89.5 -7q-32 0 -70.5 6t-69.5 14q-27 8 -42 27.5t-15 42.5z" />
<glyph unicode="&#xb9;" d="M92 580q0 38 22 66t72 28h111v465h-111q-25 0 -43 8t-29 21t-16.5 30.5t-5.5 36.5q0 40 22 68t72 28h236q50 0 71 -28t21 -68v-561h109q27 0 45 -7.5t29 -20.5t15.5 -30t4.5 -36q0 -41 -20.5 -69t-73.5 -28h-437q-50 0 -72 28t-22 69z" />
<glyph unicode="&#xba;" horiz-adv-x="795" d="M111 498q0 34 17 58t52 24h432q35 0 53.5 -24t18.5 -58q0 -35 -18.5 -59.5t-53.5 -24.5h-432q-35 0 -52 24.5t-17 59.5zM111 991q0 106 14.5 172.5t47.5 103.5t87.5 50.5t134.5 13.5q79 0 134 -13.5t89.5 -50.5t50 -103.5t15.5 -172.5t-15.5 -170.5t-50 -100t-89.5 -47 t-134 -11.5q-80 0 -134.5 11.5t-87.5 47t-47.5 100t-14.5 170.5zM279 993q0 -63 5 -98t18.5 -52t35.5 -20.5t57 -3.5q33 0 55.5 3.5t36 20.5t19.5 52t6 98q0 65 -6 101.5t-19.5 54t-36 21.5t-55.5 4q-35 0 -57 -4t-35.5 -21.5t-18.5 -54t-5 -101.5z" />
<glyph unicode="&#xbb;" horiz-adv-x="1135" d="M84 258.5q1 36.5 33 75.5l180 213v8l-180 213q-32 38 -33 75t20 58.5t59.5 21t84.5 -37.5l215 -174q21 -17 40.5 -35.5t34.5 -38.5t24 -41.5t9 -44.5t-9 -44.5t-24 -41.5t-34.5 -38.5t-40.5 -35.5l-215 -174q-46 -37 -84.5 -37.5t-59.5 21t-20 58zM555 258.5 q1 36.5 33 75.5l180 213v8l-180 213q-32 38 -33 75t20 58.5t59.5 21t84.5 -37.5l215 -174q21 -17 40.5 -35.5t34.5 -38.5t24 -41.5t9 -44.5t-9 -44.5t-24 -41.5t-34.5 -38.5t-40.5 -35.5l-215 -174q-46 -37 -84.5 -37.5t-59.5 21t-20 58z" />
<glyph unicode="&#xbc;" horiz-adv-x="1966" d="M92 580q0 38 22 66t72 28h111v465h-111q-25 0 -43 8t-29 21t-16.5 30.5t-5.5 36.5q0 40 22 68t72 28h236q50 0 71 -28t21 -68v-561h109q27 0 45 -7.5t29 -20.5t15.5 -30t4.5 -36q0 -41 -20.5 -69t-73.5 -28h-437q-50 0 -72 28t-22 69zM555 66q0 17 12 43l674 1202 q12 21 30.5 31t37.5 10q17 0 35 -7t33 -19t24.5 -28t9.5 -34q0 -19 -12 -43l-674 -1203q-12 -21 -31 -29.5t-39 -8.5q-21 0 -39 7.5t-31.5 20t-21.5 28t-8 30.5zM1147 264q0 22 9.5 44.5t23.5 39.5l358 473q17 22 44.5 31.5t51.5 9.5q45 0 77 -21t32 -69v-416h22 q50 0 73.5 -25.5t23.5 -68.5t-23.5 -68.5t-73.5 -25.5h-22v-90q0 -47 -29.5 -67.5t-77.5 -20.5t-77 20.5t-29 67.5v90h-283q-22 0 -40.5 8t-31.5 21t-20.5 30.5t-7.5 36.5zM1395 356h135v185z" />
<glyph unicode="&#xbd;" horiz-adv-x="1966" d="M92 580q0 38 22 66t72 28h111v465h-111q-25 0 -43 8t-29 21t-16.5 30.5t-5.5 36.5q0 40 22 68t72 28h236q50 0 71 -28t21 -68v-561h109q27 0 45 -7.5t29 -20.5t15.5 -30t4.5 -36q0 -41 -20.5 -69t-73.5 -28h-437q-50 0 -72 28t-22 69zM555 66q0 17 12 43l674 1202 q12 21 30.5 31t37.5 10q17 0 35 -7t33 -19t24.5 -28t9.5 -34q0 -19 -12 -43l-674 -1203q-12 -21 -31 -29.5t-39 -8.5q-21 0 -39 7.5t-31.5 20t-21.5 28t-8 30.5zM1214 88v84q0 91 42 150.5t135 97.5l118 51q23 10 39 20.5t26 24t14.5 30.5t4.5 40q0 49 -22 69.5t-78 20.5 q-45 0 -89 -7t-95 -7t-73 24t-22 66q0 37 21.5 59.5t56.5 32.5q9 2 24 5t40 5.5t60.5 4t84.5 1.5q85 0 146 -12.5t99.5 -44t56.5 -84t18 -133.5q0 -62 -14 -106t-41 -76.5t-67.5 -57t-94.5 -47.5l-91 -41q-43 -20 -58 -37.5t-17 -30.5h303q50 0 71 -28t21 -66q0 -40 -21 -68 t-71 -28h-434q-47 0 -70 20t-23 68z" />
<glyph unicode="&#xbe;" horiz-adv-x="1966" d="M76 594q0 40 25.5 67t68.5 27q29 0 52.5 -3.5t49.5 -8.5q25 -5 52.5 -8.5t50.5 -3.5q63 0 97 21t34 65q0 42 -25.5 60.5t-87.5 18.5h-119q-52 0 -74 28t-22 69q0 42 22 68t74 26h119q48 0 70 15t22 59q0 20 -10 32.5t-27 19t-39 9t-47 2.5q-45 0 -88 -7t-94 -7t-72.5 24 t-21.5 66q0 37 21.5 59t56.5 31q16 4 65 11t144 7q78 0 139.5 -13t105 -41t66.5 -72.5t23 -108.5q0 -63 -20 -101.5t-48 -64.5q43 -29 65.5 -73t22.5 -119q0 -79 -26.5 -132t-73 -85.5t-109 -46t-133.5 -13.5q-63 0 -119 5t-98.5 18.5t-67 37.5t-24.5 62zM555 66q0 17 12 43 l674 1202q12 21 30.5 31t37.5 10q17 0 35 -7t33 -19t24.5 -28t9.5 -34q0 -19 -12 -43l-674 -1203q-12 -21 -31 -29.5t-39 -8.5q-21 0 -39 7.5t-31.5 20t-21.5 28t-8 30.5zM1147 264q0 22 9.5 44.5t23.5 39.5l358 473q17 22 44.5 31.5t51.5 9.5q45 0 77 -21t32 -69v-416h22 q50 0 73.5 -25.5t23.5 -68.5t-23.5 -68.5t-73.5 -25.5h-22v-90q0 -47 -29.5 -67.5t-77.5 -20.5t-77 20.5t-29 67.5v90h-283q-22 0 -40.5 8t-31.5 21t-20.5 30.5t-7.5 36.5zM1395 356h135v185z" />
<glyph unicode="&#xbf;" horiz-adv-x="899" d="M104 -6q0 74 18 130.5t46 101t61 79.5t62.5 67.5t51.5 64t28 69.5q2 16 6.5 35.5t18 36t39 27.5t69.5 11q60 0 92.5 -27.5t32.5 -96.5q0 -53 -19.5 -96.5t-48 -81.5t-62.5 -73t-62.5 -71t-48 -74.5t-19.5 -83.5q0 -60 41.5 -94.5t134.5 -34.5q31 0 64.5 3.5t65 8t60 8 t51.5 3.5q51 0 79 -24t28 -81q0 -43 -16.5 -71t-67.5 -43q-12 -4 -35 -9.5t-57 -10t-76.5 -8t-93.5 -3.5q-107 0 -189.5 18t-139 58.5t-85.5 105t-29 156.5zM352 866q0 34 12.5 63t33.5 50t50 33t62 12q34 0 62.5 -12t49.5 -33t32.5 -50t11.5 -63q0 -33 -11.5 -62 t-32.5 -50.5t-49.5 -34t-62.5 -12.5q-33 0 -62 12.5t-50 34t-33.5 50.5t-12.5 62z" />
<glyph unicode="&#xc0;" horiz-adv-x="1305" d="M12 96q0 16 3.5 31.5t11.5 32.5l434 1059q31 74 81 103.5t109 29.5q68 0 116.5 -34t74.5 -99l436 -1059q12 -35 12 -62t-11 -48.5t-29.5 -36t-42.5 -22t-50 -7.5q-21 0 -42.5 5.5t-40.5 17t-34 29t-24 42.5l-103 268h-526l-98 -266q-19 -51 -60 -74.5t-86 -23.5 q-25 0 -48.5 7.5t-42 22t-29.5 36t-11 48.5zM475 580h350l-161 430h-29zM479 1622q0 19 8.5 37t23 31.5t33.5 21.5t40 8q20 0 39.5 -8.5t38.5 -28.5l137 -139q14 -14 20 -29.5t6 -29.5q0 -31 -24.5 -52.5t-59.5 -21.5q-15 0 -30.5 5t-30.5 16l-160 118q-41 34 -41 72z" />
<glyph unicode="&#xc1;" horiz-adv-x="1305" d="M12 96q0 16 3.5 31.5t11.5 32.5l434 1059q31 74 81 103.5t109 29.5q68 0 116.5 -34t74.5 -99l436 -1059q12 -35 12 -62t-11 -48.5t-29.5 -36t-42.5 -22t-50 -7.5q-21 0 -42.5 5.5t-40.5 17t-34 29t-24 42.5l-103 268h-526l-98 -266q-19 -51 -60 -74.5t-86 -23.5 q-25 0 -48.5 7.5t-42 22t-29.5 36t-11 48.5zM475 580h350l-161 430h-29zM479 1485q0 14 6.5 29.5t20.5 29.5l137 139q19 20 38.5 28.5t39.5 8.5q21 0 39.5 -8t33 -21.5t23 -31.5t8.5 -37t-9.5 -37t-31.5 -35l-159 -118q-16 -11 -31 -16t-31 -5q-35 0 -59.5 21.5t-24.5 52.5z " />
<glyph unicode="&#xc2;" horiz-adv-x="1305" d="M12 96q0 16 3.5 31.5t11.5 32.5l434 1059q31 74 81 103.5t109 29.5q68 0 116.5 -34t74.5 -99l436 -1059q12 -35 12 -62t-11 -48.5t-29.5 -36t-42.5 -22t-50 -7.5q-21 0 -42.5 5.5t-40.5 17t-34 29t-24 42.5l-103 268h-526l-98 -266q-19 -51 -60 -74.5t-86 -23.5 q-25 0 -48.5 7.5t-42 22t-29.5 36t-11 48.5zM373 1468q-6 24 2 50t33 45l133 102q26 20 55 31.5t55 11.5t55.5 -11.5t55.5 -31.5l133 -102q25 -19 33 -45t2 -50t-24 -40.5t-46 -16.5q-15 0 -29 4t-26 10l-154 72l-153 -72q-13 -6 -26.5 -10t-29.5 -4q-27 0 -45 16.5 t-24 40.5zM475 580h350l-161 430h-29z" />
<glyph unicode="&#xc3;" horiz-adv-x="1305" d="M12 96q0 16 3.5 31.5t11.5 32.5l434 1059q31 74 81 103.5t109 29.5q68 0 116.5 -34t74.5 -99l436 -1059q12 -35 12 -62t-11 -48.5t-29.5 -36t-42.5 -22t-50 -7.5q-21 0 -42.5 5.5t-40.5 17t-34 29t-24 42.5l-103 268h-526l-98 -266q-19 -51 -60 -74.5t-86 -23.5 q-25 0 -48.5 7.5t-42 22t-29.5 36t-11 48.5zM371 1548q0 42 18.5 68t42 40t45.5 18.5t29 4.5q34 0 67.5 -7.5t63 -16t53 -16t37.5 -7.5t26.5 7.5t26 16t29.5 16t37 7.5q35 0 61.5 -26.5t26.5 -75.5q0 -38 -16.5 -63t-39.5 -41t-48.5 -22.5t-43.5 -6.5q-21 0 -50 8t-58 17.5 t-55.5 17.5t-44.5 8t-30 -7.5t-24 -16t-26 -16t-35 -7.5q-38 0 -65 25.5t-27 74.5zM475 580h350l-161 430h-29z" />
<glyph unicode="&#xc4;" horiz-adv-x="1305" d="M12 96q0 16 3.5 31.5t11.5 32.5l434 1059q31 74 81 103.5t109 29.5q68 0 116.5 -34t74.5 -99l436 -1059q12 -35 12 -62t-11 -48.5t-29.5 -36t-42.5 -22t-50 -7.5q-21 0 -42.5 5.5t-40.5 17t-34 29t-24 42.5l-103 268h-526l-98 -266q-19 -51 -60 -74.5t-86 -23.5 q-25 0 -48.5 7.5t-42 22t-29.5 36t-11 48.5zM369 1579q0 27 9.5 51t27 41.5t40.5 28t50 10.5t50.5 -10.5t41.5 -28t28.5 -41.5t10.5 -51t-10.5 -50.5t-28.5 -41t-41.5 -27.5t-50.5 -10t-50 10t-40.5 27.5t-27 41t-9.5 50.5zM475 580h350l-161 430h-29zM678 1579q0 27 9.5 51 t27 41.5t40.5 28t50 10.5t50.5 -10.5t41 -28t27.5 -41.5t10 -51t-10 -50.5t-27.5 -41t-41 -27.5t-50.5 -10t-50 10t-40.5 27.5t-27 41t-9.5 50.5z" />
<glyph unicode="&#xc5;" horiz-adv-x="1305" d="M14.5 84.5q-4.5 33.5 12.5 75.5l438 1073q-34 32 -53 76t-19 100q0 58 21.5 103t57 76.5t81.5 48t96 16.5t96 -16.5t81.5 -48t57 -76.5t21.5 -103q0 -56 -19.5 -99t-51.5 -75l444 -1075q17 -42 12 -74.5t-23.5 -55t-48 -34.5t-61.5 -12q-21 0 -42.5 5.5t-40.5 17t-34 29 t-24 42.5l-103 268h-526l-98 -266q-19 -51 -60 -74.5t-86 -23.5q-32 0 -60 12t-46 34.5t-22.5 56zM475 580h350l-161 430h-29zM555 1409q0 -46 27 -72t67 -26q38 0 65 26t27 72q0 45 -27 70.5t-65 25.5q-40 0 -67 -25.5t-27 -70.5z" />
<glyph unicode="&#xc6;" horiz-adv-x="1915" d="M17.5 111.5q2.5 42.5 35.5 95.5l613 991q42 68 86.5 100.5t103.5 32.5h895q57 0 80.5 -35t23.5 -86q0 -25 -5.5 -46.5t-18 -37.5t-32.5 -25t-48 -9h-543v-295h396q28 0 48 -9t32.5 -25t18 -38t5.5 -47q0 -51 -24 -85t-80 -34h-396v-317h564q55 0 78.5 -34.5t23.5 -84.5 q0 -26 -5.5 -48t-18 -39t-32 -26.5t-46.5 -9.5h-703q-54 0 -90.5 27t-36.5 84v235h-496l-157 -266q-26 -44 -63 -66.5t-74 -26t-69.5 10.5t-50 42.5t-15 71zM584 580h358v512h-53z" />
<glyph unicode="&#xc7;" horiz-adv-x="1090" d="M131 653q0 207 28 342.5t91 214.5t165 110.5t251 31.5q50 0 97 -3t86 -7.5t66.5 -9t38.5 -7.5q48 -14 69 -41.5t21 -77.5q0 -25 -5.5 -47.5t-17.5 -39t-31.5 -26.5t-47.5 -10q-32 0 -64.5 4t-65.5 8.5t-67 8.5t-71 4q-53 0 -94 -5t-71.5 -21.5t-52 -47t-34.5 -80.5 t-19 -123t-6 -174t8 -172t23.5 -119t39.5 -76t55.5 -42.5t70.5 -18.5t86 -4q34 0 58 1t42.5 3t33.5 5l30 6q20 5 45 7.5t53 2.5t47.5 -9.5t31.5 -25.5t17.5 -37.5t5.5 -46.5q0 -46 -23 -79t-67 -46q-12 -4 -40.5 -8.5t-67.5 -8.5t-85.5 -6.5t-94.5 -2.5h-21l-35 -41 q34 -5 62.5 -15.5t49.5 -29t32.5 -46t11.5 -67.5q0 -56 -21.5 -91.5t-57 -55t-80 -26.5t-89.5 -7q-32 0 -70 6t-69 14q-28 8 -42.5 27.5t-14.5 42.5q0 31 21.5 52t53.5 21q12 0 26 -4t29 -8.5t30.5 -8t31.5 -3.5q37 0 60.5 7t23.5 30q0 17 -15.5 23.5t-39 9t-51 3.5t-51 7 t-39 19.5t-15.5 41.5q0 31 31 62l49 51q-90 15 -154 54.5t-104.5 116t-59 195.5t-18.5 293z" />
<glyph unicode="&#xc8;" horiz-adv-x="1135" d="M162 111v1110q0 57 36.5 83.5t90.5 26.5h682q57 0 80.5 -35t23.5 -86q0 -25 -5.5 -46.5t-18 -37.5t-32.5 -25t-48 -9h-543v-295h395q28 0 48 -9t33 -25t18.5 -38t5.5 -47q0 -51 -24 -85t-81 -34h-395v-317h563q28 0 47.5 -9t32 -25t18 -38t5.5 -47q0 -26 -5.5 -48 t-18 -39t-32 -26.5t-47.5 -9.5h-702q-54 0 -90.5 27t-36.5 84zM393 1622q0 19 8.5 37t23 31.5t33.5 21.5t40 8q20 0 39.5 -8.5t37.5 -28.5l138 -139q14 -14 20 -29.5t6 -29.5q0 -31 -24.5 -52.5t-59.5 -21.5q-15 0 -30.5 5t-30.5 16l-160 118q-41 34 -41 72z" />
<glyph unicode="&#xc9;" horiz-adv-x="1135" d="M162 111v1110q0 57 36.5 83.5t90.5 26.5h682q57 0 80.5 -35t23.5 -86q0 -25 -5.5 -46.5t-18 -37.5t-32.5 -25t-48 -9h-543v-295h395q28 0 48 -9t33 -25t18.5 -38t5.5 -47q0 -51 -24 -85t-81 -34h-395v-317h563q28 0 47.5 -9t32 -25t18 -38t5.5 -47q0 -26 -5.5 -48 t-18 -39t-32 -26.5t-47.5 -9.5h-702q-54 0 -90.5 27t-36.5 84zM393 1485q0 14 6.5 29.5t20.5 29.5l137 139q19 20 38.5 28.5t39.5 8.5q21 0 39.5 -8t33 -21.5t23 -31.5t8.5 -37t-9.5 -37t-31.5 -35l-159 -118q-16 -11 -31 -16t-31 -5q-35 0 -59.5 21.5t-24.5 52.5z" />
<glyph unicode="&#xca;" horiz-adv-x="1135" d="M162 111v1110q0 57 36.5 83.5t90.5 26.5h682q57 0 80.5 -35t23.5 -86q0 -25 -5.5 -46.5t-18 -37.5t-32.5 -25t-48 -9h-543v-295h395q28 0 48 -9t33 -25t18.5 -38t5.5 -47q0 -51 -24 -85t-81 -34h-395v-317h563q28 0 47.5 -9t32 -25t18 -38t5.5 -47q0 -26 -5.5 -48 t-18 -39t-32 -26.5t-47.5 -9.5h-702q-54 0 -90.5 27t-36.5 84zM289 1468q-6 24 2 50t33 45l133 102q26 20 55 31.5t55 11.5t55.5 -11.5t55.5 -31.5l133 -102q25 -19 33 -45t2 -50t-24 -40.5t-46 -16.5q-15 0 -29 4t-26 10l-154 72l-153 -72q-13 -6 -26.5 -10t-29.5 -4 q-27 0 -45 16.5t-24 40.5z" />
<glyph unicode="&#xcb;" horiz-adv-x="1135" d="M162 111v1110q0 57 36.5 83.5t90.5 26.5h682q57 0 80.5 -35t23.5 -86q0 -25 -5.5 -46.5t-18 -37.5t-32.5 -25t-48 -9h-543v-295h395q28 0 48 -9t33 -25t18.5 -38t5.5 -47q0 -51 -24 -85t-81 -34h-395v-317h563q28 0 47.5 -9t32 -25t18 -38t5.5 -47q0 -26 -5.5 -48 t-18 -39t-32 -26.5t-47.5 -9.5h-702q-54 0 -90.5 27t-36.5 84zM285 1579q0 27 9.5 51t27 41.5t40.5 28t50 10.5t50.5 -10.5t41.5 -28t28.5 -41.5t10.5 -51t-10.5 -50.5t-28.5 -41t-41.5 -27.5t-50.5 -10t-50 10t-40.5 27.5t-27 41t-9.5 50.5zM594 1579q0 27 9.5 51t27 41.5 t40.5 28t50 10.5t50.5 -10.5t41 -28t27.5 -41.5t10 -51t-10 -50.5t-27.5 -41t-41 -27.5t-50.5 -10t-50 10t-40.5 27.5t-27 41t-9.5 50.5z" />
<glyph unicode="&#xcc;" horiz-adv-x="774" d="M57 117q0 52 23 84t80 32h94v863h-94q-57 0 -80 32t-23 84q0 53 23 86t80 33h454q57 0 80 -33t23 -86q0 -52 -23 -84t-80 -32h-94v-863h94q57 0 80 -32t23 -84q0 -53 -23 -85t-80 -32h-454q-57 0 -80 32t-23 85zM213 1622q0 19 8.5 37t23 31.5t33 21.5t39.5 8 q20 0 40 -8.5t38 -28.5l137 -139q14 -14 20.5 -29.5t6.5 -29.5q0 -31 -24.5 -52.5t-59.5 -21.5q-15 0 -30.5 5t-30.5 16l-160 118q-22 17 -31.5 35t-9.5 37z" />
<glyph unicode="&#xcd;" horiz-adv-x="774" d="M57 117q0 52 23 84t80 32h94v863h-94q-57 0 -80 32t-23 84q0 53 23 86t80 33h454q57 0 80 -33t23 -86q0 -52 -23 -84t-80 -32h-94v-863h94q57 0 80 -32t23 -84q0 -53 -23 -85t-80 -32h-454q-57 0 -80 32t-23 85zM213 1485q0 14 6.5 29.5t20.5 29.5l137 139q18 20 38 28.5 t40 8.5q21 0 39.5 -8t33 -21.5t23 -31.5t8.5 -37t-9.5 -37t-31.5 -35l-160 -118q-15 -11 -30.5 -16t-30.5 -5q-35 0 -59.5 21.5t-24.5 52.5z" />
<glyph unicode="&#xce;" horiz-adv-x="774" d="M57 117q0 52 23 84t80 32h94v863h-94q-57 0 -80 32t-23 84q0 53 23 86t80 33h454q57 0 80 -33t23 -86q0 -52 -23 -84t-80 -32h-94v-863h94q57 0 80 -32t23 -84q0 -53 -23 -85t-80 -32h-454q-57 0 -80 32t-23 85zM108.5 1468q-5.5 24 2.5 50t32 45l133 102 q26 20 55.5 31.5t55.5 11.5t55.5 -11.5t55.5 -31.5l133 -102q24 -19 32 -45t2.5 -50t-23.5 -40.5t-46 -16.5q-16 0 -29.5 4t-25.5 10l-154 72l-154 -72q-12 -6 -25.5 -10t-29.5 -4q-28 0 -46 16.5t-23.5 40.5z" />
<glyph unicode="&#xcf;" horiz-adv-x="774" d="M57 117q0 52 23 84t80 32h94v863h-94q-57 0 -80 32t-23 84q0 53 23 86t80 33h454q57 0 80 -33t23 -86q0 -52 -23 -84t-80 -32h-94v-863h94q57 0 80 -32t23 -84q0 -53 -23 -85t-80 -32h-454q-57 0 -80 32t-23 85zM104 1579q0 27 10 51t27 41.5t40 28t50 10.5t51 -10.5 t41.5 -28t28 -41.5t10.5 -51t-10.5 -50.5t-28 -41t-41.5 -27.5t-51 -10t-50 10t-40 27.5t-27 41t-10 50.5zM414 1579q0 27 9.5 51t27 41.5t40.5 28t50 10.5t50.5 -10.5t41 -28t27.5 -41.5t10 -51t-10 -50.5t-27.5 -41t-41 -27.5t-50.5 -10t-50 10t-40.5 27.5t-27 41 t-9.5 50.5z" />
<glyph unicode="&#xd0;" horiz-adv-x="1389" d="M20 684q0 48 23 81.5t74 33.5h45v422q0 56 36.5 83t92.5 27h356q106 0 192.5 -10t154 -36.5t117.5 -73.5t82.5 -121.5t48 -180.5t15.5 -250t-18.5 -248.5t-55 -178t-89 -119t-120 -70.5t-150 -34t-177.5 -9h-356q-28 0 -51.5 6t-41 19t-27 34t-9.5 50v458h-45 q-26 0 -44 9.5t-30 25.5t-17.5 37t-5.5 45zM428 242h209q87 0 153 14t110.5 58.5t67.5 127t23 220.5q0 139 -22 223.5t-66 130.5t-110.5 61t-155.5 15h-209v-293h182q51 0 75 -33.5t24 -81.5q0 -24 -6 -45t-18 -37t-31 -25.5t-44 -9.5h-182v-325z" />
<glyph unicode="&#xd1;" horiz-adv-x="1423" d="M164 94v1041q0 58 17.5 99t44.5 67.5t60.5 38.5t65.5 12q45 0 77 -10.5t56 -28.5t41.5 -41.5t32.5 -50.5l445 -842h8v858q0 57 36 84t89 27q55 0 89 -27t34 -84v-1040q0 -59 -17.5 -100t-45.5 -67t-61.5 -38t-64.5 -12q-45 0 -77 10.5t-55.5 28.5t-40.5 42t-32 50 l-448 843h-4v-860q0 -29 -10 -49.5t-27.5 -34t-40.5 -20t-49 -6.5q-57 0 -90 26.5t-33 83.5zM430 1548q0 42 18.5 68t42 40t45.5 18.5t29 4.5q34 0 67.5 -7.5t63 -16t53 -16t37.5 -7.5t26.5 7.5t26 16t29.5 16t37 7.5q35 0 61.5 -26.5t26.5 -75.5q0 -38 -16.5 -63t-39.5 -41 t-48 -22.5t-43 -6.5q-22 0 -50.5 8t-58 17.5t-56 17.5t-44.5 8t-30 -7.5t-23.5 -16t-25.5 -16t-36 -7.5q-38 0 -65 25.5t-27 74.5z" />
<glyph unicode="&#xd2;" horiz-adv-x="1409" d="M131 653q0 143 13 251t41 185.5t73 128.5t109 80.5t147.5 41.5t190.5 12q106 0 190 -12t147.5 -42t108.5 -80.5t73 -128t41 -185.5t13 -251q0 -144 -13 -250t-41 -181t-73 -122t-108.5 -73.5t-147.5 -36.5t-190 -10t-190 10t-148 36.5t-109 73.5t-73 122t-41 181t-13 250 zM397 657q0 -104 7 -176.5t22.5 -121t39.5 -76t58.5 -41.5t79 -17.5t101.5 -3.5q56 0 100.5 3.5t79 17.5t58.5 41.5t39.5 76t22.5 121t7 176.5q0 106 -7 181.5t-22.5 126t-39.5 80t-58.5 44.5t-79 19t-100.5 4q-57 0 -101.5 -4t-79 -19t-58.5 -44.5t-39.5 -80t-22.5 -126 t-7 -181.5zM530 1622q0 19 8.5 37t23 31.5t33.5 21.5t40 8q20 0 39.5 -8.5t38.5 -28.5l137 -139q14 -14 20.5 -29.5t6.5 -29.5q0 -31 -24.5 -52.5t-59.5 -21.5q-16 0 -31 5t-31 16l-160 118q-41 34 -41 72z" />
<glyph unicode="&#xd3;" horiz-adv-x="1409" d="M131 653q0 143 13 251t41 185.5t73 128.5t109 80.5t147.5 41.5t190.5 12q106 0 190 -12t147.5 -42t108.5 -80.5t73 -128t41 -185.5t13 -251q0 -144 -13 -250t-41 -181t-73 -122t-108.5 -73.5t-147.5 -36.5t-190 -10t-190 10t-148 36.5t-109 73.5t-73 122t-41 181t-13 250 zM397 657q0 -104 7 -176.5t22.5 -121t39.5 -76t58.5 -41.5t79 -17.5t101.5 -3.5q56 0 100.5 3.5t79 17.5t58.5 41.5t39.5 76t22.5 121t7 176.5q0 106 -7 181.5t-22.5 126t-39.5 80t-58.5 44.5t-79 19t-100.5 4q-57 0 -101.5 -4t-79 -19t-58.5 -44.5t-39.5 -80t-22.5 -126 t-7 -181.5zM530 1485q0 14 6.5 29.5t20.5 29.5l137 139q19 20 38.5 28.5t39.5 8.5q21 0 40 -8t33.5 -21.5t23 -31.5t8.5 -37q0 -38 -41 -72l-160 -118q-16 -11 -31 -16t-31 -5q-35 0 -59.5 21.5t-24.5 52.5z" />
<glyph unicode="&#xd4;" horiz-adv-x="1409" d="M131 653q0 143 13 251t41 185.5t73 128.5t109 80.5t147.5 41.5t190.5 12q106 0 190 -12t147.5 -42t108.5 -80.5t73 -128t41 -185.5t13 -251q0 -144 -13 -250t-41 -181t-73 -122t-108.5 -73.5t-147.5 -36.5t-190 -10t-190 10t-148 36.5t-109 73.5t-73 122t-41 181t-13 250 zM397 657q0 -104 7 -176.5t22.5 -121t39.5 -76t58.5 -41.5t79 -17.5t101.5 -3.5q56 0 100.5 3.5t79 17.5t58.5 41.5t39.5 76t22.5 121t7 176.5q0 106 -7 181.5t-22.5 126t-39.5 80t-58.5 44.5t-79 19t-100.5 4q-57 0 -101.5 -4t-79 -19t-58.5 -44.5t-39.5 -80t-22.5 -126 t-7 -181.5zM426 1468q-6 24 2 50t33 45l133 102q26 20 55.5 31.5t55.5 11.5t55 -11.5t55 -31.5l133 -102q25 -19 33 -45t2 -50t-24 -40.5t-46 -16.5q-15 0 -29 4t-26 10l-153 72l-154 -72q-12 -6 -26 -10t-29 -4q-28 0 -46 16.5t-24 40.5z" />
<glyph unicode="&#xd5;" horiz-adv-x="1409" d="M131 653q0 143 13 251t41 185.5t73 128.5t109 80.5t147.5 41.5t190.5 12q106 0 190 -12t147.5 -42t108.5 -80.5t73 -128t41 -185.5t13 -251q0 -144 -13 -250t-41 -181t-73 -122t-108.5 -73.5t-147.5 -36.5t-190 -10t-190 10t-148 36.5t-109 73.5t-73 122t-41 181t-13 250 zM397 657q0 -104 7 -176.5t22.5 -121t39.5 -76t58.5 -41.5t79 -17.5t101.5 -3.5q56 0 100.5 3.5t79 17.5t58.5 41.5t39.5 76t22.5 121t7 176.5q0 106 -7 181.5t-22.5 126t-39.5 80t-58.5 44.5t-79 19t-100.5 4q-57 0 -101.5 -4t-79 -19t-58.5 -44.5t-39.5 -80t-22.5 -126 t-7 -181.5zM422 1548q0 42 18.5 68t42 40t45.5 18.5t29 4.5q34 0 67.5 -7.5t63 -16t53 -16t37.5 -7.5t26.5 7.5t26 16t29.5 16t37 7.5q35 0 61.5 -26.5t26.5 -75.5q0 -38 -16.5 -63t-39.5 -41t-48 -22.5t-43 -6.5q-22 0 -50.5 8t-58 17.5t-56 17.5t-44.5 8t-30 -7.5t-24 -16 t-26 -16t-35 -7.5q-38 0 -65 25.5t-27 74.5z" />
<glyph unicode="&#xd6;" horiz-adv-x="1409" d="M131 653q0 143 13 251t41 185.5t73 128.5t109 80.5t147.5 41.5t190.5 12q106 0 190 -12t147.5 -42t108.5 -80.5t73 -128t41 -185.5t13 -251q0 -144 -13 -250t-41 -181t-73 -122t-108.5 -73.5t-147.5 -36.5t-190 -10t-190 10t-148 36.5t-109 73.5t-73 122t-41 181t-13 250 zM397 657q0 -104 7 -176.5t22.5 -121t39.5 -76t58.5 -41.5t79 -17.5t101.5 -3.5q56 0 100.5 3.5t79 17.5t58.5 41.5t39.5 76t22.5 121t7 176.5q0 106 -7 181.5t-22.5 126t-39.5 80t-58.5 44.5t-79 19t-100.5 4q-57 0 -101.5 -4t-79 -19t-58.5 -44.5t-39.5 -80t-22.5 -126 t-7 -181.5zM422 1579q0 27 9.5 51t27 41.5t40.5 28t50 10.5t51 -10.5t41.5 -28t28 -41.5t10.5 -51t-10.5 -50.5t-28 -41t-41.5 -27.5t-51 -10t-50 10t-40.5 27.5t-27 41t-9.5 50.5zM731 1579q0 27 9.5 51t27 41.5t40.5 28t50 10.5t50.5 -10.5t41 -28t27.5 -41.5t10 -51 t-10 -50.5t-27.5 -41t-41 -27.5t-50.5 -10t-50 10t-40.5 27.5t-27 41t-9.5 50.5z" />
<glyph unicode="&#xd7;" horiz-adv-x="1147" d="M171.5 401.5q-2.5 19.5 4.5 38.5t25 37l207 209l-207 207q-35 35 -28.5 76t40.5 75q34 35 75 41.5t77 -28.5l206 -207l209 209q35 35 76.5 28.5t75.5 -40.5q34 -35 40.5 -76t-28.5 -76l-209 -209l211 -211q35 -35 27.5 -75t-41.5 -74q-17 -17 -36 -28t-38.5 -14t-38.5 4 t-37 25l-211 209l-209 -209q-35 -35 -75 -27t-74 42q-17 17 -28 35.5t-13.5 38z" />
<glyph unicode="&#xd8;" horiz-adv-x="1409" d="M131 653q0 143 13 251t41 185.5t73 128.5t109 80.5t147.5 41.5t190.5 12q152 0 260 -27l51 94q12 22 30.5 31.5t36.5 9.5q17 0 35 -7t33 -19t25 -28t10 -34t-12 -43l-48 -86q41 -37 70 -90t47 -125t26.5 -165t8.5 -210q0 -144 -13 -250t-41 -181t-73 -122t-108.5 -73.5 t-147.5 -36.5t-190 -10q-78 0 -142.5 5t-118.5 17l-53 -98q-12 -22 -30.5 -30.5t-38.5 -8.5q-21 0 -39.5 7.5t-32 20t-21.5 28t-8 30.5q0 17 12 43l48 84q-40 34 -68.5 84.5t-46.5 120.5t-26.5 161.5t-8.5 208.5zM397 657q0 -109 8 -183t25 -124l412 752q-29 6 -63 8t-74 2 q-57 0 -101.5 -4t-79 -19t-58.5 -44.5t-39.5 -80t-22.5 -126t-7 -181.5zM569 229q29 -6 62 -7t74 -1q56 0 100.5 3.5t79 17.5t58.5 41.5t39.5 76t22.5 121t7 176.5q0 113 -8 190t-25 128z" />
<glyph unicode="&#xd9;" horiz-adv-x="1354" d="M160 440v799q0 29 10.5 50t29 34t42.5 19t51 6t51 -6t42.5 -19t29 -34t10.5 -50v-774q0 -79 12.5 -127.5t41.5 -74.5t76 -35t116 -9q68 0 117 9t80.5 35t46 74.5t14.5 127.5v774q0 29 10.5 50t29 34t42.5 19t51 6t51 -6t41.5 -19t28 -34t10.5 -50v-799q0 -106 -16 -181.5 t-46.5 -127t-75 -81.5t-102.5 -45.5t-129 -20t-153 -4.5q-83 0 -153 4.5t-126.5 20t-100 45.5t-73 81.5t-44.5 126.5t-15 182zM504 1622q0 19 8.5 37t23 31.5t33 21.5t39.5 8q20 0 40 -8.5t38 -28.5l137 -139q14 -14 20.5 -29.5t6.5 -29.5q0 -31 -24.5 -52.5t-59.5 -21.5 q-33 0 -61 21l-160 118q-22 17 -31.5 35t-9.5 37z" />
<glyph unicode="&#xda;" horiz-adv-x="1354" d="M160 440v799q0 29 10.5 50t29 34t42.5 19t51 6t51 -6t42.5 -19t29 -34t10.5 -50v-774q0 -79 12.5 -127.5t41.5 -74.5t76 -35t116 -9q68 0 117 9t80.5 35t46 74.5t14.5 127.5v774q0 29 10.5 50t29 34t42.5 19t51 6t51 -6t41.5 -19t28 -34t10.5 -50v-799q0 -106 -16 -181.5 t-46.5 -127t-75 -81.5t-102.5 -45.5t-129 -20t-153 -4.5q-83 0 -153 4.5t-126.5 20t-100 45.5t-73 81.5t-44.5 126.5t-15 182zM504 1485q0 14 6 29.5t20 29.5l138 139q18 20 37.5 28.5t39.5 8.5q21 0 40 -8t33.5 -21.5t23 -31.5t8.5 -37t-9.5 -37t-31.5 -35l-160 -118 q-15 -11 -30.5 -16t-30.5 -5q-35 0 -59.5 21.5t-24.5 52.5z" />
<glyph unicode="&#xdb;" horiz-adv-x="1354" d="M160 440v799q0 29 10.5 50t29 34t42.5 19t51 6t51 -6t42.5 -19t29 -34t10.5 -50v-774q0 -79 12.5 -127.5t41.5 -74.5t76 -35t116 -9q68 0 117 9t80.5 35t46 74.5t14.5 127.5v774q0 29 10.5 50t29 34t42.5 19t51 6t51 -6t41.5 -19t28 -34t10.5 -50v-799q0 -106 -16 -181.5 t-46.5 -127t-75 -81.5t-102.5 -45.5t-129 -20t-153 -4.5q-83 0 -153 4.5t-126.5 20t-100 45.5t-73 81.5t-44.5 126.5t-15 182zM397.5 1468q-5.5 24 2.5 50t32 45l133 102q26 20 55.5 31.5t55.5 11.5t55 -11.5t55 -31.5l134 -102q24 -19 32 -45t2 -50t-24 -40.5t-45 -16.5 q-16 0 -29.5 4t-26.5 10l-153 72l-154 -72q-12 -6 -26 -10t-29 -4q-28 0 -46 16.5t-23.5 40.5z" />
<glyph unicode="&#xdc;" horiz-adv-x="1354" d="M160 440v799q0 29 10.5 50t29 34t42.5 19t51 6t51 -6t42.5 -19t29 -34t10.5 -50v-774q0 -79 12.5 -127.5t41.5 -74.5t76 -35t116 -9q68 0 117 9t80.5 35t46 74.5t14.5 127.5v774q0 29 10.5 50t29 34t42.5 19t51 6t51 -6t41.5 -19t28 -34t10.5 -50v-799q0 -106 -16 -181.5 t-46.5 -127t-75 -81.5t-102.5 -45.5t-129 -20t-153 -4.5q-83 0 -153 4.5t-126.5 20t-100 45.5t-73 81.5t-44.5 126.5t-15 182zM412 1579q0 27 9.5 51t27 41.5t40.5 28t50 10.5t50.5 -10.5t41.5 -28t28.5 -41.5t10.5 -51t-10.5 -50.5t-28.5 -41t-41.5 -27.5t-50.5 -10t-50 10 t-40.5 27.5t-27 41t-9.5 50.5zM721 1579q0 27 9.5 51t27 41.5t40.5 28t50 10.5t50.5 -10.5t41 -28t27.5 -41.5t10 -51t-10 -50.5t-27.5 -41t-41 -27.5t-50.5 -10t-50 10t-40.5 27.5t-27 41t-9.5 50.5z" />
<glyph unicode="&#xdd;" horiz-adv-x="1094" d="M16 1235q0 59 35 86t90 27q47 0 77 -24t50 -56l279 -463l278 463q20 34 51 57t76 23q56 0 90.5 -25t34.5 -84q0 -15 -4 -34t-12 -31l-381 -613v-469q0 -29 -11 -49.5t-29 -33.5t-42 -19t-51 -6q-28 0 -52 6t-42 19t-28.5 33.5t-10.5 49.5v471l-379 611q-6 11 -12.5 27.5 t-6.5 33.5zM373 1485q0 14 6 29.5t20 29.5l138 139q18 20 37.5 28.5t39.5 8.5q21 0 40 -8t33.5 -21.5t23 -31.5t8.5 -37t-9.5 -37t-31.5 -35l-160 -118q-15 -11 -30.5 -16t-30.5 -5q-35 0 -59.5 21.5t-24.5 52.5z" />
<glyph unicode="&#xde;" horiz-adv-x="1229" d="M162 92v1147q0 29 10.5 50t29 34t42.5 19t51 6t51 -6t42.5 -19t29 -34t10.5 -50v-133h305q119 0 202.5 -19t136 -65.5t76 -125.5t23.5 -198q0 -95 -17.5 -172.5t-65.5 -133t-133.5 -86t-221.5 -30.5h-305v-184q0 -29 -10.5 -49.5t-29 -33.5t-42.5 -19t-51 -6t-51 6 t-42.5 19t-29 33.5t-10.5 49.5zM428 510h305q48 0 80.5 10.5t53 33t29.5 57.5t9 85t-9 82.5t-29.5 52t-54 27.5t-81.5 8h-303v-356z" />
<glyph unicode="&#xdf;" horiz-adv-x="1286" d="M6 887q0 50 22.5 83.5t77.5 33.5h70v30q0 98 32.5 163t95 104t152.5 55t206 16q123 0 204 -17.5t129 -57t68 -104.5t20 -159v-102q0 -47 -12.5 -73t-35 -38.5t-54 -15.5t-68.5 -4q-45 -2 -66.5 -19t-21.5 -45q0 -29 17.5 -50.5t46 -38.5t64.5 -33t74 -35.5t74 -44 t64.5 -59.5t46 -82t17.5 -111q0 -79 -28.5 -136.5t-83 -94.5t-134 -54.5t-182.5 -17.5q-94 0 -146.5 12.5t-78 32t-31.5 43t-6 45.5q0 23 3.5 43.5t15.5 36.5t33.5 25t57.5 9q25 0 43.5 -4t39 -8.5t47 -8t67.5 -3.5q63 0 96 13t33 50q0 38 -30 64t-75 49t-97 48t-97 61 t-75 87t-30 127q0 112 63 192t197 114v32q0 62 -48.5 84.5t-145.5 22.5q-65 0 -105.5 -8.5t-63.5 -26.5t-31.5 -46t-8.5 -67v-909q0 -57 -36.5 -81.5t-90.5 -24.5q-26 0 -49 6t-40 18.5t-26.5 32.5t-9.5 49v680h-70q-55 0 -77.5 33t-22.5 84z" />
<glyph unicode="&#xe0;" horiz-adv-x="1092" d="M94 305q0 85 16 145.5t60.5 99.5t122.5 57t203 18h204v41q0 37 -8 61.5t-26.5 38.5t-50 19.5t-78.5 5.5t-88 -4t-75.5 -8.5t-63 -8.5t-50.5 -4q-60 0 -84 31.5t-24 85.5q0 34 12.5 60.5t50.5 44.5t108 27t185 9q126 0 211 -13.5t137 -51t74 -103t22 -170.5v-387 q0 -101 -26 -163.5t-80 -97t-138 -46.5t-200 -12t-195 12t-128 47t-70 98.5t-21 167.5zM342 313q0 -32 7 -53.5t26.5 -34t53 -17.5t87.5 -5q53 0 88.5 4t56.5 13t30 24t9 37v137h-219q-42 0 -69 -5t-42.5 -17.5t-21.5 -32.5t-6 -50zM373 1294q0 19 8.5 37t23 32t33 22 t39.5 8q42 0 78 -37l137 -139q14 -14 20.5 -30t6.5 -30q0 -31 -24.5 -52.5t-59.5 -21.5q-31 0 -62 21l-159 119q-22 17 -31.5 35t-9.5 36z" />
<glyph unicode="&#xe1;" horiz-adv-x="1092" d="M94 305q0 85 16 145.5t60.5 99.5t122.5 57t203 18h204v41q0 37 -8 61.5t-26.5 38.5t-50 19.5t-78.5 5.5t-88 -4t-75.5 -8.5t-63 -8.5t-50.5 -4q-60 0 -84 31.5t-24 85.5q0 34 12.5 60.5t50.5 44.5t108 27t185 9q126 0 211 -13.5t137 -51t74 -103t22 -170.5v-387 q0 -101 -26 -163.5t-80 -97t-138 -46.5t-200 -12t-195 12t-128 47t-70 98.5t-21 167.5zM342 313q0 -32 7 -53.5t26.5 -34t53 -17.5t87.5 -5q53 0 88.5 4t56.5 13t30 24t9 37v137h-219q-42 0 -69 -5t-42.5 -17.5t-21.5 -32.5t-6 -50zM373 1157q0 14 6 30t20 30l138 139 q18 20 37.5 28.5t39.5 8.5q21 0 40 -8t33.5 -22t23 -32t8.5 -37q0 -18 -9.5 -36t-31.5 -35l-160 -119q-30 -21 -61 -21q-35 0 -59.5 21.5t-24.5 52.5z" />
<glyph unicode="&#xe2;" horiz-adv-x="1092" d="M94 305q0 85 16 145.5t60.5 99.5t122.5 57t203 18h204v41q0 37 -8 61.5t-26.5 38.5t-50 19.5t-78.5 5.5t-88 -4t-75.5 -8.5t-63 -8.5t-50.5 -4q-60 0 -84 31.5t-24 85.5q0 34 12.5 60.5t50.5 44.5t108 27t185 9q126 0 211 -13.5t137 -51t74 -103t22 -170.5v-387 q0 -101 -26 -163.5t-80 -97t-138 -46.5t-200 -12t-195 12t-128 47t-70 98.5t-21 167.5zM266.5 1141q-5.5 24 2.5 50t32 44l133 102q26 20 55.5 31.5t55.5 11.5t55 -11.5t55 -31.5l133 -102q25 -18 33 -44t2 -50t-24 -41t-45 -17q-16 0 -29.5 4.5t-26.5 10.5l-153 71 l-154 -71q-12 -6 -26 -10.5t-29 -4.5q-28 0 -46 17t-23.5 41zM342 313q0 -32 7 -53.5t26.5 -34t53 -17.5t87.5 -5q53 0 88.5 4t56.5 13t30 24t9 37v137h-219q-42 0 -69 -5t-42.5 -17.5t-21.5 -32.5t-6 -50z" />
<glyph unicode="&#xe3;" horiz-adv-x="1092" d="M94 305q0 85 16 145.5t60.5 99.5t122.5 57t203 18h204v41q0 37 -8 61.5t-26.5 38.5t-50 19.5t-78.5 5.5t-88 -4t-75.5 -8.5t-63 -8.5t-50.5 -4q-60 0 -84 31.5t-24 85.5q0 34 12.5 60.5t50.5 44.5t108 27t185 9q126 0 211 -13.5t137 -51t74 -103t22 -170.5v-387 q0 -101 -26 -163.5t-80 -97t-138 -46.5t-200 -12t-195 12t-128 47t-70 98.5t-21 167.5zM264 1221q0 42 18.5 67.5t42 40t45.5 19t29 4.5q34 0 67.5 -7.5t63.5 -16t53.5 -16t37.5 -7.5q13 0 25.5 7.5t26 16t29.5 16t37 7.5q35 0 61.5 -26.5t26.5 -76.5q0 -38 -16.5 -63 t-39.5 -41t-48 -22.5t-43 -6.5q-21 0 -50 8t-58.5 17.5t-56 17.5t-44.5 8t-30 -7.5t-23.5 -16t-25.5 -16t-36 -7.5q-38 0 -65 25.5t-27 75.5zM342 313q0 -32 7 -53.5t26.5 -34t53 -17.5t87.5 -5q53 0 88.5 4t56.5 13t30 24t9 37v137h-219q-42 0 -69 -5t-42.5 -17.5 t-21.5 -32.5t-6 -50z" />
<glyph unicode="&#xe4;" horiz-adv-x="1092" d="M94 305q0 85 16 145.5t60.5 99.5t122.5 57t203 18h204v41q0 37 -8 61.5t-26.5 38.5t-50 19.5t-78.5 5.5t-88 -4t-75.5 -8.5t-63 -8.5t-50.5 -4q-60 0 -84 31.5t-24 85.5q0 34 12.5 60.5t50.5 44.5t108 27t185 9q126 0 211 -13.5t137 -51t74 -103t22 -170.5v-387 q0 -101 -26 -163.5t-80 -97t-138 -46.5t-200 -12t-195 12t-128 47t-70 98.5t-21 167.5zM262 1251q0 27 9.5 51t27 41.5t40.5 28t50 10.5t51 -10.5t41.5 -28t28 -41.5t10.5 -51t-10.5 -50.5t-28 -41t-41.5 -27.5t-51 -10t-50 10t-40.5 27.5t-27 41t-9.5 50.5zM342 313 q0 -32 7 -53.5t26.5 -34t53 -17.5t87.5 -5q53 0 88.5 4t56.5 13t30 24t9 37v137h-219q-42 0 -69 -5t-42.5 -17.5t-21.5 -32.5t-6 -50zM571 1251q0 27 10 51t27 41.5t40 28t50 10.5t50.5 -10.5t41 -28t27.5 -41.5t10 -51t-10 -50.5t-27.5 -41t-41 -27.5t-50.5 -10t-50 10 t-40 27.5t-27 41t-10 50.5z" />
<glyph unicode="&#xe5;" horiz-adv-x="1092" d="M94 305q0 85 16 145.5t60.5 99.5t122.5 57t203 18h204v41q0 37 -8 61.5t-26.5 38.5t-50 19.5t-78.5 5.5t-88 -4t-75.5 -8.5t-63 -8.5t-50.5 -4q-60 0 -84 31.5t-24 85.5q0 34 12.5 60.5t50.5 44.5t108 27t185 9q126 0 211 -13.5t137 -51t74 -103t22 -170.5v-387 q0 -101 -26 -163.5t-80 -97t-138 -46.5t-200 -12t-195 12t-128 47t-70 98.5t-21 167.5zM342 313q0 -32 7 -53.5t26.5 -34t53 -17.5t87.5 -5q53 0 88.5 4t56.5 13t30 24t9 37v137h-219q-42 0 -69 -5t-42.5 -17.5t-21.5 -32.5t-6 -50zM354 1247q0 45 15 80t41.5 60t61.5 38 t75 13q39 0 73.5 -13t60.5 -38t41 -60t15 -80t-15 -80t-41 -59.5t-60.5 -37.5t-73.5 -13q-40 0 -75 13t-61.5 37.5t-41.5 59.5t-15 80zM471 1247q0 -34 19 -58t57 -24t57 24t19 58t-19 58t-57 24t-57 -24t-19 -58z" />
<glyph unicode="&#xe6;" horiz-adv-x="1657" d="M94 305q0 85 16 145.5t60.5 99.5t122.5 57t203 18h204v41q0 37 -8 61.5t-26.5 38.5t-50 19.5t-78.5 5.5t-88 -4t-75.5 -8.5t-63 -8.5t-50.5 -4q-60 0 -84 31.5t-24 85.5q0 34 12.5 60.5t50.5 44.5t108 27t185 9q122 0 200.5 -12.5t125.5 -46.5q51 32 124.5 45.5 t174.5 13.5q109 0 186 -18t126 -62.5t71 -118.5t22 -186v-104q0 -67 -25.5 -93t-82.5 -26h-482v-64q0 -80 46.5 -113.5t135.5 -33.5q31 0 68.5 3t76 6t75 6t65.5 3q55 0 81 -21t26 -79q0 -47 -18 -73t-68 -40q-31 -9 -107.5 -19.5t-187.5 -10.5q-115 0 -193 16t-129 53 q-51 -37 -128 -53t-183 -16q-116 0 -195 12t-128 47t-70 98.5t-21 167.5zM342 313q0 -32 7 -53.5t26.5 -34t53 -17.5t87.5 -5q53 0 88.5 4t56.5 13t30 24t9 37v137h-219q-42 0 -69 -5t-42.5 -17.5t-21.5 -32.5t-6 -50zM948 625h340v26q0 45 -7.5 74.5t-27 47t-52 24 t-83.5 6.5q-47 0 -79.5 -6t-52.5 -23t-29 -46.5t-9 -76.5v-26z" />
<glyph unicode="&#xe7;" horiz-adv-x="926" d="M131 354v287q0 110 23.5 183.5t74.5 118t132 63t196 18.5q101 0 160.5 -9.5t90 -27.5t39.5 -45t9 -61q0 -50 -20.5 -78.5t-75.5 -28.5q-27 0 -51 3t-49 6.5t-51.5 6.5t-57.5 3q-48 0 -80 -9.5t-51 -29t-27 -49.5t-8 -70v-270q0 -34 9 -62t28.5 -48t51.5 -31t77 -11 q28 0 52 3t47.5 7t49 7t56.5 3q55 0 77.5 -30.5t22.5 -81.5q0 -48 -21.5 -75t-66.5 -40q-20 -6 -68 -15.5t-137 -10.5l-35 -41q34 -5 62.5 -15.5t49.5 -29t32.5 -46t11.5 -67.5q0 -56 -21.5 -91.5t-57 -55t-80 -26.5t-89.5 -7q-32 0 -70 6t-69 14q-28 8 -42.5 27.5 t-14.5 42.5q0 31 21.5 52t53.5 21q12 0 26 -4t29 -8.5t30.5 -8t31.5 -3.5q37 0 60.5 7t23.5 30q0 17 -15.5 23.5t-39 9t-51 3.5t-51 7t-39 19.5t-15.5 41.5q0 31 31 62l49 51q-70 14 -118.5 43.5t-78.5 74.5t-43.5 105.5t-13.5 136.5z" />
<glyph unicode="&#xe8;" horiz-adv-x="1094" d="M131 367v266q0 117 26 193t80 120t136.5 61t195.5 17q110 0 187 -18t126 -62.5t71 -118.5t22 -186v-117q0 -66 -26 -92.5t-83 -26.5h-481v-51q0 -80 46.5 -113.5t135.5 -33.5q31 0 68.5 3t76 6t75 6t65.5 3q55 0 80.5 -21t25.5 -79q0 -47 -17.5 -73t-68.5 -40 q-31 -9 -107 -19.5t-187 -10.5q-122 0 -207 18.5t-138 63.5t-77.5 119.5t-24.5 185.5zM297 1294q0 19 8.5 37t23 32t33 22t39.5 8q20 0 40 -8.5t38 -28.5l137 -139q14 -14 20.5 -30t6.5 -30q0 -31 -24.5 -52.5t-59.5 -21.5q-31 0 -61 21l-160 119q-22 17 -31.5 35t-9.5 36z M385 612h340v39q0 45 -7.5 74.5t-27 47t-52 24t-83.5 6.5q-47 0 -79.5 -6t-52.5 -23t-29 -46.5t-9 -76.5v-39z" />
<glyph unicode="&#xe9;" horiz-adv-x="1094" d="M131 367v266q0 117 26 193t80 120t136.5 61t195.5 17q110 0 187 -18t126 -62.5t71 -118.5t22 -186v-117q0 -66 -26 -92.5t-83 -26.5h-481v-51q0 -80 46.5 -113.5t135.5 -33.5q31 0 68.5 3t76 6t75 6t65.5 3q55 0 80.5 -21t25.5 -79q0 -47 -17.5 -73t-68.5 -40 q-31 -9 -107 -19.5t-187 -10.5q-122 0 -207 18.5t-138 63.5t-77.5 119.5t-24.5 185.5zM385 612h340v39q0 45 -7.5 74.5t-27 47t-52 24t-83.5 6.5q-47 0 -79.5 -6t-52.5 -23t-29 -46.5t-9 -76.5v-39zM483 1157q0 31 27 60l137 139q36 37 78 37q21 0 39.5 -8t33 -22t23 -32 t8.5 -37q0 -18 -9.5 -36t-31.5 -35l-159 -119q-32 -21 -62 -21q-35 0 -59.5 21.5t-24.5 52.5z" />
<glyph unicode="&#xea;" horiz-adv-x="1094" d="M131 367v266q0 117 26 193t80 120t136.5 61t195.5 17q110 0 187 -18t126 -62.5t71 -118.5t22 -186v-117q0 -66 -26 -92.5t-83 -26.5h-481v-51q0 -80 46.5 -113.5t135.5 -33.5q31 0 68.5 3t76 6t75 6t65.5 3q55 0 80.5 -21t25.5 -79q0 -47 -17.5 -73t-68.5 -40 q-31 -9 -107 -19.5t-187 -10.5q-122 0 -207 18.5t-138 63.5t-77.5 119.5t-24.5 185.5zM268.5 1141q-5.5 24 2.5 50t32 44l133 102q26 20 55.5 31.5t55.5 11.5t55 -11.5t55 -31.5l134 -102q24 -18 32 -44t2 -50t-24 -41t-45 -17q-16 0 -29.5 4.5t-26.5 10.5l-153 71l-154 -71 q-12 -6 -26 -10.5t-29 -4.5q-28 0 -46 17t-23.5 41zM385 612h340v39q0 45 -7.5 74.5t-27 47t-52 24t-83.5 6.5q-47 0 -79.5 -6t-52.5 -23t-29 -46.5t-9 -76.5v-39z" />
<glyph unicode="&#xeb;" horiz-adv-x="1094" d="M131 367v266q0 117 26 193t80 120t136.5 61t195.5 17q110 0 187 -18t126 -62.5t71 -118.5t22 -186v-117q0 -66 -26 -92.5t-83 -26.5h-481v-51q0 -80 46.5 -113.5t135.5 -33.5q31 0 68.5 3t76 6t75 6t65.5 3q55 0 80.5 -21t25.5 -79q0 -47 -17.5 -73t-68.5 -40 q-31 -9 -107 -19.5t-187 -10.5q-122 0 -207 18.5t-138 63.5t-77.5 119.5t-24.5 185.5zM264 1251q0 27 9.5 51t27 41.5t40.5 28t50 10.5t51 -10.5t41.5 -28t28 -41.5t10.5 -51t-10.5 -50.5t-28 -41t-41.5 -27.5t-51 -10t-50 10t-40.5 27.5t-27 41t-9.5 50.5zM385 612h340v39 q0 45 -7.5 74.5t-27 47t-52 24t-83.5 6.5q-47 0 -79.5 -6t-52.5 -23t-29 -46.5t-9 -76.5v-39zM573 1251q0 27 10 51t27 41.5t40 28t50 10.5t50.5 -10.5t41 -28t27.5 -41.5t10 -51t-10 -50.5t-27.5 -41t-41 -27.5t-50.5 -10t-50 10t-40 27.5t-27 41t-10 50.5z" />
<glyph unicode="&#xec;" horiz-adv-x="541" d="M6 1294q0 19 8.5 37t23 32t33.5 22t40 8q20 0 39.5 -8.5t37.5 -28.5l138 -139q14 -14 20 -30t6 -30q0 -31 -24.5 -52.5t-59.5 -21.5q-31 0 -61 21l-160 119q-22 17 -31.5 35t-9.5 36zM143 90v821q0 28 10 49t27.5 34t40.5 19.5t49 6.5t49 -6.5t40.5 -19.5t27.5 -34 t10 -49v-821q0 -29 -10 -49t-27.5 -32.5t-40.5 -18.5t-49 -6t-49 6t-40.5 18.5t-27.5 32.5t-10 49z" />
<glyph unicode="&#xed;" horiz-adv-x="541" d="M143 90v821q0 28 10 49t27.5 34t40.5 19.5t49 6.5t49 -6.5t40.5 -19.5t27.5 -34t10 -49v-821q0 -29 -10 -49t-27.5 -32.5t-40.5 -18.5t-49 -6t-49 6t-40.5 18.5t-27.5 32.5t-10 49zM193 1157q0 14 6 30t20 30l137 139q19 20 38.5 28.5t39.5 8.5q21 0 40 -8t33.5 -22 t23 -32t8.5 -37q0 -18 -10 -36t-31 -35l-160 -119q-32 -21 -62 -21q-35 0 -59 21.5t-24 52.5z" />
<glyph unicode="&#xee;" horiz-adv-x="541" d="M-8 1141q-6 24 2 50t33 44l133 102q26 20 55 31.5t55 11.5t55.5 -11.5t55.5 -31.5l133 -102q25 -18 33 -44t2 -50t-24 -41t-46 -17q-15 0 -29 4.5t-26 10.5l-154 71l-153 -71q-13 -6 -26.5 -10.5t-29.5 -4.5q-27 0 -45 17t-24 41zM143 90v821q0 28 10 49t27.5 34 t40.5 19.5t49 6.5t49 -6.5t40.5 -19.5t27.5 -34t10 -49v-821q0 -29 -10 -49t-27.5 -32.5t-40.5 -18.5t-49 -6t-49 6t-40.5 18.5t-27.5 32.5t-10 49z" />
<glyph unicode="&#xef;" horiz-adv-x="541" d="M-12 1251q0 27 9.5 51t27 41.5t40.5 28t50 10.5t50.5 -10.5t41.5 -28t28.5 -41.5t10.5 -51t-10.5 -50.5t-28.5 -41t-41.5 -27.5t-50.5 -10t-50 10t-40.5 27.5t-27 41t-9.5 50.5zM143 90v821q0 28 10 49t27.5 34t40.5 19.5t49 6.5t49 -6.5t40.5 -19.5t27.5 -34t10 -49 v-821q0 -29 -10 -49t-27.5 -32.5t-40.5 -18.5t-49 -6t-49 6t-40.5 18.5t-27.5 32.5t-10 49zM297 1251q0 27 9.5 51t27 41.5t40.5 28t50 10.5t50.5 -10.5t41 -28t27.5 -41.5t10 -51t-10 -50.5t-27.5 -41t-41 -27.5t-50.5 -10t-50 10t-40.5 27.5t-27 41t-9.5 50.5z" />
<glyph unicode="&#xf0;" horiz-adv-x="1116" d="M102 492q0 157 23.5 259t74.5 162t132.5 84.5t197.5 26.5l-75 72l-136 -49q-23 -8 -37 2t-22 30q-6 19 -1.5 35.5t26.5 26.5l88 30q-14 17 -24.5 39.5t-10.5 46.5q0 57 39 86t96 29q14 0 30.5 -4.5t28.5 -13.5l103 -86l141 51q25 8 39.5 -2t22.5 -29q6 -20 0.5 -37 t-31.5 -28l-90 -33q70 -71 125 -147.5t93 -162t58.5 -181.5t20.5 -205q0 -163 -26 -264t-81 -156.5t-142 -74.5t-208 -19q-123 0 -209.5 19t-141 74t-79.5 155.5t-25 263.5zM356 496q0 -100 11 -157.5t35 -87t62.5 -37t92.5 -7.5q53 0 91.5 7.5t63 37t36.5 87t12 157.5 q0 103 -12 162.5t-36.5 90.5t-63 39.5t-91.5 8.5q-54 0 -92.5 -8.5t-62.5 -39.5t-35 -90.5t-11 -162.5z" />
<glyph unicode="&#xf1;" horiz-adv-x="1145" d="M143 90v502q0 143 21 228.5t70.5 130.5t131.5 59t205 14q122 0 204.5 -14t132.5 -59t71.5 -130.5t21.5 -228.5v-502q0 -29 -10 -49t-27.5 -32.5t-40.5 -18.5t-49 -6t-48.5 6t-39.5 18.5t-26.5 32.5t-9.5 49v490q0 70 -5.5 112.5t-24 65.5t-54 31t-95.5 8t-94.5 -8 t-52 -31t-22.5 -65.5t-5 -112.5v-490q0 -29 -10 -49t-27.5 -32.5t-40.5 -18.5t-49 -6q-27 0 -50 6t-40 18.5t-27 32.5t-10 49zM291 1221q0 42 18.5 67.5t42 40t45.5 19t29 4.5q34 0 67.5 -7.5t63 -16t53 -16t37.5 -7.5t26.5 7.5t26 16t29.5 16t37 7.5q35 0 61.5 -26.5 t26.5 -76.5q0 -38 -16.5 -63t-39.5 -41t-48 -22.5t-43 -6.5q-22 0 -50.5 8t-58 17.5t-56 17.5t-44.5 8t-30 -7.5t-24 -16t-26 -16t-35 -7.5q-38 0 -65 25.5t-27 75.5z" />
<glyph unicode="&#xf2;" horiz-adv-x="1116" d="M102 492q0 162 25 265.5t79.5 162.5t141 81.5t209.5 22.5q121 0 208 -22.5t142 -81.5t81 -162.5t26 -265.5q0 -163 -26 -263.5t-81 -155.5t-142 -74t-208 -19q-123 0 -209.5 19t-141 74t-79.5 155.5t-25 263.5zM356 496q0 -100 11 -157.5t35 -87t62.5 -37t92.5 -7.5 q53 0 91.5 7.5t63 37t36.5 87t12 157.5q0 103 -12 162.5t-36.5 90.5t-63 39.5t-91.5 8.5q-54 0 -92.5 -8.5t-62.5 -39.5t-35 -90.5t-11 -162.5zM385 1294q0 19 8.5 37t23 32t33 22t39.5 8q20 0 40 -8.5t38 -28.5l138 -139q14 -14 20 -30t6 -30q0 -31 -24.5 -52.5 t-59.5 -21.5q-31 0 -61 21l-160 119q-22 17 -31.5 35t-9.5 36z" />
<glyph unicode="&#xf3;" horiz-adv-x="1116" d="M102 492q0 162 25 265.5t79.5 162.5t141 81.5t209.5 22.5q121 0 208 -22.5t142 -81.5t81 -162.5t26 -265.5q0 -163 -26 -263.5t-81 -155.5t-142 -74t-208 -19q-123 0 -209.5 19t-141 74t-79.5 155.5t-25 263.5zM356 496q0 -100 11 -157.5t35 -87t62.5 -37t92.5 -7.5 q53 0 91.5 7.5t63 37t36.5 87t12 157.5q0 103 -12 162.5t-36.5 90.5t-63 39.5t-91.5 8.5q-54 0 -92.5 -8.5t-62.5 -39.5t-35 -90.5t-11 -162.5zM385 1157q0 14 6.5 30t20.5 30l137 139q18 20 38 28.5t40 8.5q21 0 39.5 -8t33 -22t23 -32t8.5 -37q0 -18 -9.5 -36t-31.5 -35 l-160 -119q-30 -21 -61 -21q-35 0 -59.5 21.5t-24.5 52.5z" />
<glyph unicode="&#xf4;" horiz-adv-x="1116" d="M102 492q0 162 25 265.5t79.5 162.5t141 81.5t209.5 22.5q121 0 208 -22.5t142 -81.5t81 -162.5t26 -265.5q0 -163 -26 -263.5t-81 -155.5t-142 -74t-208 -19q-123 0 -209.5 19t-141 74t-79.5 155.5t-25 263.5zM278.5 1141q-5.5 24 2.5 50t32 44l133 102q26 20 55.5 31.5 t55.5 11.5t55.5 -11.5t55.5 -31.5l133 -102q24 -18 32 -44t2.5 -50t-23.5 -41t-46 -17q-16 0 -29.5 4.5t-25.5 10.5l-154 71l-154 -71q-12 -6 -25.5 -10.5t-29.5 -4.5q-28 0 -46 17t-23.5 41zM356 496q0 -100 11 -157.5t35 -87t62.5 -37t92.5 -7.5q53 0 91.5 7.5t63 37 t36.5 87t12 157.5q0 103 -12 162.5t-36.5 90.5t-63 39.5t-91.5 8.5q-54 0 -92.5 -8.5t-62.5 -39.5t-35 -90.5t-11 -162.5z" />
<glyph unicode="&#xf5;" horiz-adv-x="1116" d="M102 492q0 162 25 265.5t79.5 162.5t141 81.5t209.5 22.5q121 0 208 -22.5t142 -81.5t81 -162.5t26 -265.5q0 -163 -26 -263.5t-81 -155.5t-142 -74t-208 -19q-123 0 -209.5 19t-141 74t-79.5 155.5t-25 263.5zM276 1221q0 42 18.5 67.5t42.5 40t46 19t29 4.5 q34 0 67.5 -7.5t63 -16t53 -16t37.5 -7.5t26.5 7.5t26 16t29.5 16t37 7.5q35 0 61.5 -26.5t26.5 -76.5q0 -38 -16.5 -63t-40 -41t-48.5 -22.5t-43 -6.5q-21 0 -50 8t-58.5 17.5t-56 17.5t-44.5 8t-30 -7.5t-23.5 -16t-25.5 -16t-35 -7.5q-39 0 -66 25.5t-27 75.5zM356 496 q0 -100 11 -157.5t35 -87t62.5 -37t92.5 -7.5q53 0 91.5 7.5t63 37t36.5 87t12 157.5q0 103 -12 162.5t-36.5 90.5t-63 39.5t-91.5 8.5q-54 0 -92.5 -8.5t-62.5 -39.5t-35 -90.5t-11 -162.5z" />
<glyph unicode="&#xf6;" horiz-adv-x="1116" d="M102 492q0 162 25 265.5t79.5 162.5t141 81.5t209.5 22.5q121 0 208 -22.5t142 -81.5t81 -162.5t26 -265.5q0 -163 -26 -263.5t-81 -155.5t-142 -74t-208 -19q-123 0 -209.5 19t-141 74t-79.5 155.5t-25 263.5zM274 1251q0 27 10 51t27 41.5t40 28t50 10.5t51 -10.5 t41.5 -28t28 -41.5t10.5 -51t-10.5 -50.5t-28 -41t-41.5 -27.5t-51 -10t-50 10t-40 27.5t-27 41t-10 50.5zM356 496q0 -100 11 -157.5t35 -87t62.5 -37t92.5 -7.5q53 0 91.5 7.5t63 37t36.5 87t12 157.5q0 103 -12 162.5t-36.5 90.5t-63 39.5t-91.5 8.5q-54 0 -92.5 -8.5 t-62.5 -39.5t-35 -90.5t-11 -162.5zM584 1251q0 27 9.5 51t27 41.5t40.5 28t50 10.5t50.5 -10.5t41 -28t27.5 -41.5t10 -51t-10 -50.5t-27.5 -41t-41 -27.5t-50.5 -10t-50 10t-40.5 27.5t-27 41t-9.5 50.5z" />
<glyph unicode="&#xf7;" horiz-adv-x="1147" d="M127 688q0 48 23 81.5t73 33.5h699q51 0 74.5 -33.5t23.5 -81.5q0 -24 -6 -45t-18 -37t-30.5 -25.5t-43.5 -9.5h-699q-25 0 -43 9.5t-30 25.5t-17.5 37t-5.5 45zM418 326q0 33 11.5 62t32 50.5t49 34t62.5 12.5q33 0 62 -12.5t50.5 -34t33.5 -50.5t12 -62q0 -35 -12 -64 t-33.5 -50t-50.5 -32.5t-62 -11.5q-34 0 -62.5 11.5t-49 32.5t-32 50t-11.5 64zM418 1040q0 33 11.5 62t32 51t49 34.5t62.5 12.5q33 0 62 -12.5t50.5 -34.5t33.5 -51t12 -62q0 -35 -12 -63.5t-33.5 -49.5t-50.5 -32.5t-62 -11.5q-34 0 -62.5 11.5t-49 32.5t-32 49.5 t-11.5 63.5z" />
<glyph unicode="&#xf8;" horiz-adv-x="1116" d="M102 492q0 162 25 265.5t79.5 162.5t141 81.5t209.5 22.5q56 0 103 -3.5t88 -14.5l71 129q11 20 28 29.5t34 9.5q15 0 32 -7t30.5 -18t22.5 -26t9 -31t-10 -39l-68 -123q60 -59 88.5 -164t28.5 -274q0 -163 -26 -263.5t-81 -155.5t-142 -74t-208 -19q-100 0 -176 12 l-86 -156q-11 -20 -28 -28.5t-36 -8.5t-36 7t-29.5 18.5t-19.5 25.5t-7 29q0 17 11 39l75 137q-32 27 -55.5 65.5t-38.5 91.5t-22 122t-7 158zM356 496q0 -59 3.5 -102t11.5 -75l260 474q-17 3 -35.5 3.5t-38.5 0.5q-54 0 -92.5 -8.5t-62.5 -39.5t-35 -90.5t-11 -162.5z M500 209q12 -2 26 -2h31q53 0 91.5 7.5t63 37t36.5 87t12 157.5q0 101 -12 163z" />
<glyph unicode="&#xf9;" horiz-adv-x="1137" d="M143 412v501q0 28 10 48.5t27 33.5t40 19t50 6q26 0 49 -6t40.5 -19t27.5 -33.5t10 -48.5v-489q0 -70 4 -112.5t21 -66t51 -31t94 -7.5t94.5 7.5t52.5 31t22.5 66t4.5 112.5v489q0 28 10 48.5t27 33.5t39.5 19t48.5 6t49 -6t40.5 -19t27.5 -33.5t10 -48.5v-501 q0 -143 -20.5 -228.5t-70 -130.5t-131.5 -59t-204 -14q-82 0 -145 5.5t-110 22t-79.5 46t-52.5 77.5t-28.5 117t-8.5 164zM395 1294q0 19 8.5 37t23 32t33.5 22t40 8q20 0 39.5 -8.5t38.5 -28.5l137 -139q14 -14 20 -30t6 -30q0 -31 -24 -52.5t-60 -21.5q-31 0 -61 21 l-160 119q-21 17 -31 35t-10 36z" />
<glyph unicode="&#xfa;" horiz-adv-x="1137" d="M143 412v501q0 28 10 48.5t27 33.5t40 19t50 6q26 0 49 -6t40.5 -19t27.5 -33.5t10 -48.5v-489q0 -70 4 -112.5t21 -66t51 -31t94 -7.5t94.5 7.5t52.5 31t22.5 66t4.5 112.5v489q0 28 10 48.5t27 33.5t39.5 19t48.5 6t49 -6t40.5 -19t27.5 -33.5t10 -48.5v-501 q0 -143 -20.5 -228.5t-70 -130.5t-131.5 -59t-204 -14q-82 0 -145 5.5t-110 22t-79.5 46t-52.5 77.5t-28.5 117t-8.5 164zM395 1157q0 14 6.5 30t20.5 30l137 139q36 37 78 37q21 0 39.5 -8t33 -22t23 -32t8.5 -37q0 -18 -9.5 -36t-31.5 -35l-159 -119q-32 -21 -62 -21 q-35 0 -59.5 21.5t-24.5 52.5z" />
<glyph unicode="&#xfb;" horiz-adv-x="1137" d="M143 412v501q0 28 10 48.5t27 33.5t40 19t50 6q26 0 49 -6t40.5 -19t27.5 -33.5t10 -48.5v-489q0 -70 4 -112.5t21 -66t51 -31t94 -7.5t94.5 7.5t52.5 31t22.5 66t4.5 112.5v489q0 28 10 48.5t27 33.5t39.5 19t48.5 6t49 -6t40.5 -19t27.5 -33.5t10 -48.5v-501 q0 -143 -20.5 -228.5t-70 -130.5t-131.5 -59t-204 -14q-82 0 -145 5.5t-110 22t-79.5 46t-52.5 77.5t-28.5 117t-8.5 164zM289 1141q-6 24 2 50t33 44l133 102q26 20 55 31.5t55 11.5t55.5 -11.5t55.5 -31.5l133 -102q25 -18 33 -44t2 -50t-24 -41t-46 -17q-15 0 -29 4.5 t-26 10.5l-154 71l-153 -71q-13 -6 -26.5 -10.5t-29.5 -4.5q-27 0 -45 17t-24 41z" />
<glyph unicode="&#xfc;" horiz-adv-x="1137" d="M143 412v501q0 28 10 48.5t27 33.5t40 19t50 6q26 0 49 -6t40.5 -19t27.5 -33.5t10 -48.5v-489q0 -70 4 -112.5t21 -66t51 -31t94 -7.5t94.5 7.5t52.5 31t22.5 66t4.5 112.5v489q0 28 10 48.5t27 33.5t39.5 19t48.5 6t49 -6t40.5 -19t27.5 -33.5t10 -48.5v-501 q0 -143 -20.5 -228.5t-70 -130.5t-131.5 -59t-204 -14q-82 0 -145 5.5t-110 22t-79.5 46t-52.5 77.5t-28.5 117t-8.5 164zM303 1251q0 27 9.5 51t27 41.5t40.5 28t50 10.5t51 -10.5t41.5 -28t28 -41.5t10.5 -51t-10.5 -50.5t-28 -41t-41.5 -27.5t-51 -10t-50 10t-40.5 27.5 t-27 41t-9.5 50.5zM612 1251q0 27 10 51t27 41.5t40 28t50 10.5t50.5 -10.5t41 -28t27.5 -41.5t10 -51t-10 -50.5t-27.5 -41t-41 -27.5t-50.5 -10t-50 10t-40 27.5t-27 41t-10 50.5z" />
<glyph unicode="&#xfd;" horiz-adv-x="1016" d="M23 927q7 35 30 56.5t56 29.5t66.5 1t62 -29t41.5 -59l210 -609h29l221 607q14 39 43.5 61.5t63.5 30t67.5 0t55.5 -29.5t28 -57.5t-14 -84.5l-481 -1147q-16 -38 -46.5 -60.5t-65 -30t-68 0.5t-55.5 29.5t-27 57t18 83.5l117 252q-36 34 -53 84l-287 731q-19 48 -12 83z M334 1157q0 14 6 30t20 30l138 139q18 20 37.5 28.5t39.5 8.5q21 0 40 -8t33.5 -22t23 -32t8.5 -37q0 -18 -9.5 -36t-31.5 -35l-160 -119q-30 -21 -61 -21q-35 0 -59.5 21.5t-24.5 52.5z" />
<glyph unicode="&#xfe;" horiz-adv-x="1141" d="M139 -256v1524q0 27 11 47t29 32.5t41.5 18.5t49.5 6t49 -6t40.5 -18.5t27.5 -32.5t10 -47v-271q42 13 94.5 20t112.5 7q120 0 205 -21t139.5 -78.5t79.5 -159t25 -261.5q0 -162 -25.5 -264t-81 -160t-142.5 -79t-210 -21q-53 0 -101.5 7.5t-89.5 16.5h-6v-260 q0 -29 -10.5 -49.5t-28.5 -33t-42 -18t-50 -5.5q-27 0 -50 5.5t-40 18t-27 33t-10 49.5zM393 510q0 -103 11.5 -163t36 -91t62.5 -40t91 -9q54 0 93 7.5t64 37.5t36.5 89.5t11.5 162.5q0 96 -12 154t-36 88.5t-61 40.5t-88 10q-54 0 -93.5 -6.5t-65 -34.5t-38 -85.5 t-12.5 -160.5z" />
<glyph unicode="&#xff;" horiz-adv-x="1016" d="M23 927q7 35 30 56.5t56 29.5t66.5 1t62 -29t41.5 -59l210 -609h29l221 607q14 39 43.5 61.5t63.5 30t67.5 0t55.5 -29.5t28 -57.5t-14 -84.5l-481 -1147q-16 -38 -46.5 -60.5t-65 -30t-68 0.5t-55.5 29.5t-27 57t18 83.5l117 252q-36 34 -53 84l-287 731q-19 48 -12 83z M225 1251q0 27 10 51t27 41.5t40 28t50 10.5t51 -10.5t41.5 -28t28 -41.5t10.5 -51t-10.5 -50.5t-28 -41t-41.5 -27.5t-51 -10t-50 10t-40 27.5t-27 41t-10 50.5zM535 1251q0 27 9.5 51t27 41.5t40.5 28t50 10.5t50.5 -10.5t41 -28t27.5 -41.5t10 -51t-10 -50.5t-27.5 -41 t-41 -27.5t-50.5 -10t-50 10t-40.5 27.5t-27 41t-9.5 50.5z" />
<glyph unicode="&#x100;" horiz-adv-x="1305" d="M12 96q0 16 3.5 31.5t11.5 32.5l434 1059q31 74 81 103.5t109 29.5q68 0 116.5 -34t74.5 -99l436 -1059q12 -35 12 -62t-11 -48.5t-29.5 -36t-42.5 -22t-50 -7.5q-21 0 -42.5 5.5t-40.5 17t-34 29t-24 42.5l-103 268h-526l-98 -266q-19 -51 -60 -74.5t-86 -23.5 q-25 0 -48.5 7.5t-42 22t-29.5 36t-11 48.5zM371 1565q0 48 22.5 76t73.5 28h369q51 0 74.5 -28t23.5 -76t-23.5 -77.5t-74.5 -29.5h-369q-51 0 -73.5 29.5t-22.5 77.5zM475 580h350l-161 430h-29z" />
<glyph unicode="&#x101;" horiz-adv-x="1092" d="M94 305q0 85 16 145.5t60.5 99.5t122.5 57t203 18h204v41q0 37 -8 61.5t-26.5 38.5t-50 19.5t-78.5 5.5t-88 -4t-75.5 -8.5t-63 -8.5t-50.5 -4q-60 0 -84 31.5t-24 85.5q0 34 12.5 60.5t50.5 44.5t108 27t185 9q126 0 211 -13.5t137 -51t74 -103t22 -170.5v-387 q0 -101 -26 -163.5t-80 -97t-138 -46.5t-200 -12t-195 12t-128 47t-70 98.5t-21 167.5zM264 1237q0 48 22.5 76t73.5 28h369q51 0 74.5 -28t23.5 -76t-23.5 -77.5t-74.5 -29.5h-369q-51 0 -73.5 29.5t-22.5 77.5zM342 313q0 -32 7 -53.5t26.5 -34t53 -17.5t87.5 -5 q53 0 88.5 4t56.5 13t30 24t9 37v137h-219q-42 0 -69 -5t-42.5 -17.5t-21.5 -32.5t-6 -50z" />
<glyph unicode="&#x102;" horiz-adv-x="1305" d="M12 96q0 16 3.5 31.5t11.5 32.5l434 1059q31 74 81 103.5t109 29.5q68 0 116.5 -34t74.5 -99l436 -1059q12 -35 12 -62t-11 -48.5t-29.5 -36t-42.5 -22t-50 -7.5q-21 0 -42.5 5.5t-40.5 17t-34 29t-24 42.5l-103 268h-526l-98 -266q-19 -51 -60 -74.5t-86 -23.5 q-25 0 -48.5 7.5t-42 22t-29.5 36t-11 48.5zM367 1624q0 31 20.5 53.5t54.5 22.5q32 0 52.5 -12.5t37.5 -38.5q22 -34 47.5 -51t71.5 -17q47 0 72 17t47 51q17 26 37.5 38.5t52.5 12.5q34 0 55 -22.5t21 -53.5q0 -55 -24 -95t-64 -66.5t-91 -39t-106 -12.5 q-54 0 -105.5 12.5t-91 39t-63.5 66.5t-24 95zM475 580h350l-161 430h-29z" />
<glyph unicode="&#x103;" horiz-adv-x="1092" d="M94 305q0 85 16 145.5t60.5 99.5t122.5 57t203 18h204v41q0 37 -8 61.5t-26.5 38.5t-50 19.5t-78.5 5.5t-88 -4t-75.5 -8.5t-63 -8.5t-50.5 -4q-60 0 -84 31.5t-24 85.5q0 34 12.5 60.5t50.5 44.5t108 27t185 9q126 0 211 -13.5t137 -51t74 -103t22 -170.5v-387 q0 -101 -26 -163.5t-80 -97t-138 -46.5t-200 -12t-195 12t-128 47t-70 98.5t-21 167.5zM260 1296q0 31 21 53.5t55 22.5q32 0 52.5 -12.5t37.5 -38.5q22 -34 47 -51t72 -17q46 0 71.5 17t47.5 51q17 26 37.5 38.5t52.5 12.5q34 0 54.5 -22.5t20.5 -53.5q0 -55 -24 -95 t-63.5 -66.5t-91 -39t-105.5 -12.5q-55 0 -106.5 12.5t-91 39t-63.5 66.5t-24 95zM342 313q0 -32 7 -53.5t26.5 -34t53 -17.5t87.5 -5q53 0 88.5 4t56.5 13t30 24t9 37v137h-219q-42 0 -69 -5t-42.5 -17.5t-21.5 -32.5t-6 -50z" />
<glyph unicode="&#x104;" horiz-adv-x="1305" d="M14.5 84.5q-4.5 33.5 12.5 75.5l434 1059q31 74 81 103.5t109 29.5q68 0 116.5 -34t74.5 -99l436 -1059q20 -48 12.5 -85t-28.5 -57q-33 -33 -63 -62t-52.5 -55t-35.5 -51.5t-13 -50.5q0 -17 5.5 -25.5t16 -12t25.5 -4t33 -1.5q12 -1 24.5 -3.5t22 -9t16 -18.5t6.5 -32 q0 -92 -143 -92q-99 0 -149 41.5t-50 119.5q0 42 13.5 79t35 69t49 58.5t56.5 47.5q-14 13 -25.5 27.5t-17.5 34.5l-103 268h-526l-98 -266q-19 -51 -60 -74.5t-86 -23.5q-32 0 -60 12t-46 34.5t-22.5 56zM475 580h350l-161 430h-29z" />
<glyph unicode="&#x105;" horiz-adv-x="1092" d="M94 305q0 85 16 145.5t60.5 99.5t122.5 57t203 18h204v41q0 37 -8 61.5t-26.5 38.5t-50 19.5t-78.5 5.5t-88 -4t-75.5 -8.5t-63 -8.5t-50.5 -4q-60 0 -84 31.5t-24 85.5q0 34 12.5 60.5t50.5 44.5t108 27t185 9q126 0 211 -13.5t137 -51t74 -103t22 -170.5v-387 q0 -82 -14.5 -138t-48.5 -91q-29 -32 -51 -70t-38 -75.5t-24 -70.5t-8 -55q0 -17 6 -25.5t16.5 -12t25 -4t32.5 -1.5q12 -1 24.5 -3.5t22.5 -9t16.5 -18.5t6.5 -32q0 -92 -144 -92q-99 0 -149 41.5t-50 119.5q0 48 17 107t43 115q-29 -2 -61 -3t-66 -1q-116 0 -195 12 t-128 47t-70 98.5t-21 167.5zM342 313q0 -32 7 -53.5t26.5 -34t53 -17.5t87.5 -5q53 0 88.5 4t56.5 13t30 24t9 37v137h-219q-42 0 -69 -5t-42.5 -17.5t-21.5 -32.5t-6 -50z" />
<glyph unicode="&#x106;" horiz-adv-x="1090" d="M131 653q0 207 28 342.5t91 214.5t165 110.5t251 31.5q50 0 97 -3t86 -7.5t66.5 -9t38.5 -7.5q48 -14 69 -41.5t21 -77.5q0 -25 -5.5 -47.5t-17.5 -39t-31.5 -26.5t-47.5 -10q-32 0 -64.5 4t-65.5 8.5t-67 8.5t-71 4q-53 0 -94 -5t-71.5 -21.5t-52 -47t-34.5 -80.5 t-19 -123t-6 -174t8 -172t23.5 -119t39.5 -76t55.5 -42.5t70.5 -18.5t86 -4q34 0 58 1t42.5 3t33.5 5l30 6q20 5 45 7.5t53 2.5t47.5 -9.5t31.5 -25.5t17.5 -37.5t5.5 -46.5q0 -46 -23 -79t-67 -46q-12 -4 -40.5 -8.5t-67.5 -8.5t-85.5 -6.5t-94.5 -2.5q-97 0 -174 10 t-136.5 36.5t-102 73.5t-69.5 122t-40 181t-13 250zM545 1485q0 14 6 29.5t20 29.5l138 139q18 20 37.5 28.5t39.5 8.5q21 0 40 -8t33.5 -21.5t23 -31.5t8.5 -37t-9.5 -37t-31.5 -35l-160 -118q-15 -11 -30.5 -16t-30.5 -5q-35 0 -59.5 21.5t-24.5 52.5z" />
<glyph unicode="&#x107;" horiz-adv-x="926" d="M131 354v287q0 110 23.5 183.5t74.5 118t132 63t196 18.5q101 0 160.5 -9.5t90 -27.5t39.5 -45t9 -61q0 -50 -20.5 -78.5t-75.5 -28.5q-27 0 -51 3t-49 6.5t-51.5 6.5t-57.5 3q-48 0 -80 -9.5t-51 -29t-27 -49.5t-8 -70v-270q0 -34 9 -62t28.5 -48t51.5 -31t77 -11 q28 0 52 3t47.5 7t49 7t56.5 3q55 0 77.5 -30.5t22.5 -81.5q0 -48 -21.5 -75t-66.5 -40q-11 -3 -29 -7.5t-45 -8.5t-64.5 -7t-88.5 -3q-114 0 -192.5 23t-127 69.5t-69.5 116.5t-21 165zM391 1157q0 14 6.5 30t20.5 30l137 139q36 37 78 37q21 0 39.5 -8t33 -22t23 -32 t8.5 -37q0 -18 -9.5 -36t-31.5 -35l-159 -119q-32 -21 -62 -21q-35 0 -59.5 21.5t-24.5 52.5z" />
<glyph unicode="&#x108;" horiz-adv-x="1090" d="M131 653q0 207 28 342.5t91 214.5t165 110.5t251 31.5q50 0 97 -3t86 -7.5t66.5 -9t38.5 -7.5q48 -14 69 -41.5t21 -77.5q0 -25 -5.5 -47.5t-17.5 -39t-31.5 -26.5t-47.5 -10q-32 0 -64.5 4t-65.5 8.5t-67 8.5t-71 4q-53 0 -94 -5t-71.5 -21.5t-52 -47t-34.5 -80.5 t-19 -123t-6 -174t8 -172t23.5 -119t39.5 -76t55.5 -42.5t70.5 -18.5t86 -4q34 0 58 1t42.5 3t33.5 5l30 6q20 5 45 7.5t53 2.5t47.5 -9.5t31.5 -25.5t17.5 -37.5t5.5 -46.5q0 -46 -23 -79t-67 -46q-12 -4 -40.5 -8.5t-67.5 -8.5t-85.5 -6.5t-94.5 -2.5q-97 0 -174 10 t-136.5 36.5t-102 73.5t-69.5 122t-40 181t-13 250zM364.5 1468q-5.5 24 2.5 50t32 45l133 102q26 20 55.5 31.5t55.5 11.5t55.5 -11.5t55.5 -31.5l133 -102q24 -19 32 -45t2.5 -50t-23.5 -40.5t-46 -16.5q-16 0 -29.5 4t-25.5 10l-154 72l-154 -72q-12 -6 -25.5 -10 t-29.5 -4q-28 0 -46 16.5t-23.5 40.5z" />
<glyph unicode="&#x109;" horiz-adv-x="926" d="M131 354v287q0 110 23.5 183.5t74.5 118t132 63t196 18.5q101 0 160.5 -9.5t90 -27.5t39.5 -45t9 -61q0 -50 -20.5 -78.5t-75.5 -28.5q-27 0 -51 3t-49 6.5t-51.5 6.5t-57.5 3q-48 0 -80 -9.5t-51 -29t-27 -49.5t-8 -70v-270q0 -34 9 -62t28.5 -48t51.5 -31t77 -11 q28 0 52 3t47.5 7t49 7t56.5 3q55 0 77.5 -30.5t22.5 -81.5q0 -48 -21.5 -75t-66.5 -40q-11 -3 -29 -7.5t-45 -8.5t-64.5 -7t-88.5 -3q-114 0 -192.5 23t-127 69.5t-69.5 116.5t-21 165zM242 1141q-6 24 2 50t32 44l134 102q26 20 55 31.5t55 11.5t55.5 -11.5t55.5 -31.5 l133 -102q24 -18 32 -44t2.5 -50t-23.5 -41t-46 -17q-15 0 -29 4.5t-26 10.5l-154 71l-153 -71q-13 -6 -26.5 -10.5t-29.5 -4.5q-27 0 -45 17t-24 41z" />
<glyph unicode="&#x10a;" horiz-adv-x="1090" d="M131 653q0 207 28 342.5t91 214.5t165 110.5t251 31.5q50 0 97 -3t86 -7.5t66.5 -9t38.5 -7.5q48 -14 69 -41.5t21 -77.5q0 -25 -5.5 -47.5t-17.5 -39t-31.5 -26.5t-47.5 -10q-32 0 -64.5 4t-65.5 8.5t-67 8.5t-71 4q-53 0 -94 -5t-71.5 -21.5t-52 -47t-34.5 -80.5 t-19 -123t-6 -174t8 -172t23.5 -119t39.5 -76t55.5 -42.5t70.5 -18.5t86 -4q34 0 58 1t42.5 3t33.5 5l30 6q20 5 45 7.5t53 2.5t47.5 -9.5t31.5 -25.5t17.5 -37.5t5.5 -46.5q0 -46 -23 -79t-67 -46q-12 -4 -40.5 -8.5t-67.5 -8.5t-85.5 -6.5t-94.5 -2.5q-97 0 -174 10 t-136.5 36.5t-102 73.5t-69.5 122t-40 181t-13 250zM535 1565q0 30 11 56.5t29.5 46t44.5 31t56 11.5t56.5 -11.5t46 -31t31 -46t11.5 -56.5t-11.5 -56.5t-31 -46t-46 -30.5t-56.5 -11t-56 11t-44.5 30.5t-29.5 46t-11 56.5z" />
<glyph unicode="&#x10b;" horiz-adv-x="926" d="M131 354v287q0 110 23.5 183.5t74.5 118t132 63t196 18.5q101 0 160.5 -9.5t90 -27.5t39.5 -45t9 -61q0 -50 -20.5 -78.5t-75.5 -28.5q-27 0 -51 3t-49 6.5t-51.5 6.5t-57.5 3q-48 0 -80 -9.5t-51 -29t-27 -49.5t-8 -70v-270q0 -34 9 -62t28.5 -48t51.5 -31t77 -11 q28 0 52 3t47.5 7t49 7t56.5 3q55 0 77.5 -30.5t22.5 -81.5q0 -48 -21.5 -75t-66.5 -40q-11 -3 -29 -7.5t-45 -8.5t-64.5 -7t-88.5 -3q-114 0 -192.5 23t-127 69.5t-69.5 116.5t-21 165zM395 1237q0 30 11 56.5t30 46t45 31t56 11.5t56 -11.5t46 -31t31.5 -46t11.5 -56.5 t-11.5 -56t-31.5 -45.5t-46 -30.5t-56 -11t-56 11t-45 30.5t-30 45.5t-11 56z" />
<glyph unicode="&#x10c;" horiz-adv-x="1090" d="M131 653q0 207 28 342.5t91 214.5t165 110.5t251 31.5q50 0 97 -3t86 -7.5t66.5 -9t38.5 -7.5q48 -14 69 -41.5t21 -77.5q0 -25 -5.5 -47.5t-17.5 -39t-31.5 -26.5t-47.5 -10q-32 0 -64.5 4t-65.5 8.5t-67 8.5t-71 4q-53 0 -94 -5t-71.5 -21.5t-52 -47t-34.5 -80.5 t-19 -123t-6 -174t8 -172t23.5 -119t39.5 -76t55.5 -42.5t70.5 -18.5t86 -4q34 0 58 1t42.5 3t33.5 5l30 6q20 5 45 7.5t53 2.5t47.5 -9.5t31.5 -25.5t17.5 -37.5t5.5 -46.5q0 -46 -23 -79t-67 -46q-12 -4 -40.5 -8.5t-67.5 -8.5t-85.5 -6.5t-94.5 -2.5q-97 0 -174 10 t-136.5 36.5t-102 73.5t-69.5 122t-40 181t-13 250zM377 1651q6 24 24 40.5t45 16.5q16 0 29.5 -4t26.5 -10l153 -72l154 72q12 6 26 10t29 4q28 0 46 -16.5t24 -40.5t-2 -50t-33 -45l-133 -102q-26 -20 -55.5 -31.5t-55.5 -11.5t-55 11.5t-55 31.5l-133 102q-25 19 -33 45 t-2 50z" />
<glyph unicode="&#x10d;" horiz-adv-x="926" d="M131 354v287q0 110 23.5 183.5t74.5 118t132 63t196 18.5q101 0 160.5 -9.5t90 -27.5t39.5 -45t9 -61q0 -50 -20.5 -78.5t-75.5 -28.5q-27 0 -51 3t-49 6.5t-51.5 6.5t-57.5 3q-48 0 -80 -9.5t-51 -29t-27 -49.5t-8 -70v-270q0 -34 9 -62t28.5 -48t51.5 -31t77 -11 q28 0 52 3t47.5 7t49 7t56.5 3q55 0 77.5 -30.5t22.5 -81.5q0 -48 -21.5 -75t-66.5 -40q-11 -3 -29 -7.5t-45 -8.5t-64.5 -7t-88.5 -3q-114 0 -192.5 23t-127 69.5t-69.5 116.5t-21 165zM246 1323q6 24 24 40.5t45 16.5q16 0 29.5 -4t26.5 -10l153 -72l154 72q12 6 26 10 t29 4q28 0 46 -16.5t24 -40.5t-2 -50t-33 -44l-133 -103q-26 -20 -55.5 -31.5t-55.5 -11.5t-55 11.5t-55 31.5l-133 103q-25 18 -33 44t-2 50z" />
<glyph unicode="&#x10e;" horiz-adv-x="1389" d="M162 109v1112q0 56 36.5 83t92.5 27h356q106 0 192.5 -10t154 -36.5t117.5 -73.5t82.5 -121.5t48 -180.5t15.5 -250t-18.5 -248.5t-55 -178t-89 -119t-120 -70.5t-150 -34t-177.5 -9h-356q-28 0 -51.5 6t-41 19t-27 34t-9.5 50zM416 1651q6 24 24 40.5t45 16.5 q16 0 29.5 -4t26.5 -10l153 -72l154 72q12 6 26 10t29 4q28 0 46 -16.5t24 -40.5t-2 -50t-33 -45l-133 -102q-26 -20 -55.5 -31.5t-55.5 -11.5t-55 11.5t-55 31.5l-133 102q-25 19 -33 45t-2 50zM428 242h209q87 0 153 14t110.5 58.5t67.5 127t23 220.5q0 139 -22 223.5 t-66 130.5t-110.5 61t-155.5 15h-209v-850z" />
<glyph unicode="&#x10f;" horiz-adv-x="1288" d="M102 500q0 162 25 264t79.5 160t140.5 79t208 21q115 0 199 -18v282q0 28 10.5 49t28 34t41 19.5t49.5 6.5t49.5 -6.5t41 -19.5t28 -34t10.5 -49v-788q0 -163 -26 -264.5t-81 -158.5t-142 -77t-208 -20q-81 0 -146.5 8.5t-116 30t-86.5 59t-59 95t-34 138t-11 189.5z M356 504q0 -100 10.5 -159t34.5 -89.5t62 -39.5t92 -9t92 9t63 39.5t36.5 89.5t11.5 159q0 103 -11.5 161.5t-36.5 87.5t-63 36.5t-92 7.5t-92 -7.5t-62 -36.5t-34.5 -87.5t-10.5 -161.5zM1073 1032v12.5t2 12.5l25 168q4 34 17 58t31 39.5t39 22.5t42 7q22 0 42.5 -8 t36 -23t24.5 -36.5t9 -47.5q0 -36 -18 -82l-59 -156q-13 -34 -41 -48.5t-56 -14.5q-37 0 -65.5 25.5t-28.5 70.5z" />
<glyph unicode="&#x110;" horiz-adv-x="1389" d="M20 684q0 48 23 81.5t74 33.5h45v422q0 56 36.5 83t92.5 27h356q106 0 192.5 -10t154 -36.5t117.5 -73.5t82.5 -121.5t48 -180.5t15.5 -250t-18.5 -248.5t-55 -178t-89 -119t-120 -70.5t-150 -34t-177.5 -9h-356q-28 0 -51.5 6t-41 19t-27 34t-9.5 50v458h-45 q-26 0 -44 9.5t-30 25.5t-17.5 37t-5.5 45zM428 242h209q87 0 153 14t110.5 58.5t67.5 127t23 220.5q0 139 -22 223.5t-66 130.5t-110.5 61t-155.5 15h-209v-293h182q51 0 75 -33.5t24 -81.5q0 -24 -6 -45t-18 -37t-31 -25.5t-44 -9.5h-182v-325z" />
<glyph unicode="&#x111;" horiz-adv-x="1155" d="M102 500q0 162 25 264t79.5 160t140.5 79t208 21q115 0 199 -18v67h-211q-51 0 -74 29.5t-23 77.5t23 76t74 28h211v4q0 28 10.5 49t28 34t41 19.5t49.5 6.5t49.5 -6.5t41 -19.5t28 -34t10.5 -49v-4h26q51 0 75 -28t24 -76t-24 -77.5t-75 -29.5h-26v-573 q0 -163 -26 -264.5t-81 -158.5t-142 -77t-208 -20q-81 0 -146.5 8.5t-116 30t-86.5 59t-59 95t-34 138t-11 189.5zM356 504q0 -100 10.5 -159t34.5 -89.5t62 -39.5t92 -9t92 9t63 39.5t36.5 89.5t11.5 159q0 103 -11.5 161.5t-36.5 87.5t-63 36.5t-92 7.5t-92 -7.5 t-62 -36.5t-34.5 -87.5t-10.5 -161.5z" />
<glyph unicode="&#x112;" horiz-adv-x="1135" d="M162 111v1110q0 57 36.5 83.5t90.5 26.5h682q57 0 80.5 -35t23.5 -86q0 -25 -5.5 -46.5t-18 -37.5t-32.5 -25t-48 -9h-543v-295h395q28 0 48 -9t33 -25t18.5 -38t5.5 -47q0 -51 -24 -85t-81 -34h-395v-317h563q28 0 47.5 -9t32 -25t18 -38t5.5 -47q0 -26 -5.5 -48 t-18 -39t-32 -26.5t-47.5 -9.5h-702q-54 0 -90.5 27t-36.5 84zM346 1565q0 48 22.5 76t73.5 28h369q51 0 74.5 -28t23.5 -76t-23.5 -77.5t-74.5 -29.5h-369q-51 0 -73.5 29.5t-22.5 77.5z" />
<glyph unicode="&#x113;" horiz-adv-x="1094" d="M131 367v266q0 117 26 193t80 120t136.5 61t195.5 17q110 0 187 -18t126 -62.5t71 -118.5t22 -186v-117q0 -66 -26 -92.5t-83 -26.5h-481v-51q0 -80 46.5 -113.5t135.5 -33.5q31 0 68.5 3t76 6t75 6t65.5 3q55 0 80.5 -21t25.5 -79q0 -47 -17.5 -73t-68.5 -40 q-31 -9 -107 -19.5t-187 -10.5q-122 0 -207 18.5t-138 63.5t-77.5 119.5t-24.5 185.5zM285 1237q0 48 22.5 76t73.5 28h369q51 0 74.5 -28t23.5 -76t-23.5 -77.5t-74.5 -29.5h-369q-51 0 -73.5 29.5t-22.5 77.5zM385 612h340v39q0 45 -7.5 74.5t-27 47t-52 24t-83.5 6.5 q-47 0 -79.5 -6t-52.5 -23t-29 -46.5t-9 -76.5v-39z" />
<glyph unicode="&#x114;" horiz-adv-x="1135" d="M162 111v1110q0 57 36.5 83.5t90.5 26.5h682q57 0 80.5 -35t23.5 -86q0 -25 -5.5 -46.5t-18 -37.5t-32.5 -25t-48 -9h-543v-295h395q28 0 48 -9t33 -25t18.5 -38t5.5 -47q0 -51 -24 -85t-81 -34h-395v-317h563q28 0 47.5 -9t32 -25t18 -38t5.5 -47q0 -26 -5.5 -48 t-18 -39t-32 -26.5t-47.5 -9.5h-702q-54 0 -90.5 27t-36.5 84zM344 1624q0 31 21 53.5t55 22.5q32 0 52.5 -12.5t37.5 -38.5q22 -34 47 -51t72 -17q46 0 71.5 17t47.5 51q17 26 37.5 38.5t52.5 12.5q34 0 54.5 -22.5t20.5 -53.5q0 -55 -24 -95t-63.5 -66.5t-91 -39 t-105.5 -12.5q-55 0 -106.5 12.5t-91 39t-63.5 66.5t-24 95z" />
<glyph unicode="&#x115;" horiz-adv-x="1094" d="M131 367v266q0 117 26 193t80 120t136.5 61t195.5 17q110 0 187 -18t126 -62.5t71 -118.5t22 -186v-117q0 -66 -26 -92.5t-83 -26.5h-481v-51q0 -80 46.5 -113.5t135.5 -33.5q31 0 68.5 3t76 6t75 6t65.5 3q55 0 80.5 -21t25.5 -79q0 -47 -17.5 -73t-68.5 -40 q-31 -9 -107 -19.5t-187 -10.5q-122 0 -207 18.5t-138 63.5t-77.5 119.5t-24.5 185.5zM279 1296q0 31 20.5 53.5t54.5 22.5q32 0 52.5 -12.5t37.5 -38.5q22 -34 47.5 -51t71.5 -17q47 0 72 17t47 51q17 26 37.5 38.5t52.5 12.5q34 0 55 -22.5t21 -53.5q0 -55 -24 -95 t-64 -66.5t-91 -39t-106 -12.5q-54 0 -105.5 12.5t-91 39t-63.5 66.5t-24 95zM385 612h340v39q0 45 -7.5 74.5t-27 47t-52 24t-83.5 6.5q-47 0 -79.5 -6t-52.5 -23t-29 -46.5t-9 -76.5v-39z" />
<glyph unicode="&#x116;" horiz-adv-x="1135" d="M162 111v1110q0 57 36.5 83.5t90.5 26.5h682q57 0 80.5 -35t23.5 -86q0 -25 -5.5 -46.5t-18 -37.5t-32.5 -25t-48 -9h-543v-295h395q28 0 48 -9t33 -25t18.5 -38t5.5 -47q0 -51 -24 -85t-81 -34h-395v-317h563q28 0 47.5 -9t32 -25t18 -38t5.5 -47q0 -26 -5.5 -48 t-18 -39t-32 -26.5t-47.5 -9.5h-702q-54 0 -90.5 27t-36.5 84zM481 1565q0 30 11 56.5t30 46t45 31t56 11.5t56 -11.5t46 -31t31.5 -46t11.5 -56.5t-11.5 -56.5t-31.5 -46t-46 -30.5t-56 -11t-56 11t-45 30.5t-30 46t-11 56.5z" />
<glyph unicode="&#x117;" horiz-adv-x="1094" d="M131 367v266q0 117 26 193t80 120t136.5 61t195.5 17q110 0 187 -18t126 -62.5t71 -118.5t22 -186v-117q0 -66 -26 -92.5t-83 -26.5h-481v-51q0 -80 46.5 -113.5t135.5 -33.5q31 0 68.5 3t76 6t75 6t65.5 3q55 0 80.5 -21t25.5 -79q0 -47 -17.5 -73t-68.5 -40 q-31 -9 -107 -19.5t-187 -10.5q-122 0 -207 18.5t-138 63.5t-77.5 119.5t-24.5 185.5zM385 612h340v39q0 45 -7.5 74.5t-27 47t-52 24t-83.5 6.5q-47 0 -79.5 -6t-52.5 -23t-29 -46.5t-9 -76.5v-39zM426 1237q0 30 11 56.5t29.5 46t44.5 31t56 11.5t56.5 -11.5t46.5 -31 t31.5 -46t11.5 -56.5t-11.5 -56t-31.5 -45.5t-46.5 -30.5t-56.5 -11t-56 11t-44.5 30.5t-29.5 45.5t-11 56z" />
<glyph unicode="&#x118;" horiz-adv-x="1135" d="M162 111v1110q0 57 36.5 83.5t90.5 26.5h682q57 0 80.5 -35t23.5 -86q0 -25 -5.5 -46.5t-18 -37.5t-32.5 -25t-48 -9h-543v-295h395q28 0 48 -9t33 -25t18.5 -38t5.5 -47q0 -51 -24 -85t-81 -34h-395v-317h563q28 0 47.5 -9t32 -25t18 -38t5.5 -47q0 -26 -5.5 -48 t-18 -39t-32 -26.5t-47.5 -9.5h-2q-31 -29 -57 -54.5t-45 -50.5t-30 -48.5t-11 -47.5q0 -17 6 -25.5t16.5 -12t25 -4t32.5 -1.5q12 -1 24.5 -3.5t22 -9t16 -18.5t6.5 -32q0 -92 -143 -92q-99 0 -149 41.5t-50 119.5q0 39 11 73t29.5 63.5t42 55t48.5 46.5h-495 q-54 0 -90.5 27t-36.5 84z" />
<glyph unicode="&#x119;" horiz-adv-x="1094" d="M131 367v266q0 117 26 193t80 120t136.5 61t195.5 17q110 0 187 -18t126 -62.5t71 -118.5t22 -186v-117q0 -66 -26 -92.5t-83 -26.5h-481v-51q0 -80 46.5 -113.5t135.5 -33.5q31 0 68.5 3t76 6t75 6t65.5 3q55 0 80.5 -21t25.5 -79q0 -45 -15.5 -71t-59.5 -40 q-34 -30 -63 -57.5t-50 -53.5t-33 -51.5t-12 -50.5q0 -17 6 -25.5t16.5 -12t25 -4t32.5 -1.5q12 -1 24.5 -3.5t22.5 -9t16 -18.5t6 -32q0 -92 -143 -92q-99 0 -149 41.5t-50 119.5q0 35 9 66t24.5 58t35.5 51t42 45q-15 -2 -31.5 -2h-33.5q-122 0 -207 18.5t-138 63.5 t-77.5 119.5t-24.5 185.5zM385 612h340v39q0 45 -7.5 74.5t-27 47t-52 24t-83.5 6.5q-47 0 -79.5 -6t-52.5 -23t-29 -46.5t-9 -76.5v-39z" />
<glyph unicode="&#x11a;" horiz-adv-x="1135" d="M162 111v1110q0 57 36.5 83.5t90.5 26.5h682q57 0 80.5 -35t23.5 -86q0 -25 -5.5 -46.5t-18 -37.5t-32.5 -25t-48 -9h-543v-295h395q28 0 48 -9t33 -25t18.5 -38t5.5 -47q0 -51 -24 -85t-81 -34h-395v-317h563q28 0 47.5 -9t32 -25t18 -38t5.5 -47q0 -26 -5.5 -48 t-18 -39t-32 -26.5t-47.5 -9.5h-702q-54 0 -90.5 27t-36.5 84zM334 1651q6 24 24 40.5t45 16.5q16 0 29.5 -4t26.5 -10l153 -72l154 72q12 6 26 10t29 4q28 0 46 -16.5t24 -40.5t-2 -50t-33 -45l-133 -102q-26 -20 -55.5 -31.5t-55.5 -11.5t-55 11.5t-55 31.5l-133 102 q-25 19 -33 45t-2 50z" />
<glyph unicode="&#x11b;" horiz-adv-x="1094" d="M131 367v266q0 117 26 193t80 120t136.5 61t195.5 17q110 0 187 -18t126 -62.5t71 -118.5t22 -186v-117q0 -66 -26 -92.5t-83 -26.5h-481v-51q0 -80 46.5 -113.5t135.5 -33.5q31 0 68.5 3t76 6t75 6t65.5 3q55 0 80.5 -21t25.5 -79q0 -47 -17.5 -73t-68.5 -40 q-31 -9 -107 -19.5t-187 -10.5q-122 0 -207 18.5t-138 63.5t-77.5 119.5t-24.5 185.5zM268.5 1323q5.5 24 23.5 40.5t46 16.5q15 0 29 -4t26 -10l154 -72l153 72q13 6 26.5 10t29.5 4q27 0 45 -16.5t24 -40.5t-2 -50t-32 -44l-134 -103q-26 -20 -55 -31.5t-55 -11.5 t-55.5 11.5t-55.5 31.5l-133 103q-24 18 -32 44t-2.5 50zM385 612h340v39q0 45 -7.5 74.5t-27 47t-52 24t-83.5 6.5q-47 0 -79.5 -6t-52.5 -23t-29 -46.5t-9 -76.5v-39z" />
<glyph unicode="&#x11c;" horiz-adv-x="1354" d="M131 653q0 141 13.5 248t43.5 184.5t76.5 129t112 82t151.5 43t195 12.5q51 0 107 -3.5t105.5 -8t86 -9.5t47.5 -8q48 -14 69 -45.5t21 -81.5q0 -51 -22 -83t-78 -32q-37 0 -77 4t-82 9.5t-84.5 9.5t-84.5 4q-63 0 -112 -4.5t-86.5 -20.5t-63 -45.5t-42 -79.5t-23.5 -124 t-7 -177q0 -98 8.5 -168t25.5 -118.5t42.5 -78t59.5 -45.5t76 -21t93 -5q73 0 123 16t80.5 51t43 89.5t9.5 132.5h-190q-57 0 -80.5 33.5t-23.5 83.5q0 25 5.5 47.5t18 39t32 26.5t48.5 10h328q26 0 49 -6.5t40.5 -21t27.5 -36t10 -51.5q0 -126 -10 -224t-34 -170.5 t-63 -122.5t-98 -80.5t-139 -44t-185 -13.5q-96 0 -175 9.5t-141.5 35.5t-109 73t-77 121.5t-45.5 181t-15 252.5zM397.5 1468q-5.5 24 2.5 50t32 45l133 102q26 20 55.5 31.5t55.5 11.5t55 -11.5t55 -31.5l134 -102q24 -19 32 -45t2 -50t-24 -40.5t-45 -16.5q-16 0 -29.5 4 t-26.5 10l-153 72l-154 -72q-12 -6 -26 -10t-29 -4q-28 0 -46 16.5t-23.5 40.5z" />
<glyph unicode="&#x11d;" horiz-adv-x="1184" d="M143 -57v757q0 108 25 172t78 97.5t134.5 44t194.5 10.5q73 0 125 -5t97 -18h6v93q0 27 10 46t27 31t39.5 17.5t48.5 5.5q24 0 46.5 -5.5t39.5 -17.5t27 -31t10 -46v-426q0 -103 -25 -168t-78 -101.5t-135 -49.5t-195 -13q-43 0 -74 2t-56 5t-46.5 7.5t-44.5 9.5h-6v-127 h334q103 0 172.5 -15t111.5 -48.5t60 -88t18 -132.5q0 -98 -27 -164.5t-86 -107t-153 -58.5t-227 -18q-125 0 -211 16t-139 55.5t-77 105.5t-24 165zM313.5 1264q-5.5 24 2.5 50t32 44l133 102q26 20 55.5 31.5t55.5 11.5t55 -11.5t55 -31.5l134 -102q24 -18 32 -44t2 -50 t-24 -41t-45 -17q-16 0 -29.5 4t-26.5 11l-153 71l-154 -71q-12 -7 -26 -11t-29 -4q-28 0 -46 17t-23.5 41zM391 12v-49q0 -45 8.5 -72.5t31.5 -42.5t63 -20.5t104 -5.5q73 0 120 5t74 17.5t37.5 33t10.5 52.5q0 24 -7 40t-25 25t-49 13t-79 4h-289zM391 651q0 -30 6 -49 t27.5 -29.5t62 -14t109.5 -3.5q74 0 115.5 4.5t62 18.5t25 40t4.5 68v100q-38 7 -95.5 12t-123.5 5q-69 0 -107.5 -5.5t-57.5 -18.5t-23.5 -33.5t-4.5 -51.5v-43z" />
<glyph unicode="&#x11e;" horiz-adv-x="1354" d="M131 653q0 141 13.5 248t43.5 184.5t76.5 129t112 82t151.5 43t195 12.5q51 0 107 -3.5t105.5 -8t86 -9.5t47.5 -8q48 -14 69 -45.5t21 -81.5q0 -51 -22 -83t-78 -32q-37 0 -77 4t-82 9.5t-84.5 9.5t-84.5 4q-63 0 -112 -4.5t-86.5 -20.5t-63 -45.5t-42 -79.5t-23.5 -124 t-7 -177q0 -98 8.5 -168t25.5 -118.5t42.5 -78t59.5 -45.5t76 -21t93 -5q73 0 123 16t80.5 51t43 89.5t9.5 132.5h-190q-57 0 -80.5 33.5t-23.5 83.5q0 25 5.5 47.5t18 39t32 26.5t48.5 10h328q26 0 49 -6.5t40.5 -21t27.5 -36t10 -51.5q0 -126 -10 -224t-34 -170.5 t-63 -122.5t-98 -80.5t-139 -44t-185 -13.5q-96 0 -175 9.5t-141.5 35.5t-109 73t-77 121.5t-45.5 181t-15 252.5zM391 1624q0 31 21 53.5t55 22.5q32 0 52.5 -12.5t37.5 -38.5q22 -34 47 -51t72 -17q46 0 71.5 17t47.5 51q17 26 37.5 38.5t52.5 12.5q34 0 55 -22.5 t21 -53.5q0 -55 -24 -95t-64 -66.5t-91.5 -39t-105.5 -12.5q-55 0 -106.5 12.5t-91 39t-63.5 66.5t-24 95z" />
<glyph unicode="&#x11f;" horiz-adv-x="1184" d="M143 -57v757q0 108 25 172t78 97.5t134.5 44t194.5 10.5q73 0 125 -5t97 -18h6v93q0 27 10 46t27 31t39.5 17.5t48.5 5.5q24 0 46.5 -5.5t39.5 -17.5t27 -31t10 -46v-426q0 -103 -25 -168t-78 -101.5t-135 -49.5t-195 -13q-43 0 -74 2t-56 5t-46.5 7.5t-44.5 9.5h-6v-127 h334q103 0 172.5 -15t111.5 -48.5t60 -88t18 -132.5q0 -98 -27 -164.5t-86 -107t-153 -58.5t-227 -18q-125 0 -211 16t-139 55.5t-77 105.5t-24 165zM307 1296q0 31 21 53.5t55 22.5q32 0 52.5 -12.5t37.5 -38.5q22 -34 47 -51t72 -17q46 0 71.5 17t47.5 51q17 26 37.5 38.5 t52.5 12.5q34 0 55 -22.5t21 -53.5q0 -55 -24 -95t-64 -66.5t-91.5 -39t-105.5 -12.5q-55 0 -106.5 12.5t-91 39t-63.5 66.5t-24 95zM391 12v-49q0 -45 8.5 -72.5t31.5 -42.5t63 -20.5t104 -5.5q73 0 120 5t74 17.5t37.5 33t10.5 52.5q0 24 -7 40t-25 25t-49 13t-79 4h-289z M391 651q0 -30 6 -49t27.5 -29.5t62 -14t109.5 -3.5q74 0 115.5 4.5t62 18.5t25 40t4.5 68v100q-38 7 -95.5 12t-123.5 5q-69 0 -107.5 -5.5t-57.5 -18.5t-23.5 -33.5t-4.5 -51.5v-43z" />
<glyph unicode="&#x120;" horiz-adv-x="1354" d="M131 653q0 141 13.5 248t43.5 184.5t76.5 129t112 82t151.5 43t195 12.5q51 0 107 -3.5t105.5 -8t86 -9.5t47.5 -8q48 -14 69 -45.5t21 -81.5q0 -51 -22 -83t-78 -32q-37 0 -77 4t-82 9.5t-84.5 9.5t-84.5 4q-63 0 -112 -4.5t-86.5 -20.5t-63 -45.5t-42 -79.5t-23.5 -124 t-7 -177q0 -98 8.5 -168t25.5 -118.5t42.5 -78t59.5 -45.5t76 -21t93 -5q73 0 123 16t80.5 51t43 89.5t9.5 132.5h-190q-57 0 -80.5 33.5t-23.5 83.5q0 25 5.5 47.5t18 39t32 26.5t48.5 10h328q26 0 49 -6.5t40.5 -21t27.5 -36t10 -51.5q0 -126 -10 -224t-34 -170.5 t-63 -122.5t-98 -80.5t-139 -44t-185 -13.5q-96 0 -175 9.5t-141.5 35.5t-109 73t-77 121.5t-45.5 181t-15 252.5zM586 1565q0 30 11 56.5t29.5 46t44.5 31t56 11.5t56.5 -11.5t46 -31t31 -46t11.5 -56.5t-11.5 -56.5t-31 -46t-46 -30.5t-56.5 -11t-56 11t-44.5 30.5 t-29.5 46t-11 56.5z" />
<glyph unicode="&#x121;" horiz-adv-x="1184" d="M143 -57v757q0 108 25 172t78 97.5t134.5 44t194.5 10.5q73 0 125 -5t97 -18h6v93q0 27 10 46t27 31t39.5 17.5t48.5 5.5q24 0 46.5 -5.5t39.5 -17.5t27 -31t10 -46v-426q0 -103 -25 -168t-78 -101.5t-135 -49.5t-195 -13q-43 0 -74 2t-56 5t-46.5 7.5t-44.5 9.5h-6v-127 h334q103 0 172.5 -15t111.5 -48.5t60 -88t18 -132.5q0 -98 -27 -164.5t-86 -107t-153 -58.5t-227 -18q-125 0 -211 16t-139 55.5t-77 105.5t-24 165zM391 12v-49q0 -45 8.5 -72.5t31.5 -42.5t63 -20.5t104 -5.5q73 0 120 5t74 17.5t37.5 33t10.5 52.5q0 24 -7 40t-25 25 t-49 13t-79 4h-289zM391 651q0 -30 6 -49t27.5 -29.5t62 -14t109.5 -3.5q74 0 115.5 4.5t62 18.5t25 40t4.5 68v100q-38 7 -95.5 12t-123.5 5q-69 0 -107.5 -5.5t-57.5 -18.5t-23.5 -33.5t-4.5 -51.5v-43zM449 1237q0 30 11 56.5t29.5 46t44.5 31t56 11.5t56.5 -11.5t46 -31 t31 -46t11.5 -56.5t-11.5 -56t-31 -45.5t-46 -30.5t-56.5 -11t-56 11t-44.5 30.5t-29.5 45.5t-11 56z" />
<glyph unicode="&#x122;" horiz-adv-x="1354" d="M131 653q0 141 13.5 248t43.5 184.5t76.5 129t112 82t151.5 43t195 12.5q51 0 107 -3.5t105.5 -8t86 -9.5t47.5 -8q48 -14 69 -45.5t21 -81.5q0 -51 -22 -83t-78 -32q-37 0 -77 4t-82 9.5t-84.5 9.5t-84.5 4q-63 0 -112 -4.5t-86.5 -20.5t-63 -45.5t-42 -79.5t-23.5 -124 t-7 -177q0 -98 8.5 -168t25.5 -118.5t42.5 -78t59.5 -45.5t76 -21t93 -5q73 0 123 16t80.5 51t43 89.5t9.5 132.5h-190q-57 0 -80.5 33.5t-23.5 83.5q0 25 5.5 47.5t18 39t32 26.5t48.5 10h328q26 0 49 -6.5t40.5 -21t27.5 -36t10 -51.5q0 -126 -10 -224t-34 -170.5 t-63 -122.5t-98 -80.5t-139 -44t-185 -13.5q-96 0 -175 9.5t-141.5 35.5t-109 73t-77 121.5t-45.5 181t-15 252.5zM541 -348q0 6 2 12l24 127q6 34 19.5 58t31 39.5t37.5 22.5t41 7q22 0 43.5 -8t37.5 -23t26 -36.5t10 -47.5q0 -36 -22 -82l-60 -114q-17 -32 -42.5 -48 t-53.5 -16q-37 0 -65.5 26t-28.5 71v12z" />
<glyph unicode="&#x123;" horiz-adv-x="1184" d="M143 -57v757q0 108 25 172t78 97.5t134.5 44t194.5 10.5q73 0 125 -5t97 -18h6v93q0 27 10 46t27 31t39.5 17.5t48.5 5.5q24 0 46.5 -5.5t39.5 -17.5t27 -31t10 -46v-426q0 -103 -25 -168t-78 -101.5t-135 -49.5t-195 -13q-43 0 -74 2t-56 5t-46.5 7.5t-44.5 9.5h-6v-127 h334q103 0 172.5 -15t111.5 -48.5t60 -88t18 -132.5q0 -98 -27 -164.5t-86 -107t-153 -58.5t-227 -18q-125 0 -211 16t-139 55.5t-77 105.5t-24 165zM391 12v-49q0 -45 8.5 -72.5t31.5 -42.5t63 -20.5t104 -5.5q73 0 120 5t74 17.5t37.5 33t10.5 52.5q0 24 -7 40t-25 25 t-49 13t-79 4h-289zM391 651q0 -30 6 -49t27.5 -29.5t62 -14t109.5 -3.5q74 0 115.5 4.5t62 18.5t25 40t4.5 68v100q-38 7 -95.5 12t-123.5 5q-69 0 -107.5 -5.5t-57.5 -18.5t-23.5 -33.5t-4.5 -51.5v-43zM461 1223q0 36 22 82l60 114q17 32 42.5 48t53.5 16q37 0 65.5 -26 t28.5 -71v-12t-2 -12l-24 -127q-6 -34 -19.5 -58t-31 -39.5t-37.5 -22.5t-41 -7q-23 0 -44 8t-37 23t-26 36.5t-10 47.5z" />
<glyph unicode="&#x124;" horiz-adv-x="1370" d="M162 94v1141q0 29 10.5 50.5t28.5 35.5t42 20.5t52 6.5q26 0 50 -6.5t42.5 -20.5t29.5 -35.5t11 -50.5v-436h514v436q0 29 10.5 50.5t28.5 35.5t42 20.5t52 6.5q27 0 51 -6.5t42.5 -20.5t29 -35.5t10.5 -50.5v-1141q0 -30 -10.5 -51t-29 -34t-42.5 -19t-51 -6 q-28 0 -52 6t-42 19t-28.5 34t-10.5 51v465h-514v-465q0 -30 -11 -51t-29.5 -34t-42.5 -19t-50 -6q-28 0 -52 6t-42 19t-28.5 34t-10.5 51zM405.5 1468q-5.5 24 2.5 50t32 45l133 102q26 20 55.5 31.5t55.5 11.5t55.5 -11.5t55.5 -31.5l133 -102q24 -19 32 -45t2.5 -50 t-23.5 -40.5t-46 -16.5q-16 0 -29.5 4t-25.5 10l-154 72l-154 -72q-12 -6 -25.5 -10t-29.5 -4q-28 0 -46 16.5t-23.5 40.5z" />
<glyph unicode="&#x125;" horiz-adv-x="1145" d="M143 90v1174q0 28 10.5 48.5t28 33.5t41 19.5t49.5 6.5q54 0 91.5 -26t37.5 -82v-263q42 10 90 16.5t101 6.5q114 0 192.5 -14t126.5 -59t69 -130.5t21 -228.5v-502q0 -29 -10 -49t-27.5 -32.5t-40.5 -18.5t-49 -6t-48.5 6t-39.5 18.5t-26.5 32.5t-9.5 49v490 q0 70 -5.5 112.5t-24 65.5t-54 31t-95.5 8q-49 0 -93.5 -6.5t-76.5 -14.5v-686q0 -57 -37.5 -81.5t-91.5 -24.5q-26 0 -49.5 6t-41 18.5t-28 32.5t-10.5 49zM293 1530q-6 24 2 50t33 44l133 102q26 20 55 31.5t55 11.5t55.5 -11.5t55.5 -31.5l133 -102q25 -18 33 -44t2 -50 t-24 -40.5t-46 -16.5q-15 0 -29 4t-26 10l-154 72l-153 -72q-13 -6 -26.5 -10t-29.5 -4q-27 0 -45 16.5t-24 40.5z" />
<glyph unicode="&#x126;" horiz-adv-x="1370" d="M20 1053q0 24 5.5 44.5t17.5 36t30 24.5t44 9h45v68q0 29 10.5 50.5t28.5 35.5t42 20.5t52 6.5q26 0 50 -6.5t42.5 -20.5t29.5 -35.5t11 -50.5v-68h514v68q0 29 10.5 50.5t28.5 35.5t42 20.5t52 6.5q27 0 51 -6.5t42.5 -20.5t29 -35.5t10.5 -50.5v-68h43q25 0 44 -9 t31 -24.5t18 -36t6 -44.5q0 -48 -24 -82.5t-75 -34.5h-43v-842q0 -30 -10.5 -51t-29 -34t-42.5 -19t-51 -6q-28 0 -52 6t-42 19t-28.5 34t-10.5 51v465h-514v-465q0 -30 -11 -51t-29.5 -34t-42.5 -19t-50 -6q-28 0 -52 6t-42 19t-28.5 34t-10.5 51v842h-45q-51 0 -74 34.5 t-23 82.5zM428 799h514v137h-514v-137z" />
<glyph unicode="&#x127;" horiz-adv-x="1145" d="M20 1180q0 48 23 76t74 28h28q8 46 44 67t83 21q48 0 83.5 -20.5t43.5 -67.5h213q51 0 75 -28t24 -76t-24 -77.5t-75 -29.5h-211v-72q42 10 90 16.5t101 6.5q114 0 192.5 -14t126.5 -59t69 -130.5t21 -228.5v-502q0 -29 -10 -49t-27.5 -32.5t-40.5 -18.5t-49 -6t-48.5 6 t-39.5 18.5t-26.5 32.5t-9.5 49v490q0 70 -5.5 112.5t-24 65.5t-54 31t-95.5 8q-49 0 -93.5 -6.5t-76.5 -14.5v-686q0 -57 -37.5 -81.5t-91.5 -24.5q-26 0 -49.5 6t-41 18.5t-28 32.5t-10.5 49v983h-26q-51 0 -74 29.5t-23 77.5z" />
<glyph unicode="&#x128;" horiz-adv-x="774" d="M57 117q0 52 23 84t80 32h94v863h-94q-57 0 -80 32t-23 84q0 53 23 86t80 33h454q57 0 80 -33t23 -86q0 -52 -23 -84t-80 -32h-94v-863h94q57 0 80 -32t23 -84q0 -53 -23 -85t-80 -32h-454q-57 0 -80 32t-23 85zM104 1548q0 42 18.5 68t42.5 40t46 18.5t29 4.5 q34 0 67.5 -7.5t63 -16t53 -16t37.5 -7.5t26.5 7.5t26 16t29.5 16t37 7.5q35 0 61.5 -26.5t26.5 -75.5q0 -38 -16.5 -63t-40 -41t-48.5 -22.5t-43 -6.5q-21 0 -50 8t-58.5 17.5t-56 17.5t-44.5 8t-30 -7.5t-23.5 -16t-25.5 -16t-35 -7.5q-39 0 -66 25.5t-27 74.5z" />
<glyph unicode="&#x129;" horiz-adv-x="541" d="M-10 1221q0 42 18.5 67.5t42 40t45.5 19t29 4.5q34 0 67.5 -7.5t63 -16t53 -16t37.5 -7.5t26.5 7.5t26 16t29.5 16t37 7.5q35 0 61.5 -26.5t26.5 -76.5q0 -38 -16.5 -63t-39.5 -41t-48 -22.5t-43 -6.5q-22 0 -50.5 8t-58 17.5t-56 17.5t-44.5 8t-30 -7.5t-24 -16t-26 -16 t-35 -7.5q-38 0 -65 25.5t-27 75.5zM143 90v821q0 28 10 49t27.5 34t40.5 19.5t49 6.5t49 -6.5t40.5 -19.5t27.5 -34t10 -49v-821q0 -29 -10 -49t-27.5 -32.5t-40.5 -18.5t-49 -6t-49 6t-40.5 18.5t-27.5 32.5t-10 49z" />
<glyph unicode="&#x12a;" horiz-adv-x="774" d="M57 117q0 52 23 84t80 32h94v863h-94q-57 0 -80 32t-23 84q0 53 23 86t80 33h454q57 0 80 -33t23 -86q0 -52 -23 -84t-80 -32h-94v-863h94q57 0 80 -32t23 -84q0 -53 -23 -85t-80 -32h-454q-57 0 -80 32t-23 85zM104 1565q0 48 23 76t74 28h368q51 0 75 -28t24 -76 t-24 -77.5t-75 -29.5h-368q-51 0 -74 29.5t-23 77.5z" />
<glyph unicode="&#x12b;" horiz-adv-x="541" d="M-10 1237q0 48 22.5 76t73.5 28h369q51 0 74.5 -28t23.5 -76t-23.5 -77.5t-74.5 -29.5h-369q-51 0 -73.5 29.5t-22.5 77.5zM143 90v821q0 28 10 49t27.5 34t40.5 19.5t49 6.5t49 -6.5t40.5 -19.5t27.5 -34t10 -49v-821q0 -29 -10 -49t-27.5 -32.5t-40.5 -18.5t-49 -6 t-49 6t-40.5 18.5t-27.5 32.5t-10 49z" />
<glyph unicode="&#x12c;" horiz-adv-x="774" d="M57 117q0 52 23 84t80 32h94v863h-94q-57 0 -80 32t-23 84q0 53 23 86t80 33h454q57 0 80 -33t23 -86q0 -52 -23 -84t-80 -32h-94v-863h94q57 0 80 -32t23 -84q0 -53 -23 -85t-80 -32h-454q-57 0 -80 32t-23 85zM102 1624q0 31 21 53.5t55 22.5q32 0 52.5 -12.5 t37.5 -38.5q22 -34 47.5 -51t71.5 -17q47 0 72 17t47 51q17 26 37.5 38.5t52.5 12.5q34 0 55 -22.5t21 -53.5q0 -55 -24 -95t-64 -66.5t-91.5 -39t-105.5 -12.5t-105.5 12.5t-91.5 39t-64 66.5t-24 95z" />
<glyph unicode="&#x12d;" horiz-adv-x="541" d="M-14 1296q0 31 20.5 53.5t54.5 22.5q32 0 53 -12.5t38 -38.5q21 -34 46.5 -51t71.5 -17q47 0 72 17t47 51q17 26 37.5 38.5t52.5 12.5q34 0 55 -22.5t21 -53.5q0 -55 -24 -95t-64 -66.5t-91 -39t-106 -12.5q-54 0 -105.5 12.5t-91 39t-63.5 66.5t-24 95zM143 90v821 q0 28 10 49t27.5 34t40.5 19.5t49 6.5t49 -6.5t40.5 -19.5t27.5 -34t10 -49v-821q0 -29 -10 -49t-27.5 -32.5t-40.5 -18.5t-49 -6t-49 6t-40.5 18.5t-27.5 32.5t-10 49z" />
<glyph unicode="&#x12e;" horiz-adv-x="774" d="M57 117q0 52 23 84t80 32h94v863h-94q-57 0 -80 32t-23 84q0 53 23 86t80 33h454q57 0 80 -33t23 -86q0 -52 -23 -84t-80 -32h-94v-863h94q57 0 80 -32t23 -84q0 -53 -23 -85t-80 -32h-14q-31 -29 -57 -54.5t-45 -50.5t-30 -48.5t-11 -47.5q0 -17 5.5 -25.5t16 -12 t25.5 -4t33 -1.5q12 -1 24.5 -3.5t22 -9t16 -18.5t6.5 -32q0 -92 -143 -92q-99 0 -149 41.5t-50 119.5q0 39 11 73t29.5 63.5t42 55t48.5 46.5h-235q-57 0 -80 32t-23 85z" />
<glyph unicode="&#x12f;" horiz-adv-x="541" d="M14 -238q0 42 13.5 79t35 69t49 59t56.5 49q-25 27 -25 72v821q0 28 10 49t27.5 34t40.5 19.5t49 6.5t49 -6.5t40.5 -19.5t27.5 -34t10 -49v-821q0 -31 -11 -51.5t-30 -34.5q-66 -54 -107.5 -104.5t-41.5 -100.5q0 -17 6 -25.5t16.5 -12t25 -4t32.5 -1.5q12 -1 24.5 -3.5 t22 -9t16 -18.5t6.5 -32q0 -92 -143 -92q-99 0 -149 41.5t-50 119.5zM129 1247q0 30 11 56.5t29.5 46.5t44.5 31.5t56 11.5t56.5 -11.5t46.5 -31.5t31.5 -46.5t11.5 -56.5t-11.5 -56t-31.5 -45.5t-46.5 -30.5t-56.5 -11t-56 11t-44.5 30.5t-29.5 45.5t-11 56z" />
<glyph unicode="&#x130;" horiz-adv-x="774" d="M57 117q0 52 23 84t80 32h94v863h-94q-57 0 -80 32t-23 84q0 53 23 86t80 33h454q57 0 80 -33t23 -86q0 -52 -23 -84t-80 -32h-94v-863h94q57 0 80 -32t23 -84q0 -53 -23 -85t-80 -32h-454q-57 0 -80 32t-23 85zM244 1565q0 30 11 56.5t29.5 46t44.5 31t56 11.5 t56.5 -11.5t46 -31t31 -46t11.5 -56.5t-11.5 -56.5t-31 -46t-46 -30.5t-56.5 -11t-56 11t-44.5 30.5t-29.5 46t-11 56.5z" />
<glyph unicode="&#x131;" horiz-adv-x="541" d="M143 90v821q0 28 10 49t27.5 34t40.5 19.5t49 6.5t49 -6.5t40.5 -19.5t27.5 -34t10 -49v-821q0 -29 -10 -49t-27.5 -32.5t-40.5 -18.5t-49 -6t-49 6t-40.5 18.5t-27.5 32.5t-10 49z" />
<glyph unicode="&#x132;" horiz-adv-x="1798" d="M57 117q0 52 23 84t80 32h94v863h-94q-57 0 -80 32t-23 84q0 53 23 86t80 33h454q57 0 80 -33t23 -86q0 -52 -23 -84t-80 -32h-94v-863h94q57 0 80 -32t23 -84q0 -53 -23 -85t-80 -32h-454q-57 0 -80 32t-23 85zM827 403v37q0 29 10 50t27.5 34t41 19t50.5 6 q28 0 51.5 -6t40.5 -19t27 -34t10 -50v-14q0 -75 5.5 -118.5t21 -66t44 -28.5t73.5 -6t73 5.5t43.5 27.5t21 66t5.5 120v813q0 29 10.5 50t28 34t41 19t49.5 6q27 0 52 -6t43.5 -19t30 -34t11.5 -50v-836q0 -124 -20 -205.5t-67 -130t-126 -68t-196 -19.5q-71 0 -128.5 5 t-102.5 21t-77 44.5t-53 75.5t-31 115t-10 162z" />
<glyph unicode="&#x133;" horiz-adv-x="1085" d="M129 1247q0 30 11 56.5t29.5 46.5t44.5 31.5t56 11.5t56.5 -11.5t46.5 -31.5t31.5 -46.5t11.5 -56.5t-11.5 -56t-31.5 -45.5t-46.5 -30.5t-56.5 -11t-56 11t-44.5 30.5t-29.5 45.5t-11 56zM143 90v821q0 28 10 49t27.5 34t40.5 19.5t49 6.5t49 -6.5t40.5 -19.5t27.5 -34 t10 -49v-821q0 -29 -10 -49t-27.5 -32.5t-40.5 -18.5t-49 -6t-49 6t-40.5 18.5t-27.5 32.5t-10 49zM492 -276q0 24 5 45.5t17 37.5t31 25.5t47 9.5q24 0 41.5 5t29 17.5t16.5 33.5t5 53v954q0 58 36.5 83.5t90.5 25.5q26 0 50 -6t42 -19t28.5 -34t10.5 -50v-964 q0 -71 -12 -133t-44 -108t-89 -72.5t-148 -26.5q-38 0 -67 5.5t-49 19.5t-30.5 38t-10.5 60zM672 1247q0 30 11 56.5t29.5 46.5t44.5 31.5t56 11.5t56.5 -11.5t46 -31.5t31 -46.5t11.5 -56.5t-11.5 -56t-31 -45.5t-46 -30.5t-56.5 -11t-56 11t-44.5 30.5t-29.5 45.5t-11 56z " />
<glyph unicode="&#x134;" horiz-adv-x="1024" d="M53 403v37q0 29 10 50t27.5 34t41 19t50.5 6q28 0 51.5 -6t40.5 -19t27 -34t10 -50v-14q0 -75 5.5 -118.5t21 -66t44 -28.5t73.5 -6t73 5.5t43.5 27.5t21 66t5.5 120v813q0 29 10.5 50t28 34t41 19t49.5 6q27 0 52 -6t43.5 -19t30 -34t11.5 -50v-836q0 -124 -20 -205.5 t-67 -130t-126 -68t-196 -19.5q-71 0 -128.5 5t-102.5 21t-77 44.5t-53 75.5t-31 115t-10 162zM444.5 1468q-5.5 24 2.5 50t32 45l133 102q26 20 55.5 31.5t55.5 11.5t55.5 -11.5t55.5 -31.5l133 -102q24 -19 32 -45t2.5 -50t-23.5 -40.5t-46 -16.5q-16 0 -29.5 4t-25.5 10 l-154 72l-154 -72q-12 -6 -25.5 -10t-29.5 -4q-28 0 -46 16.5t-23.5 40.5z" />
<glyph unicode="&#x135;" horiz-adv-x="545" d="M-49 -276q0 24 5 45.5t17 37.5t31 25.5t47 9.5h15q19 0 33.5 5t24 17.5t14.5 33.5t5 53v954q0 29 10 50t27 34t40 19t50 6q26 0 50 -6t42 -19t28.5 -34t10.5 -50v-964q0 -71 -11.5 -133t-44 -108t-89.5 -72.5t-147 -26.5q-38 0 -67.5 5.5t-49.5 19.5t-30.5 38t-10.5 60z M-6 1141q-6 24 2 50t33 44l133 102q26 20 55 31.5t55 11.5t55.5 -11.5t55.5 -31.5l133 -102q25 -18 33 -44t2 -50t-24 -41t-46 -17q-15 0 -29 4.5t-26 10.5l-154 71l-153 -71q-13 -6 -26.5 -10.5t-29.5 -4.5q-27 0 -45 17t-24 41z" />
<glyph unicode="&#x136;" horiz-adv-x="1208" d="M162 94v1141q0 29 10.5 50.5t28 35.5t41.5 20.5t51 6.5t51.5 -6.5t43 -20.5t29.5 -35.5t11 -50.5v-1141q0 -30 -11 -51t-29.5 -34t-43 -19t-51.5 -6t-51 6t-41.5 19t-28 34t-10.5 51zM467 -348q0 6 2 12l25 127q6 34 19 58t30.5 39.5t38 22.5t41.5 7q22 0 43 -8t37 -23 t26 -36.5t10 -47.5q0 -36 -22 -82l-60 -114q-17 -32 -42.5 -48t-53.5 -16q-37 0 -65.5 26t-28.5 71v12zM483 645q0 43 23.5 90.5t71.5 104.5l372 465q19 23 43.5 33t48.5 10q26 0 51.5 -10t45.5 -27t32.5 -39.5t12.5 -46.5q0 -17 -7 -35.5t-24 -38.5l-416 -498l426 -442 q23 -25 34 -52t11 -53q0 -30 -10.5 -53.5t-28.5 -39t-42 -23.5t-52 -8q-18 0 -39 8.5t-35 23.5l-428 453q-43 46 -66.5 89.5t-23.5 88.5z" />
<glyph unicode="&#x137;" horiz-adv-x="1020" d="M143 90v1174q0 28 10.5 48.5t28 33.5t41 19.5t49.5 6.5q54 0 91.5 -26t37.5 -82v-664h5l335 373q22 25 47.5 35t51.5 10q24 0 46 -8.5t39 -23t27.5 -35t10.5 -44.5q0 -25 -13.5 -53t-44.5 -57l-200 -195l266 -409q15 -23 21.5 -45t6.5 -42q0 -27 -11 -50t-29 -39.5 t-42 -25.5t-49 -9q-31 0 -61 16t-51 51l-238 395l-117 -108v-246q0 -57 -37.5 -81.5t-91.5 -24.5q-26 0 -49.5 6t-41 18.5t-28 32.5t-10.5 49zM373 -348q0 6 2 12l24 127q6 34 19.5 58t31 39.5t37.5 22.5t41 7q22 0 43.5 -8t37.5 -23t26 -36.5t10 -47.5q0 -36 -22 -82 l-60 -114q-17 -32 -42.5 -48t-53.5 -16q-37 0 -65.5 26t-28.5 71v12z" />
<glyph unicode="&#x138;" horiz-adv-x="1020" d="M147 90v821q0 28 10 49t27.5 34t40.5 19.5t49 6.5q54 0 90.5 -26t36.5 -83v-311h5l335 373q22 25 47.5 35t51.5 10q24 0 46 -8.5t39 -23t27.5 -35t10.5 -44.5q0 -25 -13.5 -53t-44.5 -57l-200 -195l266 -409q15 -23 21.5 -45t6.5 -42q0 -27 -11 -50t-29 -39.5t-42 -25.5 t-49 -9q-31 0 -61 16t-51 51l-238 395l-117 -108v-246q0 -57 -36.5 -81.5t-90.5 -24.5q-26 0 -49 6t-40.5 18.5t-27.5 32.5t-10 49z" />
<glyph unicode="&#x139;" horiz-adv-x="1063" d="M164 109v1128q0 28 10.5 49t29 35t43 20.5t52.5 6.5q27 0 51 -6.5t41.5 -20.5t28 -35t10.5 -49v-995h508q28 0 48 -9.5t32.5 -26t18 -38.5t5.5 -47q0 -51 -23.5 -86t-80.5 -35h-645q-28 0 -51.5 6t-41 19t-27 34t-9.5 50zM248 1485q0 14 6 29.5t20 29.5l138 139 q18 20 37.5 28.5t39.5 8.5q21 0 40 -8t33.5 -21.5t23 -31.5t8.5 -37t-9.5 -37t-31.5 -35l-160 -118q-15 -11 -30.5 -16t-30.5 -5q-35 0 -59.5 21.5t-24.5 52.5z" />
<glyph unicode="&#x13a;" horiz-adv-x="545" d="M143 90v1174q0 28 10.5 48.5t28 33.5t41 19.5t49.5 6.5q54 0 91.5 -26t37.5 -82v-1174q0 -57 -37.5 -81.5t-91.5 -24.5q-26 0 -49.5 6t-41 18.5t-28 32.5t-10.5 49zM182 1546q0 14 6.5 30t20.5 30l137 139q19 20 38.5 28.5t39.5 8.5q21 0 39.5 -8t33 -22t23 -32t8.5 -37 q0 -18 -9.5 -36t-31.5 -35l-159 -119q-30 -20 -62 -20q-35 0 -59.5 21t-24.5 52z" />
<glyph unicode="&#x13b;" horiz-adv-x="1063" d="M164 109v1128q0 28 10.5 49t29 35t43 20.5t52.5 6.5q27 0 51 -6.5t41.5 -20.5t28 -35t10.5 -49v-995h508q28 0 48 -9.5t32.5 -26t18 -38.5t5.5 -47q0 -51 -23.5 -86t-80.5 -35h-645q-28 0 -51.5 6t-41 19t-27 34t-9.5 50zM395 -348q0 6 2 12l25 127q6 34 19 58t30.5 39.5 t38 22.5t41.5 7q22 0 43 -8t37.5 -23t26.5 -36.5t10 -47.5q0 -18 -6 -39t-17 -43l-59 -114q-17 -32 -43 -48t-54 -16q-37 0 -65.5 26t-28.5 71v12z" />
<glyph unicode="&#x13c;" horiz-adv-x="545" d="M135 -348q0 6 2 12l25 127q6 34 19 58t30.5 39.5t38 22.5t41.5 7q22 0 43 -8t37.5 -23t26.5 -36.5t10 -47.5q0 -18 -6 -39t-17 -43l-59 -114q-17 -32 -43 -48t-54 -16q-37 0 -65.5 26t-28.5 71v12zM143 90v1174q0 28 10.5 48.5t28 33.5t41 19.5t49.5 6.5q54 0 91.5 -26 t37.5 -82v-1174q0 -57 -37.5 -81.5t-91.5 -24.5q-26 0 -49.5 6t-41 18.5t-28 32.5t-10.5 49z" />
<glyph unicode="&#x13d;" horiz-adv-x="1063" d="M164 109v1128q0 28 10.5 49t29 35t43 20.5t52.5 6.5q27 0 51 -6.5t41.5 -20.5t28 -35t10.5 -49v-995h508q28 0 48 -9.5t32.5 -26t18 -38.5t5.5 -47q0 -51 -23.5 -86t-80.5 -35h-645q-28 0 -51.5 6t-41 19t-27 34t-9.5 50zM492 1032v12.5t2 12.5l24 168q4 34 17 58 t31 39.5t39 22.5t42 7q22 0 42.5 -8t36.5 -23t25 -36.5t9 -47.5q0 -37 -19 -82l-59 -156q-12 -34 -40 -48.5t-56 -14.5q-37 0 -65.5 25.5t-28.5 70.5z" />
<glyph unicode="&#x13e;" horiz-adv-x="678" d="M143 90v1174q0 28 10.5 48.5t28 33.5t41 19.5t49.5 6.5q54 0 91.5 -26t37.5 -82v-1174q0 -57 -37.5 -81.5t-91.5 -24.5q-26 0 -49.5 6t-41 18.5t-28 32.5t-10.5 49zM463 1032v12.5t2 12.5l24 168q5 34 18 58t31 39.5t38.5 22.5t41.5 7q22 0 42.5 -8t36.5 -23t25 -36.5 t9 -47.5q0 -36 -18 -82l-60 -156q-12 -34 -40 -48.5t-56 -14.5q-37 0 -65.5 25.5t-28.5 70.5z" />
<glyph unicode="&#x13f;" horiz-adv-x="1063" d="M164 109v1128q0 28 10.5 49t29 35t43 20.5t52.5 6.5q27 0 51 -6.5t41.5 -20.5t28 -35t10.5 -49v-995h508q28 0 48 -9.5t32.5 -26t18 -38.5t5.5 -47q0 -51 -23.5 -86t-80.5 -35h-645q-28 0 -51.5 6t-41 19t-27 34t-9.5 50zM569 678q0 34 12 63.5t33.5 52t50.5 35.5t64 13 q34 0 63.5 -13t51.5 -35.5t34.5 -52t12.5 -63.5q0 -35 -12.5 -65t-34.5 -51.5t-51.5 -33.5t-63.5 -12q-35 0 -64 12t-50.5 33.5t-33.5 51.5t-12 65z" />
<glyph unicode="&#x140;" horiz-adv-x="745" d="M143 90v1174q0 28 10.5 48.5t28 33.5t41 19.5t49.5 6.5q54 0 91.5 -26t37.5 -82v-1174q0 -57 -37.5 -81.5t-91.5 -24.5q-26 0 -49.5 6t-41 18.5t-28 32.5t-10.5 49zM463 682q0 34 12 63.5t33 52t50.5 35.5t64.5 13q34 0 63 -13t51 -35.5t34.5 -52t12.5 -63.5 q0 -35 -12.5 -65t-34.5 -51.5t-51 -33.5t-63 -12q-35 0 -64.5 12t-50.5 33.5t-33 51.5t-12 65z" />
<glyph unicode="&#x141;" horiz-adv-x="1063" d="M19 543q8 35 55 57l90 41v596q0 28 10.5 49t29 35t43 20.5t52.5 6.5q27 0 51 -6.5t41.5 -20.5t28 -35t10.5 -49v-471l72 35q46 21 79.5 5.5t55.5 -58.5q20 -44 10.5 -81t-55.5 -59l-162 -76v-290h508q28 0 48 -9.5t32.5 -26t18 -38.5t5.5 -47q0 -51 -23.5 -86t-80.5 -35 h-645q-28 0 -51.5 6t-41 19t-27 34t-9.5 50v301q-47 -22 -80 -5t-53 60t-12 78z" />
<glyph unicode="&#x142;" horiz-adv-x="545" d="M-42.5 748q8.5 35 54.5 57l131 61v398q0 28 10.5 48.5t28 33.5t41 19.5t49.5 6.5q54 0 91.5 -26t37.5 -82v-277l39 19q47 21 80.5 5.5t54.5 -59.5q20 -43 11 -80t-56 -59l-129 -59v-664q0 -57 -37.5 -81.5t-91.5 -24.5q-26 0 -49.5 6t-41 18.5t-28 32.5t-10.5 49v543 l-41 -19q-46 -21 -79.5 -4.5t-53.5 60.5q-20 43 -11.5 78z" />
<glyph unicode="&#x143;" horiz-adv-x="1423" d="M164 94v1041q0 58 17.5 99t44.5 67.5t60.5 38.5t65.5 12q45 0 77 -10.5t56 -28.5t41.5 -41.5t32.5 -50.5l445 -842h8v858q0 57 36 84t89 27q55 0 89 -27t34 -84v-1040q0 -59 -17.5 -100t-45.5 -67t-61.5 -38t-64.5 -12q-45 0 -77 10.5t-55.5 28.5t-40.5 42t-32 50 l-448 843h-4v-860q0 -29 -10 -49.5t-27.5 -34t-40.5 -20t-49 -6.5q-57 0 -90 26.5t-33 83.5zM539 1485q0 14 6 29.5t20 29.5l137 139q19 20 38.5 28.5t39.5 8.5q21 0 40 -8t33.5 -21.5t23 -31.5t8.5 -37q0 -38 -41 -72l-160 -118q-15 -11 -30.5 -16t-30.5 -5q-36 0 -60 21.5 t-24 52.5z" />
<glyph unicode="&#x144;" horiz-adv-x="1145" d="M143 90v502q0 143 21 228.5t70.5 130.5t131.5 59t205 14q122 0 204.5 -14t132.5 -59t71.5 -130.5t21.5 -228.5v-502q0 -29 -10 -49t-27.5 -32.5t-40.5 -18.5t-49 -6t-48.5 6t-39.5 18.5t-26.5 32.5t-9.5 49v490q0 70 -5.5 112.5t-24 65.5t-54 31t-95.5 8t-94.5 -8 t-52 -31t-22.5 -65.5t-5 -112.5v-490q0 -29 -10 -49t-27.5 -32.5t-40.5 -18.5t-49 -6q-27 0 -50 6t-40 18.5t-27 32.5t-10 49zM399 1157q0 31 27 60l137 139q36 37 78 37q21 0 39.5 -8t33 -22t23 -32t8.5 -37q0 -18 -9.5 -36t-30.5 -35l-160 -119q-32 -21 -62 -21 q-35 0 -59.5 21.5t-24.5 52.5z" />
<glyph unicode="&#x145;" horiz-adv-x="1423" d="M164 94v1041q0 58 17.5 99t44.5 67.5t60.5 38.5t65.5 12q45 0 77 -10.5t56 -28.5t41.5 -41.5t32.5 -50.5l445 -842h8v858q0 57 36 84t89 27q55 0 89 -27t34 -84v-1040q0 -59 -17.5 -100t-45.5 -67t-61.5 -38t-64.5 -12q-45 0 -77 10.5t-55.5 28.5t-40.5 42t-32 50 l-448 843h-4v-860q0 -29 -10 -49.5t-27.5 -34t-40.5 -20t-49 -6.5q-57 0 -90 26.5t-33 83.5zM575 -360q0 6 0.5 12t2.5 12l24 127q6 34 19 58t30.5 39.5t38 22.5t41.5 7q22 0 43.5 -8t37.5 -23t26 -36.5t10 -47.5q0 -38 -23 -82l-59 -114q-17 -32 -42.5 -48t-53.5 -16 q-18 0 -35.5 6.5t-30.5 19.5t-21 30.5t-8 40.5z" />
<glyph unicode="&#x146;" horiz-adv-x="1145" d="M143 90v502q0 143 21 228.5t70.5 130.5t131.5 59t205 14q122 0 204.5 -14t132.5 -59t71.5 -130.5t21.5 -228.5v-502q0 -29 -10 -49t-27.5 -32.5t-40.5 -18.5t-49 -6t-48.5 6t-39.5 18.5t-26.5 32.5t-9.5 49v490q0 70 -5.5 112.5t-24 65.5t-54 31t-95.5 8t-94.5 -8 t-52 -31t-22.5 -65.5t-5 -112.5v-490q0 -29 -10 -49t-27.5 -32.5t-40.5 -18.5t-49 -6q-27 0 -50 6t-40 18.5t-27 32.5t-10 49zM436 -348q0 6 2 12l25 127q6 34 19 58t30.5 39.5t38 22.5t41.5 7q22 0 43 -8t37.5 -23t26.5 -36.5t10 -47.5q0 -18 -6 -39t-17 -43l-59 -114 q-17 -32 -43 -48t-54 -16q-37 0 -65.5 26t-28.5 71v12z" />
<glyph unicode="&#x147;" horiz-adv-x="1423" d="M164 94v1041q0 58 17.5 99t44.5 67.5t60.5 38.5t65.5 12q45 0 77 -10.5t56 -28.5t41.5 -41.5t32.5 -50.5l445 -842h8v858q0 57 36 84t89 27q55 0 89 -27t34 -84v-1040q0 -59 -17.5 -100t-45.5 -67t-61.5 -38t-64.5 -12q-45 0 -77 10.5t-55.5 28.5t-40.5 42t-32 50 l-448 843h-4v-860q0 -29 -10 -49.5t-27.5 -34t-40.5 -20t-49 -6.5q-57 0 -90 26.5t-33 83.5zM432 1651q6 24 24 40.5t46 16.5q15 0 29 -4t26 -10l154 -72l153 72q13 6 26.5 10t29.5 4q27 0 45 -16.5t24 -40.5t-2 -50t-33 -45l-133 -102q-26 -20 -55 -31.5t-55 -11.5 t-55.5 11.5t-55.5 31.5l-133 102q-25 19 -33 45t-2 50z" />
<glyph unicode="&#x148;" horiz-adv-x="1145" d="M143 90v502q0 143 21 228.5t70.5 130.5t131.5 59t205 14q122 0 204.5 -14t132.5 -59t71.5 -130.5t21.5 -228.5v-502q0 -29 -10 -49t-27.5 -32.5t-40.5 -18.5t-49 -6t-48.5 6t-39.5 18.5t-26.5 32.5t-9.5 49v490q0 70 -5.5 112.5t-24 65.5t-54 31t-95.5 8t-94.5 -8 t-52 -31t-22.5 -65.5t-5 -112.5v-490q0 -29 -10 -49t-27.5 -32.5t-40.5 -18.5t-49 -6q-27 0 -50 6t-40 18.5t-27 32.5t-10 49zM293 1323q6 24 24 40.5t45 16.5q16 0 29.5 -4t26.5 -10l153 -72l154 72q12 6 26 10t29 4q28 0 46 -16.5t24 -40.5t-2 -50t-33 -44l-133 -103 q-26 -20 -55.5 -31.5t-55.5 -11.5t-55 11.5t-55 31.5l-133 103q-25 18 -33 44t-2 50z" />
<glyph unicode="&#x149;" horiz-adv-x="1145" d="M143 90v502q0 143 21 228.5t70.5 130.5t131.5 59t205 14q122 0 204.5 -14t132.5 -59t71.5 -130.5t21.5 -228.5v-502q0 -29 -10 -49t-27.5 -32.5t-40.5 -18.5t-49 -6t-48.5 6t-39.5 18.5t-26.5 32.5t-9.5 49v490q0 70 -5.5 112.5t-24 65.5t-54 31t-95.5 8t-94.5 -8 t-52 -31t-22.5 -65.5t-5 -112.5v-490q0 -29 -10 -49t-27.5 -32.5t-40.5 -18.5t-49 -6q-27 0 -50 6t-40 18.5t-27 32.5t-10 49zM221 1204v12.5t2 12.5l25 127q6 34 19 58t30.5 39.5t38 22.5t41.5 7q22 0 43 -8t37.5 -23t26.5 -36.5t10 -47.5q0 -19 -6 -39.5t-17 -42.5 l-59 -115q-17 -32 -43 -47.5t-54 -15.5q-37 0 -65.5 25.5t-28.5 70.5z" />
<glyph unicode="&#x14a;" horiz-adv-x="1423" d="M164 94v1041q0 58 17.5 99t44.5 67.5t60.5 38.5t65.5 12q45 0 77 -10.5t56 -28.5t41.5 -41.5t32.5 -50.5l445 -842h8v858q0 57 36 84t89 27q55 0 89 -27t34 -84v-1296q0 -71 -12 -133t-45 -108t-90.5 -72.5t-147.5 -26.5q-38 0 -67.5 5.5t-49.5 19.5t-30.5 38t-10.5 60 q0 24 5.5 45.5t17.5 37.5t31 25.5t46 9.5q25 0 45.5 5t35 17.5t22.5 33.5t8 53v35q-31 5 -54 17t-40.5 28.5t-31.5 36.5t-26 43l-448 843h-4v-860q0 -29 -10 -49.5t-27.5 -34t-40.5 -20t-49 -6.5q-57 0 -90 26.5t-33 83.5z" />
<glyph unicode="&#x14b;" horiz-adv-x="1145" d="M143 90v502q0 143 21 228.5t70.5 130.5t131.5 59t205 14q122 0 204.5 -14t132.5 -59t71.5 -130.5t21.5 -228.5v-651q0 -71 -11 -133t-42 -108t-87 -72.5t-146 -26.5q-38 0 -67.5 5.5t-49.5 19.5t-30.5 38t-10.5 60q0 24 5.5 45.5t17.5 37.5t31 25.5t46 9.5h15 q19 0 33.5 5t24.5 17.5t15 33.5t5 53v629q0 70 -5.5 112.5t-24 65.5t-54 31t-95.5 8t-94.5 -8t-52 -31t-22.5 -65.5t-5 -112.5v-490q0 -29 -10 -49t-27.5 -32.5t-40.5 -18.5t-49 -6q-27 0 -50 6t-40 18.5t-27 32.5t-10 49z" />
<glyph unicode="&#x14c;" horiz-adv-x="1409" d="M131 653q0 143 13 251t41 185.5t73 128.5t109 80.5t147.5 41.5t190.5 12q106 0 190 -12t147.5 -42t108.5 -80.5t73 -128t41 -185.5t13 -251q0 -144 -13 -250t-41 -181t-73 -122t-108.5 -73.5t-147.5 -36.5t-190 -10t-190 10t-148 36.5t-109 73.5t-73 122t-41 181t-13 250 zM397 657q0 -104 7 -176.5t22.5 -121t39.5 -76t58.5 -41.5t79 -17.5t101.5 -3.5q56 0 100.5 3.5t79 17.5t58.5 41.5t39.5 76t22.5 121t7 176.5q0 106 -7 181.5t-22.5 126t-39.5 80t-58.5 44.5t-79 19t-100.5 4q-57 0 -101.5 -4t-79 -19t-58.5 -44.5t-39.5 -80t-22.5 -126 t-7 -181.5zM422 1565q0 48 22.5 76t73.5 28h369q51 0 74.5 -28t23.5 -76t-23.5 -77.5t-74.5 -29.5h-369q-51 0 -73.5 29.5t-22.5 77.5z" />
<glyph unicode="&#x14d;" horiz-adv-x="1116" d="M102 492q0 162 25 265.5t79.5 162.5t141 81.5t209.5 22.5q121 0 208 -22.5t142 -81.5t81 -162.5t26 -265.5q0 -163 -26 -263.5t-81 -155.5t-142 -74t-208 -19q-123 0 -209.5 19t-141 74t-79.5 155.5t-25 263.5zM276 1237q0 48 23 76t74 28h368q51 0 75 -28t24 -76 t-24 -77.5t-75 -29.5h-368q-51 0 -74 29.5t-23 77.5zM356 496q0 -100 11 -157.5t35 -87t62.5 -37t92.5 -7.5q53 0 91.5 7.5t63 37t36.5 87t12 157.5q0 103 -12 162.5t-36.5 90.5t-63 39.5t-91.5 8.5q-54 0 -92.5 -8.5t-62.5 -39.5t-35 -90.5t-11 -162.5z" />
<glyph unicode="&#x14e;" horiz-adv-x="1409" d="M131 653q0 143 13 251t41 185.5t73 128.5t109 80.5t147.5 41.5t190.5 12q106 0 190 -12t147.5 -42t108.5 -80.5t73 -128t41 -185.5t13 -251q0 -144 -13 -250t-41 -181t-73 -122t-108.5 -73.5t-147.5 -36.5t-190 -10t-190 10t-148 36.5t-109 73.5t-73 122t-41 181t-13 250 zM397 657q0 -104 7 -176.5t22.5 -121t39.5 -76t58.5 -41.5t79 -17.5t101.5 -3.5q56 0 100.5 3.5t79 17.5t58.5 41.5t39.5 76t22.5 121t7 176.5q0 106 -7 181.5t-22.5 126t-39.5 80t-58.5 44.5t-79 19t-100.5 4q-57 0 -101.5 -4t-79 -19t-58.5 -44.5t-39.5 -80t-22.5 -126 t-7 -181.5zM420 1624q0 31 21 53.5t55 22.5q32 0 52.5 -12.5t37.5 -38.5q21 -34 46.5 -51t72.5 -17q46 0 71.5 17t46.5 51q17 26 37.5 38.5t52.5 12.5q34 0 55 -22.5t21 -53.5q0 -55 -24 -95t-63.5 -66.5t-91 -39t-105.5 -12.5q-55 0 -106.5 12.5t-91 39t-63.5 66.5t-24 95z " />
<glyph unicode="&#x14f;" horiz-adv-x="1116" d="M102 492q0 162 25 265.5t79.5 162.5t141 81.5t209.5 22.5q121 0 208 -22.5t142 -81.5t81 -162.5t26 -265.5q0 -163 -26 -263.5t-81 -155.5t-142 -74t-208 -19q-123 0 -209.5 19t-141 74t-79.5 155.5t-25 263.5zM272 1296q0 31 21 53.5t55 22.5q32 0 52.5 -12.5 t37.5 -38.5q22 -34 47.5 -51t71.5 -17t71.5 17t47.5 51q17 26 37.5 38.5t52.5 12.5q34 0 55 -22.5t21 -53.5q0 -55 -24 -95t-64 -66.5t-91.5 -39t-105.5 -12.5t-105.5 12.5t-91.5 39t-64 66.5t-24 95zM356 496q0 -100 11 -157.5t35 -87t62.5 -37t92.5 -7.5q53 0 91.5 7.5 t63 37t36.5 87t12 157.5q0 103 -12 162.5t-36.5 90.5t-63 39.5t-91.5 8.5q-54 0 -92.5 -8.5t-62.5 -39.5t-35 -90.5t-11 -162.5z" />
<glyph unicode="&#x150;" horiz-adv-x="1409" d="M131 653q0 143 13 251t41 185.5t73 128.5t109 80.5t147.5 41.5t190.5 12q106 0 190 -12t147.5 -42t108.5 -80.5t73 -128t41 -185.5t13 -251q0 -144 -13 -250t-41 -181t-73 -122t-108.5 -73.5t-147.5 -36.5t-190 -10t-190 10t-148 36.5t-109 73.5t-73 122t-41 181t-13 250 zM389 1489q0 12 4 26.5t15 28.5l90 131q17 25 39 35t45 10q21 0 40.5 -7t34.5 -19.5t24 -29t9 -34.5q0 -15 -6.5 -31.5t-21.5 -31.5l-136 -135q-14 -14 -28 -19.5t-29 -5.5t-29.5 6t-26 17t-18 26t-6.5 33zM397 657q0 -104 7 -176.5t22.5 -121t39.5 -76t58.5 -41.5t79 -17.5 t101.5 -3.5q56 0 100.5 3.5t79 17.5t58.5 41.5t39.5 76t22.5 121t7 176.5q0 106 -7 181.5t-22.5 126t-39.5 80t-58.5 44.5t-79 19t-100.5 4q-57 0 -101.5 -4t-79 -19t-58.5 -44.5t-39.5 -80t-22.5 -126t-7 -181.5zM717 1489q0 12 3.5 26.5t14.5 28.5l90 131q17 25 39 35 t45 10q21 0 40.5 -7t35 -19.5t24.5 -29t9 -34.5q0 -15 -6.5 -31.5t-22.5 -31.5l-135 -135q-14 -14 -28 -19.5t-29 -5.5t-29.5 6t-26 17t-18 26t-6.5 33z" />
<glyph unicode="&#x151;" horiz-adv-x="1116" d="M102 492q0 162 25 265.5t79.5 162.5t141 81.5t209.5 22.5q121 0 208 -22.5t142 -81.5t81 -162.5t26 -265.5q0 -163 -26 -263.5t-81 -155.5t-142 -74t-208 -19q-123 0 -209.5 19t-141 74t-79.5 155.5t-25 263.5zM244 1161q0 13 3.5 27.5t14.5 28.5l90 131q17 24 39 34.5 t45 10.5q21 0 40.5 -7t35 -19.5t24.5 -29t9 -34.5q0 -16 -6.5 -32t-22.5 -32l-135 -135q-14 -14 -28 -19.5t-29 -5.5t-29.5 6t-26 17t-18 26t-6.5 33zM356 496q0 -100 11 -157.5t35 -87t62.5 -37t92.5 -7.5q53 0 91.5 7.5t63 37t36.5 87t12 157.5q0 103 -12 162.5 t-36.5 90.5t-63 39.5t-91.5 8.5q-54 0 -92.5 -8.5t-62.5 -39.5t-35 -90.5t-11 -162.5zM571 1161q0 13 4 27.5t15 28.5l90 131q17 24 39 34.5t45 10.5q21 0 40.5 -7t34.5 -19.5t24 -29t9 -34.5q0 -16 -6.5 -32t-21.5 -32l-135 -135q-14 -14 -28 -19.5t-30 -5.5q-15 0 -29.5 6 t-26 17t-18 26t-6.5 33z" />
<glyph unicode="&#x152;" horiz-adv-x="1872" d="M131 649q0 144 15.5 250.5t48 182.5t82.5 124t117.5 76t154 38.5t192.5 10.5h967q57 0 80.5 -35t23.5 -86q0 -25 -5.5 -46.5t-18 -37.5t-32.5 -25t-48 -9h-522v-295h375q28 0 48 -9t32.5 -25t18 -38t5.5 -47q0 -51 -24 -85t-80 -34h-375v-317h543q55 0 78.5 -34.5 t23.5 -84.5q0 -26 -5.5 -48t-18 -39t-32 -26.5t-46.5 -9.5h-988q-95 0 -177.5 8t-150 32.5t-120 68.5t-89 116t-55 176t-18.5 248zM397 662q0 -138 23 -220.5t67.5 -127t111 -58.5t153.5 -14h168v850h-168q-89 0 -156 -15t-111 -61t-66 -130.5t-22 -223.5z" />
<glyph unicode="&#x153;" horiz-adv-x="1716" d="M102 492q0 162 25 265.5t79.5 162.5t141 81.5t209.5 22.5q108 0 184 -17.5t127 -62.5q50 45 129 62.5t195 17.5q110 0 187 -18t125.5 -62.5t70.5 -118.5t22 -186v-117q0 -66 -25.5 -92.5t-82.5 -26.5h-481v-51q0 -80 46 -113.5t136 -33.5q31 0 68.5 3t76 6t75 6t65.5 3 q55 0 80.5 -21t25.5 -79q0 -47 -17.5 -73t-68.5 -40q-31 -9 -107 -19.5t-188 -10.5q-118 0 -197.5 16.5t-130.5 56.5q-51 -43 -127 -58t-188 -15q-123 0 -209.5 19t-141 74t-79.5 155.5t-25 263.5zM356 496q0 -100 11 -157.5t35 -87t62.5 -37t92.5 -7.5q53 0 91.5 7.5t63 37 t36.5 87t12 157.5q0 103 -12 162.5t-36.5 90.5t-63 39.5t-91.5 8.5q-54 0 -92.5 -8.5t-62.5 -39.5t-35 -90.5t-11 -162.5zM1008 612h340v39q0 45 -7.5 74.5t-27 47t-52 24t-83.5 6.5q-47 0 -79.5 -6t-52.5 -23t-29 -46.5t-9 -76.5v-39z" />
<glyph unicode="&#x154;" horiz-adv-x="1260" d="M162 92v1129q0 55 33.5 82.5t89.5 27.5h448q119 0 202.5 -19t136 -65.5t76 -125t23.5 -197.5q0 -85 -13 -149.5t-47 -111.5t-94.5 -78.5t-154.5 -49.5v-7l314 -311q36 -35 45.5 -72.5t-0.5 -69.5t-35 -55.5t-58 -31t-70.5 3.5t-72.5 49l-405 432q-44 47 -56.5 93.5 t-1 83.5t43.5 60t77 23h90q48 0 80.5 10.5t53 33.5t29.5 59t9 86t-9 82.5t-29.5 52t-54 27.5t-81.5 8h-303v-1000q0 -29 -10.5 -49.5t-29 -33.5t-42.5 -19t-51 -6t-51 6t-42.5 19t-29 33.5t-10.5 49.5zM457 1485q0 14 6 29.5t20 29.5l138 139q18 20 37.5 28.5t39.5 8.5 q21 0 40 -8t33.5 -21.5t23 -31.5t8.5 -37t-9.5 -37t-31.5 -35l-160 -118q-15 -11 -30.5 -16t-30.5 -5q-35 0 -59.5 21.5t-24.5 52.5z" />
<glyph unicode="&#x155;" horiz-adv-x="764" d="M143 90v563q0 118 19 190.5t64 112.5t118.5 54t183.5 14q68 0 111.5 -9t69 -25.5t35.5 -40t10 -52.5q0 -53 -28.5 -85t-82.5 -32q-31 0 -56.5 4t-62.5 4q-41 0 -65.5 -5t-38.5 -21t-18.5 -47t-4.5 -82v-543q0 -29 -9.5 -49t-26.5 -32.5t-40 -18.5t-49 -6q-27 0 -50.5 6 t-41 18.5t-27.5 32.5t-10 49zM209 1157q0 14 6.5 30t20.5 30l137 139q18 20 38 28.5t40 8.5q21 0 39.5 -8t33 -22t23 -32t8.5 -37q0 -18 -9.5 -36t-31.5 -35l-160 -119q-30 -21 -61 -21q-35 0 -59.5 21.5t-24.5 52.5z" />
<glyph unicode="&#x156;" horiz-adv-x="1260" d="M162 92v1129q0 55 33.5 82.5t89.5 27.5h448q119 0 202.5 -19t136 -65.5t76 -125t23.5 -197.5q0 -85 -13 -149.5t-47 -111.5t-94.5 -78.5t-154.5 -49.5v-7l314 -311q36 -35 45.5 -72.5t-0.5 -69.5t-35 -55.5t-58 -31t-70.5 3.5t-72.5 49l-405 432q-44 47 -56.5 93.5 t-1 83.5t43.5 60t77 23h90q48 0 80.5 10.5t53 33.5t29.5 59t9 86t-9 82.5t-29.5 52t-54 27.5t-81.5 8h-303v-1000q0 -29 -10.5 -49.5t-29 -33.5t-42.5 -19t-51 -6t-51 6t-42.5 19t-29 33.5t-10.5 49.5zM494 -348q0 6 2 12l24 127q6 34 19.5 58t31 39.5t37.5 22.5t41 7 q22 0 43.5 -8t37.5 -23t26 -36.5t10 -47.5q0 -38 -23 -82l-59 -114q-17 -32 -42.5 -48t-53.5 -16q-37 0 -65.5 26t-28.5 71v12z" />
<glyph unicode="&#x157;" horiz-adv-x="764" d="M143 90v563q0 118 19 190.5t64 112.5t118.5 54t183.5 14q68 0 111.5 -9t69 -25.5t35.5 -40t10 -52.5q0 -53 -28.5 -85t-82.5 -32q-31 0 -56.5 4t-62.5 4q-41 0 -65.5 -5t-38.5 -21t-18.5 -47t-4.5 -82v-543q0 -29 -9.5 -49t-26.5 -32.5t-40 -18.5t-49 -6q-27 0 -50.5 6 t-41 18.5t-27.5 32.5t-10 49zM246 -348q0 6 2 12l24 127q6 34 19.5 58t31 39.5t37.5 22.5t41 7q22 0 43.5 -8t37.5 -23t26 -36.5t10 -47.5q0 -36 -22 -82l-60 -114q-17 -32 -42.5 -48t-53.5 -16q-37 0 -65.5 26t-28.5 71v12z" />
<glyph unicode="&#x158;" horiz-adv-x="1260" d="M162 92v1129q0 55 33.5 82.5t89.5 27.5h448q119 0 202.5 -19t136 -65.5t76 -125t23.5 -197.5q0 -85 -13 -149.5t-47 -111.5t-94.5 -78.5t-154.5 -49.5v-7l314 -311q36 -35 45.5 -72.5t-0.5 -69.5t-35 -55.5t-58 -31t-70.5 3.5t-72.5 49l-405 432q-44 47 -56.5 93.5 t-1 83.5t43.5 60t77 23h90q48 0 80.5 10.5t53 33.5t29.5 59t9 86t-9 82.5t-29.5 52t-54 27.5t-81.5 8h-303v-1000q0 -29 -10.5 -49.5t-29 -33.5t-42.5 -19t-51 -6t-51 6t-42.5 19t-29 33.5t-10.5 49.5zM350 1651q6 24 24 40.5t46 16.5q15 0 29 -4t26 -10l154 -72l153 72 q13 6 26.5 10t29.5 4q27 0 45 -16.5t24 -40.5t-2 -50t-33 -45l-133 -102q-26 -20 -55 -31.5t-55 -11.5t-55.5 11.5t-55.5 31.5l-133 102q-25 19 -33 45t-2 50z" />
<glyph unicode="&#x159;" horiz-adv-x="764" d="M102.5 1323q5.5 24 23.5 40.5t46 16.5q16 0 29.5 -4t25.5 -10l154 -72l154 72q12 6 25.5 10t29.5 4q28 0 46 -16.5t23.5 -40.5t-2.5 -50t-32 -44l-133 -103q-26 -20 -55.5 -31.5t-55.5 -11.5t-55.5 11.5t-55.5 31.5l-133 103q-24 18 -32 44t-2.5 50zM143 90v563 q0 118 19 190.5t64 112.5t118.5 54t183.5 14q68 0 111.5 -9t69 -25.5t35.5 -40t10 -52.5q0 -53 -28.5 -85t-82.5 -32q-31 0 -56.5 4t-62.5 4q-41 0 -65.5 -5t-38.5 -21t-18.5 -47t-4.5 -82v-543q0 -29 -9.5 -49t-26.5 -32.5t-40 -18.5t-49 -6q-27 0 -50.5 6t-41 18.5 t-27.5 32.5t-10 49z" />
<glyph unicode="&#x15a;" horiz-adv-x="1178" d="M106 145q0 51 27.5 87t77.5 36q38 0 80 -6.5t85 -14t86 -14t85 -6.5q130 0 196 38t66 132q0 48 -20.5 76t-55 43.5t-80 22.5t-94.5 12q-52 5 -104.5 12.5t-102 23t-92.5 41.5t-74.5 69.5t-50 106.5t-18.5 152q0 102 30 176.5t93 123t161.5 72.5t235.5 24q89 0 160.5 -6.5 t122 -23.5t77.5 -46t27 -74q0 -56 -32.5 -87.5t-82.5 -31.5q-34 0 -67.5 5t-67.5 10q-37 6 -77 10t-81 4q-123 0 -179 -40.5t-56 -113.5q0 -51 21.5 -80t57 -45t82 -22.5t97.5 -11.5q52 -6 104 -13.5t100 -22t89.5 -39.5t72.5 -65.5t48.5 -100t17.5 -142.5 q0 -108 -28.5 -189.5t-91 -136t-162 -82.5t-242.5 -28q-90 0 -170 6.5t-140.5 24.5t-95.5 50.5t-35 83.5zM416 1485q0 14 6 29.5t20 29.5l138 139q18 20 37.5 28.5t39.5 8.5q21 0 40 -8t33.5 -21.5t23 -31.5t8.5 -37t-9.5 -37t-31.5 -35l-160 -118q-15 -11 -30.5 -16 t-30.5 -5q-35 0 -59.5 21.5t-24.5 52.5z" />
<glyph unicode="&#x15b;" horiz-adv-x="911" d="M70 709q0 65 26 122.5t78 100t130.5 67.5t184.5 25q96 0 157.5 -10t97.5 -29t49.5 -45.5t13.5 -60.5q0 -50 -24 -75.5t-87 -25.5q-23 0 -45 3.5t-48.5 8t-59.5 8t-78 3.5q-71 0 -106 -18.5t-35 -49.5q0 -25 22.5 -41.5t59.5 -31t84 -28t96 -31t96 -42t84 -60t59.5 -85 t22.5 -117.5q0 -85 -29.5 -145t-83.5 -98.5t-130 -56t-169 -17.5q-116 0 -186.5 9.5t-109 27.5t-51.5 43t-13 57q0 54 24.5 82t87.5 28q24 0 48 -4t52 -8.5t62 -8t78 -3.5q76 0 121 17.5t45 64.5q0 23 -22.5 39t-59.5 29.5t-84 27t-96 31t-96 41.5t-84 59t-59.5 83 t-22.5 114zM283 1157q0 14 6 30t20 30l137 139q19 20 38.5 28.5t39.5 8.5q21 0 40 -8t33.5 -22t23 -32t8.5 -37q0 -18 -10 -36t-31 -35l-160 -119q-30 -21 -61 -21q-36 0 -60 21.5t-24 52.5z" />
<glyph unicode="&#x15c;" horiz-adv-x="1178" d="M106 145q0 51 27.5 87t77.5 36q38 0 80 -6.5t85 -14t86 -14t85 -6.5q130 0 196 38t66 132q0 48 -20.5 76t-55 43.5t-80 22.5t-94.5 12q-52 5 -104.5 12.5t-102 23t-92.5 41.5t-74.5 69.5t-50 106.5t-18.5 152q0 102 30 176.5t93 123t161.5 72.5t235.5 24q89 0 160.5 -6.5 t122 -23.5t77.5 -46t27 -74q0 -56 -32.5 -87.5t-82.5 -31.5q-34 0 -67.5 5t-67.5 10q-37 6 -77 10t-81 4q-123 0 -179 -40.5t-56 -113.5q0 -51 21.5 -80t57 -45t82 -22.5t97.5 -11.5q52 -6 104 -13.5t100 -22t89.5 -39.5t72.5 -65.5t48.5 -100t17.5 -142.5 q0 -108 -28.5 -189.5t-91 -136t-162 -82.5t-242.5 -28q-90 0 -170 6.5t-140.5 24.5t-95.5 50.5t-35 83.5zM309.5 1468q-5.5 24 2.5 50t32 45l133 102q26 20 55.5 31.5t55.5 11.5t55 -11.5t55 -31.5l133 -102q25 -19 33 -45t2 -50t-24 -40.5t-45 -16.5q-16 0 -29.5 4 t-26.5 10l-153 72l-154 -72q-12 -6 -26 -10t-29 -4q-28 0 -46 16.5t-23.5 40.5z" />
<glyph unicode="&#x15d;" horiz-adv-x="911" d="M70 709q0 65 26 122.5t78 100t130.5 67.5t184.5 25q96 0 157.5 -10t97.5 -29t49.5 -45.5t13.5 -60.5q0 -50 -24 -75.5t-87 -25.5q-23 0 -45 3.5t-48.5 8t-59.5 8t-78 3.5q-71 0 -106 -18.5t-35 -49.5q0 -25 22.5 -41.5t59.5 -31t84 -28t96 -31t96 -42t84 -60t59.5 -85 t22.5 -117.5q0 -85 -29.5 -145t-83.5 -98.5t-130 -56t-169 -17.5q-116 0 -186.5 9.5t-109 27.5t-51.5 43t-13 57q0 54 24.5 82t87.5 28q24 0 48 -4t52 -8.5t62 -8t78 -3.5q76 0 121 17.5t45 64.5q0 23 -22.5 39t-59.5 29.5t-84 27t-96 31t-96 41.5t-84 59t-59.5 83 t-22.5 114zM176 1141q-6 24 2 50t33 44l133 102q26 20 55.5 31.5t55.5 11.5t55 -11.5t55 -31.5l133 -102q25 -18 33 -44t2 -50t-24 -41t-45 -17q-16 0 -29.5 4.5t-26.5 10.5l-153 71l-154 -71q-12 -6 -26 -10.5t-29 -4.5q-28 0 -46 17t-24 41z" />
<glyph unicode="&#x15e;" horiz-adv-x="1178" d="M106 145q0 51 27.5 87t77.5 36q38 0 80 -6.5t85 -14t86 -14t85 -6.5q130 0 196 38t66 132q0 48 -20.5 76t-55 43.5t-80 22.5t-94.5 12q-52 5 -104.5 12.5t-102 23t-92.5 41.5t-74.5 69.5t-50 106.5t-18.5 152q0 102 30 176.5t93 123t161.5 72.5t235.5 24q89 0 160.5 -6.5 t122 -23.5t77.5 -46t27 -74q0 -56 -32.5 -87.5t-82.5 -31.5q-34 0 -67.5 5t-67.5 10q-37 6 -77 10t-81 4q-123 0 -179 -40.5t-56 -113.5q0 -51 21.5 -80t57 -45t82 -22.5t97.5 -11.5q52 -6 104 -13.5t100 -22t89.5 -39.5t72.5 -65.5t48.5 -100t17.5 -142.5q0 -92 -20.5 -165 t-65 -126.5t-115.5 -87t-172 -47.5l-43 -51q34 -5 62.5 -15.5t49.5 -29t32.5 -46t11.5 -67.5q0 -56 -21.5 -91.5t-57 -55t-80 -26.5t-89.5 -7q-32 0 -70 6t-69 14q-28 8 -42.5 27.5t-14.5 42.5q0 31 21.5 52t53.5 21q12 0 26 -4t29 -8.5t30.5 -8t31.5 -3.5q37 0 60.5 7 t23.5 30q0 17 -15.5 23.5t-39 9t-51 3.5t-51 7t-39 19.5t-15.5 41.5q0 31 31 62l35 37q-81 1 -152.5 9t-125 26.5t-84 50t-30.5 79.5z" />
<glyph unicode="&#x15f;" horiz-adv-x="911" d="M70 709q0 65 26 122.5t78 100t130.5 67.5t184.5 25q96 0 157.5 -10t97.5 -29t49.5 -45.5t13.5 -60.5q0 -50 -24 -75.5t-87 -25.5q-23 0 -45 3.5t-48.5 8t-59.5 8t-78 3.5q-71 0 -106 -18.5t-35 -49.5q0 -25 22.5 -41.5t59.5 -31t84 -28t96 -31t96 -42t84 -60t59.5 -85 t22.5 -117.5q0 -69 -20 -122t-56.5 -91t-89 -61t-117.5 -33l-43 -51q34 -5 62.5 -15.5t49.5 -29t32.5 -46t11.5 -67.5q0 -56 -21.5 -91.5t-57 -55t-80 -26.5t-89.5 -7q-32 0 -70 6t-69 14q-28 8 -43 27.5t-15 42.5q0 31 22 52t54 21q12 0 26 -4t29 -8.5t30.5 -8t31.5 -3.5 q37 0 60.5 7t23.5 30q0 17 -15.5 23.5t-39 9t-51 3.5t-51 7t-39 19.5t-15.5 41.5q0 31 31 62l37 39q-93 3 -150 13.5t-88.5 27.5t-42 41t-10.5 53q0 54 24.5 82t87.5 28q24 0 48 -4t52 -8.5t62 -8t78 -3.5q76 0 121 17.5t45 64.5q0 23 -22.5 39t-59.5 29.5t-84 27t-96 31 t-96 41.5t-84 59t-59.5 83t-22.5 114z" />
<glyph unicode="&#x160;" horiz-adv-x="1178" d="M106 145q0 51 27.5 87t77.5 36q38 0 80 -6.5t85 -14t86 -14t85 -6.5q130 0 196 38t66 132q0 48 -20.5 76t-55 43.5t-80 22.5t-94.5 12q-52 5 -104.5 12.5t-102 23t-92.5 41.5t-74.5 69.5t-50 106.5t-18.5 152q0 102 30 176.5t93 123t161.5 72.5t235.5 24q89 0 160.5 -6.5 t122 -23.5t77.5 -46t27 -74q0 -56 -32.5 -87.5t-82.5 -31.5q-34 0 -67.5 5t-67.5 10q-37 6 -77 10t-81 4q-123 0 -179 -40.5t-56 -113.5q0 -51 21.5 -80t57 -45t82 -22.5t97.5 -11.5q52 -6 104 -13.5t100 -22t89.5 -39.5t72.5 -65.5t48.5 -100t17.5 -142.5 q0 -108 -28.5 -189.5t-91 -136t-162 -82.5t-242.5 -28q-90 0 -170 6.5t-140.5 24.5t-95.5 50.5t-35 83.5zM309.5 1651q5.5 24 23.5 40.5t46 16.5q15 0 29 -4t26 -10l154 -72l153 72q13 6 26.5 10t29.5 4q27 0 45 -16.5t24 -40.5t-2 -50t-33 -45l-133 -102q-26 -20 -55 -31.5 t-55 -11.5t-55.5 11.5t-55.5 31.5l-133 102q-24 19 -32 45t-2.5 50z" />
<glyph unicode="&#x161;" horiz-adv-x="911" d="M70 709q0 65 26 122.5t78 100t130.5 67.5t184.5 25q96 0 157.5 -10t97.5 -29t49.5 -45.5t13.5 -60.5q0 -50 -24 -75.5t-87 -25.5q-23 0 -45 3.5t-48.5 8t-59.5 8t-78 3.5q-71 0 -106 -18.5t-35 -49.5q0 -25 22.5 -41.5t59.5 -31t84 -28t96 -31t96 -42t84 -60t59.5 -85 t22.5 -117.5q0 -85 -29.5 -145t-83.5 -98.5t-130 -56t-169 -17.5q-116 0 -186.5 9.5t-109 27.5t-51.5 43t-13 57q0 54 24.5 82t87.5 28q24 0 48 -4t52 -8.5t62 -8t78 -3.5q76 0 121 17.5t45 64.5q0 23 -22.5 39t-59.5 29.5t-84 27t-96 31t-96 41.5t-84 59t-59.5 83 t-22.5 114zM176 1323q6 24 24 40.5t46 16.5q15 0 29 -4t26 -10l154 -72l153 72q13 6 26.5 10t29.5 4q27 0 45 -16.5t24 -40.5t-2 -50t-33 -44l-133 -103q-26 -20 -55 -31.5t-55 -11.5t-55.5 11.5t-55.5 31.5l-133 103q-25 18 -33 44t-2 50z" />
<glyph unicode="&#x162;" horiz-adv-x="1196" d="M41 1210q0 51 23 86t79 35h910q55 0 78.5 -35t23.5 -86q0 -50 -23.5 -84t-78.5 -34h-322v-1000q0 -29 -10.5 -49.5t-29 -33.5t-42.5 -19t-51 -6t-51 6t-42.5 19t-29 33.5t-10.5 49.5v1000h-322q-28 0 -47.5 9t-31.5 25t-17.5 37.5t-5.5 46.5zM461 -348q0 6 2 12l24 127 q6 34 19.5 58t31 39.5t37.5 22.5t41 7q22 0 43.5 -8t37.5 -23t26 -36.5t10 -47.5q0 -36 -22 -82l-60 -114q-17 -32 -42.5 -48t-53.5 -16q-37 0 -65.5 26t-28.5 71v12z" />
<glyph unicode="&#x163;" horiz-adv-x="729" d="M12 887q0 49 22.5 83t76.5 34h71v161q0 28 10 47.5t27.5 32.5t40 19t47.5 6q54 0 91.5 -25t37.5 -80v-161h172q27 0 44.5 -9t28 -25t15 -37.5t4.5 -45.5q0 -51 -19 -84t-73 -33h-172v-502q0 -35 17 -48t45 -13t55 3t59 3q51 0 74 -25.5t23 -74.5q0 -36 -13 -61t-42.5 -41 t-77 -23.5t-117.5 -7.5q-73 0 -125.5 12t-86 43.5t-49.5 86t-16 140.5v508h-71q-54 0 -76.5 33t-22.5 84zM227 -348q0 6 2 12l25 127q6 34 19 58t30.5 39.5t38 22.5t41.5 7q22 0 43 -8t37.5 -23t26.5 -36.5t10 -47.5q0 -38 -23 -82l-59 -114q-17 -32 -43 -48t-53 -16 q-19 0 -36 6.5t-30 19.5t-21 30.5t-8 40.5v12z" />
<glyph unicode="&#x164;" horiz-adv-x="1196" d="M41 1210q0 51 23 86t79 35h910q55 0 78.5 -35t23.5 -86q0 -50 -23.5 -84t-78.5 -34h-322v-1000q0 -29 -10.5 -49.5t-29 -33.5t-42.5 -19t-51 -6t-51 6t-42.5 19t-29 33.5t-10.5 49.5v1000h-322q-28 0 -47.5 9t-31.5 25t-17.5 37.5t-5.5 46.5zM319.5 1651 q5.5 24 23.5 40.5t46 16.5q16 0 29.5 -4t25.5 -10l154 -72l154 72q12 6 25.5 10t29.5 4q28 0 46 -16.5t23.5 -40.5t-2.5 -50t-32 -45l-133 -102q-26 -20 -55.5 -31.5t-55.5 -11.5t-55.5 11.5t-55.5 31.5l-133 102q-24 19 -32 45t-2.5 50z" />
<glyph unicode="&#x165;" horiz-adv-x="729" d="M12 887q0 49 22.5 83t76.5 34h71v161q0 28 10 47.5t27.5 32.5t40 19t47.5 6q54 0 91.5 -25t37.5 -80v-161h172q27 0 44.5 -9t28 -25t15 -37.5t4.5 -45.5q0 -51 -19 -84t-73 -33h-172v-502q0 -35 17 -48t45 -13t55 3t59 3q51 0 74 -25.5t23 -74.5q0 -36 -13 -61t-42.5 -41 t-77 -23.5t-117.5 -7.5q-73 0 -125.5 12t-86 43.5t-49.5 86t-16 140.5v508h-71q-54 0 -76.5 33t-22.5 84zM506 1204v12.5t2 12.5l24 127q13 68 50.5 97.5t79.5 29.5q22 0 43 -8t37 -23t26 -36.5t10 -47.5q0 -36 -22 -82l-60 -115q-17 -32 -42.5 -47.5t-53.5 -15.5 q-37 0 -65.5 25.5t-28.5 70.5z" />
<glyph unicode="&#x166;" horiz-adv-x="1196" d="M41 1210q0 51 23 86t79 35h910q55 0 78.5 -35t23.5 -86q0 -50 -23.5 -84t-78.5 -34h-322v-293h154q51 0 74.5 -33.5t23.5 -81.5q0 -24 -6 -45t-18 -37t-30.5 -25.5t-43.5 -9.5h-154v-475q0 -29 -10.5 -49.5t-29 -33.5t-42.5 -19t-51 -6t-51 6t-42.5 19t-29 33.5 t-10.5 49.5v475h-156q-25 0 -43 9.5t-30 25.5t-17.5 37t-5.5 45q0 48 23 81.5t73 33.5h156v293h-322q-28 0 -47.5 9t-31.5 25t-17.5 37.5t-5.5 46.5z" />
<glyph unicode="&#x167;" horiz-adv-x="729" d="M12 498q0 49 22.5 82.5t76.5 33.5h71v156h-71q-54 0 -76.5 33t-22.5 84q0 49 22.5 83t76.5 34h71v161q0 28 10 47.5t27.5 32.5t40 19t47.5 6q54 0 91.5 -25t37.5 -80v-161h172q27 0 44.5 -9t28 -25t15 -37.5t4.5 -45.5q0 -51 -19 -84t-73 -33h-172v-156h172q27 0 44.5 -9 t28 -24.5t15 -37t4.5 -45.5q0 -51 -19 -84t-73 -33h-172v-113q0 -35 17 -48t45 -13t55 3t59 3q51 0 74 -25.5t23 -74.5q0 -36 -13 -61t-42.5 -41t-77 -23.5t-117.5 -7.5q-73 0 -125.5 12t-86 43.5t-49.5 86t-16 140.5v119h-71q-54 0 -76.5 33t-22.5 84z" />
<glyph unicode="&#x168;" horiz-adv-x="1354" d="M160 440v799q0 29 10.5 50t29 34t42.5 19t51 6t51 -6t42.5 -19t29 -34t10.5 -50v-774q0 -79 12.5 -127.5t41.5 -74.5t76 -35t116 -9q68 0 117 9t80.5 35t46 74.5t14.5 127.5v774q0 29 10.5 50t29 34t42.5 19t51 6t51 -6t41.5 -19t28 -34t10.5 -50v-799q0 -106 -16 -181.5 t-46.5 -127t-75 -81.5t-102.5 -45.5t-129 -20t-153 -4.5q-83 0 -153 4.5t-126.5 20t-100 45.5t-73 81.5t-44.5 126.5t-15 182zM395 1548q0 42 18.5 68t42 40t45.5 18.5t29 4.5q34 0 68 -7.5t63.5 -16t53 -16t37.5 -7.5q13 0 25.5 7.5t26 16t29.5 16t37 7.5q36 0 62 -26.5 t26 -75.5q0 -38 -16.5 -63t-39.5 -41t-48 -22.5t-43 -6.5q-21 0 -50 8t-58.5 17.5t-56 17.5t-44.5 8t-30 -7.5t-23.5 -16t-25.5 -16t-36 -7.5q-38 0 -65 25.5t-27 74.5z" />
<glyph unicode="&#x169;" horiz-adv-x="1137" d="M143 412v501q0 28 10 48.5t27 33.5t40 19t50 6q26 0 49 -6t40.5 -19t27.5 -33.5t10 -48.5v-489q0 -70 4 -112.5t21 -66t51 -31t94 -7.5t94.5 7.5t52.5 31t22.5 66t4.5 112.5v489q0 28 10 48.5t27 33.5t39.5 19t48.5 6t49 -6t40.5 -19t27.5 -33.5t10 -48.5v-501 q0 -143 -20.5 -228.5t-70 -130.5t-131.5 -59t-204 -14q-82 0 -145 5.5t-110 22t-79.5 46t-52.5 77.5t-28.5 117t-8.5 164zM287 1221q0 42 18.5 67.5t42 40t45.5 19t29 4.5q34 0 67.5 -7.5t63 -16t53 -16t37.5 -7.5t26.5 7.5t26 16t29.5 16t37 7.5q35 0 61.5 -26.5 t26.5 -76.5q0 -38 -16.5 -63t-39.5 -41t-48.5 -22.5t-43.5 -6.5q-21 0 -50 8t-58 17.5t-55.5 17.5t-44.5 8t-30 -7.5t-24 -16t-26 -16t-35 -7.5q-38 0 -65 25.5t-27 75.5z" />
<glyph unicode="&#x16a;" horiz-adv-x="1354" d="M160 440v799q0 29 10.5 50t29 34t42.5 19t51 6t51 -6t42.5 -19t29 -34t10.5 -50v-774q0 -79 12.5 -127.5t41.5 -74.5t76 -35t116 -9q68 0 117 9t80.5 35t46 74.5t14.5 127.5v774q0 29 10.5 50t29 34t42.5 19t51 6t51 -6t41.5 -19t28 -34t10.5 -50v-799q0 -106 -16 -181.5 t-46.5 -127t-75 -81.5t-102.5 -45.5t-129 -20t-153 -4.5q-83 0 -153 4.5t-126.5 20t-100 45.5t-73 81.5t-44.5 126.5t-15 182zM395 1565q0 48 23 76t74 28h368q51 0 74.5 -28t23.5 -76t-23.5 -77.5t-74.5 -29.5h-368q-51 0 -74 29.5t-23 77.5z" />
<glyph unicode="&#x16b;" horiz-adv-x="1137" d="M143 412v501q0 28 10 48.5t27 33.5t40 19t50 6q26 0 49 -6t40.5 -19t27.5 -33.5t10 -48.5v-489q0 -70 4 -112.5t21 -66t51 -31t94 -7.5t94.5 7.5t52.5 31t22.5 66t4.5 112.5v489q0 28 10 48.5t27 33.5t39.5 19t48.5 6t49 -6t40.5 -19t27.5 -33.5t10 -48.5v-501 q0 -143 -20.5 -228.5t-70 -130.5t-131.5 -59t-204 -14q-82 0 -145 5.5t-110 22t-79.5 46t-52.5 77.5t-28.5 117t-8.5 164zM287 1237q0 48 22.5 76t73.5 28h369q51 0 74.5 -28t23.5 -76t-23.5 -77.5t-74.5 -29.5h-369q-51 0 -73.5 29.5t-22.5 77.5z" />
<glyph unicode="&#x16c;" horiz-adv-x="1354" d="M160 440v799q0 29 10.5 50t29 34t42.5 19t51 6t51 -6t42.5 -19t29 -34t10.5 -50v-774q0 -79 12.5 -127.5t41.5 -74.5t76 -35t116 -9q68 0 117 9t80.5 35t46 74.5t14.5 127.5v774q0 29 10.5 50t29 34t42.5 19t51 6t51 -6t41.5 -19t28 -34t10.5 -50v-799q0 -106 -16 -181.5 t-46.5 -127t-75 -81.5t-102.5 -45.5t-129 -20t-153 -4.5q-83 0 -153 4.5t-126.5 20t-100 45.5t-73 81.5t-44.5 126.5t-15 182zM391 1624q0 31 21 53.5t55 22.5q32 0 52.5 -12.5t37.5 -38.5q22 -34 47 -51t72 -17q46 0 71.5 17t47.5 51q17 26 37.5 38.5t52.5 12.5 q34 0 55 -22.5t21 -53.5q0 -55 -24 -95t-64 -66.5t-91.5 -39t-105.5 -12.5q-55 0 -106.5 12.5t-91 39t-63.5 66.5t-24 95z" />
<glyph unicode="&#x16d;" horiz-adv-x="1137" d="M143 412v501q0 28 10 48.5t27 33.5t40 19t50 6q26 0 49 -6t40.5 -19t27.5 -33.5t10 -48.5v-489q0 -70 4 -112.5t21 -66t51 -31t94 -7.5t94.5 7.5t52.5 31t22.5 66t4.5 112.5v489q0 28 10 48.5t27 33.5t39.5 19t48.5 6t49 -6t40.5 -19t27.5 -33.5t10 -48.5v-501 q0 -143 -20.5 -228.5t-70 -130.5t-131.5 -59t-204 -14q-82 0 -145 5.5t-110 22t-79.5 46t-52.5 77.5t-28.5 117t-8.5 164zM283 1296q0 31 20.5 53.5t54.5 22.5q32 0 53 -12.5t38 -38.5q21 -34 46.5 -51t71.5 -17q47 0 72 17t47 51q17 26 37.5 38.5t52.5 12.5q34 0 55 -22.5 t21 -53.5q0 -55 -24 -95t-64 -66.5t-91 -39t-106 -12.5q-54 0 -105.5 12.5t-91 39t-63.5 66.5t-24 95z" />
<glyph unicode="&#x16e;" horiz-adv-x="1354" d="M160 440v799q0 29 10.5 50t29 34t42.5 19t51 6t51 -6t42.5 -19t29 -34t10.5 -50v-774q0 -79 12.5 -127.5t41.5 -74.5t76 -35t116 -9q68 0 117 9t80.5 35t46 74.5t14.5 127.5v774q0 29 10.5 50t29 34t42.5 19t51 6t51 -6t41.5 -19t28 -34t10.5 -50v-799q0 -106 -16 -181.5 t-46.5 -127t-75 -81.5t-102.5 -45.5t-129 -20t-153 -4.5q-83 0 -153 4.5t-126.5 20t-100 45.5t-73 81.5t-44.5 126.5t-15 182zM485 1575q0 45 15 80t41.5 59.5t61.5 37.5t75 13q39 0 73.5 -13t60.5 -37.5t41 -59.5t15 -80t-15 -80t-41 -60t-60.5 -38t-73.5 -13q-40 0 -75 13 t-61.5 38t-41.5 60t-15 80zM602 1575q0 -34 19 -58t57 -24t57 24t19 58t-19 58t-57 24t-57 -24t-19 -58z" />
<glyph unicode="&#x16f;" horiz-adv-x="1137" d="M143 412v501q0 28 10 48.5t27 33.5t40 19t50 6q26 0 49 -6t40.5 -19t27.5 -33.5t10 -48.5v-489q0 -70 4 -112.5t21 -66t51 -31t94 -7.5t94.5 7.5t52.5 31t22.5 66t4.5 112.5v489q0 28 10 48.5t27 33.5t39.5 19t48.5 6t49 -6t40.5 -19t27.5 -33.5t10 -48.5v-501 q0 -143 -20.5 -228.5t-70 -130.5t-131.5 -59t-204 -14q-82 0 -145 5.5t-110 22t-79.5 46t-52.5 77.5t-28.5 117t-8.5 164zM377 1247q0 45 15 80t41 60t61 38t75 13q39 0 74 -13t61 -38t41 -60t15 -80t-15 -80t-41 -59.5t-61 -37.5t-74 -13q-40 0 -75 13t-61 37.5t-41 59.5 t-15 80zM494 1247q0 -34 18.5 -58t56.5 -24q39 0 57.5 24t18.5 58t-18.5 58t-57.5 24q-38 0 -56.5 -24t-18.5 -58z" />
<glyph unicode="&#x170;" horiz-adv-x="1354" d="M160 440v799q0 29 10.5 50t29 34t42.5 19t51 6t51 -6t42.5 -19t29 -34t10.5 -50v-774q0 -79 12.5 -127.5t41.5 -74.5t76 -35t116 -9q68 0 117 9t80.5 35t46 74.5t14.5 127.5v774q0 29 10.5 50t29 34t42.5 19t51 6t51 -6t41.5 -19t28 -34t10.5 -50v-799q0 -106 -16 -181.5 t-46.5 -127t-75 -81.5t-102.5 -45.5t-129 -20t-153 -4.5q-83 0 -153 4.5t-126.5 20t-100 45.5t-73 81.5t-44.5 126.5t-15 182zM362 1489q0 12 4 26.5t15 28.5l90 131q17 25 39 35t45 10q21 0 40.5 -7t34.5 -19.5t24.5 -29t9.5 -34.5q0 -15 -7 -31.5t-22 -31.5l-135 -135 q-14 -14 -28 -19.5t-30 -5.5q-15 0 -29.5 6t-26 17t-18 26t-6.5 33zM690 1489q0 12 4 26.5t15 28.5l90 131q17 25 39 35t45 10q21 0 40.5 -7t34.5 -19.5t24 -29t9 -34.5q0 -15 -6.5 -31.5t-21.5 -31.5l-136 -135q-14 -14 -27.5 -19.5t-29.5 -5.5q-15 0 -29.5 6t-26 17 t-18 26t-6.5 33z" />
<glyph unicode="&#x171;" horiz-adv-x="1137" d="M143 412v501q0 28 10 48.5t27 33.5t40 19t50 6q26 0 49 -6t40.5 -19t27.5 -33.5t10 -48.5v-489q0 -70 4 -112.5t21 -66t51 -31t94 -7.5t94.5 7.5t52.5 31t22.5 66t4.5 112.5v489q0 28 10 48.5t27 33.5t39.5 19t48.5 6t49 -6t40.5 -19t27.5 -33.5t10 -48.5v-501 q0 -143 -20.5 -228.5t-70 -130.5t-131.5 -59t-204 -14q-82 0 -145 5.5t-110 22t-79.5 46t-52.5 77.5t-28.5 117t-8.5 164zM254 1161q0 13 3.5 27.5t14.5 28.5l90 131q17 24 39 34.5t45 10.5q21 0 40.5 -7t35 -19.5t24.5 -29t9 -34.5q0 -16 -6.5 -32t-22.5 -32l-135 -135 q-14 -14 -28 -19.5t-29 -5.5t-29.5 6t-26 17t-18 26t-6.5 33zM582 1161q0 13 3.5 27.5t14.5 28.5l90 131q17 24 39 34.5t45 10.5q21 0 40.5 -7t34.5 -19.5t24.5 -29t9.5 -34.5q0 -34 -29 -64l-135 -135q-14 -14 -28 -19.5t-29 -5.5t-29.5 6t-26 17t-18 26t-6.5 33z" />
<glyph unicode="&#x172;" horiz-adv-x="1354" d="M160 440v799q0 29 10.5 50t29 34t42.5 19t51 6t51 -6t42.5 -19t29 -34t10.5 -50v-774q0 -79 12.5 -127.5t41.5 -74.5t76 -35t116 -9q68 0 117 9t80.5 35t46 74.5t14.5 127.5v774q0 29 10.5 50t29 34t42.5 19t51 6t51 -6t41.5 -19t28 -34t10.5 -50v-799q0 -139 -26.5 -226 t-78 -136.5t-126 -70t-170.5 -25.5q-54 -51 -88.5 -95t-34.5 -88q0 -17 5.5 -25.5t16 -12t25.5 -4t33 -1.5q12 -1 24.5 -3.5t22 -9t16 -18.5t6.5 -32q0 -92 -143 -92q-99 0 -149 41.5t-50 119.5q0 68 33 123t78 97q-69 2 -128 9.5t-106.5 26t-83.5 50.5t-60.5 82t-37 121.5 t-12.5 168.5z" />
<glyph unicode="&#x173;" horiz-adv-x="1137" d="M143 412v501q0 28 10 48.5t27 33.5t40 19t50 6q26 0 49 -6t40.5 -19t27.5 -33.5t10 -48.5v-489q0 -70 4 -112.5t21 -66t51 -31t94 -7.5t94.5 7.5t52.5 31t22.5 66t4.5 112.5v489q0 28 10 48.5t27 33.5t39.5 19t48.5 6t49 -6t40.5 -19t27.5 -33.5t10 -48.5v-501 q0 -121 -14.5 -200t-48 -127t-88 -70t-135.5 -29q-56 -53 -91.5 -97.5t-35.5 -89.5q0 -17 5.5 -25.5t16 -12t25 -4t32.5 -1.5q12 -1 24.5 -3.5t22.5 -9t16.5 -18.5t6.5 -32q0 -92 -143 -92q-99 0 -149 41.5t-50 119.5q0 70 33 124t78 96q-102 3 -170.5 20.5t-109.5 64 t-58 129.5t-17 216z" />
<glyph unicode="&#x174;" horiz-adv-x="1915" d="M23 1231q0 28 11 50t30 36t42.5 21.5t49.5 7.5q44 0 84 -23.5t57 -69.5l326 -921h28l164 422l-182 420q-8 18 -12.5 35t-4.5 32q0 26 10.5 46t27.5 33.5t39 20.5t46 7q44 0 83 -23.5t55 -71.5l79 -247l84 247q9 25 23.5 43t33.5 30t40 18t43 6q23 0 44 -7t37.5 -20.5 t26.5 -33.5t10 -46q0 -29 -16 -72l-182 -417l172 -420h28l318 917q17 50 58.5 74.5t86.5 24.5q25 0 48 -7.5t41 -22t29 -36t11 -49.5q0 -30 -12 -64l-403 -1058q-26 -68 -73 -100.5t-112 -32.5q-68 0 -114 34t-72 99l-150 370l-143 -370q-14 -36 -34.5 -61.5t-45.5 -41.5 t-53 -23t-57 -7q-66 0 -112 34t-71 99l-405 1058q-12 34 -12 60zM678 1468q-6 24 2 50t33 45l133 102q26 20 55 31.5t55 11.5t55.5 -11.5t55.5 -31.5l133 -102q25 -19 33 -45t2 -50t-24 -40.5t-46 -16.5q-15 0 -29 4t-26 10l-154 72l-153 -72q-13 -6 -26.5 -10t-28.5 -4 q-28 0 -46 16.5t-24 40.5z" />
<glyph unicode="&#x175;" horiz-adv-x="1653" d="M53 899q0 30 11 52.5t29 38t40.5 23t46.5 7.5q42 0 78.5 -23t48.5 -71l158 -609h29l155 570q17 62 60 97.5t120 35.5q25 0 51.5 -5.5t50.5 -20t43 -40.5t30 -67l151 -570h29l159 607q14 50 52 74t80 24q23 0 45 -7.5t39 -22t27.5 -37t10.5 -52.5q0 -12 -2.5 -27t-7.5 -32 l-237 -731q-12 -38 -30.5 -63.5t-41 -41t-49 -22t-55.5 -6.5q-68 0 -119 32.5t-68 100.5l-149 569h-29l-158 -569q-11 -39 -28.5 -64.5t-40.5 -40.5t-50 -21.5t-55 -6.5q-69 0 -118.5 33.5t-69.5 99.5l-226 731q-5 15 -7.5 29t-2.5 26zM547 1141q-6 24 2 50t33 44l133 102 q26 20 55 31.5t55 11.5t55.5 -11.5t55.5 -31.5l133 -102q25 -18 33 -44t2 -50t-24 -41t-46 -17q-15 0 -29 4.5t-26 10.5l-154 71l-153 -71q-13 -6 -26.5 -10.5t-29.5 -4.5q-27 0 -45 17t-24 41z" />
<glyph unicode="&#x176;" horiz-adv-x="1094" d="M16 1235q0 59 35 86t90 27q47 0 77 -24t50 -56l279 -463l278 463q20 34 51 57t76 23q56 0 90.5 -25t34.5 -84q0 -15 -4 -34t-12 -31l-381 -613v-469q0 -29 -11 -49.5t-29 -33.5t-42 -19t-51 -6q-28 0 -52 6t-42 19t-28.5 33.5t-10.5 49.5v471l-379 611q-6 11 -12.5 27.5 t-6.5 33.5zM268.5 1468q-5.5 24 2.5 50t32 45l133 102q26 20 55.5 31.5t55.5 11.5t55 -11.5t55 -31.5l134 -102q24 -19 32 -45t2 -50t-24 -40.5t-45 -16.5q-16 0 -29.5 4t-26.5 10l-153 72l-154 -72q-12 -6 -26 -10t-29 -4q-28 0 -46 16.5t-23.5 40.5z" />
<glyph unicode="&#x177;" horiz-adv-x="1016" d="M23 927q7 35 30 56.5t56 29.5t66.5 1t62 -29t41.5 -59l210 -609h29l221 607q14 39 43.5 61.5t63.5 30t67.5 0t55.5 -29.5t28 -57.5t-14 -84.5l-481 -1147q-16 -38 -46.5 -60.5t-65 -30t-68 0.5t-55.5 29.5t-27 57t18 83.5l117 252q-36 34 -53 84l-287 731q-19 48 -12 83z M229.5 1141q-5.5 24 2.5 50t32 44l133 102q26 20 55.5 31.5t55.5 11.5t55 -11.5t55 -31.5l134 -102q24 -18 32 -44t2.5 -50t-23.5 -41t-46 -17q-16 0 -29.5 4.5t-25.5 10.5l-154 71l-154 -71q-12 -6 -26 -10.5t-29 -4.5q-28 0 -46 17t-23.5 41z" />
<glyph unicode="&#x178;" horiz-adv-x="1094" d="M16 1235q0 59 35 86t90 27q47 0 77 -24t50 -56l279 -463l278 463q20 34 51 57t76 23q56 0 90.5 -25t34.5 -84q0 -15 -4 -34t-12 -31l-381 -613v-469q0 -29 -11 -49.5t-29 -33.5t-42 -19t-51 -6q-28 0 -52 6t-42 19t-28.5 33.5t-10.5 49.5v471l-379 611q-6 11 -12.5 27.5 t-6.5 33.5zM264 1579q0 27 9.5 51t27 41.5t40.5 28t50 10.5t51 -10.5t41.5 -28t28 -41.5t10.5 -51t-10.5 -50.5t-28 -41t-41.5 -27.5t-51 -10t-50 10t-40.5 27.5t-27 41t-9.5 50.5zM573 1579q0 27 10 51t27 41.5t40 28t50 10.5t50.5 -10.5t41 -28t27.5 -41.5t10 -51 t-10 -50.5t-27.5 -41t-41 -27.5t-50.5 -10t-50 10t-40 27.5t-27 41t-10 50.5z" />
<glyph unicode="&#x179;" horiz-adv-x="1100" d="M25 180q0 22 6.5 45.5t17 46.5t23.5 43t26 35l645 742h-591q-28 0 -47.5 9.5t-32 25.5t-18 38t-5.5 47q0 51 23.5 85t79.5 34h714q39 0 74 -14.5t61 -39.5t41 -59t15 -73q0 -47 -22 -89t-50 -73l-643 -741h631q28 0 47.5 -9.5t31.5 -26t17.5 -38.5t5.5 -47 q0 -51 -22.5 -86t-79.5 -35h-762q-40 0 -74 12.5t-59 36t-39 57t-14 74.5zM377 1485q0 14 6 29.5t20 29.5l138 139q18 20 37.5 28.5t39.5 8.5q21 0 40 -8t33.5 -21.5t23 -31.5t8.5 -37t-9.5 -37t-31.5 -35l-160 -118q-15 -11 -30.5 -16t-30.5 -5q-35 0 -59.5 21.5 t-24.5 52.5z" />
<glyph unicode="&#x17a;" horiz-adv-x="891" d="M36 84.5q-8 37.5 7 84.5t53 95l406 512h-332q-28 0 -47 8.5t-31 23.5t-17 35.5t-5 45.5q0 50 22 82.5t78 32.5h541q57 0 89.5 -23.5t40.5 -61.5t-7.5 -85t-53.5 -95l-405 -512h368q56 0 78.5 -31.5t22.5 -80.5q0 -51 -22.5 -83t-78.5 -32h-577q-58 0 -90 23.5t-40 61z M272 1157q0 31 27 60l137 139q36 37 78 37q21 0 39.5 -8t33 -22t23 -32t8.5 -37q0 -18 -9.5 -36t-30.5 -35l-160 -119q-32 -21 -62 -21q-35 0 -59.5 21.5t-24.5 52.5z" />
<glyph unicode="&#x17b;" horiz-adv-x="1100" d="M25 180q0 22 6.5 45.5t17 46.5t23.5 43t26 35l645 742h-591q-28 0 -47.5 9.5t-32 25.5t-18 38t-5.5 47q0 51 23.5 85t79.5 34h714q39 0 74 -14.5t61 -39.5t41 -59t15 -73q0 -47 -22 -89t-50 -73l-643 -741h631q28 0 47.5 -9.5t31.5 -26t17.5 -38.5t5.5 -47 q0 -51 -22.5 -86t-79.5 -35h-762q-40 0 -74 12.5t-59 36t-39 57t-14 74.5zM406 1565q0 30 11 56.5t29.5 46t44.5 31t56 11.5t56.5 -11.5t46 -31t31 -46t11.5 -56.5t-11.5 -56.5t-31 -46t-46 -30.5t-56.5 -11t-56 11t-44.5 30.5t-29.5 46t-11 56.5z" />
<glyph unicode="&#x17c;" horiz-adv-x="891" d="M36 84.5q-8 37.5 7 84.5t53 95l406 512h-332q-28 0 -47 8.5t-31 23.5t-17 35.5t-5 45.5q0 50 22 82.5t78 32.5h541q57 0 89.5 -23.5t40.5 -61.5t-7.5 -85t-53.5 -95l-405 -512h368q56 0 78.5 -31.5t22.5 -80.5q0 -51 -22.5 -83t-78.5 -32h-577q-58 0 -90 23.5t-40 61z M301 1237q0 30 11 56.5t29.5 46t44.5 31t56 11.5t56.5 -11.5t46.5 -31t31.5 -46t11.5 -56.5t-11.5 -56t-31.5 -45.5t-46.5 -30.5t-56.5 -11t-56 11t-44.5 30.5t-29.5 45.5t-11 56z" />
<glyph unicode="&#x17d;" horiz-adv-x="1100" d="M25 180q0 22 6.5 45.5t17 46.5t23.5 43t26 35l645 742h-591q-28 0 -47.5 9.5t-32 25.5t-18 38t-5.5 47q0 51 23.5 85t79.5 34h714q39 0 74 -14.5t61 -39.5t41 -59t15 -73q0 -47 -22 -89t-50 -73l-643 -741h631q28 0 47.5 -9.5t31.5 -26t17.5 -38.5t5.5 -47 q0 -51 -22.5 -86t-79.5 -35h-762q-40 0 -74 12.5t-59 36t-39 57t-14 74.5zM270.5 1651q5.5 24 23.5 40.5t46 16.5q15 0 29 -4t26 -10l154 -72l153 72q13 6 26.5 10t29.5 4q27 0 45 -16.5t24 -40.5t-2 -50t-32 -45l-134 -102q-26 -20 -55 -31.5t-55 -11.5t-55.5 11.5 t-55.5 31.5l-133 102q-24 19 -32 45t-2.5 50z" />
<glyph unicode="&#x17e;" horiz-adv-x="891" d="M36 84.5q-8 37.5 7 84.5t53 95l406 512h-332q-28 0 -47 8.5t-31 23.5t-17 35.5t-5 45.5q0 50 22 82.5t78 32.5h541q57 0 89.5 -23.5t40.5 -61.5t-7.5 -85t-53.5 -95l-405 -512h368q56 0 78.5 -31.5t22.5 -80.5q0 -51 -22.5 -83t-78.5 -32h-577q-58 0 -90 23.5t-40 61z M166 1323q6 24 24 40.5t46 16.5q15 0 28.5 -4t26.5 -10l153 -72l154 72q12 6 26 10t29 4q28 0 46 -16.5t24 -40.5t-2 -50t-33 -44l-133 -103q-26 -20 -55.5 -31.5t-55.5 -11.5t-55 11.5t-55 31.5l-133 103q-25 18 -33 44t-2 50z" />
<glyph unicode="&#x17f;" horiz-adv-x="600" d="M6 887q0 50 22.5 83.5t77.5 33.5h70v30q0 100 20 165t62 103.5t107 54t155 15.5q73 0 118 -6t70 -20.5t33.5 -38.5t8.5 -60q0 -52 -34 -79t-85 -27q-28 0 -52.5 3t-58.5 3q-29 0 -46.5 -5t-28 -17t-14 -33t-3.5 -52v-950q0 -57 -36.5 -81.5t-90.5 -24.5q-26 0 -49 6 t-40 18.5t-26.5 32.5t-9.5 49v680h-70q-55 0 -77.5 33t-22.5 84z" />
<glyph unicode="&#x192;" horiz-adv-x="1147" d="M-27 -254q5 21 14 37t25 27t40 16.5t59 5.5q31 0 58.5 -3t53.5 -3q35 0 56 8.5t34 26.5t19.5 46t13.5 66l105 594h-166q-26 0 -44 9.5t-30 25.5t-17.5 37t-5.5 45q0 48 23 81.5t74 33.5h207l32 180q19 110 49 182t76.5 114.5t113 59.5t159.5 17q73 0 120.5 -9.5t74 -28 t33 -45.5t-0.5 -61q-9 -43 -40 -65.5t-97 -22.5q-29 0 -58 3t-55 3q-35 0 -56 -8.5t-33.5 -26.5t-19.5 -46t-14 -66l-33 -180h199q51 0 74.5 -33.5t23.5 -81.5q0 -24 -6 -45t-18 -37t-30.5 -25.5t-43.5 -9.5h-240l-104 -594q-19 -107 -46 -178t-71 -114.5t-109.5 -61.5 t-160.5 -18q-137 0 -196 35t-42 110z" />
<glyph unicode="&#x218;" horiz-adv-x="1178" d="M106 145q0 51 27.5 87t77.5 36q38 0 80 -6.5t85 -14t86 -14t85 -6.5q130 0 196 38t66 132q0 48 -20.5 76t-55 43.5t-80 22.5t-94.5 12q-52 5 -104.5 12.5t-102 23t-92.5 41.5t-74.5 69.5t-50 106.5t-18.5 152q0 102 30 176.5t93 123t161.5 72.5t235.5 24q89 0 160.5 -6.5 t122 -23.5t77.5 -46t27 -74q0 -56 -32.5 -87.5t-82.5 -31.5q-34 0 -67.5 5t-67.5 10q-37 6 -77 10t-81 4q-123 0 -179 -40.5t-56 -113.5q0 -51 21.5 -80t57 -45t82 -22.5t97.5 -11.5q52 -6 104 -13.5t100 -22t89.5 -39.5t72.5 -65.5t48.5 -100t17.5 -142.5 q0 -108 -28.5 -189.5t-91 -136t-162 -82.5t-242.5 -28q-90 0 -170 6.5t-140.5 24.5t-95.5 50.5t-35 83.5zM422 -348q0 6 2 12l25 127q6 34 19 58t30.5 39.5t38 22.5t41.5 7q22 0 43 -8t37 -23t26 -36.5t10 -47.5q0 -36 -22 -82l-60 -114q-17 -32 -42.5 -48t-53.5 -16 q-37 0 -65.5 26t-28.5 71v12z" />
<glyph unicode="&#x219;" horiz-adv-x="911" d="M70 709q0 65 26 122.5t78 100t130.5 67.5t184.5 25q96 0 157.5 -10t97.5 -29t49.5 -45.5t13.5 -60.5q0 -50 -24 -75.5t-87 -25.5q-23 0 -45 3.5t-48.5 8t-59.5 8t-78 3.5q-71 0 -106 -18.5t-35 -49.5q0 -25 22.5 -41.5t59.5 -31t84 -28t96 -31t96 -42t84 -60t59.5 -85 t22.5 -117.5q0 -85 -29.5 -145t-83.5 -98.5t-130 -56t-169 -17.5q-116 0 -186.5 9.5t-109 27.5t-51.5 43t-13 57q0 54 24.5 82t87.5 28q24 0 48 -4t52 -8.5t62 -8t78 -3.5q76 0 121 17.5t45 64.5q0 23 -22.5 39t-59.5 29.5t-84 27t-96 31t-96 41.5t-84 59t-59.5 83 t-22.5 114zM319 -360q0 6 0.5 12t2.5 12l24 127q6 34 19 58t30.5 39.5t38 22.5t41.5 7q22 0 43.5 -8t37.5 -23t26 -36.5t10 -47.5q0 -38 -23 -82l-59 -114q-17 -32 -42.5 -48t-53.5 -16q-18 0 -35.5 6.5t-30.5 19.5t-21 30.5t-8 40.5z" />
<glyph unicode="&#x21a;" horiz-adv-x="1196" d="M41 1210q0 51 23 86t79 35h910q55 0 78.5 -35t23.5 -86q0 -50 -23.5 -84t-78.5 -34h-322v-1000q0 -29 -10.5 -49.5t-29 -33.5t-42.5 -19t-51 -6t-51 6t-42.5 19t-29 33.5t-10.5 49.5v1000h-322q-28 0 -47.5 9t-31.5 25t-17.5 37.5t-5.5 46.5zM461 -348q0 6 2 12l24 127 q6 34 19.5 58t31 39.5t37.5 22.5t41 7q22 0 43.5 -8t37.5 -23t26 -36.5t10 -47.5q0 -36 -22 -82l-60 -114q-17 -32 -42.5 -48t-53.5 -16q-37 0 -65.5 26t-28.5 71v12z" />
<glyph unicode="&#x21b;" horiz-adv-x="729" d="M12 887q0 49 22.5 83t76.5 34h71v161q0 28 10 47.5t27.5 32.5t40 19t47.5 6q54 0 91.5 -25t37.5 -80v-161h172q27 0 44.5 -9t28 -25t15 -37.5t4.5 -45.5q0 -51 -19 -84t-73 -33h-172v-502q0 -35 17 -48t45 -13t55 3t59 3q51 0 74 -25.5t23 -74.5q0 -36 -13 -61t-42.5 -41 t-77 -23.5t-117.5 -7.5q-73 0 -125.5 12t-86 43.5t-49.5 86t-16 140.5v508h-71q-54 0 -76.5 33t-22.5 84zM227 -348q0 6 2 12l25 127q6 34 19 58t30.5 39.5t38 22.5t41.5 7q22 0 43 -8t37.5 -23t26.5 -36.5t10 -47.5q0 -38 -23 -82l-59 -114q-17 -32 -43 -48t-53 -16 q-19 0 -36 6.5t-30 19.5t-21 30.5t-8 40.5v12z" />
<glyph unicode="&#x237;" horiz-adv-x="545" d="M-49 -276q0 24 5 45.5t17 37.5t31 25.5t47 9.5h15q19 0 33.5 5t24 17.5t14.5 33.5t5 53v954q0 29 10 50t27 34t40 19t50 6q26 0 50 -6t42 -19t28.5 -34t10.5 -50v-964q0 -71 -11.5 -133t-44 -108t-89.5 -72.5t-147 -26.5q-38 0 -67.5 5.5t-49.5 19.5t-30.5 38t-10.5 60z " />
<glyph unicode="&#x2bc;" horiz-adv-x="459" d="M96 1204v12.5t2 12.5l25 127q6 34 19 58t30.5 39.5t38 22.5t41.5 7q22 0 43 -8t37.5 -23t26.5 -36.5t10 -47.5q0 -19 -6 -39.5t-17 -42.5l-59 -115q-17 -32 -43 -47.5t-54 -15.5q-37 0 -65.5 25.5t-28.5 70.5z" />
<glyph unicode="&#x2c6;" horiz-adv-x="573" d="M8 1141q-6 24 2 50t33 44l133 102q26 20 55.5 31.5t55.5 11.5t55 -11.5t55 -31.5l133 -102q25 -18 33 -44t2 -50t-24 -41t-45 -17q-16 0 -29.5 4.5t-26.5 10.5l-153 71l-154 -71q-12 -6 -26 -10.5t-29 -4.5q-28 0 -46 17t-24 41z" />
<glyph unicode="&#x2c7;" horiz-adv-x="573" d="M8 1323q6 24 24 40.5t46 16.5q15 0 29 -4t26 -10l154 -72l153 72q13 6 26.5 10t29.5 4q27 0 45 -16.5t24 -40.5t-2 -50t-33 -44l-133 -103q-26 -20 -55 -31.5t-55 -11.5t-55.5 11.5t-55.5 31.5l-133 103q-25 18 -33 44t-2 50z" />
<glyph unicode="&#x2c9;" horiz-adv-x="573" d="M6 1237q0 48 22.5 76t73.5 28h369q51 0 74.5 -28t23.5 -76t-23.5 -77.5t-74.5 -29.5h-369q-51 0 -73.5 29.5t-22.5 77.5z" />
<glyph unicode="&#x2d8;" horiz-adv-x="573" d="M2 1296q0 31 21 53.5t55 22.5q32 0 52.5 -12.5t37.5 -38.5q22 -34 47 -51t72 -17q46 0 71.5 17t47.5 51q17 26 37.5 38.5t52.5 12.5q34 0 54.5 -22.5t20.5 -53.5q0 -55 -24 -95t-63.5 -66.5t-91 -39t-105.5 -12.5q-55 0 -106.5 12.5t-91 39t-63.5 66.5t-24 95z" />
<glyph unicode="&#x2d9;" horiz-adv-x="573" d="M143 1237q0 30 11 56.5t30 46t45 31t56 11.5t56.5 -11.5t46 -31t31 -46t11.5 -56.5t-11.5 -56t-31 -45.5t-46 -30.5t-56.5 -11t-56 11t-45 30.5t-30 45.5t-11 56z" />
<glyph unicode="&#x2da;" horiz-adv-x="573" d="M96 1247q0 45 15 80t41.5 60t61.5 38t75 13q39 0 73.5 -13t60.5 -38t41 -60t15 -80t-15 -80t-41 -59.5t-60.5 -37.5t-73.5 -13q-40 0 -75 13t-61.5 37.5t-41.5 59.5t-15 80zM213 1247q0 -34 19 -58t57 -24t57 24t19 58t-19 58t-57 24t-57 -24t-19 -58z" />
<glyph unicode="&#x2db;" horiz-adv-x="573" d="M106 -238q0 42 13.5 79t36 69t50 59t56.5 49h201q-35 -32 -64.5 -60.5t-52 -55t-35 -52.5t-12.5 -51q0 -17 6 -25.5t16.5 -12t25 -4t32.5 -1.5q12 -1 24.5 -3.5t22.5 -9t16.5 -18.5t6.5 -32q0 -92 -144 -92q-99 0 -149 41.5t-50 119.5z" />
<glyph unicode="&#x2dc;" horiz-adv-x="573" d="M6 1221q0 42 18.5 67.5t42 40t45.5 19t29 4.5q34 0 67.5 -7.5t63 -16t53 -16t37.5 -7.5t26.5 7.5t26 16t29.5 16t37 7.5q35 0 61.5 -26.5t26.5 -76.5q0 -38 -16.5 -63t-39.5 -41t-48 -22.5t-43 -6.5q-21 0 -50 8t-58.5 17.5t-56 17.5t-44.5 8t-30 -7.5t-23.5 -16 t-25.5 -16t-36 -7.5q-38 0 -65 25.5t-27 75.5z" />
<glyph unicode="&#x2dd;" horiz-adv-x="573" d="M8 1161q0 13 4 27.5t15 28.5l90 131q17 24 39 34.5t45 10.5q21 0 40.5 -7t34.5 -19.5t24 -29t9 -34.5q0 -16 -6.5 -32t-21.5 -32l-136 -135q-14 -14 -27.5 -19.5t-29.5 -5.5q-15 0 -29.5 6t-26 17t-18 26t-6.5 33zM336 1161q0 13 3.5 27.5t14.5 28.5l90 131 q17 24 39 34.5t45 10.5q21 0 40.5 -7t35 -19.5t24.5 -29t9 -34.5q0 -16 -6.5 -32t-22.5 -32l-135 -135q-14 -14 -28 -19.5t-29 -5.5t-29.5 6t-26 17t-18 26t-6.5 33z" />
<glyph unicode="&#x3c0;" horiz-adv-x="1282" d="M12 887q0 49 22.5 83t76.5 34h1050q27 0 44.5 -9t28 -25t15 -37.5t4.5 -45.5q0 -51 -19 -84t-73 -33h-172v-502q0 -35 17 -48t45 -13q27 0 54.5 3t59.5 3q51 0 74 -25.5t23 -74.5q0 -36 -13 -61t-42.5 -41t-77 -23.5t-117.5 -7.5q-73 0 -125.5 12t-86 43.5t-49.5 86 t-16 140.5v508h-299v-682q0 -28 -10 -47.5t-27.5 -32t-41 -18.5t-50.5 -6q-25 0 -47.5 6t-40 18.5t-27.5 32t-10 47.5v682h-71q-54 0 -76.5 33t-22.5 84z" />
<glyph unicode="&#x1e80;" horiz-adv-x="1915" d="M23 1231q0 28 11 50t30 36t42.5 21.5t49.5 7.5q44 0 84 -23.5t57 -69.5l326 -921h28l164 422l-182 420q-8 18 -12.5 35t-4.5 32q0 26 10.5 46t27.5 33.5t39 20.5t46 7q44 0 83 -23.5t55 -71.5l79 -247l84 247q9 25 23.5 43t33.5 30t40 18t43 6q23 0 44 -7t37.5 -20.5 t26.5 -33.5t10 -46q0 -29 -16 -72l-182 -417l172 -420h28l318 917q17 50 58.5 74.5t86.5 24.5q25 0 48 -7.5t41 -22t29 -36t11 -49.5q0 -30 -12 -64l-403 -1058q-26 -68 -73 -100.5t-112 -32.5q-68 0 -114 34t-72 99l-150 370l-143 -370q-14 -36 -34.5 -61.5t-45.5 -41.5 t-53 -23t-57 -7q-66 0 -112 34t-71 99l-405 1058q-12 34 -12 60zM784 1622q0 19 8.5 37t23 31.5t33.5 21.5t40 8q20 0 39.5 -8.5t38.5 -28.5l137 -139q14 -14 20 -29.5t6 -29.5q0 -31 -24 -52.5t-59 -21.5q-16 0 -31 5t-31 16l-160 118q-41 34 -41 72z" />
<glyph unicode="&#x1e81;" horiz-adv-x="1653" d="M53 899q0 30 11 52.5t29 38t40.5 23t46.5 7.5q42 0 78.5 -23t48.5 -71l158 -609h29l155 570q17 62 60 97.5t120 35.5q25 0 51.5 -5.5t50.5 -20t43 -40.5t30 -67l151 -570h29l159 607q14 50 52 74t80 24q23 0 45 -7.5t39 -22t27.5 -37t10.5 -52.5q0 -12 -2.5 -27t-7.5 -32 l-237 -731q-12 -38 -30.5 -63.5t-41 -41t-49 -22t-55.5 -6.5q-68 0 -119 32.5t-68 100.5l-149 569h-29l-158 -569q-11 -39 -28.5 -64.5t-40.5 -40.5t-50 -21.5t-55 -6.5q-69 0 -118.5 33.5t-69.5 99.5l-226 731q-5 15 -7.5 29t-2.5 26zM653 1294q0 19 8.5 37t23 32t33.5 22 t40 8q20 0 39.5 -8.5t38.5 -28.5l137 -139q14 -14 20 -30t6 -30q0 -31 -24 -52.5t-60 -21.5q-31 0 -61 21l-160 119q-21 17 -31 35t-10 36z" />
<glyph unicode="&#x1e82;" horiz-adv-x="1915" d="M23 1231q0 28 11 50t30 36t42.5 21.5t49.5 7.5q44 0 84 -23.5t57 -69.5l326 -921h28l164 422l-182 420q-8 18 -12.5 35t-4.5 32q0 26 10.5 46t27.5 33.5t39 20.5t46 7q44 0 83 -23.5t55 -71.5l79 -247l84 247q9 25 23.5 43t33.5 30t40 18t43 6q23 0 44 -7t37.5 -20.5 t26.5 -33.5t10 -46q0 -29 -16 -72l-182 -417l172 -420h28l318 917q17 50 58.5 74.5t86.5 24.5q25 0 48 -7.5t41 -22t29 -36t11 -49.5q0 -30 -12 -64l-403 -1058q-26 -68 -73 -100.5t-112 -32.5q-68 0 -114 34t-72 99l-150 370l-143 -370q-14 -36 -34.5 -61.5t-45.5 -41.5 t-53 -23t-57 -7q-66 0 -112 34t-71 99l-405 1058q-12 34 -12 60zM784 1485q0 14 6.5 29.5t20.5 29.5l137 139q19 20 38.5 28.5t39.5 8.5q21 0 39.5 -8t33 -21.5t23 -31.5t8.5 -37q0 -39 -40 -72l-160 -118q-16 -11 -31 -16t-31 -5q-35 0 -59.5 21.5t-24.5 52.5z" />
<glyph unicode="&#x1e83;" horiz-adv-x="1653" d="M53 899q0 30 11 52.5t29 38t40.5 23t46.5 7.5q42 0 78.5 -23t48.5 -71l158 -609h29l155 570q17 62 60 97.5t120 35.5q25 0 51.5 -5.5t50.5 -20t43 -40.5t30 -67l151 -570h29l159 607q14 50 52 74t80 24q23 0 45 -7.5t39 -22t27.5 -37t10.5 -52.5q0 -12 -2.5 -27t-7.5 -32 l-237 -731q-12 -38 -30.5 -63.5t-41 -41t-49 -22t-55.5 -6.5q-68 0 -119 32.5t-68 100.5l-149 569h-29l-158 -569q-11 -39 -28.5 -64.5t-40.5 -40.5t-50 -21.5t-55 -6.5q-69 0 -118.5 33.5t-69.5 99.5l-226 731q-5 15 -7.5 29t-2.5 26zM653 1157q0 31 27 60l137 139 q36 37 78 37q21 0 39.5 -8t33 -22t23 -32t8.5 -37q0 -18 -9.5 -36t-31.5 -35l-159 -119q-32 -21 -62 -21q-35 0 -59.5 21.5t-24.5 52.5z" />
<glyph unicode="&#x1e84;" horiz-adv-x="1915" d="M23 1231q0 28 11 50t30 36t42.5 21.5t49.5 7.5q44 0 84 -23.5t57 -69.5l326 -921h28l164 422l-182 420q-8 18 -12.5 35t-4.5 32q0 26 10.5 46t27.5 33.5t39 20.5t46 7q44 0 83 -23.5t55 -71.5l79 -247l84 247q9 25 23.5 43t33.5 30t40 18t43 6q23 0 44 -7t37.5 -20.5 t26.5 -33.5t10 -46q0 -29 -16 -72l-182 -417l172 -420h28l318 917q17 50 58.5 74.5t86.5 24.5q25 0 48 -7.5t41 -22t29 -36t11 -49.5q0 -30 -12 -64l-403 -1058q-26 -68 -73 -100.5t-112 -32.5q-68 0 -114 34t-72 99l-150 370l-143 -370q-14 -36 -34.5 -61.5t-45.5 -41.5 t-53 -23t-57 -7q-66 0 -112 34t-71 99l-405 1058q-12 34 -12 60zM674 1579q0 27 9.5 51t27 41.5t40.5 28t50 10.5t50.5 -10.5t41.5 -28t28.5 -41.5t10.5 -51t-10.5 -50.5t-28.5 -41t-41.5 -27.5t-50.5 -10t-50 10t-40.5 27.5t-27 41t-9.5 50.5zM983 1579q0 27 9.5 51 t27 41.5t40.5 28t50 10.5t50.5 -10.5t41 -28t27.5 -41.5t10 -51t-10 -50.5t-27.5 -41t-41 -27.5t-50.5 -10t-50 10t-40.5 27.5t-27 41t-9.5 50.5z" />
</font>
</defs>
</svg>
