<?xml version="1.0" standalone="no"?>
<!DOCTYPE svg PUBLIC "-//W3C//DTD SVG 1.1//EN" "http://www.w3.org/Graphics/SVG/1.1/DTD/svg11.dtd" >
<svg xmlns="http://www.w3.org/2000/svg">
<metadata></metadata>
<defs>
<font id="amag_displaybold" horiz-adv-x="786" >
<font-face units-per-em="2048" ascent="1638" descent="-410" />
<missing-glyph horiz-adv-x="479" />
<glyph unicode="ff" horiz-adv-x="1456" d="M20 887q0 50 22.5 83.5t78.5 33.5h98v30q0 100 16 165t55.5 103.5t105.5 54t167 15.5q78 0 126 -6t73.5 -20.5t34 -38.5t8.5 -60q0 -52 -34 -79t-85 -27q-28 0 -58.5 3t-64.5 3q-29 0 -46.5 -5t-28 -17t-14 -33t-3.5 -52v-36h440v30q0 100 16 165t55.5 103.5t105.5 54 t167 15.5q89 0 143 -6t83 -20.5t38 -38.5t9 -60q0 -52 -34 -79t-85 -27q-14 0 -33.5 1t-40.5 2l-42 2t-38 1q-28 0 -46 -5t-28 -17t-14 -33t-4 -52v-36h183q28 0 47.5 -9t31.5 -24.5t17.5 -37t5.5 -46.5q0 -51 -23 -84t-79 -33h-183v-680q0 -57 -36.5 -81.5t-90.5 -24.5 q-26 0 -48.5 6t-39.5 18.5t-27 32.5t-10 49v680h-440v-680q0 -57 -36.5 -81.5t-90.5 -24.5q-26 0 -49 6t-40 18.5t-26.5 32.5t-9.5 49v680h-98q-56 0 -78.5 33t-22.5 84z" />
<glyph unicode="fi" horiz-adv-x="1300" d="M20 887q0 50 22.5 83.5t78.5 33.5h98v30q0 100 16 165t55.5 103.5t105.5 54t167 15.5q89 0 143 -6t83 -20.5t38 -38.5t9 -60q0 -52 -34 -79t-85 -27q-14 0 -33.5 1t-40.5 2l-42 2t-38 1q-29 0 -46.5 -5t-28 -17t-14 -33t-3.5 -52v-36h182q57 0 80 -33t23 -84t-23 -84 t-80 -33h-182v-680q0 -57 -36.5 -81.5t-90.5 -24.5q-26 0 -49 6t-40 18.5t-26.5 32.5t-9.5 49v680h-98q-56 0 -78.5 33t-22.5 84zM889 1227q0 30 11 56.5t29.5 46t44.5 31t56 11.5t56.5 -11.5t46.5 -31t31.5 -46t11.5 -56.5t-11.5 -56.5t-31.5 -46t-46.5 -30.5t-56.5 -11 t-56 11t-44.5 30.5t-29.5 46t-11 56.5zM903 90v805q0 28 10 49t27.5 34t40.5 19.5t49 6.5t49 -6.5t40.5 -19.5t27.5 -34t10 -49v-805q0 -29 -10 -49t-27.5 -32.5t-40.5 -18.5t-49 -6t-49 6t-40.5 18.5t-27.5 32.5t-10 49z" />
<glyph unicode="fl" horiz-adv-x="1303" d="M20 887q0 50 22.5 83.5t78.5 33.5h98v30q0 100 16 165t55.5 103.5t105.5 54t167 15.5q89 0 143 -6t83 -20.5t38 -38.5t9 -60q0 -52 -34 -79t-85 -27q-14 0 -33.5 1t-40.5 2l-42 2t-38 1q-29 0 -46.5 -5t-28 -17t-14 -33t-3.5 -52v-36h182q57 0 80 -33t23 -84t-23 -84 t-80 -33h-182v-680q0 -57 -36.5 -81.5t-90.5 -24.5q-26 0 -49 6t-40 18.5t-26.5 32.5t-9.5 49v680h-98q-56 0 -78.5 33t-22.5 84zM901 90v1174q0 28 10.5 48.5t28 33.5t41 19.5t49.5 6.5q54 0 91.5 -26t37.5 -82v-1174q0 -57 -37.5 -81.5t-91.5 -24.5q-26 0 -49.5 6 t-41 18.5t-28 32.5t-10.5 49z" />
<glyph unicode="ffi" horiz-adv-x="1993" d="M20 887q0 50 22.5 83.5t78.5 33.5h98v30q0 100 16 165t55.5 103.5t105.5 54t167 15.5q78 0 126 -6t73.5 -20.5t34 -38.5t8.5 -60q0 -52 -34 -79t-85 -27q-28 0 -58.5 3t-64.5 3q-29 0 -46.5 -5t-28 -17t-14 -33t-3.5 -52v-36h440v30q0 100 16 165t55.5 103.5t105.5 54 t167 15.5q89 0 143 -6t83 -20.5t38 -38.5t9 -60q0 -52 -34 -79t-85 -27q-14 0 -33.5 1t-40.5 2l-42 2t-38 1q-28 0 -46 -5t-28 -17t-14 -33t-4 -52v-36h183q28 0 47.5 -9t31.5 -24.5t17.5 -37t5.5 -46.5q0 -51 -23 -84t-79 -33h-183v-680q0 -57 -36.5 -81.5t-90.5 -24.5 q-26 0 -48.5 6t-39.5 18.5t-27 32.5t-10 49v680h-440v-680q0 -57 -36.5 -81.5t-90.5 -24.5q-26 0 -49 6t-40 18.5t-26.5 32.5t-9.5 49v680h-98q-56 0 -78.5 33t-22.5 84zM1581 1227q0 30 11 56.5t29.5 46t44.5 31t56 11.5t56.5 -11.5t46.5 -31t31.5 -46t11.5 -56.5 t-11.5 -56.5t-31.5 -46t-46.5 -30.5t-56.5 -11t-56 11t-44.5 30.5t-29.5 46t-11 56.5zM1595 90v805q0 28 10 49t27.5 34t40.5 19.5t49 6.5t49 -6.5t40.5 -19.5t27.5 -34t10 -49v-805q0 -29 -10 -49t-27.5 -32.5t-40.5 -18.5t-49 -6t-49 6t-40.5 18.5t-27.5 32.5t-10 49z" />
<glyph unicode="ffl" horiz-adv-x="1995" d="M20 887q0 50 22.5 83.5t78.5 33.5h98v30q0 100 16 165t55.5 103.5t105.5 54t167 15.5q78 0 126 -6t73.5 -20.5t34 -38.5t8.5 -60q0 -52 -34 -79t-85 -27q-28 0 -58.5 3t-64.5 3q-29 0 -46.5 -5t-28 -17t-14 -33t-3.5 -52v-36h440v30q0 100 16 165t55.5 103.5t105.5 54 t167 15.5q89 0 143 -6t83 -20.5t38 -38.5t9 -60q0 -52 -34 -79t-85 -27q-14 0 -33.5 1t-40.5 2l-42 2t-38 1q-28 0 -46 -5t-28 -17t-14 -33t-4 -52v-36h183q28 0 47.5 -9t31.5 -24.5t17.5 -37t5.5 -46.5q0 -51 -23 -84t-79 -33h-183v-680q0 -57 -36.5 -81.5t-90.5 -24.5 q-26 0 -48.5 6t-39.5 18.5t-27 32.5t-10 49v680h-440v-680q0 -57 -36.5 -81.5t-90.5 -24.5q-26 0 -49 6t-40 18.5t-26.5 32.5t-9.5 49v680h-98q-56 0 -78.5 33t-22.5 84zM1593 90v1174q0 28 10.5 48.5t28 33.5t41 19.5t49.5 6.5q54 0 91.5 -26t37.5 -82v-1174 q0 -57 -37.5 -81.5t-91.5 -24.5q-26 0 -49.5 6t-41 18.5t-28 32.5t-10.5 49z" />
<glyph unicode="fb" horiz-adv-x="1993" d="M20 887q0 50 22.5 83.5t78.5 33.5h98v30q0 100 16 165t55.5 103.5t105.5 54t167 15.5q89 0 143 -6t83 -20.5t38 -38.5t9 -60q0 -52 -34 -79t-85 -27q-14 0 -33.5 1t-40.5 2l-42 2t-38 1q-29 0 -46.5 -5t-28 -17t-14 -33t-3.5 -52v-36h182q57 0 80 -33t23 -84t-23 -84 t-80 -33h-182v-680q0 -57 -36.5 -81.5t-90.5 -24.5q-26 0 -49 6t-40 18.5t-26.5 32.5t-9.5 49v680h-98q-56 0 -78.5 33t-22.5 84zM901 500v768q0 27 11 47t29 32.5t41.5 18.5t49.5 6t49 -6t40.5 -18.5t27.5 -32.5t10 -47v-277q42 13 102 23t142 10q136 0 229 -21 t150.5 -78.5t82.5 -159t25 -261.5q0 -163 -24.5 -265t-82 -159.5t-151 -78.5t-231.5 -21q-92 0 -164.5 7.5t-128 28t-95 57t-64.5 94t-36.5 139.5t-11.5 194zM1157 504q0 -100 12 -159t40 -89.5t75 -39.5t117 -9q66 0 111 8t72.5 38t39.5 89.5t12 161.5q0 96 -13.5 154 t-42.5 88.5t-73.5 40.5t-105.5 10q-65 0 -111.5 -7.5t-76 -36.5t-43 -87.5t-13.5 -161.5z" />
<glyph unicode="fh" horiz-adv-x="1978" d="M20 887q0 50 22.5 83.5t78.5 33.5h98v30q0 100 16 165t55.5 103.5t105.5 54t167 15.5q89 0 143 -6t83 -20.5t38 -38.5t9 -60q0 -52 -34 -79t-85 -27q-14 0 -33.5 1t-40.5 2l-42 2t-38 1q-29 0 -46.5 -5t-28 -17t-14 -33t-3.5 -52v-36h182q57 0 80 -33t23 -84t-23 -84 t-80 -33h-182v-680q0 -57 -36.5 -81.5t-90.5 -24.5q-26 0 -49 6t-40 18.5t-26.5 32.5t-9.5 49v680h-98q-56 0 -78.5 33t-22.5 84zM903 90v1174q0 28 10.5 48.5t28 33.5t41 19.5t49.5 6.5q54 0 91.5 -26t37.5 -82v-265q21 5 49.5 9.5t59.5 8t62 5.5t57 2q87 0 154 -5.5 t116.5 -22t83 -46t54 -77.5t29.5 -117t9 -164v-502q0 -29 -10 -49t-27.5 -32.5t-40.5 -18.5t-49 -6t-49 6t-40 18.5t-26.5 32.5t-9.5 49v490q0 70 -7 112.5t-30 65.5t-65.5 31t-112.5 8q-24 0 -53.5 -2t-58 -5t-54 -6.5t-41.5 -7.5v-686q0 -57 -37.5 -81.5t-91.5 -24.5 q-26 0 -49.5 6t-41 18.5t-28 32.5t-10.5 49z" />
<glyph unicode="fj" horiz-adv-x="1303" d="M20 887q0 50 22.5 83.5t78.5 33.5h98v30q0 100 16 165t55.5 103.5t105.5 54t167 15.5q89 0 143 -6t83 -20.5t38 -38.5t9 -60q0 -52 -34 -79t-85 -27q-14 0 -33.5 1t-40.5 2l-42 2t-38 1q-29 0 -46.5 -5t-28 -17t-14 -33t-3.5 -52v-36h182q57 0 80 -33t23 -84t-23 -84 t-80 -33h-182v-680q0 -57 -36.5 -81.5t-90.5 -24.5q-26 0 -49 6t-40 18.5t-26.5 32.5t-9.5 49v680h-98q-56 0 -78.5 33t-22.5 84zM709 -276q0 24 5 45.5t17 37.5t31 25.5t47 9.5q24 0 41.5 5t29 17.5t16.5 33.5t5 53v944q0 58 36.5 83.5t90.5 25.5q26 0 50 -6t42 -19 t28.5 -34t10.5 -50v-954q0 -71 -12 -133t-44 -108t-89 -72.5t-148 -26.5q-38 0 -67 5.5t-49 19.5t-30.5 38t-10.5 60zM889 1227q0 30 11 56.5t29.5 46t44.5 31t56 11.5t56.5 -11.5t46.5 -31t31.5 -46t11.5 -56.5t-11.5 -56.5t-31.5 -46t-46.5 -30.5t-56.5 -11t-56 11 t-44.5 30.5t-29.5 46t-11 56.5z" />
<glyph unicode="ffb" horiz-adv-x="2685" d="M20 887q0 50 22.5 83.5t78.5 33.5h98v30q0 100 16 165t55.5 103.5t105.5 54t167 15.5q78 0 126 -6t73.5 -20.5t34 -38.5t8.5 -60q0 -52 -34 -79t-85 -27q-28 0 -58.5 3t-64.5 3q-29 0 -46.5 -5t-28 -17t-14 -33t-3.5 -52v-36h440v30q0 100 16 165t55.5 103.5t105.5 54 t167 15.5q89 0 143 -6t83 -20.5t38 -38.5t9 -60q0 -52 -34 -79t-85 -27q-14 0 -33.5 1t-40.5 2l-42 2t-38 1q-28 0 -46 -5t-28 -17t-14 -33t-4 -52v-36h183q28 0 47.5 -9t31.5 -24.5t17.5 -37t5.5 -46.5q0 -51 -23 -84t-79 -33h-183v-680q0 -57 -36.5 -81.5t-90.5 -24.5 q-26 0 -48.5 6t-39.5 18.5t-27 32.5t-10 49v680h-440v-680q0 -57 -36.5 -81.5t-90.5 -24.5q-26 0 -49 6t-40 18.5t-26.5 32.5t-9.5 49v680h-98q-56 0 -78.5 33t-22.5 84zM1593 500v768q0 27 11 47t29 32.5t41.5 18.5t49.5 6t49 -6t40.5 -18.5t27.5 -32.5t10 -47v-277 q42 13 102.5 23t141.5 10q136 0 229.5 -21t151 -78.5t82.5 -159t25 -261.5q0 -163 -24.5 -265t-82 -159.5t-151.5 -78.5t-232 -21q-92 0 -164.5 7.5t-128 28t-95 57t-64.5 94t-36.5 139.5t-11.5 194zM1849 504q0 -100 12 -159t40.5 -89.5t75 -39.5t116.5 -9q66 0 111 8 t73 38t40 89.5t12 161.5q0 96 -14 154t-42.5 88.5t-73.5 40.5t-106 10q-65 0 -111.5 -7.5t-76 -36.5t-43 -87.5t-13.5 -161.5z" />
<glyph unicode="ffh" horiz-adv-x="2671" d="M20 887q0 50 22.5 83.5t78.5 33.5h98v30q0 100 16 165t55.5 103.5t105.5 54t167 15.5q78 0 126 -6t73.5 -20.5t34 -38.5t8.5 -60q0 -52 -34 -79t-85 -27q-28 0 -58.5 3t-64.5 3q-29 0 -46.5 -5t-28 -17t-14 -33t-3.5 -52v-36h440v30q0 100 16 165t55.5 103.5t105.5 54 t167 15.5q89 0 143 -6t83 -20.5t38 -38.5t9 -60q0 -52 -34 -79t-85 -27q-14 0 -33.5 1t-40.5 2l-42 2t-38 1q-28 0 -46 -5t-28 -17t-14 -33t-4 -52v-36h183q28 0 47.5 -9t31.5 -24.5t17.5 -37t5.5 -46.5q0 -51 -23 -84t-79 -33h-183v-680q0 -57 -36.5 -81.5t-90.5 -24.5 q-26 0 -48.5 6t-39.5 18.5t-27 32.5t-10 49v680h-440v-680q0 -57 -36.5 -81.5t-90.5 -24.5q-26 0 -49 6t-40 18.5t-26.5 32.5t-9.5 49v680h-98q-56 0 -78.5 33t-22.5 84zM1595 90v1174q0 28 10.5 48.5t28 33.5t41 19.5t49.5 6.5q54 0 91.5 -26t37.5 -82v-265q21 5 49.5 9.5 t59.5 8t62 5.5t57 2q87 0 154 -5.5t116.5 -22t83 -46t54 -77.5t29.5 -117t9 -164v-502q0 -29 -10 -49t-27.5 -32.5t-40.5 -18.5t-49 -6t-48.5 6t-39.5 18.5t-27 32.5t-10 49v490q0 70 -7 112.5t-29.5 65.5t-65 31t-113.5 8q-24 0 -53.5 -2t-58 -5t-54 -6.5t-41.5 -7.5v-686 q0 -57 -37.5 -81.5t-91.5 -24.5q-26 0 -49.5 6t-41 18.5t-28 32.5t-10.5 49z" />
<glyph unicode="ffj" horiz-adv-x="1995" d="M20 887q0 50 22.5 83.5t78.5 33.5h98v30q0 100 16 165t55.5 103.5t105.5 54t167 15.5q78 0 126 -6t73.5 -20.5t34 -38.5t8.5 -60q0 -52 -34 -79t-85 -27q-28 0 -58.5 3t-64.5 3q-29 0 -46.5 -5t-28 -17t-14 -33t-3.5 -52v-36h440v30q0 100 16 165t55.5 103.5t105.5 54 t167 15.5q89 0 143 -6t83 -20.5t38 -38.5t9 -60q0 -52 -34 -79t-85 -27q-14 0 -33.5 1t-40.5 2l-42 2t-38 1q-28 0 -46 -5t-28 -17t-14 -33t-4 -52v-36h183q28 0 47.5 -9t31.5 -24.5t17.5 -37t5.5 -46.5q0 -51 -23 -84t-79 -33h-183v-680q0 -57 -36.5 -81.5t-90.5 -24.5 q-26 0 -48.5 6t-39.5 18.5t-27 32.5t-10 49v680h-440v-680q0 -57 -36.5 -81.5t-90.5 -24.5q-26 0 -49 6t-40 18.5t-26.5 32.5t-9.5 49v680h-98q-56 0 -78.5 33t-22.5 84zM1401 -276q0 24 5 45.5t17 37.5t31 25.5t47 9.5q25 0 42.5 5t28.5 17.5t16 33.5t5 53v944q0 29 10 50 t27 34t40 19t50 6q26 0 50 -6t42 -19t28.5 -34t10.5 -50v-954q0 -71 -11.5 -133t-44 -108t-89.5 -72.5t-147 -26.5q-38 0 -67.5 5.5t-49.5 19.5t-30.5 38t-10.5 60zM1581 1227q0 30 11 56.5t29.5 46t44.5 31t56 11.5t56.5 -11.5t46.5 -31t31.5 -46t11.5 -56.5t-11.5 -56.5 t-31.5 -46t-46.5 -30.5t-56.5 -11t-56 11t-44.5 30.5t-29.5 46t-11 56.5z" />
<glyph unicode="ffk" horiz-adv-x="2552" d="M20 887q0 49 23.5 83t77.5 34h98v30q0 100 16 165t55.5 103.5t105.5 54t167 15.5q78 0 126 -6t73.5 -20.5t34 -38.5t8.5 -60q0 -52 -34 -79t-85 -27q-28 0 -58.5 3t-64.5 3q-29 0 -46.5 -5t-28 -17t-14 -33t-3.5 -52v-36h440v30q0 100 16 165t55.5 103.5t105.5 54 t167 15.5q89 0 143 -6t83 -20.5t38 -38.5t9 -60q0 -52 -34 -79t-85 -27q-14 0 -33.5 1t-40.5 2l-42 2t-38 1q-28 0 -46 -5t-28 -17t-14 -33t-4 -52v-36h183q28 0 47.5 -9t31.5 -24.5t17.5 -37t5.5 -46.5q0 -51 -23 -84t-79 -33h-183v-680q0 -57 -36.5 -81.5t-90.5 -24.5 q-26 0 -48.5 6t-39.5 18.5t-27 32.5t-10 49v680h-440v-680q0 -57 -36.5 -81.5t-90.5 -24.5q-26 0 -49 6t-40 18.5t-26.5 32.5t-9.5 49v680h-98q-56 0 -78.5 33t-22.5 84zM1593 90v1174q0 28 10.5 48.5t28 33.5t41 19.5t49.5 6.5q54 0 91.5 -26t37.5 -82v-664h4 q104 94 206 186.5t204 186.5q23 21 54 33t57 12q46 0 79 -29t33 -76q0 -37 -30 -77t-75 -80t-97 -79.5t-95 -74.5l289 -391q20 -28 28.5 -52.5t8.5 -47.5q0 -27 -10.5 -50t-27.5 -39.5t-39.5 -26t-47.5 -9.5q-31 0 -60.5 14.5t-52.5 48.5l-284 404q-35 -31 -72 -59.5 t-72 -57.5v-246q0 -57 -37.5 -81.5t-91.5 -24.5q-26 0 -49.5 6t-41 18.5t-28 32.5t-10.5 49z" />
<glyph unicode="ft" horiz-adv-x="1577" d="M20 887q0 50 22.5 83.5t78.5 33.5h98v30q0 100 16 165t55.5 103.5t105.5 54t167 15.5q89 0 143 -6t83 -20.5t38 -38.5t9 -60q0 -52 -34 -79t-85 -27q-14 0 -33.5 1t-40.5 2l-42 2t-38 1q-29 0 -46.5 -5t-28 -17t-14 -33t-3.5 -52v-36h182q57 0 80 -33t23 -84t-23 -84 t-80 -33h-182v-680q0 -57 -36.5 -81.5t-90.5 -24.5q-26 0 -49 6t-40 18.5t-26.5 32.5t-9.5 49v680h-98q-56 0 -78.5 33t-22.5 84zM780 887q0 49 22.5 83t76.5 34h100v161q0 28 10 47.5t27 32.5t39.5 19t48.5 6q54 0 91.5 -25t37.5 -80v-161h209q27 0 44.5 -9t28 -25 t15 -37.5t4.5 -45.5q0 -51 -19.5 -84t-72.5 -33h-209v-487q0 -44 22 -60t54 -16q23 0 41 1t34 2t31 2t31 1q51 0 73.5 -25.5t22.5 -74.5q0 -36 -10.5 -61t-40 -41t-82.5 -23.5t-139 -7.5q-73 0 -127.5 12t-91 43.5t-54.5 86t-18 140.5v508h-100q-54 0 -76.5 33t-22.5 84z " />
<glyph unicode="fk" horiz-adv-x="1862" d="M20 887q0 50 22.5 83.5t78.5 33.5h98v30q0 100 16 165t55.5 103.5t105.5 54t167 15.5q89 0 143 -6t83 -20.5t38 -38.5t9 -60q0 -52 -34 -79t-85 -27q-14 0 -33.5 1t-40.5 2l-42 2t-38 1q-29 0 -46.5 -5t-28 -17t-14 -33t-3.5 -52v-36h182q57 0 80 -33t23 -84t-23 -84 t-80 -33h-182v-680q0 -57 -36.5 -81.5t-90.5 -24.5q-26 0 -49 6t-40 18.5t-26.5 32.5t-9.5 49v680h-98q-56 0 -78.5 33t-22.5 84zM905 90v1174q0 28 10.5 48.5t28 33.5t41 19.5t49.5 6.5q54 0 91.5 -26t37.5 -82v-664h4l410 373q25 21 57 33t58 12q36 0 65.5 -19.5t41 -51 t0 -71t-57.5 -79.5l-225 -193l270 -385q31 -43 36 -83t-7 -71.5t-38 -52t-58 -25t-66 9.5t-62 52l-274 406l-154 -119v-246q0 -57 -37.5 -81.5t-91.5 -24.5q-26 0 -49.5 6t-41 18.5t-28 32.5t-10.5 49z" />
<glyph horiz-adv-x="0" />
<glyph horiz-adv-x="0" />
<glyph unicode=" "  horiz-adv-x="479" />
<glyph unicode="&#x09;" horiz-adv-x="479" />
<glyph unicode="&#xa0;" horiz-adv-x="479" />
<glyph unicode="!" horiz-adv-x="580" d="M133 141q0 33 11.5 62t32.5 51t49.5 34.5t62.5 12.5q33 0 61.5 -12.5t50 -34.5t33.5 -51t12 -62q0 -35 -12 -63.5t-33.5 -49.5t-50 -32.5t-61.5 -11.5q-34 0 -62.5 11.5t-49.5 32.5t-32.5 49.5t-11.5 63.5zM137 1223q-2 32 10.5 56.5t35 40.5t52 24t60.5 8q29 0 57 -8 t49.5 -23.5t33.5 -40t9 -57.5l-51 -744q-2 -21 -11.5 -37.5t-24 -27t-32.5 -16t-36 -5.5q-37 0 -67 20.5t-34 65.5z" />
<glyph unicode="&#x22;" horiz-adv-x="840" d="M88 1235q-5 38 15.5 63.5t52.5 39t70.5 14t70.5 -12t52 -38.5t16 -66l-46 -397q-3 -26 -17 -43.5t-33.5 -26t-41.5 -9t-41.5 8t-33.5 26t-17 44.5zM477 1235q-4 38 16 63.5t52 39t70.5 14t70.5 -12t52 -38.5t16 -66l-45 -397q-5 -39 -32.5 -58.5t-60 -20t-60 19 t-32.5 59.5z" />
<glyph unicode="#" horiz-adv-x="1233" d="M98 442q0 48 24 82.5t75 34.5h79v213h-79q-51 0 -75 34.5t-24 82.5q0 24 6 45t18 37t30.5 25.5t44.5 9.5h79v243q0 25 9.5 44t25.5 31t37 18t45 6q48 0 82.5 -24t34.5 -75v-243h213v243q0 51 34.5 75t82.5 24q24 0 45 -6t36.5 -18t25 -31t9.5 -44v-243h82q25 0 43.5 -9.5 t30.5 -25.5t17.5 -37t5.5 -45q0 -48 -23 -82.5t-74 -34.5h-82v-213h82q51 0 74 -34.5t23 -82.5q0 -24 -5.5 -45t-17.5 -36.5t-30.5 -25t-43.5 -9.5h-82v-246q0 -26 -9.5 -44t-25 -29.5t-36.5 -17t-45 -5.5q-48 0 -82.5 22.5t-34.5 73.5v246h-213v-246q0 -51 -34.5 -73.5 t-82.5 -22.5q-24 0 -45 5.5t-37 17t-25.5 29.5t-9.5 44v246h-79q-26 0 -44.5 9.5t-30.5 25t-18 36.5t-6 45zM510 559h213v213h-213v-213z" />
<glyph unicode="$" horiz-adv-x="1233" d="M106 961q0 175 104 267t296 113v76q0 45 30.5 66.5t73.5 21.5q44 0 74.5 -21.5t30.5 -66.5v-67q76 -2 135.5 -9.5t101 -24t63 -43.5t21.5 -67q0 -54 -31.5 -85t-80.5 -31q-48 0 -103 9t-106 15v-336q68 -11 137.5 -30t125.5 -58t91 -104.5t35 -169.5q0 -98 -21.5 -172 t-68.5 -126t-121 -83.5t-178 -44.5v-129q0 -45 -30.5 -65.5t-74.5 -20.5q-43 0 -73.5 20.5t-30.5 65.5v119q-78 2 -149 10.5t-124 26.5t-84.5 48.5t-31.5 77.5q0 50 26.5 84.5t75.5 34.5q28 0 63.5 -4t74 -9.5t77 -11.5t72.5 -10v320q-50 10 -99.5 22.5t-93.5 32t-82 48.5 t-66 72t-43.5 101.5t-15.5 137.5zM365 971q0 -65 36 -99.5t105 -48.5v285q-63 -8 -102 -41.5t-39 -95.5zM715 225q74 6 103.5 47.5t29.5 110.5q0 58 -29 89t-104 46v-293z" />
<glyph unicode="%" horiz-adv-x="1726" d="M82 969q0 111 19.5 181t60 110.5t102.5 55.5t146 15q83 0 145 -15t103.5 -55.5t62 -110.5t20.5 -181t-20.5 -180t-62 -107t-103.5 -51t-145 -13q-84 0 -146 13t-102.5 51t-60 107t-19.5 180zM293 971q0 -59 6.5 -93t20.5 -51.5t36 -22.5t54 -5q31 0 54 5t37.5 22.5 t21.5 51.5t7 93q0 60 -7 95.5t-21.5 54t-37.5 24.5t-54 6q-32 0 -54 -6t-36 -24.5t-20.5 -54t-6.5 -95.5zM428 66q0 17 12 43l674 1202q12 21 30.5 31t37.5 10q17 0 35 -7t33 -19t24.5 -28t9.5 -34q0 -19 -12 -43l-674 -1203q-12 -21 -31 -29.5t-39 -8.5q-21 0 -39 7.5 t-31.5 20t-21.5 28t-8 30.5zM985 350q0 111 20 181.5t60.5 111t102 55.5t145.5 15q83 0 145 -15t103.5 -55.5t62.5 -111t21 -181.5t-21 -180t-62.5 -106.5t-103.5 -50.5t-145 -13q-84 0 -145.5 13t-102 50.5t-60.5 106.5t-20 180zM1196 352q0 -58 6.5 -92t20.5 -52t36 -23 t54 -5q31 0 54 5t38 23t22 52t7 92q0 60 -7 95.5t-22 54.5t-38 24.5t-54 5.5q-32 0 -54 -5.5t-36 -24.5t-20.5 -54.5t-6.5 -95.5z" />
<glyph unicode="&#x26;" horiz-adv-x="1493" d="M123 416q0 54 10.5 96.5t29.5 76t44.5 58t54.5 41.5v6q-19 18 -37.5 44.5t-32.5 59t-23 69.5t-9 77q0 118 22.5 193.5t73.5 118.5t132.5 59t199.5 16h444q28 0 47 -9.5t31 -25.5t17.5 -37.5t5.5 -46.5t-5.5 -46.5t-17.5 -37.5t-31 -25t-47 -9h-434q-52 0 -86.5 -5 t-55.5 -21t-29.5 -46t-8.5 -80q0 -48 10 -77.5t33.5 -46t63.5 -22t100 -5.5h282v81q0 28 10 48.5t27.5 33.5t40.5 19t49 6t49 -6t40 -19t26.5 -33.5t9.5 -48.5v-81h182q54 0 77.5 -34t23.5 -85q0 -50 -23.5 -83.5t-77.5 -33.5h-182v-283q0 -18 11 -26t20 -8h151 q27 0 46 -9.5t31.5 -25.5t18 -38t5.5 -46q0 -25 -5.5 -46.5t-18 -37.5t-31.5 -25.5t-46 -9.5h-102q-59 0 -107.5 10.5t-87.5 36.5q-22 -15 -44 -24.5t-50.5 -14.5t-65.5 -6.5t-89 -1.5h-271q-85 0 -148 7.5t-107.5 25.5t-72.5 48.5t-44.5 76.5t-22.5 109.5t-6 148.5z M381 420q0 -58 8 -93.5t31 -55t63 -26.5t105 -7h151q46 0 78 1t52 6t29 14.5t9 27.5v268h-272q-63 0 -110.5 -2.5t-79.5 -15t-48 -40t-16 -77.5z" />
<glyph unicode="'" horiz-adv-x="451" d="M88 1235q-5 38 15.5 63.5t52.5 39t70.5 14t70.5 -12t52 -38.5t16 -66l-46 -397q-3 -26 -17 -43.5t-33.5 -26t-41.5 -9t-41.5 8t-33.5 26t-17 44.5z" />
<glyph unicode="(" horiz-adv-x="586" d="M76 524q0 148 18 277.5t48 237t69.5 191.5t83.5 142t88.5 88.5t85.5 30.5q19 0 37.5 -7t32.5 -20t23 -32t9 -43q0 -30 -17.5 -63t-43.5 -78t-56.5 -106.5t-56.5 -148t-43.5 -203.5t-17.5 -272q0 -160 17.5 -275t43 -196.5t56 -134.5t56 -90t43 -63.5t17.5 -53.5 q0 -23 -8.5 -42t-23.5 -33t-34.5 -21.5t-41.5 -7.5q-42 0 -86.5 28t-87 82t-81 133t-67.5 181.5t-46 227.5t-17 271z" />
<glyph unicode=")" horiz-adv-x="586" d="M14 1389q0 24 9 43t23.5 32t33 20t37.5 7q40 0 85 -30.5t89 -88.5t83.5 -142t69.5 -191.5t48 -237t18 -277.5q0 -146 -17 -271t-46 -227.5t-67.5 -181.5t-81 -133t-87.5 -82t-86 -28q-22 0 -42 7.5t-35 21.5t-23.5 33t-8.5 42q0 27 17.5 53.5t43.5 63.5t56 90t56 134.5 t43.5 196.5t17.5 275q0 155 -17.5 272t-43.5 203.5t-57 148t-57 106.5t-43.5 78t-17.5 63z" />
<glyph unicode="*" horiz-adv-x="928" d="M102 1061q0 18 6 36.5t17 33t25.5 23.5t31.5 9q5 0 10 -1t11 -3l174 -61v196q0 39 25 55.5t63 16.5q35 0 60.5 -16.5t25.5 -55.5v-196l129 51q15 6 31 10t34 4t32.5 -9t25 -23.5t16.5 -33t6 -36.5q0 -20 -11.5 -39t-33.5 -27l-180 -61l107 -154q11 -15 14.5 -27t3.5 -20 q0 -16 -10 -32t-25 -29t-32.5 -21t-32.5 -8q-17 0 -33.5 9.5t-26.5 23.5l-102 151l-101 -151q-18 -31 -61 -31q-14 0 -31.5 7.5t-32.5 20.5t-25.5 29t-10.5 33q0 11 5 22.5t11 20.5l111 156l-178 59q-26 10 -37 26.5t-11 41.5z" />
<glyph unicode="+" horiz-adv-x="1233" d="M127 688q0 48 23 81.5t73 33.5h277v315q0 25 9 44t24.5 31t36 18t44.5 6q48 0 82.5 -24t34.5 -75v-315h277q51 0 74.5 -33.5t23.5 -81.5q0 -24 -6 -45t-18 -37t-30.5 -25.5t-43.5 -9.5h-277v-319q0 -51 -34.5 -73.5t-82.5 -22.5q-24 0 -44.5 5.5t-36 17t-24.5 29.5t-9 44 v319h-277q-25 0 -43 9.5t-30 25.5t-17.5 37t-5.5 45z" />
<glyph unicode="," horiz-adv-x="451" d="M23 -211q0 8 1 18t3 15l86 352q9 39 24 65t34 41.5t42 22t47 6.5q63 0 91 -32t28 -78q0 -44 -23 -95l-151 -340q-6 -11 -15 -22.5t-21.5 -21t-27 -15.5t-30.5 -6q-19 0 -35 7.5t-28 20.5t-18.5 29t-6.5 33z" />
<glyph unicode="-" horiz-adv-x="713" d="M41 553q0 24 5.5 44.5t17.5 36.5t30.5 25t44.5 9h432q26 0 45 -9t31.5 -25t18.5 -36.5t6 -44.5q0 -48 -24.5 -82.5t-76.5 -34.5h-432q-26 0 -44.5 9.5t-30.5 25t-17.5 37t-5.5 45.5z" />
<glyph unicode="." horiz-adv-x="451" d="M68 141q0 33 11.5 62t32 51t49 34.5t62.5 12.5q33 0 62 -12.5t50 -34.5t33.5 -51t12.5 -62q0 -35 -12.5 -63.5t-33.5 -49.5t-50 -32.5t-62 -11.5q-34 0 -62.5 11.5t-49 32.5t-32 49.5t-11.5 63.5z" />
<glyph unicode="/" horiz-adv-x="918" d="M4 4q0 19 12 43l727 1323q13 22 31 31.5t37 9.5q17 0 35 -7t33 -19t24.5 -28t9.5 -34q0 -19 -12 -43l-727 -1323q-12 -22 -31 -30.5t-39 -8.5q-21 0 -39 7.5t-31.5 20t-21.5 28t-8 30.5z" />
<glyph unicode="0" horiz-adv-x="1233" d="M106 653q0 204 23.5 338.5t81 214.5t154 113t243.5 33q148 0 247.5 -33t159.5 -113t85.5 -214.5t25.5 -338.5q0 -136 -11 -238.5t-35.5 -177.5t-64 -124.5t-97 -79t-134.5 -41.5t-176 -12q-98 0 -173 12t-131 41.5t-94 79t-61 124.5t-33 177.5t-10 238.5zM360 659 q0 -136 9 -223.5t36 -138.5t75.5 -70.5t127.5 -19.5t128.5 17t77.5 65.5t38 137t10 232.5q0 146 -10 237t-38 141.5t-77.5 68.5t-128.5 18t-127.5 -18t-75.5 -68.5t-36 -141.5t-9 -237z" />
<glyph unicode="1" horiz-adv-x="1233" d="M147 119q0 24 5.5 46t17.5 38t31 25.5t47 9.5h262v854h-262q-28 0 -47 9.5t-31 25.5t-17.5 37.5t-5.5 45.5q0 25 5.5 47t17.5 38.5t31 26t47 9.5h414q27 0 46 -9.5t31 -26t17.5 -38.5t5.5 -47v-972h262q28 0 47.5 -9.5t31.5 -25.5t17.5 -38t5.5 -46q0 -25 -5.5 -46.5 t-17.5 -37.5t-31.5 -25.5t-47.5 -9.5h-776q-28 0 -47 9.5t-31 25.5t-17.5 37.5t-5.5 46.5z" />
<glyph unicode="2" horiz-adv-x="1233" d="M129 106v142q0 68 13 123.5t42.5 99.5t77 78t115.5 59l227 84q58 22 97.5 44t63.5 49t34 62t10 83q0 53 -11.5 89.5t-39.5 59.5t-76 33t-121 10q-48 0 -91 -3.5t-82.5 -7.5t-78.5 -7.5t-80 -3.5q-55 0 -77.5 29.5t-22.5 78.5q0 45 23 75t65 42q12 4 38 8.5t69 8.5t105 7 t146 3q138 0 233 -19.5t154 -67.5t85 -129.5t26 -205.5q0 -100 -19.5 -169.5t-61.5 -120.5t-109.5 -88.5t-163.5 -72.5l-189 -69q-48 -18 -76.5 -35.5t-43.5 -34.5t-20 -35t-5 -37v-30h608q55 0 79 -35t24 -84q0 -50 -24 -84.5t-79 -34.5h-739q-53 0 -89 25t-36 81z" />
<glyph unicode="3" horiz-adv-x="1233" d="M119 145q0 51 27.5 84t76.5 33q39 0 78.5 -6.5t83.5 -14t93.5 -14t107.5 -6.5q154 0 226.5 41.5t72.5 136.5q0 46 -13 78.5t-44 52.5t-82.5 29.5t-129.5 9.5h-229q-29 0 -48.5 9t-32 25t-18 38t-5.5 47q0 51 23.5 85t80.5 34h229q66 0 110.5 8t72 26.5t39.5 50t12 79.5 t-13.5 78t-46 46t-86.5 21.5t-135 5.5q-48 0 -91 -3.5t-82.5 -7.5t-78.5 -7.5t-79 -3.5q-56 0 -78.5 29.5t-22.5 78.5q0 45 23 75t65 42q25 8 112.5 17.5t246.5 9.5q144 0 243.5 -19.5t162 -62.5t90.5 -110.5t28 -164.5q0 -62 -10.5 -105.5t-29 -75.5t-43 -55t-52.5 -44v-13 q37 -21 68 -46t52.5 -59.5t33.5 -83.5t12 -118q0 -122 -39 -202t-110 -127.5t-170 -66.5t-218 -19q-106 0 -195 6.5t-153 24.5t-99.5 50.5t-35.5 83.5z" />
<glyph unicode="4" horiz-adv-x="1233" d="M37 408q0 27 11.5 58t31.5 56l618 776q23 29 54.5 41.5t62.5 12.5q25 0 48 -6.5t40 -19.5t27 -34t10 -49v-723h107q57 0 82.5 -32.5t25.5 -86.5t-25.5 -86t-82.5 -32h-107v-193q0 -57 -34.5 -81.5t-88.5 -24.5t-87.5 24.5t-33.5 81.5v193h-534q-27 0 -50 10t-39.5 27.5 t-26 40t-9.5 47.5zM369 520h327v408h-4z" />
<glyph unicode="5" horiz-adv-x="1233" d="M100 145q0 51 27.5 84t77.5 33q38 0 78 -6.5t84 -14t93.5 -14t106.5 -6.5q154 0 226.5 51t72.5 146t-61 150t-193 55q-73 0 -123 -9.5t-88 -20.5t-70 -20.5t-69 -9.5q-57 0 -93 26.5t-36 82.5v553q0 56 36 81t89 25h703q27 0 46 -9.5t31 -25.5t17.5 -37.5t5.5 -46.5 q0 -24 -5.5 -45.5t-17.5 -37.5t-31 -25.5t-46 -9.5h-576v-279h4q42 14 107 25.5t168 11.5q117 0 203 -22t142.5 -71.5t83.5 -130.5t27 -198q0 -131 -41.5 -217.5t-116 -138t-177.5 -73t-226 -21.5q-106 0 -191 6.5t-144.5 24.5t-91.5 50.5t-32 83.5z" />
<glyph unicode="6" horiz-adv-x="1233" d="M109 424q0 143 46.5 271.5t129 242.5t195 212.5t245.5 182.5q15 10 34.5 14.5t35.5 4.5q57 0 91 -32t34 -89q0 -17 -5.5 -33.5t-13.5 -31.5t-18.5 -26.5t-20.5 -17.5q-105 -66 -194 -140t-154 -161h8q31 8 74.5 14.5t77.5 6.5q121 0 210 -17t147.5 -62.5t87 -126.5 t28.5 -208q0 -105 -24 -188.5t-83 -141t-159 -88t-252 -30.5q-144 0 -243.5 28t-161 83.5t-88.5 138.5t-27 194zM373 410q0 -43 9.5 -80t37.5 -64.5t77.5 -43t129.5 -15.5q84 0 135 14.5t79.5 42t38 67.5t9.5 91q0 55 -9 93.5t-36.5 62.5t-78 34.5t-134.5 10.5q-23 0 -53 -1 t-61 -3t-61 -4.5t-53 -4.5q-30 -95 -30 -200z" />
<glyph unicode="7" horiz-adv-x="1233" d="M78 1212q0 25 5 46.5t16.5 37.5t30 25.5t46.5 9.5h830q18 0 37.5 -6.5t35.5 -20t26.5 -34.5t10.5 -51q0 -20 -7 -47.5t-19 -55.5l-480 -1044q-21 -47 -57 -68.5t-74 -21.5q-24 0 -48.5 9t-43.5 24.5t-31 37.5t-12 49q0 16 2.5 31.5t11.5 34.5l461 926h-643 q-28 0 -46.5 9.5t-30 25.5t-16.5 37.5t-5 45.5z" />
<glyph unicode="8" horiz-adv-x="1233" d="M94 371q0 69 14 121.5t37.5 91.5t53 66.5t61.5 47.5v13q-24 18 -48.5 41t-43.5 55t-31 76t-12 106q0 97 29 165.5t89 112.5t152.5 64.5t220.5 20.5q127 0 220 -20.5t153.5 -64.5t89.5 -112.5t29 -165.5q0 -62 -11.5 -105.5t-30.5 -75.5t-43.5 -55t-49.5 -42v-13 q33 -22 63 -50t53 -66.5t36.5 -90t13.5 -120.5q0 -122 -37 -198.5t-105.5 -119.5t-165 -58t-215.5 -15t-215.5 15t-164.5 58t-105 119.5t-37 198.5zM348 391q0 -48 13 -82.5t44.5 -57t82.5 -33.5t128 -11t128.5 11t83 33.5t44.5 57t13 82.5q0 46 -13 79.5t-44 55.5 t-82.5 32.5t-129.5 10.5q-77 0 -128.5 -10.5t-82.5 -32.5t-44 -55.5t-13 -79.5zM383 952q0 -48 12 -79t39.5 -49t72 -25.5t109.5 -7.5q66 0 110.5 7.5t72 25.5t39.5 49t12 79t-12.5 81t-40 53.5t-72.5 29t-109 8.5q-65 0 -109 -8.5t-72 -29t-40 -53.5t-12 -81z" />
<glyph unicode="9" horiz-adv-x="1233" d="M94 903q0 105 24 188.5t83 141.5t159 88.5t252 30.5q144 0 243.5 -28t161 -84t89 -139t27.5 -194q0 -143 -47 -271.5t-130 -242.5t-196 -212.5t-246 -182.5q-15 -9 -33.5 -13.5t-34.5 -4.5q-57 0 -90.5 31.5t-33.5 88.5q0 17 5 34t13.5 31.5t18.5 26t20 17.5 q102 65 193 139.5t157 159.5h-8q-12 -3 -30.5 -6.5t-40.5 -6t-45 -4.5t-44 -2q-119 0 -207 17t-145.5 62.5t-86 126t-28.5 208.5zM352 909q0 -55 9 -93t36.5 -62t78 -34.5t134.5 -10.5q22 0 51.5 1t61 2.5t61.5 4l54 4.5q14 46 22 96.5t8 104.5q0 43 -9.5 80t-37.5 64 t-77.5 42.5t-129.5 15.5q-84 0 -135 -14t-79.5 -41.5t-38 -67.5t-9.5 -92z" />
<glyph unicode=":" horiz-adv-x="451" d="M68 141q0 33 11.5 62t32 51t49 34.5t62.5 12.5q33 0 62 -12.5t50 -34.5t33.5 -51t12.5 -62q0 -35 -12.5 -63.5t-33.5 -49.5t-50 -32.5t-62 -11.5q-34 0 -62.5 11.5t-49 32.5t-32 49.5t-11.5 63.5zM68 856q0 33 11.5 62t32 51t49 34.5t62.5 12.5q33 0 62 -12.5t50 -34.5 t33.5 -51t12.5 -62q0 -35 -12.5 -64t-33.5 -50t-50 -32.5t-62 -11.5q-34 0 -62.5 11.5t-49 32.5t-32 50t-11.5 64z" />
<glyph unicode=";" horiz-adv-x="451" d="M23 -211q0 8 1 18t3 15l86 352q9 39 24 65t34 41.5t42 22t47 6.5q63 0 91 -32t28 -78q0 -44 -23 -95l-151 -340q-6 -11 -15 -22.5t-21.5 -21t-27 -15.5t-30.5 -6q-19 0 -35 7.5t-28 20.5t-18.5 29t-6.5 33zM68 856q0 33 11.5 62t32 51t49 34.5t62.5 12.5q33 0 62 -12.5 t50 -34.5t33.5 -51t12.5 -62q0 -35 -12.5 -64t-33.5 -50t-50 -32.5t-62 -11.5q-34 0 -62.5 11.5t-49 32.5t-32 50t-11.5 64z" />
<glyph unicode="&#x3c;" horiz-adv-x="1233" d="M127 686q0 57 35.5 100t89.5 68l709 279q33 13 61 9t48.5 -19.5t32 -39t11.5 -49.5q0 -29 -17.5 -57t-56.5 -45l-663 -244v-4l663 -244q42 -15 58 -44t16 -58q0 -26 -11.5 -49.5t-32 -38.5t-48.5 -19t-61 9l-709 278q-56 22 -90.5 66.5t-34.5 101.5z" />
<glyph unicode="=" horiz-adv-x="1233" d="M127 483q0 48 23 81.5t73 33.5h785q51 0 74.5 -33.5t23.5 -81.5q0 -24 -6 -45t-18 -36.5t-30.5 -25t-43.5 -9.5h-785q-25 0 -43 9.5t-30 25t-17.5 36.5t-5.5 45zM127 893q0 24 5.5 44.5t17.5 36.5t30 25t43 9h785q25 0 43.5 -9t30.5 -25t18 -36.5t6 -44.5 q0 -48 -24 -82.5t-74 -34.5h-785q-50 0 -73 34.5t-23 82.5z" />
<glyph unicode="&#x3e;" horiz-adv-x="1233" d="M127 338q0 29 16 58t58 44l663 244v4l-663 244q-41 14 -57.5 43.5t-16.5 58.5q0 26 11.5 49.5t32.5 39t49 19.5t61 -9l708 -279q56 -22 90.5 -66.5t34.5 -101.5t-35.5 -100t-89.5 -68l-708 -278q-33 -13 -61 -9t-49 19t-32.5 38.5t-11.5 49.5z" />
<glyph unicode="?" horiz-adv-x="958" d="M31 1206q0 20 2 39t12.5 35.5t33 29.5t64.5 22.5t106 14.5t157 5q117 0 205.5 -18t147.5 -58.5t88.5 -105t29.5 -156.5q0 -74 -20 -129t-51 -97.5t-67.5 -76.5t-69.5 -66t-57 -66t-30 -77q-3 -16 -7.5 -35.5t-18 -36t-39 -28t-68.5 -11.5q-60 0 -92.5 28t-32.5 97 q0 60 21.5 106.5t53.5 84.5t69 71t69 66t53.5 69.5t21.5 81.5q0 30 -10.5 54t-34.5 40.5t-63 25.5t-96 9q-42 0 -81 -3.5t-73.5 -7.5t-64 -7.5t-52.5 -3.5q-51 0 -78.5 23.5t-27.5 80.5zM287 141q0 33 11.5 62t32 51t49 34.5t62.5 12.5q33 0 62 -12.5t50 -34.5t33.5 -51 t12.5 -62q0 -35 -12.5 -63.5t-33.5 -49.5t-50 -32.5t-62 -11.5q-34 0 -62.5 11.5t-49 32.5t-32 49.5t-11.5 63.5z" />
<glyph unicode="@" horiz-adv-x="1731" d="M131 551q0 216 56.5 368.5t155.5 248.5t233 140t290 44q104 0 200 -14t178.5 -46t149.5 -85t114.5 -130t73.5 -181.5t26 -240.5q0 -110 -27 -195.5t-75.5 -149.5t-116 -107.5t-148 -71t-171.5 -39.5t-187 -12q-81 0 -153 10.5t-125.5 41.5t-84.5 87t-31 148 q0 74 11 128.5t43 90.5t91.5 53.5t156.5 17.5h251v70q0 28 -7.5 45.5t-25.5 28t-48.5 14.5t-75.5 4q-63 0 -128.5 -10t-133.5 -10q-42 0 -60 26t-18 64q0 29 16.5 50.5t56.5 36t107.5 21.5t169.5 7t169 -17t106 -53.5t55 -94t16 -139.5v-342v-31.5t-2 -29.5q29 16 57 42.5 t50 67t35.5 97t13.5 131.5q0 115 -21.5 199t-58.5 143t-87.5 96t-109.5 57.5t-123.5 27.5t-128.5 7q-98 0 -193 -27.5t-170.5 -96.5t-122 -187t-46.5 -299q0 -177 41 -300t111 -199t163 -110t197 -34q49 0 94 6.5t85.5 14t76 14t65.5 6.5q44 0 72.5 -19t28.5 -61 q0 -29 -19.5 -51t-44.5 -33q-21 -11 -56.5 -21t-82 -18t-102.5 -13t-117 -5q-163 0 -295 48t-225.5 148.5t-144 255t-50.5 367.5zM690 369q0 -30 8 -50t28 -32.5t54 -17.5t86 -5q48 0 81.5 3.5t54.5 13t30.5 26t9.5 41.5v139h-206q-45 0 -73.5 -4.5t-44.5 -17.5t-22 -36 t-6 -60z" />
<glyph unicode="A" horiz-adv-x="1417" d="M24 78q-2 8 -1 17q0 29 16 65l475 1059q32 72 82 102.5t109 30.5q68 0 114.5 -35t75.5 -98l477 -1059q15 -35 15 -63q1 -9 -1 -19q-6 -36 -30 -57.5t-59 -30.5q-21 -5 -42 -5q-14 0 -29 2q-36 6 -67.5 28.5t-48.5 62.5l-115 268h-583l-111 -266q-17 -40 -49 -63t-68 -30 q-16 -3 -32 -3q-19 0 -39 4q-35 8 -59 31t-30 59zM508 580h389l-180 430h-29z" />
<glyph unicode="B" horiz-adv-x="1350" d="M162 109v1112q0 57 36.5 83.5t90.5 26.5h465q132 0 219.5 -19t139.5 -63.5t73.5 -116.5t21.5 -178q0 -51 -11 -92.5t-29 -73t-42 -54t-49 -36.5v-6q32 -14 62.5 -35.5t54.5 -54.5t38.5 -79.5t14.5 -110.5q0 -106 -21 -183.5t-75.5 -128.5t-150 -75.5t-244.5 -24.5h-471 q-56 0 -89.5 26.5t-33.5 82.5zM428 238h326q69 0 113 9.5t69.5 30.5t35 55.5t9.5 84.5q0 43 -13 71t-41.5 44.5t-73 23t-108.5 6.5h-98q-57 0 -78.5 32t-21.5 83t21.5 82t78.5 31h107q60 0 97 6.5t57.5 24t28 47.5t7.5 77q0 48 -9.5 77.5t-31.5 45.5t-58 21.5t-89 5.5h-328 v-858z" />
<glyph unicode="C" horiz-adv-x="1182" d="M131 653q0 207 30.5 342.5t99.5 214.5t179 110.5t269 31.5q138 0 221 -7t127.5 -24t58.5 -45t14 -70q0 -25 -5.5 -47.5t-17.5 -39t-31.5 -26.5t-47.5 -10q-32 0 -71 4t-80 8.5t-82 8.5t-78 4q-60 0 -107 -5t-82.5 -21.5t-60.5 -47t-40.5 -80.5t-22.5 -123t-7 -174t9 -172 t27 -119t45.5 -76t63.5 -42.5t81.5 -18.5t99.5 -4q38 0 77 4t77.5 8.5t76.5 8.5t74 4q28 0 47.5 -9.5t31.5 -25.5t17.5 -37.5t5.5 -46.5q0 -47 -17.5 -76.5t-64.5 -46t-129 -22.5t-210 -6q-104 0 -187.5 10t-147.5 36.5t-110 73.5t-75.5 122t-43.5 181t-14 250z" />
<glyph unicode="D" horiz-adv-x="1468" d="M162 109v1112q0 56 36.5 83t92.5 27h442q106 0 192.5 -10t154 -36.5t117.5 -73.5t82.5 -121.5t48 -180.5t15.5 -250t-18.5 -248.5t-55 -178t-89 -119t-120 -70.5t-150 -34t-177.5 -9h-442q-28 0 -51.5 6t-41 19t-27 34t-9.5 50zM428 242h295q87 0 153 14t110.5 58.5 t67.5 127t23 220.5q0 139 -22 223.5t-66 130.5t-110.5 61t-155.5 15h-295v-850z" />
<glyph unicode="E" horiz-adv-x="1223" d="M162 111v1110q0 57 36.5 83.5t90.5 26.5h768q57 0 80.5 -35t23.5 -86q0 -25 -5.5 -46.5t-18 -37.5t-32.5 -25t-48 -9h-629v-295h481q28 0 48 -9t33 -25t18.5 -38t5.5 -47q0 -51 -24 -85t-81 -34h-481v-317h649q28 0 47.5 -9t32 -25t18 -38t5.5 -47q0 -26 -5.5 -48 t-18 -39t-32 -26.5t-47.5 -9.5h-788q-54 0 -90.5 27t-36.5 84z" />
<glyph unicode="F" horiz-adv-x="1233" d="M162 109v1112q0 57 36.5 83.5t90.5 26.5h788q57 0 81 -35t24 -86t-24 -84.5t-81 -33.5h-649v-283h522q57 0 80 -34t23 -85q0 -25 -5.5 -47t-17.5 -38t-32 -25t-48 -9h-522v-462q0 -29 -10.5 -50t-29 -34t-42.5 -19t-51 -6t-51 6t-42.5 19t-29 34t-10.5 50z" />
<glyph unicode="G" horiz-adv-x="1440" d="M131 653q0 141 15 248t47 184.5t82 129t120.5 82t162.5 43t208 12.5q61 0 125.5 -3.5t119.5 -8t94 -9.5t50 -8q48 -14 69 -45.5t21 -81.5q0 -51 -22 -83t-78 -32q-37 0 -80 4t-90 9.5t-98 9.5t-103 4q-70 0 -125 -4.5t-97 -20.5t-71.5 -45.5t-48 -79.5t-27 -124 t-8.5 -177q0 -98 9.5 -168t29 -118.5t48.5 -78t68 -45.5t87 -21t106 -5q84 0 142 16t94 51t51 90q12 45 12 107v25h-233q-57 0 -80.5 33.5t-23.5 83.5q0 25 5.5 47.5t18 39t32 26.5t48.5 10h371q26 0 49 -6.5t40.5 -21t27.5 -36t10 -51.5q0 -126 -11 -224t-37.5 -170.5 t-69.5 -122.5t-106.5 -80.5t-149.5 -44t-198 -13.5q-103 0 -187.5 9.5t-152 35.5t-117.5 73t-83 121.5t-49.5 181t-16.5 252.5z" />
<glyph unicode="H" horiz-adv-x="1456" d="M162 94v1141q0 29 10.5 50.5t28.5 35.5t42 20.5t52 6.5q26 0 50 -6.5t42.5 -20.5t29.5 -35.5t11 -50.5v-436h600v436q0 29 10.5 50.5t28.5 35.5t42 20.5t52 6.5q27 0 51 -6.5t42.5 -20.5t29 -35.5t10.5 -50.5v-1141q0 -30 -10.5 -51t-29 -34t-42.5 -19t-51 -6 q-28 0 -52 6t-42 19t-28.5 34t-10.5 51v465h-600v-465q0 -30 -11 -51t-29.5 -34t-42.5 -19t-50 -6q-28 0 -52 6t-42 19t-28.5 34t-10.5 51z" />
<glyph unicode="I" horiz-adv-x="831" d="M57 117q0 52 23 84t80 32h123v863h-123q-57 0 -80 32t-23 84q0 53 23 86t80 33h512q57 0 79.5 -33t22.5 -86q0 -52 -22.5 -84t-79.5 -32h-123v-863h123q57 0 79.5 -32t22.5 -84q0 -53 -22.5 -85t-79.5 -32h-512q-57 0 -80 32t-23 85z" />
<glyph unicode="J" horiz-adv-x="1110" d="M53 403v37q0 29 10 50t27.5 34t41 19t50.5 6q28 0 51.5 -6t40.5 -19t27 -34t10 -50v-14q0 -75 8 -118.5t29 -66t57.5 -28.5t92.5 -6t92 5.5t57 27.5t29 66t8 120v813q0 29 10.5 50t28 34t41 19t49.5 6q27 0 52 -6t43.5 -19t30 -34t11.5 -50v-836q0 -124 -22.5 -205.5 t-75 -130t-139.5 -68t-215 -19.5q-78 0 -141.5 5t-113 21t-85.5 44.5t-59.5 75.5t-34.5 115t-11 162z" />
<glyph unicode="K" horiz-adv-x="1286" d="M162 94v1141q0 29 10.5 50.5t28 35.5t41.5 20.5t51 6.5t51.5 -6.5t43 -20.5t29.5 -35.5t11 -50.5v-1141q0 -30 -11 -51t-29.5 -34t-43 -19t-51.5 -6t-51 6t-41.5 19t-28 34t-10.5 51zM483 645q0 43 22 91t73 104l430 465q40 43 92 43q26 0 51 -9t44.5 -25t31.5 -37.5 t12 -45.5q0 -17 -6 -35.5t-25 -38.5l-473 -498l484 -442q26 -22 36.5 -53.5t10.5 -57.5q0 -30 -10.5 -53.5t-28.5 -39t-42.5 -23.5t-51.5 -8q-19 0 -41 9t-37 23l-482 453q-46 43 -68 88t-22 90z" />
<glyph unicode="L" horiz-adv-x="1122" d="M162 109v1120q0 28 10.5 49t28 34.5t41.5 20t51 6.5q54 0 91.5 -26.5t37.5 -83.5v-987h569q28 0 47.5 -9.5t32 -26t18 -38.5t5.5 -47q0 -51 -24 -86t-79 -35h-700q-27 0 -50.5 6t-41 19t-27.5 34t-10 50z" />
<glyph unicode="M" horiz-adv-x="1634" d="M164 94v1041q0 58 16 99t43 67.5t62 38.5t73 12q72 0 122 -37.5t79 -95.5l262 -510l258 510q31 61 78 97t115 36q37 0 73 -12t63.5 -38.5t44.5 -67.5t17 -99v-1041q0 -57 -37.5 -83.5t-91.5 -26.5q-27 0 -50 6.5t-40 20t-27 34t-10 49.5v862h-2l-219 -419 q-11 -22 -24.5 -43t-33.5 -38t-49 -27.5t-71 -10.5q-40 0 -67 10t-46.5 26.5t-33 38t-25.5 44.5l-221 419h-2v-862q0 -29 -10 -49.5t-27.5 -34t-41 -20t-50.5 -6.5q-54 0 -90.5 26.5t-36.5 83.5z" />
<glyph unicode="N" horiz-adv-x="1509" d="M164 94v1041q0 58 16 99t41.5 66.5t58 37.5t64.5 12q45 0 78 -10.5t58 -28t44 -41t35 -49.5l531 -856h8v872q0 57 36 84t89 27q55 0 89 -27t34 -84v-1040q0 -59 -17 -100t-43 -67t-59 -38t-64 -12q-45 0 -77.5 11t-56.5 29t-42.5 41.5t-34.5 49.5l-534 858h-4v-875 q0 -29 -10 -49.5t-27.5 -34t-40.5 -20t-49 -6.5q-57 0 -90 26.5t-33 83.5z" />
<glyph unicode="O" horiz-adv-x="1495" d="M131 653q0 143 14 251t44.5 185.5t79 128.5t117 80.5t158.5 41.5t204 12q113 0 203 -12t158.5 -42t117 -80.5t79 -128t44.5 -185.5t14 -251q0 -144 -14 -250t-44.5 -181t-79 -122t-117 -73.5t-158.5 -36.5t-203 -10q-114 0 -204 10t-158.5 36.5t-117 73.5t-79 122 t-44.5 181t-14 250zM397 657q0 -104 8.5 -176.5t26 -121t45.5 -76t67 -41.5t89.5 -17.5t114.5 -3.5q63 0 113.5 3.5t89.5 17.5t67 41.5t45.5 76t26 121t8.5 176.5q0 106 -8.5 181.5t-26 126t-45.5 80t-67 44.5t-89.5 19t-113.5 4q-64 0 -114.5 -4t-89.5 -19t-67 -44.5 t-45.5 -80t-26 -126t-8.5 -181.5z" />
<glyph unicode="P" horiz-adv-x="1315" d="M162 92v1129q0 55 33.5 82.5t89.5 27.5h534q119 0 202.5 -19t136 -65.5t76 -125t23.5 -197.5q0 -95 -17.5 -172.5t-65.5 -133t-133.5 -86t-221.5 -30.5h-391v-410q0 -29 -10.5 -49.5t-29 -33.5t-42.5 -19t-51 -6t-51 6t-42.5 19t-29 33.5t-10.5 49.5zM428 735h391 q48 0 80.5 10.5t53 33t29.5 58t9 85.5t-9 82.5t-29.5 52t-54 27.5t-81.5 8h-389v-357z" />
<glyph unicode="Q" horiz-adv-x="1495" d="M131 653q0 143 14 251t44.5 185.5t79 128.5t117 80.5t158.5 41.5t204 12q113 0 203 -12t158.5 -42t117 -80.5t79 -128t44.5 -185.5t14 -251q0 -204 -32 -333.5t-101 -204.5l43 -54q22 -31 22 -59q0 -25 -14 -47t-39 -41q-40 -31 -80 -31q-20 0 -38 8.5t-33 28.5l-68 84 q-59 -14 -127 -19t-149 -5q-114 0 -204 10t-158.5 36.5t-117 73.5t-79 122t-44.5 181t-14 250zM397 657q0 -104 8.5 -176.5t26 -121t45.5 -76t67 -41.5t89.5 -17.5t114.5 -3.5h55t49 2l-51 68q-11 14 -16 27.5t-5 27.5q0 26 14.5 50t39.5 42q38 31 79 31q19 0 37 -8.5 t33 -28.5l72 -92q21 48 32 125t11 192q0 106 -8.5 181.5t-26 126t-45.5 80t-67 44.5t-89.5 19t-113.5 4q-64 0 -114.5 -4t-89.5 -19t-67 -44.5t-45.5 -80t-26 -126t-8.5 -181.5z" />
<glyph unicode="R" horiz-adv-x="1339" d="M162 92v1129q0 55 33.5 82.5t89.5 27.5h520q119 0 202 -19t135.5 -65.5t76.5 -125t24 -197.5q0 -85 -13 -149.5t-47 -111.5t-94.5 -78.5t-154.5 -49.5v-7l313 -311q35 -35 45 -73q5 -19 5 -36q-1 -17 -5 -33q-10 -32 -34.5 -55.5t-57.5 -31.5q-13 -3 -27 -3q-21 0 -43 7 q-38 11 -73 49l-406 432q-44 47 -56 93q-6 24 -6 46q-1 20 5 38q12 37 44 60t77 23h90q48 0 80.5 10.5t53 33.5t29.5 59t9 86t-9 82.5t-29.5 52t-54 27.5t-81.5 8h-375v-1000q0 -29 -10.5 -49.5t-29 -33.5t-42.5 -19t-51 -6t-51 6t-42.5 19t-29 33.5t-10.5 49.5z" />
<glyph unicode="S" horiz-adv-x="1264" d="M106 145q0 51 27.5 87t77.5 36q38 0 86.5 -6.5t99.5 -14t101 -14t92 -6.5q152 0 228.5 38t76.5 132q0 56 -33.5 85t-88 43t-124.5 20t-143 16t-143 30t-124.5 63t-88 115.5t-33.5 186.5q0 102 32.5 176.5t101.5 123t175.5 72.5t253.5 24q89 0 167.5 -6.5t137 -23.5 t92 -46t33.5 -74q0 -56 -32.5 -87.5t-82.5 -31.5q-37 0 -79 4.5t-86 10t-88 10t-83 4.5q-144 0 -211 -40.5t-67 -113.5q0 -58 33.5 -88t88 -45t124 -21t142.5 -15.5t142.5 -28.5t124 -59t88 -108.5t33.5 -176.5t-31 -189.5t-99 -136t-176 -82.5t-261 -28q-90 0 -177 6.5 t-155 24.5t-110 50.5t-42 83.5z" />
<glyph unicode="T" horiz-adv-x="1282" d="M41 1210q0 51 23 86t79 35h996q55 0 78.5 -35t23.5 -86q0 -50 -23.5 -84t-78.5 -34h-365v-1000q0 -29 -10.5 -49.5t-29 -33.5t-42.5 -19t-51 -6t-51 6t-42.5 19t-29 33.5t-10.5 49.5v1000h-365q-28 0 -47.5 9t-31.5 25t-17.5 37.5t-5.5 46.5z" />
<glyph unicode="U" horiz-adv-x="1440" d="M160 440v799q0 29 10.5 50t29 34t42.5 19t51 6t51 -6t42.5 -19t29 -34t10.5 -50v-774q0 -79 15.5 -127.5t50 -74.5t89.5 -35t134 -9t136 9t93.5 35t54 74.5t17.5 127.5v774q0 29 10.5 50t29 34t42.5 19t51 6t51 -6t41.5 -19t28 -34t10.5 -50v-799q0 -106 -17 -181.5 t-50 -127t-81.5 -81.5t-111 -45.5t-139.5 -20t-166 -4.5q-90 0 -166 4.5t-137.5 20t-108.5 45.5t-79 81.5t-48 126.5t-16 182z" />
<glyph unicode="V" horiz-adv-x="1393" d="M28 1244q6 36 29 60q23 26 58 36q23 7 46 6q13 0 25 -2q36 -6 67 -28t48 -63l385 -915h29l379 913q18 43 49.5 66t66.5 27l20 2q25 0 49 -8q34 -11 56.5 -35.5t28.5 -60.5q2 -9 2 -20q0 -29 -14 -61l-461 -1048q-32 -73 -83.5 -103t-109.5 -30q-68 0 -116 35t-76 98 l-463 1048q-16 37 -16 67q0 8 1 16z" />
<glyph unicode="W" horiz-adv-x="2036" d="M29 1244q6 36 29 60q24 26 58 36q23 7 45 6q13 0 25 -2q36 -6 67 -28t48 -63l381 -919h29l163 397l-192 430q-16 37 -16 67q0 8 1 16q6 36 29 60q22 26 56 36q22 7 45 6q12 0 24 -2q35 -6 65.5 -28t47.5 -63l86 -215l84 213q17 44 48.5 67t65.5 28q10 2 21 2q23 0 47 -8 q34 -12 56 -36q22 -26 28 -62l2 -16q0 -30 -16 -65l-193 -428l172 -397h29l373 915q18 43 49.5 66t66.5 27l20 2q25 0 49 -8q34 -11 56 -36q24 -24 30 -60q2 -9 1 -20q0 -29 -14 -61l-455 -1048q-31 -72 -80.5 -102.5t-109.5 -30.5q-68 0 -115.5 35t-75.5 98l-139 317 l-137 -317q-31 -73 -82.5 -103t-110.5 -30q-68 0 -115 35t-75 98l-457 1048q-15 36 -15 66q0 9 1 17z" />
<glyph unicode="X" horiz-adv-x="1249" d="M16 129q6 36 39 74l404 473l-398 465q-29 35 -33 69q-1 7 -1 14q0 28 11 50q14 28 42 48t62 24q8 1 16 1q26 0 52 -11q35 -14 64 -52l351 -412l350 412q31 36 67 50q27 10 54 10q8 0 16 -2q34 -4 61 -23t40.5 -47t9 -62t-34.5 -69l-397 -465l403 -473q32 -38 38 -74 q2 -13 3 -25q1 -22 -7 -40q-12 -30 -38 -50q-24 -20 -56 -26q-11 -2 -23 -2q-21 0 -43 7q-34 11 -62 44l-381 444l-381 -444q-28 -33 -62 -44q-22 -7 -43 -7q-12 0 -23 2q-32 6 -58 26q-24 20 -36 50q-7 19 -8 40q0 12 2 25z" />
<glyph unicode="Y" horiz-adv-x="1180" d="M16 1235q0 59 35 86t90 27q46 0 76 -24.5t51 -55.5l322 -475l321 475q22 32 52 56t75 24q56 0 90.5 -25t34.5 -84q0 -15 -4 -34t-12 -31l-424 -613v-469q0 -29 -10.5 -49.5t-29 -33.5t-42.5 -19t-51 -6q-28 0 -52 6t-42 19t-28.5 33.5t-10.5 49.5v471l-422 611 q-6 11 -12.5 27.5t-6.5 33.5z" />
<glyph unicode="Z" horiz-adv-x="1194" d="M25 180q0 22 6 45.5t16.5 46.5t23.5 43t27 35l725 742h-671q-28 0 -47.5 9.5t-32 25.5t-18 38t-5.5 47q0 51 23.5 85t79.5 34h800q39 0 74 -14.5t61 -39.5t41 -59t15 -73q0 -23 -6 -46t-15.5 -44t-22.5 -39t-28 -33l-723 -741h711q28 0 47.5 -9.5t31.5 -26t17.5 -38.5 t5.5 -47q0 -51 -22.5 -86t-79.5 -35h-848q-40 0 -74 12.5t-59 36t-39 57t-14 74.5z" />
<glyph unicode="[" horiz-adv-x="586" d="M135 -117v1325q0 85 13.5 140t46 87t86 44t133.5 12h61q54 0 75 -32.5t21 -80.5q0 -24 -5 -44.5t-16 -35.5t-29.5 -23.5t-45.5 -8.5h-59q-14 0 -27.5 -10t-13.5 -33v-1354q0 -23 13.5 -33t27.5 -10h59q27 0 45.5 -9t29.5 -24.5t16 -36t5 -43.5q0 -24 -5 -44.5t-16 -35.5 t-29.5 -23.5t-45.5 -8.5h-61q-80 0 -133.5 10.5t-86 41.5t-46 86t-13.5 144z" />
<glyph unicode="\" horiz-adv-x="918" d="M4 1323q0 18 9.5 34t24.5 28t33 19t35 7q19 0 37.5 -9.5t30.5 -31.5l727 -1323q12 -24 12 -43q0 -15 -8 -30.5t-21.5 -28t-31.5 -20t-39 -7.5q-20 0 -38.5 8.5t-31.5 30.5l-727 1323q-12 24 -12 43z" />
<glyph unicode="]" horiz-adv-x="586" d="M14 -287q0 23 5 43.5t16.5 36t30 24.5t45.5 9h59q14 0 27.5 10t13.5 33v1354q0 23 -13.5 33t-27.5 10h-59q-27 0 -45.5 8.5t-30 23.5t-16.5 35.5t-5 44.5q0 48 21.5 80.5t75.5 32.5h61q80 0 133.5 -12t86 -44t46 -87t13.5 -140v-1325q0 -89 -13.5 -144t-46 -86t-86 -41.5 t-133.5 -10.5h-61q-27 0 -45.5 8.5t-30 23.5t-16.5 35.5t-5 44.5z" />
<glyph unicode="^" horiz-adv-x="559" d="M-14 1233q0 32 16.5 61.5t42.5 38.5l74 27l33 10q40 12 69.5 22.5t52.5 8.5q45 0 129 -31q24 -8 53.5 -16t55.5 -22.5t43.5 -37.5t17.5 -61q0 -24 -7 -43.5t-18.5 -34t-25.5 -22t-28 -7.5q-5 0 -13.5 1.5t-13.5 5.5h2q-50 15 -96.5 31.5t-96.5 31.5l-188 -63h2 q-5 -4 -11 -4.5t-11 -0.5q-15 0 -29.5 7.5t-26 21t-19 33t-7.5 43.5z" />
<glyph unicode="_" horiz-adv-x="733" d="M-96 -190q0 24 5.5 44.5t17 36t29.5 24.5t44 9h733q25 0 43.5 -9t30.5 -24.5t18 -36t6 -44.5q0 -48 -23.5 -82.5t-74.5 -34.5h-733q-51 0 -73.5 34.5t-22.5 82.5z" />
<glyph unicode="`" horiz-adv-x="573" d="M10 1294q0 19 8.5 37t23 32t33.5 22t40 8q20 0 39 -8.5t39 -28.5l137 -139q14 -14 20 -30t6 -30q0 -31 -24.5 -52.5t-59.5 -21.5q-31 0 -61 21l-160 119q-21 15 -31 34t-10 37z" />
<glyph unicode="a" horiz-adv-x="1149" d="M94 305q0 85 14.5 145.5t60 99.5t130.5 57t225 18h234v41q0 37 -8.5 61.5t-30.5 38.5t-59 19.5t-95 5.5q-57 0 -103.5 -4t-84 -8.5t-66.5 -8.5t-51 -4q-60 0 -84 31.5t-24 85.5q0 34 17 60.5t60 44.5t117.5 27t190.5 9q142 0 233.5 -13.5t144.5 -51t74 -103t21 -170.5 v-387q0 -101 -24.5 -163.5t-80 -97t-146 -46.5t-222.5 -12t-218 12t-136 47t-69.5 98.5t-19.5 167.5zM342 313q0 -32 7.5 -53.5t29.5 -34t61.5 -17.5t104.5 -5q64 0 105 4t65 13t33.5 24t9.5 37v137h-248q-53 0 -86 -5t-51 -17.5t-24.5 -32.5t-6.5 -50z" />
<glyph unicode="b" horiz-adv-x="1229" d="M139 500v768q0 27 11 47t29 32.5t41.5 18.5t49.5 6t49 -6t40.5 -18.5t27.5 -32.5t10 -47v-277q42 13 102 23t142 10q91 0 162 -9t125 -31t91.5 -59.5t61.5 -95.5t34.5 -138t10.5 -187q0 -163 -24 -265t-81 -159.5t-150.5 -78.5t-231.5 -21q-92 0 -164.5 7.5t-128 28 t-95 57t-64.5 94t-36.5 139.5t-11.5 194zM395 504q0 -100 12 -159t40.5 -89.5t75 -39.5t116.5 -9q66 0 110.5 8t72 38t39 89.5t11.5 161.5q0 96 -13.5 154t-41.5 88.5t-72.5 40.5t-105.5 10q-65 0 -111.5 -7.5t-76 -36.5t-43 -87.5t-13.5 -161.5z" />
<glyph unicode="c" horiz-adv-x="991" d="M131 354v287q0 110 23 183.5t77 118t143 63t220 18.5q117 0 184.5 -9.5t101 -27.5t42 -45t8.5 -61q0 -50 -20.5 -78.5t-75.5 -28.5q-27 0 -53 3t-55 6.5t-62.5 6.5t-75.5 3q-59 0 -98.5 -9.5t-62.5 -29t-32.5 -49.5t-9.5 -70v-270q0 -34 8.5 -62t31.5 -48t62 -31t101 -11 q38 0 69 3t59 7t55.5 7t57.5 3q56 0 78.5 -30.5t22.5 -81.5q0 -48 -21.5 -75t-66.5 -40q-22 -6 -87 -16t-177 -10q-131 0 -217 23t-137 69.5t-72 116.5t-21 165z" />
<glyph unicode="d" horiz-adv-x="1227" d="M102 500q0 162 24.5 264t82 160t151.5 79t232 21q78 0 135.5 -8.5t99.5 -18.5v291q0 28 10.5 49t28 34t41 19.5t49.5 6.5t49.5 -6.5t41 -19.5t28 -34t10.5 -49v-788q0 -163 -25.5 -264.5t-83.5 -158.5t-152.5 -77t-231.5 -20q-92 0 -164.5 8.5t-126.5 30t-92 59t-62 95 t-34.5 138t-10.5 189.5zM356 504q0 -100 10.5 -159t37 -89.5t72 -39.5t116.5 -9q70 0 116 9t73.5 39.5t38.5 89.5t11 159q0 103 -11 161.5t-38.5 87.5t-73.5 36.5t-116 7.5q-71 0 -116.5 -7.5t-72 -36.5t-37 -87.5t-10.5 -161.5z" />
<glyph unicode="e" horiz-adv-x="1171" d="M131 367v266q0 117 26 193t83.5 120t148 61t219.5 17q126 0 211.5 -18t137 -62.5t74 -118.5t22.5 -186v-117q0 -66 -26 -92.5t-83 -26.5h-559v-51q0 -80 55 -113.5t166 -33.5q42 0 87 3t88 6t81.5 6t67.5 3q55 0 80.5 -21t25.5 -79q0 -47 -17.5 -73t-68.5 -40 q-15 -5 -46.5 -10t-75 -9.5t-97.5 -7.5t-115 -3q-137 0 -230 18.5t-149.5 63.5t-81 119.5t-24.5 185.5zM385 606h418v45q0 45 -9.5 74.5t-33.5 47t-64.5 24t-101.5 6.5q-58 0 -98 -6t-64.5 -23t-35.5 -46.5t-11 -76.5v-45z" />
<glyph unicode="f" horiz-adv-x="762" d="M20 887q0 50 22.5 83.5t78.5 33.5h98v30q0 100 16 165t55.5 103.5t105.5 54t167 15.5q89 0 143 -6t83 -20.5t38 -38.5t9 -60q0 -52 -34 -79t-85 -27q-14 0 -33.5 1t-40.5 2l-42 2t-38 1q-29 0 -46.5 -5t-28 -17t-14 -33t-3.5 -52v-36h182q57 0 80 -33t23 -84t-23 -84 t-80 -33h-182v-680q0 -57 -36.5 -81.5t-90.5 -24.5q-26 0 -49 6t-40 18.5t-26.5 32.5t-9.5 49v680h-98q-56 0 -78.5 33t-22.5 84z" />
<glyph unicode="g" horiz-adv-x="1253" d="M143 -57v757q0 108 25 172t80.5 97.5t145 44t218.5 10.5q36 0 72.5 -1t70.5 -4t63.5 -7.5t51.5 -10.5h7v93q0 27 10 46t27 31t39.5 17.5t47.5 5.5t47 -5.5t39 -17.5t27 -31t10 -46v-426q0 -103 -27 -168t-84 -101.5t-145.5 -49.5t-212.5 -13q-48 0 -86 2t-68.5 5 t-55.5 7.5t-48 9.5h-6v-127h408q103 0 172.5 -15t111.5 -48.5t60 -88t18 -132.5q0 -98 -26.5 -164.5t-88.5 -107t-163.5 -58.5t-251.5 -18q-135 0 -228.5 16t-151 55.5t-83 105.5t-25.5 165zM391 12v-49q0 -45 10 -72.5t37 -42.5t74.5 -20.5t122.5 -5.5q84 0 137.5 5 t85 17.5t43.5 33t12 52.5q0 24 -6.5 40t-24.5 25t-49 13t-79 4h-363zM391 651q0 -30 8 -49t33.5 -29.5t73 -14t127.5 -3.5q84 0 133 4.5t73.5 18.5t31 40t6.5 68v100q-39 7 -103.5 12t-152.5 5q-79 0 -125 -5.5t-69 -18.5t-29.5 -33.5t-6.5 -51.5v-43z" />
<glyph unicode="h" horiz-adv-x="1219" d="M143 90v1174q0 28 10.5 48.5t28 33.5t41 19.5t49.5 6.5q54 0 91.5 -26t37.5 -82v-265q21 5 49.5 9.5t59.5 8t62 5.5t57 2q87 0 154 -5.5t116.5 -22t83 -46t54 -77.5t29.5 -117t9 -164v-502q0 -29 -10 -49t-27.5 -32.5t-40.5 -18.5t-49 -6t-48.5 6t-39.5 18.5t-27 32.5 t-10 49v490q0 70 -7 112.5t-29.5 65.5t-65 31t-113.5 8q-24 0 -53.5 -2t-58 -5t-54 -6.5t-41.5 -7.5v-686q0 -57 -37.5 -81.5t-91.5 -24.5q-26 0 -49.5 6t-41 18.5t-28 32.5t-10.5 49z" />
<glyph unicode="i" horiz-adv-x="541" d="M129 1247q0 30 11 56.5t29.5 46.5t44.5 31.5t56 11.5t56.5 -11.5t46.5 -31.5t31.5 -46.5t11.5 -56.5t-11.5 -56t-31.5 -45.5t-46.5 -30.5t-56.5 -11t-56 11t-44.5 30.5t-29.5 45.5t-11 56zM143 90v821q0 28 10 49t27.5 34t40.5 19.5t49 6.5t49 -6.5t40.5 -19.5t27.5 -34 t10 -49v-821q0 -29 -10 -49t-27.5 -32.5t-40.5 -18.5t-49 -6t-49 6t-40.5 18.5t-27.5 32.5t-10 49z" />
<glyph unicode="j" horiz-adv-x="545" d="M-49 -276q0 24 5 45.5t17 37.5t31 25.5t47 9.5q25 0 42.5 5t28.5 17.5t16 33.5t5 53v954q0 29 10 50t27 34t40 19t50 6q26 0 50 -6t42 -19t28.5 -34t10.5 -50v-964q0 -71 -11.5 -133t-44 -108t-89.5 -72.5t-147 -26.5q-38 0 -67.5 5.5t-49.5 19.5t-30.5 38t-10.5 60z M131 1247q0 30 11 56.5t30 46.5t44.5 31.5t55.5 11.5t56.5 -11.5t46.5 -31.5t31.5 -46.5t11.5 -56.5t-11.5 -56t-31.5 -45.5t-46.5 -30.5t-56.5 -11t-55.5 11t-44.5 30.5t-30 45.5t-11 56z" />
<glyph unicode="k" horiz-adv-x="1100" d="M143 90v1174q0 28 10.5 48.5t28 33.5t41 19.5t49.5 6.5q54 0 91.5 -26t37.5 -82v-664h5l409 373q25 21 57 33t58 12q36 0 66 -20q28 -18 40 -50q6 -16 6 -34t-6 -38q-12 -40 -57 -79l-225 -193l270 -385q31 -43 36 -83q1 -12 1 -23q0 -27 -8 -49q-12 -32 -38 -52t-58 -24 l-16 -2q-25 0 -50 11q-34 14 -62 52l-274 406l-154 -119v-246q0 -57 -37.5 -81.5t-91.5 -24.5q-26 0 -49.5 6t-41 18.5t-28 32.5t-10.5 49z" />
<glyph unicode="l" horiz-adv-x="545" d="M143 90v1174q0 28 10.5 48.5t28 33.5t41 19.5t49.5 6.5q54 0 91.5 -26t37.5 -82v-1174q0 -57 -37.5 -81.5t-91.5 -24.5q-26 0 -49.5 6t-41 18.5t-28 32.5t-10.5 49z" />
<glyph unicode="m" horiz-adv-x="1767" d="M143 90v502q0 143 22 228.5t72.5 130.5t133 59t204.5 14q107 0 182.5 -13t125.5 -42q48 29 122 42t183 13q121 0 204.5 -14t135 -59t74 -130.5t22.5 -228.5v-502q0 -29 -10.5 -49t-28 -32.5t-41 -18.5t-49.5 -6t-49 6t-40 18.5t-26.5 32.5t-9.5 49v483q0 70 -6 113 t-25.5 66t-55.5 31t-95 8t-94 -8t-53 -31t-23.5 -66t-5.5 -113v-483q0 -29 -10 -49t-27.5 -32.5t-40.5 -18.5t-49 -6q-54 0 -90.5 24.5t-36.5 81.5v502q0 64 -8 103.5t-28.5 60.5t-56 28t-90.5 7q-59 0 -94 -8t-54 -31t-24.5 -66t-5.5 -113v-483q0 -29 -10 -49t-27.5 -32.5 t-40.5 -18.5t-49 -6q-27 0 -50 6t-40 18.5t-27 32.5t-10 49z" />
<glyph unicode="n" horiz-adv-x="1219" d="M143 90v502q0 95 8.5 164t29 117t55 77.5t86 46t121.5 22t163 5.5q92 0 162.5 -5.5t123 -22t87.5 -46t56.5 -77.5t30.5 -117t9 -164v-502q0 -29 -10 -49t-27.5 -32.5t-40.5 -18.5t-49 -6t-48.5 6t-39.5 18.5t-27 32.5t-10 49v490q0 70 -7.5 112.5t-30.5 65.5t-65.5 31 t-113.5 8t-112 -8t-63 -31t-28 -65.5t-6 -112.5v-490q0 -29 -10 -49t-27.5 -32.5t-40.5 -18.5t-49 -6q-27 0 -50 6t-40 18.5t-27 32.5t-10 49z" />
<glyph unicode="o" horiz-adv-x="1190" d="M102 492q0 162 24.5 265.5t82 162.5t152 81.5t233.5 22.5q138 0 232 -22.5t152 -81.5t83.5 -162.5t25.5 -265.5q0 -163 -25.5 -263.5t-83.5 -155.5t-152 -74t-232 -19q-139 0 -233.5 19t-152 74t-82 155.5t-24.5 263.5zM356 496q0 -67 4.5 -114t15.5 -79.5t28.5 -51.5 t44 -28.5t62.5 -12.5t83 -3q69 0 115 7.5t74 37t39.5 87t11.5 157.5q0 103 -11.5 162.5t-39.5 90.5t-74 39.5t-115 8.5q-71 0 -117 -8.5t-73 -39.5t-37.5 -90.5t-10.5 -162.5z" />
<glyph unicode="p" horiz-adv-x="1223" d="M139 -256v770q0 163 25.5 263.5t83.5 155t152 73t231 18.5q139 0 232.5 -18.5t150.5 -73t81.5 -155t24.5 -263.5q0 -162 -24 -265.5t-80.5 -163.5t-150.5 -82.5t-234 -22.5q-26 0 -57.5 2.5t-62.5 6t-59.5 8t-48.5 9.5h-6v-262q0 -29 -10.5 -49.5t-28.5 -33t-42 -18 t-50 -5.5q-27 0 -50 5.5t-40 18t-27 33t-10 49.5zM393 510q0 -103 11 -163t38.5 -91t73.5 -40t115 -9q70 0 116 9t73 40t37.5 91t10.5 163q0 100 -10.5 157t-37.5 86t-73 36.5t-116 7.5q-64 0 -109 -7.5t-73.5 -36.5t-42 -86t-13.5 -157z" />
<glyph unicode="q" horiz-adv-x="1225" d="M102 514q0 163 24.5 263.5t81.5 155t151 73t233 18.5q137 0 231.5 -18.5t152.5 -73t83.5 -155t25.5 -263.5v-774q0 -29 -11 -49.5t-29.5 -33.5t-42.5 -18.5t-50 -5.5q-27 0 -49.5 5.5t-39.5 18.5t-26.5 33.5t-9.5 49.5v268h-6q-20 -5 -48.5 -9.5t-60 -9t-63 -7 t-57.5 -2.5q-139 0 -233 22.5t-151 82.5t-81.5 163.5t-24.5 265.5zM354 510q0 -103 16.5 -163t47.5 -91t75 -40t99 -9q53 0 96.5 9t75 40t48.5 91t17 163q0 100 -11 157t-38.5 86t-73 36.5t-114.5 7.5q-71 0 -117 -7.5t-73 -36.5t-37.5 -86t-10.5 -157z" />
<glyph unicode="r" horiz-adv-x="846" d="M143 90v563q0 118 21 190.5t70 112.5t130 54t201 14q78 0 129 -9t80.5 -25.5t41 -40t11.5 -52.5q0 -53 -28 -85t-82 -32q-15 0 -30.5 1t-33.5 2.5t-40.5 3t-51.5 1.5q-51 0 -83 -5t-50 -21t-24.5 -47t-6.5 -82v-543q0 -29 -9.5 -49t-26.5 -32.5t-40 -18.5t-49 -6 q-27 0 -50.5 6t-41 18.5t-27.5 32.5t-10 49z" />
<glyph unicode="s" horiz-adv-x="991" d="M70 702q0 72 25.5 131t80.5 101.5t141.5 66t208.5 23.5q112 0 182 -10t109 -29t52.5 -45.5t13.5 -60.5q0 -50 -24 -75.5t-87 -25.5q-23 0 -47.5 3.5t-55.5 8t-71.5 8t-95.5 3.5q-93 0 -135.5 -18.5t-42.5 -55.5q0 -30 26 -48t68 -30.5t96 -22.5t110 -24t110 -35t96 -55 t68 -85t26 -124q0 -85 -29.5 -146t-87 -100.5t-141.5 -58t-193 -18.5q-132 0 -210.5 9.5t-120 27.5t-54 43t-12.5 57q0 54 24.5 82t87.5 28q24 0 49.5 -4t58 -8.5t73.5 -8t96 -3.5q99 0 152 20.5t53 67.5q0 28 -26 45.5t-68 29.5t-96 22t-110 23.5t-110 34t-96 54t-68 82.5 t-26 120z" />
<glyph unicode="t" horiz-adv-x="815" d="M16 887q0 49 22.5 83t76.5 34h100v161q0 28 10 47.5t27 32.5t39.5 19t48.5 6q54 0 91.5 -25t37.5 -80v-161h211q27 0 44.5 -9t28 -25t15 -37.5t4.5 -45.5q0 -51 -19 -84t-73 -33h-211v-487q0 -22 6 -36.5t16.5 -23.5t24.5 -12.5t29 -3.5q46 0 76.5 3t62.5 3 q51 0 73.5 -25.5t22.5 -74.5q0 -36 -10.5 -61t-40.5 -41t-83.5 -23.5t-139.5 -7.5q-73 0 -127.5 12t-91 43.5t-54.5 86t-18 140.5v508h-100q-54 0 -76.5 33t-22.5 84z" />
<glyph unicode="u" horiz-adv-x="1206" d="M141 412v501q0 28 10 48.5t27 33.5t40 19t50 6q26 0 49 -6t40.5 -19t27.5 -33.5t10 -48.5v-489q0 -70 6 -112.5t27 -66t62 -31t112 -7.5t113 7.5t63.5 31t28 66t6.5 112.5v489q0 28 9.5 48.5t26.5 33.5t40 19t49 6t49 -6t40.5 -19t27.5 -33.5t10 -48.5v-501 q0 -95 -8.5 -164t-29.5 -117t-55.5 -77.5t-85.5 -46t-121.5 -22t-162.5 -5.5q-93 0 -163 5.5t-121.5 22t-85.5 46t-54 77.5t-28.5 117t-8.5 164z" />
<glyph unicode="v" horiz-adv-x="1104" d="M36 924q6 36 28 58t54 32q20 6 40 6q13 0 26 -2q34 -6 63.5 -28.5t45.5 -63.5l239 -617h29l250 615q16 40 46.5 63t64.5 29q15 3 29 3q19 -1 38 -5q33 -8 55 -30q20 -22 26 -58q1 -7 2 -15q0 -30 -17 -67l-328 -731q-32 -73 -74.5 -103t-101.5 -30q-68 0 -113.5 35 t-72.5 98l-316 731q-14 34 -14 63q0 8 1 17z" />
<glyph unicode="w" horiz-adv-x="1759" d="M60 929q8 36 32 57.5t58 29.5q17 4 34 4q16 0 32 -4q32 -8 58.5 -30t36.5 -60l183 -602h28l180 563q19 60 61.5 96.5t119.5 36.5q25 0 50.5 -5.5t49 -20.5t43 -41t31.5 -66l176 -563h29l184 600q12 39 40 62.5t61 31.5q16 4 33 3l33 -3q33 -8 56 -30t31 -58q2 -11 2 -23 q0 -28 -12 -63l-263 -731q-13 -37 -31 -62.5t-40.5 -41t-49 -22.5t-55.5 -7q-68 0 -117 33.5t-69 99.5l-174 561h-29l-182 -561q-12 -38 -30 -63.5t-40.5 -41t-49 -22t-54.5 -6.5q-69 0 -118 34t-71 99l-249 731q-11 33 -11 60q0 13 3 25z" />
<glyph unicode="x" horiz-adv-x="1055" d="M51 98q0 17 5.5 38t21.5 38l295 340l-267 305q-17 20 -24.5 43.5t-7.5 40.5q0 25 10 46t26.5 36.5t38.5 24t46 8.5q55 0 94 -45l241 -277l242 277q7 8 18.5 16t24 14.5t25.5 10.5t24 4q22 0 43.5 -8.5t38.5 -24t27 -36.5t10 -46q0 -18 -7 -40t-26 -44l-264 -303l297 -336 q19 -21 23 -40.5t4 -35.5q0 -24 -10 -45.5t-27 -37.5t-38.5 -25.5t-45.5 -9.5q-23 0 -47.5 12t-50.5 41l-263 295l-258 -295q-28 -31 -51.5 -43t-52.5 -12q-23 0 -44 9t-37 24.5t-25 36t-9 44.5z" />
<glyph unicode="y" horiz-adv-x="1104" d="M35 907q0 27 11.5 48t30 35.5t42 22t47.5 7.5q40 0 77.5 -20.5t57.5 -73.5l231 -617h29l250 615q20 49 57.5 72.5t79.5 23.5q23 0 45 -7t39.5 -21t28 -34t10.5 -45q0 -31 -16 -69l-504 -1145q-22 -50 -61 -74t-82 -24q-23 0 -44.5 7t-38 20t-26.5 32.5t-10 44.5 q0 12 1 23.5t4 24.5t9 29t16 36l103 207q-19 17 -32 38.5t-25 49.5l-316 731q-8 17 -11 33t-3 30z" />
<glyph unicode="z" horiz-adv-x="952" d="M37 127q0 32 14 67.5t45 69.5l461 512h-387q-28 0 -47 8.5t-31 23.5t-17 35.5t-5 45.5q0 50 22 82.5t78 32.5h596q71 0 108 -36.5t37 -88.5q0 -32 -15 -69t-46 -71l-461 -512h424q55 0 77.5 -31.5t22.5 -80.5q0 -51 -22 -83t-78 -32h-627q-72 0 -110.5 36.5t-38.5 90.5z " />
<glyph unicode="{" horiz-adv-x="586" d="M10 582q0 34 6 54.5t17 32.5t27 18t36 11q19 6 30.5 14.5t17.5 23.5t8 37t2 54v340q0 78 10.5 138t40.5 101.5t84 63t141 21.5q36 0 62.5 -4.5t44 -17t26 -34t8.5 -55.5q0 -49 -21 -81.5t-75 -32.5h-18q-37 0 -50.5 -21.5t-13.5 -70.5v-381q0 -49 -13.5 -84t-34 -59 t-45 -39t-46.5 -25v-8q22 -9 46.5 -24.5t45 -39.5t34 -59t13.5 -84v-453q0 -49 13.5 -70.5t50.5 -21.5h18q54 0 75 -32.5t21 -82.5q0 -34 -8.5 -55.5t-26 -33.5t-44 -16.5t-62.5 -4.5q-87 0 -141 22t-84 63.5t-40.5 101.5t-10.5 136v412q0 30 -1.5 52t-7.5 37.5t-17.5 25 t-31.5 14.5t-36 11t-27 18t-17 32.5t-6 55.5z" />
<glyph unicode="|" horiz-adv-x="459" d="M172 -287v1639q0 26 16.5 38.5t40.5 12.5q23 0 40.5 -12t17.5 -35v-1647q0 -23 -17.5 -35t-40.5 -12q-24 0 -40.5 12.5t-16.5 38.5z" />
<glyph unicode="}" horiz-adv-x="586" d="M14 -289q0 50 21.5 82.5t75.5 32.5h18q37 0 50.5 21.5t13.5 70.5v453q0 49 13.5 84t33.5 59t44.5 39.5t47.5 24.5v8q-23 10 -47.5 25t-44.5 39t-33.5 59t-13.5 84v381q0 49 -13.5 70.5t-50.5 21.5h-18q-54 0 -75.5 32.5t-21.5 81.5q0 34 8.5 55.5t26 34t44.5 17t63 4.5 q87 0 141 -21.5t84 -63t40.5 -101.5t10.5 -138v-340q0 -32 1.5 -54t7.5 -37t17.5 -23.5t30.5 -14.5q20 -5 36 -11t27 -18t17 -32.5t6 -54.5q0 -35 -6 -55.5t-17 -32.5t-27 -18t-36 -11t-31.5 -14.5t-17 -25t-7 -37.5t-1.5 -52v-412q0 -76 -10.5 -136t-40.5 -101.5t-84 -63.5 t-141 -22q-36 0 -63 4.5t-44.5 16.5t-26 33.5t-8.5 55.5z" />
<glyph unicode="~" horiz-adv-x="1147" d="M127 674q0 34 15 60t41.5 43t62.5 25.5t78 8.5q39 0 87 -6.5t103.5 -14t117 -14t128.5 -6.5q14 0 34 6t42 13.5t44 13.5t40 6q17 0 34.5 -6.5t31.5 -21t23 -36t9 -51.5q0 -38 -15.5 -63.5t-43.5 -41t-65.5 -22t-82.5 -6.5q-52 0 -108.5 6.5t-110 15t-101.5 15t-83 6.5 q-34 0 -56.5 -6t-40 -13.5t-34.5 -13.5t-41 -6q-54 0 -81.5 31t-27.5 78z" />
<glyph unicode="&#xa1;" horiz-adv-x="580" d="M133 866q0 34 11.5 63t32.5 50t49.5 33t62.5 12q33 0 61.5 -12t50 -33t33.5 -50t12 -63q0 -33 -12 -62t-33.5 -50.5t-50 -34t-61.5 -12.5q-34 0 -62.5 12.5t-49.5 34t-32.5 50.5t-11.5 62zM137 -215l51 743q4 45 34 65.5t67 20.5q18 0 36 -5.5t32.5 -16t24 -26.5 t11.5 -38l51 -743q3 -33 -9 -57.5t-33.5 -40t-49.5 -23.5t-57 -8q-31 0 -60.5 8t-52 24t-35 40.5t-10.5 56.5z" />
<glyph unicode="&#xa2;" horiz-adv-x="1239" d="M172 524v275q0 103 22 174.5t69.5 116.5t123.5 67.5t184 28.5v74q0 45 30.5 66.5t74.5 21.5q43 0 73.5 -21.5t30.5 -66.5v-74q85 -5 141.5 -16.5t90.5 -29.5t47.5 -42t13.5 -54q0 -49 -20.5 -77.5t-75.5 -28.5q-37 0 -88.5 4.5t-108.5 9.5v-571q53 5 103 10.5t90 5.5 q56 0 78 -30.5t22 -81.5q0 -34 -8 -58.5t-37.5 -41.5t-88 -27t-159.5 -13v-75q0 -45 -30.5 -65.5t-73.5 -20.5q-44 0 -74.5 20.5t-30.5 65.5v75q-111 6 -187.5 31.5t-123.5 72t-67.5 115t-20.5 160.5zM426 535q0 -63 32.5 -100.5t112.5 -51.5v567q-77 -14 -111 -51.5 t-34 -105.5v-258z" />
<glyph unicode="&#xa3;" horiz-adv-x="1239" d="M94 684q0 48 23 81.5t73 33.5h80v178q0 115 25 188t80.5 114.5t145 57t218.5 15.5q134 0 213 -9t120.5 -27t54 -45t12.5 -63q0 -49 -22 -81.5t-79 -32.5q-31 0 -60.5 3t-63 7t-73.5 7t-91 3q-73 0 -118 -6.5t-69.5 -22.5t-32.5 -43.5t-8 -68.5v-174h412q51 0 74.5 -33.5 t23.5 -81.5q0 -24 -6 -45t-18 -37t-30.5 -25.5t-43.5 -9.5h-412v-329h533q27 0 46 -9.5t31 -25.5t17.5 -38t5.5 -46q0 -25 -5.5 -46.5t-17.5 -37.5t-31 -25.5t-46 -9.5h-803q-51 0 -73.5 34t-22.5 85q0 22 4.5 38.5t14.5 30t26 24t39 21.5l30 15v319h-80q-25 0 -43 9.5 t-30 25.5t-17.5 37t-5.5 45z" />
<glyph unicode="&#xa4;" horiz-adv-x="1155" d="M70 723q0 94 30.5 178t87.5 150l-82 84q-6 8 -10 15.5t-4 16.5q0 19 14 33t31 14q19 0 35 -16l82 -82q65 54 147 84.5t174 30.5q91 0 173 -30.5t147 -84.5l84 84q14 14 33 14q18 0 32.5 -14t14.5 -33q0 -20 -17 -32l-81 -82q57 -66 89.5 -151t32.5 -179q0 -93 -30 -175 t-84 -147l82 -82q6 -8 10 -15.5t4 -16.5q0 -19 -15.5 -32t-33.5 -13q-19 0 -31 12l-82 82q-66 -57 -150 -88t-178 -31q-95 0 -179 32t-150 89l-86 -86q-14 -14 -33 -14t-32 15t-13 34q0 8 3 16t9 14l86 86q-52 67 -81 148t-29 172zM168 723q0 -87 32 -162.5t87 -132 t129.5 -89t158.5 -32.5q85 0 159 32.5t129.5 89t87.5 132t32 162.5t-32 163t-87.5 132.5t-129.5 89.5t-159 33q-84 0 -158.5 -33t-129.5 -89.5t-87 -132.5t-32 -163z" />
<glyph unicode="&#xa5;" horiz-adv-x="1233" d="M86 1235q0 59 34.5 86t90.5 27q46 0 76.5 -24t50.5 -56l278 -463l279 463q20 34 51 57t76 23q56 0 90.5 -25t34.5 -84q0 -15 -4.5 -34t-12.5 -31l-243 -392h119q25 0 43.5 -9t30.5 -24.5t18 -36t6 -44.5q0 -48 -24 -82.5t-74 -34.5h-256v-96h256q25 0 43.5 -9t30.5 -25 t18 -36.5t6 -44.5q0 -48 -24 -82.5t-74 -34.5h-256v-131q0 -29 -11 -49.5t-29 -33.5t-42.5 -19t-51.5 -6t-51.5 6t-42.5 19t-28.5 33.5t-10.5 49.5v131h-258q-50 0 -73 34.5t-23 82.5q0 24 5.5 44.5t17.5 36.5t30 25t43 9h258v96h-258q-50 0 -73 34.5t-23 82.5 q0 24 5.5 44.5t17.5 36t30 24.5t43 9h121l-242 392q-6 11 -12 27.5t-6 33.5z" />
<glyph unicode="&#xa6;" horiz-adv-x="459" d="M172 0v512q0 26 16.5 38.5t40.5 12.5q23 0 40.5 -12t17.5 -35v-520q0 -23 -17.5 -35t-40.5 -12q-24 0 -40.5 12.5t-16.5 38.5zM172 840v512q0 26 16.5 38.5t40.5 12.5q23 0 40.5 -12t17.5 -35v-520q0 -23 -17.5 -35.5t-40.5 -12.5q-24 0 -40.5 13t-16.5 39z" />
<glyph unicode="&#xa7;" horiz-adv-x="1233" d="M111 645q0 79 43.5 130.5t121.5 88.5q-38 31 -60.5 75.5t-22.5 109.5t26 120.5t82.5 96t146 63.5t216.5 23q109 0 177.5 -10.5t107.5 -30t53 -46.5t14 -61q0 -48 -24.5 -73t-86.5 -25q-23 0 -48.5 3.5t-57.5 7.5t-72.5 7.5t-93.5 3.5q-52 0 -88 -4.5t-58 -13t-31.5 -20.5 t-9.5 -27q0 -25 30 -39t78.5 -22.5t111 -15t127 -16.5t127 -27t111 -46.5t78.5 -75.5t30 -114q0 -46 -13 -81.5t-35.5 -62t-53 -46t-66.5 -34.5q42 -31 64 -75.5t22 -112.5q0 -86 -30.5 -146t-89.5 -97.5t-147 -54.5t-202 -17q-127 0 -207 10t-125 28t-61.5 43.5t-16.5 57.5 q0 51 25 79.5t88 28.5q24 0 54 -4t67.5 -8.5t82 -8t97.5 -3.5q48 0 87 4t66.5 13t42.5 24t15 37q0 27 -29.5 41.5t-78.5 23t-111 14t-127 15.5t-127 27t-111 47.5t-78.5 77.5t-29.5 118zM365 696q0 -30 16.5 -49t45.5 -31t68.5 -19t84.5 -12.5t94 -10.5t98 -13 q50 8 81.5 34.5t31.5 61.5q0 26 -19 43t-51.5 27.5t-75.5 17t-92 13t-101 13.5t-102 20q-31 -10 -55 -32t-24 -63z" />
<glyph unicode="&#xa8;" horiz-adv-x="573" d="M4 1251q0 27 9.5 51t27 41.5t40.5 28t50 10.5t51 -10.5t41.5 -28t28 -41.5t10.5 -51t-10.5 -50.5t-28 -41t-41.5 -27.5t-51 -10t-50 10t-40.5 27.5t-27 41t-9.5 50.5zM313 1251q0 27 10 51t27 41.5t40 28t50 10.5t50.5 -10.5t41 -28t27.5 -41.5t10 -51t-10 -50.5 t-27.5 -41t-41 -27.5t-50.5 -10t-50 10t-40 27.5t-27 41t-10 50.5z" />
<glyph unicode="&#xa9;" horiz-adv-x="1464" d="M131 670q0 137 16 241t49 180t82.5 126t116 80t150.5 42.5t186 12.5q103 0 188 -11.5t152 -40.5t116.5 -78.5t81.5 -125.5t48 -181t16 -245q0 -141 -16 -247t-49 -182.5t-82.5 -126.5t-116.5 -79.5t-151.5 -41t-186.5 -11.5q-103 0 -187.5 11t-151 40t-116 78.5 t-81.5 126t-48 183t-16 249.5zM317 670q0 -167 23 -274t72.5 -168.5t128.5 -85t190 -23.5t190 23.5t128.5 85t72.5 168.5t23 274q0 163 -23 268t-72.5 166.5t-128.5 85.5t-190 24t-190 -24t-128.5 -85.5t-72.5 -166.5t-23 -268zM430 664q0 103 17.5 170.5t56.5 108t101.5 57 t152.5 16.5q80 0 126.5 -6t70.5 -18t31 -30t7 -42q0 -26 -15.5 -47t-53.5 -21q-39 0 -76 9t-84 9q-44 0 -72 -8.5t-43.5 -31t-21.5 -62t-6 -100.5q0 -64 7.5 -103t24 -60.5t44 -28.5t67.5 -7t77.5 9t82.5 9q19 0 32 -7t21.5 -18.5t12 -25.5t3.5 -28q0 -21 -7.5 -37 t-32.5 -26.5t-71 -15.5t-124 -5q-88 0 -150 14t-101.5 51.5t-58 103.5t-18.5 171z" />
<glyph unicode="&#xaa;" horiz-adv-x="784" d="M90 498q0 34 17.5 58t52.5 24h450q35 0 53.5 -24t18.5 -58q0 -35 -18.5 -59.5t-53.5 -24.5h-450q-35 0 -52.5 24.5t-17.5 59.5zM90 870q0 55 8 96t31.5 68t67.5 40t116 13h197v33q0 29 -29 42.5t-82 13.5q-46 0 -100 -5.5t-102 -5.5q-38 0 -53 17t-15 49q0 27 10 46 t39.5 31t83.5 17.5t141 5.5q75 0 127.5 -12t86.5 -38.5t49.5 -69t15.5 -103.5v-242q0 -65 -18 -105t-54.5 -61.5t-92 -28.5t-130.5 -7q-81 0 -137.5 7t-92 29t-51.5 62.5t-16 107.5zM258 877q0 -70 127 -70q59 0 92 14t33 37v94h-168q-51 0 -67.5 -17.5t-16.5 -57.5z" />
<glyph unicode="&#xab;" horiz-adv-x="1135" d="M92 551q0 23 9 44.5t24.5 41.5t35 38.5t40.5 35.5l215 174q25 20 47.5 28.5t42.5 8.5q34 0 54 -21t20 -53q0 -40 -33 -80l-180 -213v-8l180 -213q33 -44 33 -80q0 -32 -20 -54t-54 -22q-42 0 -90 39l-215 174q-21 17 -40.5 35.5t-35 38.5t-24.5 41.5t-9 44.5zM563 551 q0 23 9 44.5t24.5 41.5t35 38.5t40.5 35.5l215 174q25 20 47.5 28.5t42.5 8.5q34 0 54 -21t20 -53q0 -40 -33 -80l-180 -213v-8l180 -213q33 -44 33 -80q0 -32 -20 -54t-54 -22q-42 0 -90 39l-215 174q-21 17 -40.5 35.5t-35 38.5t-24.5 41.5t-9 44.5z" />
<glyph unicode="&#xac;" horiz-adv-x="1233" d="M127 893q0 24 5.5 44.5t17.5 36.5t30 25t43 9h785q25 0 43.5 -9t30.5 -25t18 -36.5t6 -44.5v-436q0 -51 -34.5 -74t-82.5 -23q-24 0 -44.5 5.5t-36.5 17.5t-25 30t-9 44v319h-651q-50 0 -73 34.5t-23 82.5z" />
<glyph unicode="&#xad;" horiz-adv-x="0" />
<glyph unicode="&#xae;" horiz-adv-x="1464" d="M131 670q0 137 16 241t49 180t82.5 126t116 80t150.5 42.5t186 12.5q103 0 188 -11.5t152 -40.5t116.5 -78.5t81.5 -125.5t48 -181t16 -245q0 -141 -16 -247t-49 -182.5t-82.5 -126.5t-116.5 -79.5t-151.5 -41t-186.5 -11.5q-103 0 -187.5 11t-151 40t-116 78.5 t-81.5 126t-48 183t-16 249.5zM317 670q0 -167 23 -274t72.5 -168.5t128.5 -85t190 -23.5t190 23.5t128.5 85t72.5 168.5t23 274q0 163 -23 268t-72.5 166.5t-128.5 85.5t-190 24t-190 -24t-128.5 -85.5t-72.5 -166.5t-23 -268zM469 367v569q0 26 17 41.5t40 15.5h262 q106 0 164 -50.5t58 -149.5q0 -87 -38.5 -138t-103.5 -63l142 -150q20 -23 20 -49q0 -16 -7 -30.5t-19 -25.5t-27 -17.5t-31 -6.5q-14 0 -26 5t-23 18l-201 225q-9 11 -13.5 24t-4.5 27q0 28 15.5 51t43.5 23h17q52 0 73 19t21 69q0 47 -18 66.5t-60 19.5h-137v-493 q0 -18 -9.5 -29t-23 -17t-27.5 -8t-24 -2q-12 0 -26 2t-26 8t-20 17t-8 29z" />
<glyph unicode="&#xaf;" horiz-adv-x="573" d="M6 1237q0 48 22.5 76t73.5 28h369q51 0 74.5 -28t23.5 -76t-23.5 -77.5t-74.5 -29.5h-369q-51 0 -73.5 29.5t-22.5 77.5z" />
<glyph unicode="&#xb0;" horiz-adv-x="864" d="M82 969q0 111 23 181t67.5 110.5t109 55.5t148.5 15q83 0 148.5 -15t110.5 -55.5t69 -110.5t24 -181t-24 -180t-69 -107t-110.5 -51t-148.5 -13q-84 0 -148.5 13t-109 51t-67.5 107t-23 180zM293 971q0 -59 9.5 -93t27.5 -51.5t43 -22.5t57 -5q31 0 57 5t45 22.5t29 51.5 t10 93q0 60 -10 95.5t-29 54t-45 24.5t-57 6q-32 0 -57 -6t-43 -24.5t-27.5 -54t-9.5 -95.5z" />
<glyph unicode="&#xb1;" horiz-adv-x="1233" d="M127 117q0 24 5.5 44.5t17.5 36t30 24.5t43 9h277v21v319h-277q-25 0 -43 9.5t-30 25.5t-17.5 37t-5.5 45q0 48 23 81.5t73 33.5h277v315q0 25 9 44t24.5 31t36 18t44.5 6q48 0 82.5 -24t34.5 -75v-315h277q51 0 74.5 -33.5t23.5 -81.5q0 -24 -6 -45t-18 -37t-30.5 -25.5 t-43.5 -9.5h-277v-319q0 -6 -1 -11t-1 -10h279q25 0 43.5 -9t30.5 -24.5t18 -36t6 -44.5q0 -48 -24 -82.5t-74 -34.5h-785q-50 0 -73 34.5t-23 82.5z" />
<glyph unicode="&#xb2;" d="M80 571v84q0 91 41.5 150.5t134.5 97.5l119 51q46 20 65 44.5t19 70.5q0 50 -22.5 70t-78.5 20q-45 0 -89 -7t-95 -7t-72.5 24t-21.5 66q0 37 21.5 60t56.5 32q16 4 63.5 10t145.5 6q85 0 145.5 -12.5t99 -44t56.5 -84t18 -133.5q0 -62 -14 -106t-41 -76.5t-67.5 -57 t-94.5 -47.5l-90 -41q-43 -20 -58.5 -37.5t-17.5 -29.5h303q25 0 43 -7.5t28.5 -20.5t15.5 -30t5 -36q0 -41 -20.5 -69t-71.5 -28h-434q-46 0 -69 20t-23 68z" />
<glyph unicode="&#xb3;" d="M76 594q0 40 25.5 67t68.5 27q27 0 53 -4t51 -8.5t50 -8t51 -3.5q63 0 97 21t34 65q0 42 -25.5 60.5t-87.5 18.5h-119q-52 0 -74 28t-22 69q0 42 22 68t74 26h119q48 0 70 15t22 59q0 20 -10 32.5t-27 19t-39 9t-47 2.5q-45 0 -88 -7t-94 -7t-72.5 24t-21.5 66 q0 37 21.5 59t56.5 31q16 4 65 11t144 7q78 0 139.5 -13t105 -41t66.5 -72.5t23 -108.5q0 -63 -20 -101.5t-48 -64.5q43 -29 65.5 -73t22.5 -119q0 -79 -26.5 -132t-73 -85.5t-109 -46t-133.5 -13.5q-63 0 -119 5t-98.5 18.5t-67 37.5t-24.5 62z" />
<glyph unicode="&#xb4;" horiz-adv-x="573" d="M184 1157q0 31 27 60l137 139q39 37 78 37q21 0 39.5 -8t33 -22t23 -32t8.5 -37q0 -18 -9.5 -37t-31.5 -34l-159 -119q-32 -21 -62 -21q-35 0 -59.5 21.5t-24.5 52.5z" />
<glyph unicode="&#xb5;" horiz-adv-x="1206" d="M141 -256v1169q0 28 10 48.5t27 33.5t40 19t50 6q26 0 49 -6t40.5 -19t27.5 -33.5t10 -48.5v-489q0 -70 6 -112.5t27 -66t62 -31t112 -7.5t113 7.5t63.5 31t28 66t6.5 112.5v489q0 28 9.5 48.5t26.5 33.5t40 19t49 6t49 -6t40.5 -19t27.5 -33.5t10 -48.5v-501 q0 -95 -8.5 -164t-29.5 -117t-55.5 -77.5t-85.5 -46t-121.5 -22t-162.5 -5.5q-62 0 -111.5 2.5t-91.5 7.5v-246q0 -29 -10.5 -49.5t-28.5 -33t-42 -18t-50 -5.5q-27 0 -50 5.5t-40 18t-27 33t-10 49.5z" />
<glyph unicode="&#xb6;" horiz-adv-x="973" d="M113 936q0 129 17.5 209.5t57.5 125.5t104.5 61t158.5 16q21 0 34 -9.5t13 -27.5v-1532q0 -17 -13 -30t-34 -13q-22 0 -36 13t-14 30v762q-80 3 -135 21t-89 62t-49 119.5t-15 192.5zM702 -221v1530q0 18 16 28.5t38 10.5q21 0 37 -10.5t16 -28.5v-1530q0 -17 -16 -30 t-37 -13q-22 0 -38 13t-16 30z" />
<glyph unicode="&#xb7;" horiz-adv-x="451" d="M63 682q0 34 12 63.5t33.5 52t50.5 35.5t64 13q34 0 63.5 -13t51.5 -35.5t34.5 -52t12.5 -63.5q0 -35 -12.5 -65t-34.5 -51.5t-51.5 -33.5t-63.5 -12q-35 0 -64 12t-50.5 33.5t-33.5 51.5t-12 65z" />
<glyph unicode="&#xb8;" horiz-adv-x="573" d="M49 -309q0 31 22 52t54 21q12 0 26 -4t29 -8.5t30.5 -8t31.5 -3.5q37 0 60.5 7t23.5 30q0 17 -15.5 23.5t-39 9t-51 3.5t-51 7t-39 19.5t-15.5 41.5q0 30 30 62l56 57h190l-53 -61q34 -5 62.5 -15.5t49.5 -29t32.5 -46t11.5 -67.5q0 -56 -21.5 -91.5t-57 -55t-80 -26.5 t-89.5 -7q-31 0 -65.5 3.5t-64 13.5t-48.5 27.5t-19 45.5z" />
<glyph unicode="&#xb9;" d="M92 580q0 38 22 66t72 28h111v465h-111q-25 0 -43 8t-29 21t-16.5 30.5t-5.5 36.5q0 40 22 68t72 28h236q50 0 71 -28t21 -68v-561h109q27 0 45 -7.5t29 -20.5t15.5 -30t4.5 -36q0 -41 -20.5 -69t-73.5 -28h-437q-50 0 -72 28t-22 69z" />
<glyph unicode="&#xba;" horiz-adv-x="836" d="M111 498q0 34 17 58t52 24h473q35 0 53.5 -24t18.5 -58q0 -35 -18.5 -59.5t-53.5 -24.5h-473q-35 0 -52 24.5t-17 59.5zM111 991q0 106 17.5 172.5t55 103.5t95 50.5t137.5 13.5q79 0 137 -13.5t96.5 -50.5t57 -103.5t18.5 -172.5t-18.5 -170.5t-57 -100t-96.5 -47 t-137 -11.5q-80 0 -137.5 11.5t-95 47t-55 100t-17.5 170.5zM279 993q0 -63 8.5 -98t25.5 -52t42.5 -20.5t60.5 -3.5q33 0 58.5 3.5t43 20.5t26.5 52t9 98q0 65 -9 101.5t-26.5 54t-43 21.5t-58.5 4q-35 0 -60.5 -4t-42.5 -21.5t-25.5 -54t-8.5 -101.5z" />
<glyph unicode="&#xbb;" horiz-adv-x="1135" d="M84 254q0 38 33 80l180 213v8l-180 213q-17 20 -25 40.5t-8 39.5q0 32 20 53t54 21q18 0 41.5 -8.5t48.5 -28.5l215 -174q21 -17 40.5 -35.5t34.5 -38.5t24 -41.5t9 -44.5t-9 -44.5t-24 -41.5t-34.5 -38.5t-40.5 -35.5l-215 -174q-25 -20 -48.5 -29.5t-41.5 -9.5 q-34 0 -54 22t-20 54zM555 254q0 38 33 80l180 213v8l-180 213q-17 20 -25 40.5t-8 39.5q0 32 20 53t54 21q18 0 41.5 -8.5t48.5 -28.5l215 -174q21 -17 40.5 -35.5t34.5 -38.5t24 -41.5t9 -44.5t-9 -44.5t-24 -41.5t-34.5 -38.5t-40.5 -35.5l-215 -174q-25 -20 -48.5 -29.5 t-41.5 -9.5q-34 0 -54 22t-20 54z" />
<glyph unicode="&#xbc;" horiz-adv-x="1966" d="M92 580q0 38 22 66t72 28h111v465h-111q-25 0 -43 8t-29 21t-16.5 30.5t-5.5 36.5q0 40 22 68t72 28h236q50 0 71 -28t21 -68v-561h109q27 0 45 -7.5t29 -20.5t15.5 -30t4.5 -36q0 -41 -20.5 -69t-73.5 -28h-437q-50 0 -72 28t-22 69zM555 66q0 17 12 43l674 1202 q12 21 30.5 31t37.5 10q17 0 35 -7t33 -19t24.5 -28t9.5 -34q0 -19 -12 -43l-674 -1203q-12 -21 -31 -29.5t-39 -8.5q-21 0 -39 7.5t-31.5 20t-21.5 28t-8 30.5zM1147 264q0 22 9.5 44t23.5 40l358 473q17 22 44.5 31.5t51.5 9.5q45 0 77 -21t32 -69v-416h22 q50 0 73.5 -25.5t23.5 -68.5t-23.5 -68.5t-73.5 -25.5h-22v-90q0 -47 -29.5 -67.5t-77.5 -20.5t-77 20.5t-29 67.5v90h-283q-22 0 -40.5 8t-31.5 21t-20.5 30.5t-7.5 36.5zM1395 356h135v185z" />
<glyph unicode="&#xbd;" horiz-adv-x="1966" d="M92 580q0 38 22 66t72 28h111v465h-111q-25 0 -43 8t-29 21t-16.5 30.5t-5.5 36.5q0 40 22 68t72 28h236q50 0 71 -28t21 -68v-561h109q27 0 45 -7.5t29 -20.5t15.5 -30t4.5 -36q0 -41 -20.5 -69t-73.5 -28h-437q-50 0 -72 28t-22 69zM555 66q0 17 12 43l674 1202 q12 21 30.5 31t37.5 10q17 0 35 -7t33 -19t24.5 -28t9.5 -34q0 -19 -12 -43l-674 -1203q-12 -21 -31 -29.5t-39 -8.5q-21 0 -39 7.5t-31.5 20t-21.5 28t-8 30.5zM1214 88v84q0 91 42 150.5t135 97.5l118 51q23 10 39 20.5t26 24t14.5 30.5t4.5 40q0 49 -22 69.5t-78 20.5 q-45 0 -89 -7t-95 -7t-73 24t-22 66q0 37 21.5 59.5t56.5 32.5q9 2 24 5t40 5.5t60.5 4t84.5 1.5q85 0 146 -12.5t99.5 -44t56.5 -84t18 -133.5q0 -62 -14 -106t-41 -76.5t-67.5 -57t-94.5 -47.5l-91 -41q-43 -20 -58 -37.5t-17 -30.5h303q50 0 71 -28t21 -66q0 -40 -21 -68 t-71 -28h-434q-47 0 -70 20t-23 68z" />
<glyph unicode="&#xbe;" horiz-adv-x="1966" d="M76 594q0 40 25.5 67t68.5 27q27 0 53 -4t51 -8.5t50 -8t51 -3.5q63 0 97 21t34 65q0 42 -25.5 60.5t-87.5 18.5h-119q-52 0 -74 28t-22 69q0 42 22 68t74 26h119q48 0 70 15t22 59q0 20 -10 32.5t-27 19t-39 9t-47 2.5q-45 0 -88 -7t-94 -7t-72.5 24t-21.5 66 q0 37 21.5 59t56.5 31q16 4 65 11t144 7q78 0 139.5 -13t105 -41t66.5 -72.5t23 -108.5q0 -63 -20 -101.5t-48 -64.5q43 -29 65.5 -73t22.5 -119q0 -79 -26.5 -132t-73 -85.5t-109 -46t-133.5 -13.5q-63 0 -119 5t-98.5 18.5t-67 37.5t-24.5 62zM555 66q0 17 12 43l674 1202 q12 21 30.5 31t37.5 10q17 0 35 -7t33 -19t24.5 -28t9.5 -34q0 -19 -12 -43l-674 -1203q-12 -21 -31 -29.5t-39 -8.5q-21 0 -39 7.5t-31.5 20t-21.5 28t-8 30.5zM1147 264q0 22 9.5 44t23.5 40l358 473q17 22 44.5 31.5t51.5 9.5q45 0 77 -21t32 -69v-416h22 q50 0 73.5 -25.5t23.5 -68.5t-23.5 -68.5t-73.5 -25.5h-22v-90q0 -47 -29.5 -67.5t-77.5 -20.5t-77 20.5t-29 67.5v90h-283q-22 0 -40.5 8t-31.5 21t-20.5 30.5t-7.5 36.5zM1395 356h135v185z" />
<glyph unicode="&#xbf;" horiz-adv-x="958" d="M109 -6q0 74 20 129t51 97.5t67 76.5t69 66t57 66t30 77q3 16 7.5 35.5t18 36t39 27.5t69.5 11q60 0 92.5 -27.5t32.5 -96.5q0 -60 -21.5 -106.5t-53.5 -84.5t-69.5 -71t-69.5 -66.5t-53.5 -70t-21.5 -81.5q0 -30 10.5 -54t35 -40.5t63.5 -25.5t96 -9q42 0 80.5 3.5t73 8 t64 8t52.5 3.5q51 0 78.5 -24t27.5 -81q0 -21 -2 -39.5t-12.5 -34.5t-33 -29t-64 -22.5t-105.5 -14.5t-157 -5q-118 0 -206 18t-147 58.5t-88.5 105t-29.5 156.5zM385 866q0 34 12.5 63t33.5 50t50 33t62 12q34 0 62.5 -12t49 -33t32 -50t11.5 -63q0 -33 -11.5 -62 t-32 -50.5t-49 -34t-62.5 -12.5q-33 0 -62 12.5t-50 34t-33.5 50.5t-12.5 62z" />
<glyph unicode="&#xc0;" horiz-adv-x="1417" d="M24.5 77.5q-6.5 35.5 14.5 82.5l475 1059q32 72 82 102.5t109 30.5q68 0 114.5 -35t75.5 -98l477 -1059q20 -46 13.5 -81.5t-30 -57.5t-58.5 -31t-71 -3t-67.5 28.5t-48.5 62.5l-115 268h-583l-111 -266q-17 -40 -49 -63t-68 -30t-71 1.5t-58.5 31t-30 58zM508 580h389 l-180 430h-29zM535 1622q0 19 8.5 37t23 31.5t33 21.5t39.5 8q20 0 39 -8.5t39 -28.5l137 -139q14 -14 20.5 -29.5t6.5 -29.5q0 -31 -24.5 -52.5t-59.5 -21.5q-16 0 -31 5t-31 16l-160 118q-21 16 -30.5 34.5t-9.5 37.5z" />
<glyph unicode="&#xc1;" horiz-adv-x="1417" d="M24.5 77.5q-6.5 35.5 14.5 82.5l475 1059q32 72 82 102.5t109 30.5q68 0 114.5 -35t75.5 -98l477 -1059q20 -46 13.5 -81.5t-30 -57.5t-58.5 -31t-71 -3t-67.5 28.5t-48.5 62.5l-115 268h-583l-111 -266q-17 -40 -49 -63t-68 -30t-71 1.5t-58.5 31t-30 58zM508 580h389 l-180 430h-29zM535 1485q0 14 6 29.5t20 29.5l137 139q37 37 78 37q21 0 40 -8t33.5 -21.5t23 -31.5t8.5 -37t-10 -37.5t-31 -34.5l-160 -118q-16 -11 -31 -16t-31 -5q-35 0 -59 21.5t-24 52.5z" />
<glyph unicode="&#xc2;" horiz-adv-x="1417" d="M24.5 77.5q-6.5 35.5 14.5 82.5l475 1059q32 72 82 102.5t109 30.5q68 0 114.5 -35t75.5 -98l477 -1059q20 -46 13.5 -81.5t-30 -57.5t-58.5 -31t-71 -3t-67.5 28.5t-48.5 62.5l-115 268h-583l-111 -266q-17 -40 -49 -63t-68 -30t-71 1.5t-58.5 31t-30 58zM428 1489 q0 20 8.5 39t28.5 35l133 102q26 20 55.5 31.5t55.5 11.5t55 -11.5t55 -31.5l133 -102q37 -31 37 -74q0 -31 -18.5 -54.5t-52.5 -23.5q-16 0 -29.5 4t-26.5 10l-153 72l-154 -72q-12 -6 -26 -10t-29 -4q-34 0 -53 23.5t-19 54.5zM508 580h389l-180 430h-29z" />
<glyph unicode="&#xc3;" horiz-adv-x="1417" d="M24.5 77.5q-6.5 35.5 14.5 82.5l475 1059q32 72 82 102.5t109 30.5q68 0 114.5 -35t75.5 -98l477 -1059q20 -46 13.5 -81.5t-30 -57.5t-58.5 -31t-71 -3t-67.5 28.5t-48.5 62.5l-115 268h-583l-111 -266q-17 -40 -49 -63t-68 -30t-71 1.5t-58.5 31t-30 58zM426 1548 q0 42 18.5 68t42 40t45.5 18.5t29 4.5q34 0 67.5 -7.5t63 -16t53 -16t37.5 -7.5t26.5 7.5t26 16t29.5 16t37 7.5q35 0 61.5 -26.5t26.5 -75.5q0 -38 -16.5 -63t-39.5 -41t-48 -22.5t-43 -6.5q-22 0 -50.5 8t-58 17.5t-56 17.5t-44.5 8t-30 -7.5t-24 -16t-26 -16t-35 -7.5 q-38 0 -65 25.5t-27 74.5zM508 580h389l-180 430h-29z" />
<glyph unicode="&#xc4;" horiz-adv-x="1417" d="M24.5 77.5q-6.5 35.5 14.5 82.5l475 1059q32 72 82 102.5t109 30.5q68 0 114.5 -35t75.5 -98l477 -1059q20 -46 13.5 -81.5t-30 -57.5t-58.5 -31t-71 -3t-67.5 28.5t-48.5 62.5l-115 268h-583l-111 -266q-17 -40 -49 -63t-68 -30t-71 1.5t-58.5 31t-30 58zM426 1579 q0 27 9.5 51t27 41.5t40.5 28t50 10.5t51 -10.5t41.5 -28t28 -41.5t10.5 -51t-10.5 -50.5t-28 -41t-41.5 -27.5t-51 -10t-50 10t-40.5 27.5t-27 41t-9.5 50.5zM508 580h389l-180 430h-29zM735 1579q0 27 10 51t27 41.5t40 28t50 10.5t50.5 -10.5t41 -28t27.5 -41.5t10 -51 t-10 -50.5t-27.5 -41t-41 -27.5t-50.5 -10t-50 10t-40 27.5t-27 41t-10 50.5z" />
<glyph unicode="&#xc5;" horiz-adv-x="1417" d="M25 92q0 16 3.5 32.5t12.5 35.5l481 1073q-34 31 -52.5 75t-18.5 101q0 58 21 103t56.5 76.5t82 48t96.5 16.5t96 -16.5t81.5 -48t57 -76.5t21.5 -103q0 -56 -20 -99.5t-52 -74.5l487 -1075q8 -17 11.5 -33.5t3.5 -30.5q0 -29 -11.5 -49.5t-31 -34t-44 -20t-49.5 -6.5 q-43 0 -82.5 22t-58.5 70l-117 268h-585l-111 -266q-22 -51 -64 -72.5t-85 -21.5q-25 0 -48 7t-41 20.5t-29 33t-11 45.5zM512 580h389l-180 430h-29zM612 1409q0 -46 27 -72t68 -26q38 0 65 26t27 72q0 45 -27 70.5t-65 25.5q-41 0 -68 -25.5t-27 -70.5z" />
<glyph unicode="&#xc6;" horiz-adv-x="2003" d="M16 98q0 46 37 109l613 991q42 68 86.5 100.5t103.5 32.5h981q57 0 81 -35t24 -86t-24 -84.5t-81 -33.5h-586v-295h439q28 0 48 -9t32.5 -25t18 -38t5.5 -47q0 -51 -24 -85t-80 -34h-439v-317h607q55 0 78.5 -34.5t23.5 -84.5q0 -26 -5.5 -48t-18 -39t-32 -26.5 t-46.5 -9.5h-746q-54 0 -90.5 27t-36.5 84v235h-539l-157 -266q-29 -50 -70.5 -72t-81.5 -22q-24 0 -46 7.5t-38.5 22t-26.5 35t-10 47.5zM584 580h401v512h-96z" />
<glyph unicode="&#xc7;" horiz-adv-x="1182" d="M131 653q0 207 30.5 342.5t99.5 214.5t179 110.5t269 31.5q138 0 221 -7t127.5 -24t58.5 -45t14 -70q0 -25 -5.5 -47.5t-17.5 -39t-31.5 -26.5t-47.5 -10q-32 0 -71 4t-80 8.5t-82 8.5t-78 4q-60 0 -107 -5t-82.5 -21.5t-60.5 -47t-40.5 -80.5t-22.5 -123t-7 -174t9 -172 t27 -119t45.5 -76t63.5 -42.5t81.5 -18.5t99.5 -4q38 0 77 4t77.5 8.5t76.5 8.5t74 4q28 0 47.5 -9.5t31.5 -25.5t17.5 -37.5t5.5 -46.5q0 -47 -17.5 -76.5t-64.5 -46t-129 -22.5t-210 -6h-17l-35 -41q34 -5 62.5 -15.5t49.5 -29t32.5 -46t11.5 -67.5q0 -56 -21.5 -91.5 t-57 -55t-80 -26.5t-89.5 -7q-31 0 -65.5 3.5t-63.5 13.5t-48 27.5t-19 45.5q0 31 21.5 52t53.5 21q12 0 26 -4t29 -8.5t30.5 -8t31.5 -3.5q37 0 60.5 7t23.5 30q0 17 -15.5 23.5t-39 9t-51 3.5t-51 7t-39 19.5t-15.5 41.5q0 31 31 62l47 49q-102 14 -174.5 52t-118 113.5 t-67 196t-21.5 299.5z" />
<glyph unicode="&#xc8;" horiz-adv-x="1223" d="M162 111v1110q0 57 36.5 83.5t90.5 26.5h768q57 0 80.5 -35t23.5 -86q0 -25 -5.5 -46.5t-18 -37.5t-32.5 -25t-48 -9h-629v-295h481q28 0 48 -9t33 -25t18.5 -38t5.5 -47q0 -51 -24 -85t-81 -34h-481v-317h649q28 0 47.5 -9t32 -25t18 -38t5.5 -47q0 -26 -5.5 -48 t-18 -39t-32 -26.5t-47.5 -9.5h-788q-54 0 -90.5 27t-36.5 84zM436 1622q0 19 8.5 37t23 31.5t33.5 21.5t40 8q20 0 38.5 -8.5t38.5 -28.5l138 -139q14 -14 20 -29.5t6 -29.5q0 -31 -24.5 -52.5t-59.5 -21.5q-15 0 -30.5 5t-30.5 16l-160 118q-21 16 -31 34.5t-10 37.5z" />
<glyph unicode="&#xc9;" horiz-adv-x="1223" d="M162 111v1110q0 57 36.5 83.5t90.5 26.5h768q57 0 80.5 -35t23.5 -86q0 -25 -5.5 -46.5t-18 -37.5t-32.5 -25t-48 -9h-629v-295h481q28 0 48 -9t33 -25t18.5 -38t5.5 -47q0 -51 -24 -85t-81 -34h-481v-317h649q28 0 47.5 -9t32 -25t18 -38t5.5 -47q0 -26 -5.5 -48 t-18 -39t-32 -26.5t-47.5 -9.5h-788q-54 0 -90.5 27t-36.5 84zM436 1485q0 14 6.5 29.5t20.5 29.5l137 139q37 37 78 37q21 0 39.5 -8t33 -21.5t23 -31.5t8.5 -37t-9.5 -37.5t-31.5 -34.5l-159 -118q-16 -11 -31 -16t-31 -5q-35 0 -59.5 21.5t-24.5 52.5z" />
<glyph unicode="&#xca;" horiz-adv-x="1223" d="M162 111v1110q0 57 36.5 83.5t90.5 26.5h768q57 0 80.5 -35t23.5 -86q0 -25 -5.5 -46.5t-18 -37.5t-32.5 -25t-48 -9h-629v-295h481q28 0 48 -9t33 -25t18.5 -38t5.5 -47q0 -51 -24 -85t-81 -34h-481v-317h649q28 0 47.5 -9t32 -25t18 -38t5.5 -47q0 -26 -5.5 -48 t-18 -39t-32 -26.5t-47.5 -9.5h-788q-54 0 -90.5 27t-36.5 84zM330 1489q0 20 8.5 39t28.5 35l133 102q26 20 55 31.5t55 11.5t55.5 -11.5t55.5 -31.5l133 -102q37 -31 37 -74q0 -31 -19 -54.5t-53 -23.5q-15 0 -29 4t-26 10l-154 72l-153 -72q-13 -6 -26.5 -10t-29.5 -4 q-34 0 -52.5 23.5t-18.5 54.5z" />
<glyph unicode="&#xcb;" horiz-adv-x="1223" d="M162 111v1110q0 57 36.5 83.5t90.5 26.5h768q57 0 80.5 -35t23.5 -86q0 -25 -5.5 -46.5t-18 -37.5t-32.5 -25t-48 -9h-629v-295h481q28 0 48 -9t33 -25t18.5 -38t5.5 -47q0 -51 -24 -85t-81 -34h-481v-317h649q28 0 47.5 -9t32 -25t18 -38t5.5 -47q0 -26 -5.5 -48 t-18 -39t-32 -26.5t-47.5 -9.5h-788q-54 0 -90.5 27t-36.5 84zM328 1579q0 27 9.5 51t27 41.5t40.5 28t50 10.5t50.5 -10.5t41.5 -28t28.5 -41.5t10.5 -51t-10.5 -50.5t-28.5 -41t-41.5 -27.5t-50.5 -10t-50 10t-40.5 27.5t-27 41t-9.5 50.5zM637 1579q0 27 9.5 51t27 41.5 t40.5 28t50 10.5t50.5 -10.5t41 -28t27.5 -41.5t10 -51t-10 -50.5t-27.5 -41t-41 -27.5t-50.5 -10t-50 10t-40.5 27.5t-27 41t-9.5 50.5z" />
<glyph unicode="&#xcc;" horiz-adv-x="831" d="M57 117q0 52 23 84t80 32h123v863h-123q-57 0 -80 32t-23 84q0 53 23 86t80 33h512q57 0 79.5 -33t22.5 -86q0 -52 -22.5 -84t-79.5 -32h-123v-863h123q57 0 79.5 -32t22.5 -84q0 -53 -22.5 -85t-79.5 -32h-512q-57 0 -80 32t-23 85zM242 1622q0 19 8.5 37t23 31.5 t33 21.5t39.5 8q20 0 39 -8.5t39 -28.5l137 -139q14 -14 20.5 -29.5t6.5 -29.5q0 -31 -24.5 -52.5t-59.5 -21.5q-16 0 -31 5t-31 16l-159 118q-22 16 -31.5 34.5t-9.5 37.5z" />
<glyph unicode="&#xcd;" horiz-adv-x="831" d="M57 117q0 52 23 84t80 32h123v863h-123q-57 0 -80 32t-23 84q0 53 23 86t80 33h512q57 0 79.5 -33t22.5 -86q0 -52 -22.5 -84t-79.5 -32h-123v-863h123q57 0 79.5 -32t22.5 -84q0 -53 -22.5 -85t-79.5 -32h-512q-57 0 -80 32t-23 85zM242 1485q0 14 6 29.5t20 29.5 l138 139q36 37 77 37q21 0 40 -8t33.5 -21.5t23 -31.5t8.5 -37t-10 -37.5t-31 -34.5l-160 -118q-15 -11 -30.5 -16t-30.5 -5q-35 0 -59.5 21.5t-24.5 52.5z" />
<glyph unicode="&#xce;" horiz-adv-x="831" d="M57 117q0 52 23 84t80 32h123v863h-123q-57 0 -80 32t-23 84q0 53 23 86t80 33h512q57 0 79.5 -33t22.5 -86q0 -52 -22.5 -84t-79.5 -32h-123v-863h123q57 0 79.5 -32t22.5 -84q0 -53 -22.5 -85t-79.5 -32h-512q-57 0 -80 32t-23 85zM135 1489q0 20 8.5 39t28.5 35 l133 102q26 20 55.5 31.5t55.5 11.5t55 -11.5t55 -31.5l133 -102q37 -31 37 -74q0 -31 -18.5 -54.5t-52.5 -23.5q-16 0 -29.5 4t-26.5 10l-153 72l-154 -72q-12 -6 -26 -10t-29 -4q-34 0 -53 23.5t-19 54.5z" />
<glyph unicode="&#xcf;" horiz-adv-x="831" d="M57 117q0 52 23 84t80 32h123v863h-123q-57 0 -80 32t-23 84q0 53 23 86t80 33h512q57 0 79.5 -33t22.5 -86q0 -52 -22.5 -84t-79.5 -32h-123v-863h123q57 0 79.5 -32t22.5 -84q0 -53 -22.5 -85t-79.5 -32h-512q-57 0 -80 32t-23 85zM133 1579q0 27 9.5 51t27 41.5 t40.5 28t50 10.5t51 -10.5t41.5 -28t28 -41.5t10.5 -51t-10.5 -50.5t-28 -41t-41.5 -27.5t-51 -10t-50 10t-40.5 27.5t-27 41t-9.5 50.5zM442 1579q0 27 10 51t27 41.5t40 28t50 10.5t50.5 -10.5t41 -28t27.5 -41.5t10 -51t-10 -50.5t-27.5 -41t-41 -27.5t-50.5 -10t-50 10 t-40 27.5t-27 41t-10 50.5z" />
<glyph unicode="&#xd0;" horiz-adv-x="1468" d="M20 686q0 48 23 81.5t74 33.5h45v420q0 56 36.5 83t92.5 27h442q106 0 192.5 -10t154 -36.5t117.5 -73.5t82.5 -121.5t48 -180.5t15.5 -250t-18.5 -248.5t-55 -178t-89 -119t-120 -70.5t-150 -34t-177.5 -9h-442q-28 0 -51.5 6t-41 19t-27 34t-9.5 50v460h-45 q-26 0 -44 9.5t-30 25.5t-17.5 37t-5.5 45zM428 242h295q87 0 153 14t110.5 58.5t67.5 127t23 220.5q0 139 -22 223.5t-66 130.5t-110.5 61t-155.5 15h-295v-291h225q51 0 75 -33.5t24 -81.5q0 -24 -6 -45t-18 -37t-31 -25.5t-44 -9.5h-225v-327z" />
<glyph unicode="&#xd1;" horiz-adv-x="1509" d="M164 94v1041q0 58 16 99t41.5 66.5t58 37.5t64.5 12q45 0 78 -10.5t58 -28t44 -41t35 -49.5l531 -856h8v872q0 57 36 84t89 27q55 0 89 -27t34 -84v-1040q0 -59 -17 -100t-43 -67t-59 -38t-64 -12q-45 0 -77.5 11t-56.5 29t-42.5 41.5t-34.5 49.5l-534 858h-4v-875 q0 -29 -10 -49.5t-27.5 -34t-40.5 -20t-49 -6.5q-57 0 -90 26.5t-33 83.5zM473 1548q0 42 18.5 68t42 40t45.5 18.5t29 4.5q34 0 67.5 -7.5t63 -16t53 -16t37.5 -7.5t26.5 7.5t26 16t29.5 16t37 7.5q35 0 61.5 -26.5t26.5 -75.5q0 -38 -16.5 -63t-39.5 -41t-48 -22.5 t-43 -6.5q-22 0 -50.5 8t-58 17.5t-56 17.5t-44.5 8t-30 -7.5t-23.5 -16t-25.5 -16t-36 -7.5q-38 0 -65 25.5t-27 74.5z" />
<glyph unicode="&#xd2;" horiz-adv-x="1495" d="M131 653q0 143 14 251t44.5 185.5t79 128.5t117 80.5t158.5 41.5t204 12q113 0 203 -12t158.5 -42t117 -80.5t79 -128t44.5 -185.5t14 -251q0 -144 -14 -250t-44.5 -181t-79 -122t-117 -73.5t-158.5 -36.5t-203 -10q-114 0 -204 10t-158.5 36.5t-117 73.5t-79 122 t-44.5 181t-14 250zM397 657q0 -104 8.5 -176.5t26 -121t45.5 -76t67 -41.5t89.5 -17.5t114.5 -3.5q63 0 113.5 3.5t89.5 17.5t67 41.5t45.5 76t26 121t8.5 176.5q0 106 -8.5 181.5t-26 126t-45.5 80t-67 44.5t-89.5 19t-113.5 4q-64 0 -114.5 -4t-89.5 -19t-67 -44.5 t-45.5 -80t-26 -126t-8.5 -181.5zM573 1622q0 19 8.5 37t23 31.5t33.5 21.5t40 8q20 0 39 -8.5t39 -28.5l137 -139q14 -14 20.5 -29.5t6.5 -29.5q0 -31 -24.5 -52.5t-59.5 -21.5q-16 0 -31 5t-31 16l-160 118q-21 16 -31 34.5t-10 37.5z" />
<glyph unicode="&#xd3;" horiz-adv-x="1495" d="M131 653q0 143 14 251t44.5 185.5t79 128.5t117 80.5t158.5 41.5t204 12q113 0 203 -12t158.5 -42t117 -80.5t79 -128t44.5 -185.5t14 -251q0 -144 -14 -250t-44.5 -181t-79 -122t-117 -73.5t-158.5 -36.5t-203 -10q-114 0 -204 10t-158.5 36.5t-117 73.5t-79 122 t-44.5 181t-14 250zM397 657q0 -104 8.5 -176.5t26 -121t45.5 -76t67 -41.5t89.5 -17.5t114.5 -3.5q63 0 113.5 3.5t89.5 17.5t67 41.5t45.5 76t26 121t8.5 176.5q0 106 -8.5 181.5t-26 126t-45.5 80t-67 44.5t-89.5 19t-113.5 4q-64 0 -114.5 -4t-89.5 -19t-67 -44.5 t-45.5 -80t-26 -126t-8.5 -181.5zM573 1485q0 14 6.5 29.5t20.5 29.5l137 139q37 37 78 37q21 0 40 -8t33.5 -21.5t23 -31.5t8.5 -37t-10 -37.5t-31 -34.5l-160 -118q-16 -11 -31 -16t-31 -5q-35 0 -59.5 21.5t-24.5 52.5z" />
<glyph unicode="&#xd4;" horiz-adv-x="1495" d="M131 653q0 143 14 251t44.5 185.5t79 128.5t117 80.5t158.5 41.5t204 12q113 0 203 -12t158.5 -42t117 -80.5t79 -128t44.5 -185.5t14 -251q0 -144 -14 -250t-44.5 -181t-79 -122t-117 -73.5t-158.5 -36.5t-203 -10q-114 0 -204 10t-158.5 36.5t-117 73.5t-79 122 t-44.5 181t-14 250zM397 657q0 -104 8.5 -176.5t26 -121t45.5 -76t67 -41.5t89.5 -17.5t114.5 -3.5q63 0 113.5 3.5t89.5 17.5t67 41.5t45.5 76t26 121t8.5 176.5q0 106 -8.5 181.5t-26 126t-45.5 80t-67 44.5t-89.5 19t-113.5 4q-64 0 -114.5 -4t-89.5 -19t-67 -44.5 t-45.5 -80t-26 -126t-8.5 -181.5zM467 1489q0 20 8.5 39t28.5 35l133 102q26 20 55.5 31.5t55.5 11.5t55 -11.5t55 -31.5l133 -102q37 -31 37 -74q0 -31 -19 -54.5t-53 -23.5q-15 0 -28.5 4t-26.5 10l-153 72l-154 -72q-12 -6 -26 -10t-29 -4q-34 0 -53 23.5t-19 54.5z" />
<glyph unicode="&#xd5;" horiz-adv-x="1495" d="M131 653q0 143 14 251t44.5 185.5t79 128.5t117 80.5t158.5 41.5t204 12q113 0 203 -12t158.5 -42t117 -80.5t79 -128t44.5 -185.5t14 -251q0 -144 -14 -250t-44.5 -181t-79 -122t-117 -73.5t-158.5 -36.5t-203 -10q-114 0 -204 10t-158.5 36.5t-117 73.5t-79 122 t-44.5 181t-14 250zM397 657q0 -104 8.5 -176.5t26 -121t45.5 -76t67 -41.5t89.5 -17.5t114.5 -3.5q63 0 113.5 3.5t89.5 17.5t67 41.5t45.5 76t26 121t8.5 176.5q0 106 -8.5 181.5t-26 126t-45.5 80t-67 44.5t-89.5 19t-113.5 4q-64 0 -114.5 -4t-89.5 -19t-67 -44.5 t-45.5 -80t-26 -126t-8.5 -181.5zM465 1548q0 42 18.5 68t42 40t45.5 18.5t29 4.5q34 0 67.5 -7.5t63 -16t53 -16t37.5 -7.5t26.5 7.5t26 16t29.5 16t37 7.5q35 0 61.5 -26.5t26.5 -75.5q0 -38 -16.5 -63t-39.5 -41t-48 -22.5t-43 -6.5q-22 0 -50.5 8t-58 17.5t-56 17.5 t-44.5 8t-30 -7.5t-24 -16t-26 -16t-35 -7.5q-38 0 -65 25.5t-27 74.5z" />
<glyph unicode="&#xd6;" horiz-adv-x="1495" d="M131 653q0 143 14 251t44.5 185.5t79 128.5t117 80.5t158.5 41.5t204 12q113 0 203 -12t158.5 -42t117 -80.5t79 -128t44.5 -185.5t14 -251q0 -144 -14 -250t-44.5 -181t-79 -122t-117 -73.5t-158.5 -36.5t-203 -10q-114 0 -204 10t-158.5 36.5t-117 73.5t-79 122 t-44.5 181t-14 250zM397 657q0 -104 8.5 -176.5t26 -121t45.5 -76t67 -41.5t89.5 -17.5t114.5 -3.5q63 0 113.5 3.5t89.5 17.5t67 41.5t45.5 76t26 121t8.5 176.5q0 106 -8.5 181.5t-26 126t-45.5 80t-67 44.5t-89.5 19t-113.5 4q-64 0 -114.5 -4t-89.5 -19t-67 -44.5 t-45.5 -80t-26 -126t-8.5 -181.5zM465 1579q0 27 9.5 51t27 41.5t40.5 28t50 10.5t51 -10.5t41.5 -28t28 -41.5t10.5 -51t-10.5 -50.5t-28 -41t-41.5 -27.5t-51 -10t-50 10t-40.5 27.5t-27 41t-9.5 50.5zM774 1579q0 27 9.5 51t27 41.5t40.5 28t50 10.5t50.5 -10.5t41 -28 t27.5 -41.5t10 -51t-10 -50.5t-27.5 -41t-41 -27.5t-50.5 -10t-50 10t-40.5 27.5t-27 41t-9.5 50.5z" />
<glyph unicode="&#xd7;" horiz-adv-x="1233" d="M182 383q0 32 31 63l238 240l-238 238q-15 15 -22 31.5t-7 33.5q0 22 11.5 45t30 41t41 29.5t44.5 11.5q17 0 33.5 -6.5t32.5 -22.5l237 -237l240 240q15 15 32 21.5t34 6.5q22 0 44.5 -11.5t41 -29.5t30 -41t11.5 -45q0 -17 -7 -33.5t-22 -31.5l-240 -240l242 -242 q29 -29 29 -63q0 -21 -12 -44t-31 -42t-42 -31t-44 -12q-33 0 -64 31l-242 239l-239 -239q-16 -16 -31.5 -22.5t-32.5 -6.5q-21 0 -44 12t-42 30.5t-31 41.5t-12 45z" />
<glyph unicode="&#xd8;" horiz-adv-x="1495" d="M131 653q0 143 14 251t44.5 185.5t79 128.5t117 80.5t158.5 41.5t204 12q105 0 188.5 -10.5t148.5 -36.5l48 69q11 17 28.5 24t32.5 7q16 0 34 -7.5t33 -20t25 -29.5t10 -35q0 -10 -4.5 -22.5t-13.5 -24.5l-41 -62q67 -77 97 -211t30 -340q0 -144 -14 -250t-44.5 -181 t-79 -122t-117 -73.5t-158.5 -36.5t-203 -10q-116 0 -205.5 10.5t-157.5 38.5l-53 -80q-28 -31 -62 -31q-22 0 -41 8.5t-32.5 21.5t-21 29.5t-7.5 32.5q0 10 3.5 22.5t14.5 24.5l56 78q-59 73 -85 198t-26 320zM397 657q0 -91 6.5 -157.5t18.5 -114.5l512 709q-37 12 -84 15 t-102 3q-64 0 -114.5 -4t-89.5 -19t-67 -44.5t-45.5 -80t-26 -126t-8.5 -181.5zM543 244q38 -16 89 -19.5t116 -3.5q63 0 113.5 3.5t89.5 17.5t67 41.5t45.5 76t26 121t8.5 176.5q0 107 -9 181t-26 125z" />
<glyph unicode="&#xd9;" horiz-adv-x="1440" d="M160 440v799q0 29 10.5 50t29 34t42.5 19t51 6t51 -6t42.5 -19t29 -34t10.5 -50v-774q0 -79 15.5 -127.5t50 -74.5t89.5 -35t134 -9t136 9t93.5 35t54 74.5t17.5 127.5v774q0 29 10.5 50t29 34t42.5 19t51 6t51 -6t41.5 -19t28 -34t10.5 -50v-799q0 -106 -17 -181.5 t-50 -127t-81.5 -81.5t-111 -45.5t-139.5 -20t-166 -4.5q-90 0 -166 4.5t-137.5 20t-108.5 45.5t-79 81.5t-48 126.5t-16 182zM547 1622q0 19 8.5 37t23 31.5t33 21.5t39.5 8q20 0 39 -8.5t39 -28.5l137 -139q14 -14 20.5 -29.5t6.5 -29.5q0 -31 -24.5 -52.5t-59.5 -21.5 q-33 0 -61 21l-160 118q-22 16 -31.5 34.5t-9.5 37.5z" />
<glyph unicode="&#xda;" horiz-adv-x="1440" d="M160 440v799q0 29 10.5 50t29 34t42.5 19t51 6t51 -6t42.5 -19t29 -34t10.5 -50v-774q0 -79 15.5 -127.5t50 -74.5t89.5 -35t134 -9t136 9t93.5 35t54 74.5t17.5 127.5v774q0 29 10.5 50t29 34t42.5 19t51 6t51 -6t41.5 -19t28 -34t10.5 -50v-799q0 -106 -17 -181.5 t-50 -127t-81.5 -81.5t-111 -45.5t-139.5 -20t-166 -4.5q-90 0 -166 4.5t-137.5 20t-108.5 45.5t-79 81.5t-48 126.5t-16 182zM547 1485q0 14 6 29.5t20 29.5l138 139q36 37 77 37q21 0 40 -8t33.5 -21.5t23 -31.5t8.5 -37t-9.5 -37.5t-31.5 -34.5l-160 -118 q-15 -11 -30.5 -16t-30.5 -5q-35 0 -59.5 21.5t-24.5 52.5z" />
<glyph unicode="&#xdb;" horiz-adv-x="1440" d="M160 440v799q0 29 10.5 50t29 34t42.5 19t51 6t51 -6t42.5 -19t29 -34t10.5 -50v-774q0 -79 15.5 -127.5t50 -74.5t89.5 -35t134 -9t136 9t93.5 35t54 74.5t17.5 127.5v774q0 29 10.5 50t29 34t42.5 19t51 6t51 -6t41.5 -19t28 -34t10.5 -50v-799q0 -106 -17 -181.5 t-50 -127t-81.5 -81.5t-111 -45.5t-139.5 -20t-166 -4.5q-90 0 -166 4.5t-137.5 20t-108.5 45.5t-79 81.5t-48 126.5t-16 182zM438 1489q0 20 8.5 39t28.5 35l133 102q26 20 55.5 31.5t55.5 11.5t55 -11.5t55 -31.5l134 -102q36 -32 36 -74q0 -31 -18.5 -54.5t-52.5 -23.5 q-16 0 -29.5 4t-26.5 10l-153 72l-154 -72q-12 -6 -26 -10t-29 -4q-34 0 -53 23.5t-19 54.5z" />
<glyph unicode="&#xdc;" horiz-adv-x="1440" d="M160 440v799q0 29 10.5 50t29 34t42.5 19t51 6t51 -6t42.5 -19t29 -34t10.5 -50v-774q0 -79 15.5 -127.5t50 -74.5t89.5 -35t134 -9t136 9t93.5 35t54 74.5t17.5 127.5v774q0 29 10.5 50t29 34t42.5 19t51 6t51 -6t41.5 -19t28 -34t10.5 -50v-799q0 -106 -17 -181.5 t-50 -127t-81.5 -81.5t-111 -45.5t-139.5 -20t-166 -4.5q-90 0 -166 4.5t-137.5 20t-108.5 45.5t-79 81.5t-48 126.5t-16 182zM440 1579q0 27 10 51t27 41.5t40 28t50 10.5t51 -10.5t41.5 -28t28 -41.5t10.5 -51t-10.5 -50.5t-28 -41t-41.5 -27.5t-51 -10t-50 10t-40 27.5 t-27 41t-10 50.5zM750 1579q0 27 9.5 51t27 41.5t40.5 28t50 10.5t50.5 -10.5t41 -28t27.5 -41.5t10 -51t-10 -50.5t-27.5 -41t-41 -27.5t-50.5 -10t-50 10t-40.5 27.5t-27 41t-9.5 50.5z" />
<glyph unicode="&#xdd;" horiz-adv-x="1180" d="M16 1235q0 59 35 86t90 27q46 0 76 -24.5t51 -55.5l322 -475l321 475q22 32 52 56t75 24q56 0 90.5 -25t34.5 -84q0 -15 -4 -34t-12 -31l-424 -613v-469q0 -29 -10.5 -49.5t-29 -33.5t-42.5 -19t-51 -6q-28 0 -52 6t-42 19t-28.5 33.5t-10.5 49.5v471l-422 611 q-6 11 -12.5 27.5t-6.5 33.5zM416 1485q0 14 6 29.5t20 29.5l138 139q36 37 77 37q21 0 40 -8t33.5 -21.5t23 -31.5t8.5 -37t-9.5 -37.5t-31.5 -34.5l-160 -118q-15 -11 -30.5 -16t-30.5 -5q-35 0 -59.5 21.5t-24.5 52.5z" />
<glyph unicode="&#xde;" horiz-adv-x="1315" d="M162 92v1147q0 29 10.5 50t29 34t42.5 19t51 6t51 -6t42.5 -19t29 -34t10.5 -50v-133h391q119 0 202.5 -19t136 -65.5t76 -125.5t23.5 -198q0 -95 -17.5 -172.5t-65.5 -133t-133.5 -86t-221.5 -30.5h-391v-184q0 -29 -10.5 -49.5t-29 -33.5t-42.5 -19t-51 -6t-51 6 t-42.5 19t-29 33.5t-10.5 49.5zM428 510h391q48 0 80.5 10.5t53 33t29.5 57.5t9 85t-9 82.5t-29.5 52t-54 27.5t-81.5 8h-389v-356z" />
<glyph unicode="&#xdf;" horiz-adv-x="1350" d="M6 887q0 50 22.5 83.5t77.5 33.5h70v30q0 98 34 163t100 104t163 55t223 16q134 0 222.5 -17.5t141 -57t74 -104.5t21.5 -159v-102q0 -52 -19 -78.5t-48 -38t-62 -13.5t-62 -6t-48 -16t-19 -43q0 -29 17.5 -50.5t45.5 -38.5t64.5 -33t74 -35.5t74 -44t64.5 -59.5 t45.5 -82t17.5 -111q0 -79 -28 -136.5t-82.5 -94.5t-134.5 -54.5t-183 -17.5q-93 0 -146 12.5t-78.5 32t-31.5 43t-6 45.5q0 23 4 43.5t15.5 36.5t33.5 25t58 9q24 0 42.5 -4t39.5 -8.5t47.5 -8t67.5 -3.5q63 0 96 13t33 50q0 38 -30 64t-75 49t-97 48t-97 61t-75 87 t-30 127q0 112 63 192t197 114v32q0 62 -56.5 84.5t-174.5 22.5q-75 0 -122.5 -8.5t-74.5 -26.5t-37 -46t-10 -67v-909q0 -57 -36.5 -81.5t-90.5 -24.5q-26 0 -49 6t-40 18.5t-26.5 32.5t-9.5 49v680h-70q-55 0 -77.5 33t-22.5 84z" />
<glyph unicode="&#xe0;" horiz-adv-x="1149" d="M94 305q0 85 14.5 145.5t60 99.5t130.5 57t225 18h234v41q0 37 -8.5 61.5t-30.5 38.5t-59 19.5t-95 5.5q-57 0 -103.5 -4t-84 -8.5t-66.5 -8.5t-51 -4q-60 0 -84 31.5t-24 85.5q0 34 17 60.5t60 44.5t117.5 27t190.5 9q142 0 233.5 -13.5t144.5 -51t74 -103t21 -170.5 v-387q0 -101 -24.5 -163.5t-80 -97t-146 -46.5t-222.5 -12t-218 12t-136 47t-69.5 98.5t-19.5 167.5zM342 313q0 -32 7.5 -53.5t29.5 -34t61.5 -17.5t104.5 -5q64 0 105 4t65 13t33.5 24t9.5 37v137h-248q-53 0 -86 -5t-51 -17.5t-24.5 -32.5t-6.5 -50zM401 1294 q0 19 8.5 37t23 32t33.5 22t40 8q20 0 39 -8.5t39 -28.5l137 -139q27 -29 27 -60t-24.5 -52.5t-59.5 -21.5q-31 0 -62 21l-160 119q-21 15 -31 34t-10 37z" />
<glyph unicode="&#xe1;" horiz-adv-x="1149" d="M94 305q0 85 14.5 145.5t60 99.5t130.5 57t225 18h234v41q0 37 -8.5 61.5t-30.5 38.5t-59 19.5t-95 5.5q-57 0 -103.5 -4t-84 -8.5t-66.5 -8.5t-51 -4q-60 0 -84 31.5t-24 85.5q0 34 17 60.5t60 44.5t117.5 27t190.5 9q142 0 233.5 -13.5t144.5 -51t74 -103t21 -170.5 v-387q0 -101 -24.5 -163.5t-80 -97t-146 -46.5t-222.5 -12t-218 12t-136 47t-69.5 98.5t-19.5 167.5zM342 313q0 -32 7.5 -53.5t29.5 -34t61.5 -17.5t104.5 -5q64 0 105 4t65 13t33.5 24t9.5 37v137h-248q-53 0 -86 -5t-51 -17.5t-24.5 -32.5t-6.5 -50zM401 1157q0 31 27 60 l137 139q39 37 78 37q21 0 40 -8t33.5 -22t23 -32t8.5 -37q0 -18 -10 -37t-31 -34l-160 -119q-32 -21 -62 -21q-35 0 -59.5 21.5t-24.5 52.5z" />
<glyph unicode="&#xe2;" horiz-adv-x="1149" d="M94 305q0 85 14.5 145.5t60 99.5t130.5 57t225 18h234v41q0 37 -8.5 61.5t-30.5 38.5t-59 19.5t-95 5.5q-57 0 -103.5 -4t-84 -8.5t-66.5 -8.5t-51 -4q-60 0 -84 31.5t-24 85.5q0 34 17 60.5t60 44.5t117.5 27t190.5 9q142 0 233.5 -13.5t144.5 -51t74 -103t21 -170.5 v-387q0 -101 -24.5 -163.5t-80 -97t-146 -46.5t-222.5 -12t-218 12t-136 47t-69.5 98.5t-19.5 167.5zM293 1161q0 20 8.5 39t28.5 35l133 102q26 20 55 31.5t55 11.5t55.5 -11.5t55.5 -31.5l133 -102q37 -31 37 -74q0 -31 -19 -54.5t-53 -23.5q-15 0 -29 4.5t-26 10.5 l-154 71l-153 -71q-13 -6 -26.5 -10.5t-28.5 -4.5q-35 0 -53.5 23.5t-18.5 54.5zM342 313q0 -32 7.5 -53.5t29.5 -34t61.5 -17.5t104.5 -5q64 0 105 4t65 13t33.5 24t9.5 37v137h-248q-53 0 -86 -5t-51 -17.5t-24.5 -32.5t-6.5 -50z" />
<glyph unicode="&#xe3;" horiz-adv-x="1149" d="M94 305q0 85 14.5 145.5t60 99.5t130.5 57t225 18h234v41q0 37 -8.5 61.5t-30.5 38.5t-59 19.5t-95 5.5q-57 0 -103.5 -4t-84 -8.5t-66.5 -8.5t-51 -4q-60 0 -84 31.5t-24 85.5q0 34 17 60.5t60 44.5t117.5 27t190.5 9q142 0 233.5 -13.5t144.5 -51t74 -103t21 -170.5 v-387q0 -101 -24.5 -163.5t-80 -97t-146 -46.5t-222.5 -12t-218 12t-136 47t-69.5 98.5t-19.5 167.5zM293 1221q0 42 18.5 67.5t42 40t45.5 19t29 4.5q34 0 67.5 -7.5t63 -16t53 -16t37.5 -7.5t26.5 7.5t26 16t29.5 16t37 7.5q35 0 61.5 -26.5t26.5 -76.5q0 -38 -16.5 -63 t-39.5 -41t-48 -22.5t-43 -6.5q-22 0 -50.5 8t-58 17.5t-56 17.5t-44.5 8t-30 -7.5t-24 -16t-26 -16t-35 -7.5q-38 0 -65 25.5t-27 75.5zM342 313q0 -32 7.5 -53.5t29.5 -34t61.5 -17.5t104.5 -5q64 0 105 4t65 13t33.5 24t9.5 37v137h-248q-53 0 -86 -5t-51 -17.5 t-24.5 -32.5t-6.5 -50z" />
<glyph unicode="&#xe4;" horiz-adv-x="1149" d="M94 305q0 85 14.5 145.5t60 99.5t130.5 57t225 18h234v41q0 37 -8.5 61.5t-30.5 38.5t-59 19.5t-95 5.5q-57 0 -103.5 -4t-84 -8.5t-66.5 -8.5t-51 -4q-60 0 -84 31.5t-24 85.5q0 34 17 60.5t60 44.5t117.5 27t190.5 9q142 0 233.5 -13.5t144.5 -51t74 -103t21 -170.5 v-387q0 -101 -24.5 -163.5t-80 -97t-146 -46.5t-222.5 -12t-218 12t-136 47t-69.5 98.5t-19.5 167.5zM291 1251q0 27 9.5 51t27 41.5t40.5 28t50 10.5t50.5 -10.5t41.5 -28t28.5 -41.5t10.5 -51t-10.5 -50.5t-28.5 -41t-41.5 -27.5t-50.5 -10t-50 10t-40.5 27.5t-27 41 t-9.5 50.5zM342 313q0 -32 7.5 -53.5t29.5 -34t61.5 -17.5t104.5 -5q64 0 105 4t65 13t33.5 24t9.5 37v137h-248q-53 0 -86 -5t-51 -17.5t-24.5 -32.5t-6.5 -50zM600 1251q0 27 9.5 51t27 41.5t40.5 28t50 10.5t50.5 -10.5t41 -28t27.5 -41.5t10 -51t-10 -50.5t-27.5 -41 t-41 -27.5t-50.5 -10t-50 10t-40.5 27.5t-27 41t-9.5 50.5z" />
<glyph unicode="&#xe5;" horiz-adv-x="1149" d="M94 305q0 85 14.5 145.5t60 99.5t130.5 57t225 18h234v41q0 37 -8.5 61.5t-30.5 38.5t-59 19.5t-95 5.5q-57 0 -103.5 -4t-84 -8.5t-66.5 -8.5t-51 -4q-60 0 -84 31.5t-24 85.5q0 34 17 60.5t60 44.5t117.5 27t190.5 9q142 0 233.5 -13.5t144.5 -51t74 -103t21 -170.5 v-387q0 -101 -24.5 -163.5t-80 -97t-146 -46.5t-222.5 -12t-218 12t-136 47t-69.5 98.5t-19.5 167.5zM342 313q0 -32 7.5 -53.5t29.5 -34t61.5 -17.5t104.5 -5q64 0 105 4t65 13t33.5 24t9.5 37v137h-248q-53 0 -86 -5t-51 -17.5t-24.5 -32.5t-6.5 -50zM383 1247q0 45 15 80 t41 60t61 38t75 13q39 0 74 -13t61 -38t41 -60t15 -80t-15 -80t-41 -59.5t-61 -37.5t-74 -13q-40 0 -75 13t-61 37.5t-41 59.5t-15 80zM500 1247q0 -34 18.5 -58t56.5 -24q39 0 57.5 24t18.5 58t-18.5 58t-57.5 24q-38 0 -56.5 -24t-18.5 -58z" />
<glyph unicode="&#xe6;" horiz-adv-x="1780" d="M94 305q0 85 14.5 145.5t60 99.5t130.5 57t225 18h234v41q0 37 -8.5 61.5t-30.5 38.5t-59 19.5t-95 5.5q-57 0 -103.5 -4t-84 -8.5t-66.5 -8.5t-51 -4q-60 0 -84 31.5t-24 85.5q0 34 17 60.5t60 44.5t117.5 27t190.5 9q134 0 219 -12.5t135 -44.5q54 32 133.5 44.5 t192.5 12.5q126 0 211 -18t136.5 -62.5t74 -118.5t22.5 -186v-113q0 -66 -26 -92t-83 -26h-559v-56q0 -80 55 -113.5t166 -33.5q42 0 87 3t88 6t81.5 6t67.5 3q55 0 81 -21t26 -79q0 -24 -4 -44t-18 -36t-41.5 -27.5t-74 -19.5t-115.5 -12t-167 -4q-121 0 -202.5 14.5 t-135.5 46.5q-51 -35 -136.5 -48t-213.5 -13q-132 0 -218 12t-136 47t-69.5 98.5t-19.5 167.5zM342 313q0 -32 7.5 -53.5t29.5 -34t61.5 -17.5t104.5 -5q64 0 105 4t65 13t33.5 24t9.5 37v137h-248q-53 0 -86 -5t-51 -17.5t-24.5 -32.5t-6.5 -50zM993 610h418v41 q0 45 -9.5 74.5t-33.5 47t-64.5 24t-101.5 6.5q-57 0 -97 -6t-65 -23t-36 -46.5t-11 -76.5v-41z" />
<glyph unicode="&#xe7;" horiz-adv-x="991" d="M131 354v287q0 110 23 183.5t77 118t143 63t220 18.5q117 0 184.5 -9.5t101 -27.5t42 -45t8.5 -61q0 -50 -20.5 -78.5t-75.5 -28.5q-27 0 -53 3t-55 6.5t-62.5 6.5t-75.5 3q-59 0 -98.5 -9.5t-62.5 -29t-32.5 -49.5t-9.5 -70v-270q0 -34 8.5 -62t31.5 -48t62 -31t101 -11 q38 0 69 3t59 7t55.5 7t57.5 3q56 0 78.5 -30.5t22.5 -81.5q0 -48 -21.5 -75t-66.5 -40q-19 -5 -69.5 -13t-135.5 -11l-35 -43q34 -5 62.5 -15.5t49.5 -29t32.5 -46t11.5 -67.5q0 -56 -21.5 -91.5t-57 -55t-80 -26.5t-89.5 -7q-31 0 -65.5 3.5t-64 13.5t-48.5 27.5t-19 45.5 q0 31 22 52t54 21q12 0 26 -4t29 -8.5t30.5 -8t31.5 -3.5q37 0 60.5 7t23.5 30q0 17 -15.5 23.5t-39 9t-51 3.5t-51 7t-39 19.5t-15.5 41.5q0 31 31 62l41 45q-92 10 -153.5 37.5t-98.5 73t-52.5 109.5t-15.5 146z" />
<glyph unicode="&#xe8;" horiz-adv-x="1171" d="M131 367v266q0 117 26 193t83.5 120t148 61t219.5 17q126 0 211.5 -18t137 -62.5t74 -118.5t22.5 -186v-117q0 -66 -26 -92.5t-83 -26.5h-559v-51q0 -80 55 -113.5t166 -33.5q42 0 87 3t88 6t81.5 6t67.5 3q55 0 80.5 -21t25.5 -79q0 -47 -17.5 -73t-68.5 -40 q-15 -5 -46.5 -10t-75 -9.5t-97.5 -7.5t-115 -3q-137 0 -230 18.5t-149.5 63.5t-81 119.5t-24.5 185.5zM385 606h418v45q0 45 -9.5 74.5t-33.5 47t-64.5 24t-101.5 6.5q-58 0 -98 -6t-64.5 -23t-35.5 -46.5t-11 -76.5v-45zM387 1294q0 19 8.5 37t23 32t33.5 22t40 8 q20 0 38.5 -8.5t38.5 -28.5l138 -139q14 -14 20 -30t6 -30q0 -31 -24.5 -52.5t-59.5 -21.5q-31 0 -61 21l-160 119q-22 15 -31.5 34t-9.5 37z" />
<glyph unicode="&#xe9;" horiz-adv-x="1171" d="M131 367v266q0 117 26 193t83.5 120t148 61t219.5 17q126 0 211.5 -18t137 -62.5t74 -118.5t22.5 -186v-117q0 -66 -26 -92.5t-83 -26.5h-559v-51q0 -80 55 -113.5t166 -33.5q42 0 87 3t88 6t81.5 6t67.5 3q55 0 80.5 -21t25.5 -79q0 -47 -17.5 -73t-68.5 -40 q-15 -5 -46.5 -10t-75 -9.5t-97.5 -7.5t-115 -3q-137 0 -230 18.5t-149.5 63.5t-81 119.5t-24.5 185.5zM385 606h418v45q0 45 -9.5 74.5t-33.5 47t-64.5 24t-101.5 6.5q-58 0 -98 -6t-64.5 -23t-35.5 -46.5t-11 -76.5v-45zM444 1157q0 31 27 60l137 139q39 37 78 37 q21 0 40 -8t33.5 -22t23 -32t8.5 -37q0 -18 -10 -37t-31 -34l-160 -119q-32 -21 -62 -21q-35 0 -59.5 21.5t-24.5 52.5z" />
<glyph unicode="&#xea;" horiz-adv-x="1171" d="M131 367v266q0 117 26 193t83.5 120t148 61t219.5 17q126 0 211.5 -18t137 -62.5t74 -118.5t22.5 -186v-117q0 -66 -26 -92.5t-83 -26.5h-559v-51q0 -80 55 -113.5t166 -33.5q42 0 87 3t88 6t81.5 6t67.5 3q55 0 80.5 -21t25.5 -79q0 -47 -17.5 -73t-68.5 -40 q-15 -5 -46.5 -10t-75 -9.5t-97.5 -7.5t-115 -3q-137 0 -230 18.5t-149.5 63.5t-81 119.5t-24.5 185.5zM303 1161q0 20 8.5 39t28.5 35l133 102q26 20 55.5 31.5t55.5 11.5t55 -11.5t55 -31.5l133 -102q37 -31 37 -74q0 -31 -18.5 -54.5t-52.5 -23.5q-16 0 -29.5 4.5 t-26.5 10.5l-153 71l-154 -71q-12 -6 -26 -10.5t-29 -4.5q-34 0 -53 23.5t-19 54.5zM385 606h418v45q0 45 -9.5 74.5t-33.5 47t-64.5 24t-101.5 6.5q-58 0 -98 -6t-64.5 -23t-35.5 -46.5t-11 -76.5v-45z" />
<glyph unicode="&#xeb;" horiz-adv-x="1171" d="M131 367v266q0 117 26 193t83.5 120t148 61t219.5 17q126 0 211.5 -18t137 -62.5t74 -118.5t22.5 -186v-117q0 -66 -26 -92.5t-83 -26.5h-559v-51q0 -80 55 -113.5t166 -33.5q42 0 87 3t88 6t81.5 6t67.5 3q55 0 80.5 -21t25.5 -79q0 -47 -17.5 -73t-68.5 -40 q-15 -5 -46.5 -10t-75 -9.5t-97.5 -7.5t-115 -3q-137 0 -230 18.5t-149.5 63.5t-81 119.5t-24.5 185.5zM301 1251q0 27 9.5 51t27 41.5t40.5 28t50 10.5t51 -10.5t41.5 -28t28 -41.5t10.5 -51t-10.5 -50.5t-28 -41t-41.5 -27.5t-51 -10t-50 10t-40.5 27.5t-27 41t-9.5 50.5z M385 606h418v45q0 45 -9.5 74.5t-33.5 47t-64.5 24t-101.5 6.5q-58 0 -98 -6t-64.5 -23t-35.5 -46.5t-11 -76.5v-45zM610 1251q0 27 10 51t27 41.5t40 28t50 10.5t50.5 -10.5t41 -28t27.5 -41.5t10 -51t-10 -50.5t-27.5 -41t-41 -27.5t-50.5 -10t-50 10t-40 27.5t-27 41 t-10 50.5z" />
<glyph unicode="&#xec;" horiz-adv-x="541" d="M68 1294q0 19 8.5 37t23 32t33 22t39.5 8q20 0 39 -8.5t39 -28.5l137 -139q14 -14 20.5 -30t6.5 -30q0 -31 -24.5 -52.5t-59.5 -21.5q-31 0 -62 21l-159 119q-22 15 -31.5 34t-9.5 37zM143 90v821q0 28 10 49t27.5 34t40.5 19.5t49 6.5t49 -6.5t40.5 -19.5t27.5 -34 t10 -49v-821q0 -29 -10 -49t-27.5 -32.5t-40.5 -18.5t-49 -6t-49 6t-40.5 18.5t-27.5 32.5t-10 49z" />
<glyph unicode="&#xed;" horiz-adv-x="541" d="M127 1157q0 14 6.5 30t20.5 30l137 139q37 37 78 37q21 0 39.5 -8t33 -22t23 -32t8.5 -37q0 -18 -9.5 -37t-31.5 -34l-160 -119q-30 -21 -61 -21q-35 0 -59.5 21.5t-24.5 52.5zM143 90v821q0 28 10 49t27.5 34t40.5 19.5t49 6.5t49 -6.5t40.5 -19.5t27.5 -34t10 -49v-821 q0 -29 -10 -49t-27.5 -32.5t-40.5 -18.5t-49 -6t-49 6t-40.5 18.5t-27.5 32.5t-10 49z" />
<glyph unicode="&#xee;" horiz-adv-x="541" d="M-10 1161q0 20 8.5 39t28.5 35l133 102q26 20 55 31.5t55 11.5t55.5 -11.5t55.5 -31.5l133 -102q37 -31 37 -74q0 -31 -19 -54.5t-53 -23.5q-15 0 -29 4.5t-26 10.5l-154 71l-153 -71q-13 -6 -26.5 -10.5t-29.5 -4.5q-34 0 -52.5 23.5t-18.5 54.5zM143 90v821q0 28 10 49 t27.5 34t40.5 19.5t49 6.5t49 -6.5t40.5 -19.5t27.5 -34t10 -49v-821q0 -29 -10 -49t-27.5 -32.5t-40.5 -18.5t-49 -6t-49 6t-40.5 18.5t-27.5 32.5t-10 49z" />
<glyph unicode="&#xef;" horiz-adv-x="541" d="M-12 1251q0 27 9.5 51t27 41.5t40.5 28t50 10.5t50.5 -10.5t41.5 -28t28.5 -41.5t10.5 -51t-10.5 -50.5t-28.5 -41t-41.5 -27.5t-50.5 -10t-50 10t-40.5 27.5t-27 41t-9.5 50.5zM143 90v821q0 28 10 49t27.5 34t40.5 19.5t49 6.5t49 -6.5t40.5 -19.5t27.5 -34t10 -49 v-821q0 -29 -10 -49t-27.5 -32.5t-40.5 -18.5t-49 -6t-49 6t-40.5 18.5t-27.5 32.5t-10 49zM297 1251q0 27 9.5 51t27 41.5t40.5 28t50 10.5t50.5 -10.5t41 -28t27.5 -41.5t10 -51t-10 -50.5t-27.5 -41t-41 -27.5t-50.5 -10t-50 10t-40.5 27.5t-27 41t-9.5 50.5z" />
<glyph unicode="&#xf0;" horiz-adv-x="1116" d="M102 492q0 157 23 259t77.5 162t143.5 84.5t221 26.5l-78 74l-141 -51q-10 -5 -18 -5q-19 0 -32 17.5t-13 40.5q0 12 6.5 23.5t21.5 17.5l95 33q-14 17 -23.5 38.5t-9.5 44.5q0 57 39 86t96 29q14 0 30.5 -4.5t28.5 -13.5l101 -84l135 49q5 2 9 2h9q20 0 33.5 -17 t13.5 -38q0 -13 -8 -24t-26 -19l-80 -31q73 -71 134 -147.5t105 -162t68 -182t24 -206.5q0 -163 -25.5 -264t-83.5 -156.5t-152 -74.5t-232 -19q-139 0 -233.5 19t-152 74t-82 155.5t-24.5 263.5zM356 496q0 -67 4.5 -114t15.5 -79.5t28.5 -51.5t44 -28.5t62.5 -12.5t83 -3 q69 0 115 7.5t74 37t39.5 87t11.5 157.5q0 103 -11.5 162.5t-39.5 90.5t-74 39.5t-115 8.5q-71 0 -117 -8.5t-73 -39.5t-37.5 -90.5t-10.5 -162.5z" />
<glyph unicode="&#xf1;" horiz-adv-x="1219" d="M143 90v502q0 95 8.5 164t29 117t55 77.5t86 46t121.5 22t163 5.5q92 0 162.5 -5.5t123 -22t87.5 -46t56.5 -77.5t30.5 -117t9 -164v-502q0 -29 -10 -49t-27.5 -32.5t-40.5 -18.5t-49 -6t-48.5 6t-39.5 18.5t-27 32.5t-10 49v490q0 70 -7.5 112.5t-30.5 65.5t-65.5 31 t-113.5 8t-112 -8t-63 -31t-28 -65.5t-6 -112.5v-490q0 -29 -10 -49t-27.5 -32.5t-40.5 -18.5t-49 -6q-27 0 -50 6t-40 18.5t-27 32.5t-10 49zM326 1221q0 42 18.5 67.5t42 40t45.5 19t29 4.5q34 0 67.5 -7.5t63 -16t53 -16t37.5 -7.5t26.5 7.5t26 16t29.5 16t37 7.5 q35 0 61.5 -26.5t26.5 -76.5q0 -38 -16.5 -63t-40 -41t-48.5 -22.5t-43 -6.5q-21 0 -50 8t-58 17.5t-56 17.5t-45 8t-30 -7.5t-23.5 -16t-25.5 -16t-35 -7.5q-38 0 -65 25.5t-27 75.5z" />
<glyph unicode="&#xf2;" horiz-adv-x="1190" d="M102 492q0 162 24.5 265.5t82 162.5t152 81.5t233.5 22.5q138 0 232 -22.5t152 -81.5t83.5 -162.5t25.5 -265.5q0 -163 -25.5 -263.5t-83.5 -155.5t-152 -74t-232 -19q-139 0 -233.5 19t-152 74t-82 155.5t-24.5 263.5zM356 496q0 -67 4.5 -114t15.5 -79.5t28.5 -51.5 t44 -28.5t62.5 -12.5t83 -3q69 0 115 7.5t74 37t39.5 87t11.5 157.5q0 103 -11.5 162.5t-39.5 90.5t-74 39.5t-115 8.5q-71 0 -117 -8.5t-73 -39.5t-37.5 -90.5t-10.5 -162.5zM422 1294q0 19 8.5 37t23 32t33 22t39.5 8q20 0 39 -8.5t39 -28.5l137 -139q14 -14 20.5 -30 t6.5 -30q0 -31 -24.5 -52.5t-59.5 -21.5q-31 0 -61 21l-160 119q-22 15 -31.5 34t-9.5 37z" />
<glyph unicode="&#xf3;" horiz-adv-x="1190" d="M102 492q0 162 24.5 265.5t82 162.5t152 81.5t233.5 22.5q138 0 232 -22.5t152 -81.5t83.5 -162.5t25.5 -265.5q0 -163 -25.5 -263.5t-83.5 -155.5t-152 -74t-232 -19q-139 0 -233.5 19t-152 74t-82 155.5t-24.5 263.5zM356 496q0 -67 4.5 -114t15.5 -79.5t28.5 -51.5 t44 -28.5t62.5 -12.5t83 -3q69 0 115 7.5t74 37t39.5 87t11.5 157.5q0 103 -11.5 162.5t-39.5 90.5t-74 39.5t-115 8.5q-71 0 -117 -8.5t-73 -39.5t-37.5 -90.5t-10.5 -162.5zM422 1157q0 14 6.5 30t20.5 30l137 139q37 37 78 37q21 0 39.5 -8t33 -22t23 -32t8.5 -37 q0 -18 -9.5 -37t-31.5 -34l-160 -119q-30 -21 -61 -21q-35 0 -59.5 21.5t-24.5 52.5z" />
<glyph unicode="&#xf4;" horiz-adv-x="1190" d="M102 492q0 162 24.5 265.5t82 162.5t152 81.5t233.5 22.5q138 0 232 -22.5t152 -81.5t83.5 -162.5t25.5 -265.5q0 -163 -25.5 -263.5t-83.5 -155.5t-152 -74t-232 -19q-139 0 -233.5 19t-152 74t-82 155.5t-24.5 263.5zM313 1161q0 20 8.5 39t28.5 35l133 102 q26 20 55.5 31.5t55.5 11.5t55.5 -11.5t55.5 -31.5l133 -102q36 -32 36 -74q0 -31 -18.5 -54.5t-52.5 -23.5q-16 0 -29.5 4.5t-25.5 10.5l-154 71l-154 -71q-12 -6 -25.5 -10.5t-29.5 -4.5q-34 0 -53 23.5t-19 54.5zM356 496q0 -67 4.5 -114t15.5 -79.5t28.5 -51.5t44 -28.5 t62.5 -12.5t83 -3q69 0 115 7.5t74 37t39.5 87t11.5 157.5q0 103 -11.5 162.5t-39.5 90.5t-74 39.5t-115 8.5q-71 0 -117 -8.5t-73 -39.5t-37.5 -90.5t-10.5 -162.5z" />
<glyph unicode="&#xf5;" horiz-adv-x="1190" d="M102 492q0 162 24.5 265.5t82 162.5t152 81.5t233.5 22.5q138 0 232 -22.5t152 -81.5t83.5 -162.5t25.5 -265.5q0 -163 -25.5 -263.5t-83.5 -155.5t-152 -74t-232 -19q-139 0 -233.5 19t-152 74t-82 155.5t-24.5 263.5zM313 1221q0 42 18.5 67.5t42.5 40t46 19t29 4.5 q34 0 67.5 -7.5t63 -16t53 -16t37.5 -7.5t26.5 7.5t26 16t29 16t36.5 7.5q36 0 62.5 -26.5t26.5 -76.5q0 -38 -16.5 -63t-40 -41t-48.5 -22.5t-43 -6.5q-21 0 -50 8t-58.5 17.5t-56 17.5t-44.5 8t-30 -7.5t-23.5 -16t-25.5 -16t-35 -7.5q-39 0 -66 25.5t-27 75.5zM356 496 q0 -67 4.5 -114t15.5 -79.5t28.5 -51.5t44 -28.5t62.5 -12.5t83 -3q69 0 115 7.5t74 37t39.5 87t11.5 157.5q0 103 -11.5 162.5t-39.5 90.5t-74 39.5t-115 8.5q-71 0 -117 -8.5t-73 -39.5t-37.5 -90.5t-10.5 -162.5z" />
<glyph unicode="&#xf6;" horiz-adv-x="1190" d="M102 492q0 162 24.5 265.5t82 162.5t152 81.5t233.5 22.5q138 0 232 -22.5t152 -81.5t83.5 -162.5t25.5 -265.5q0 -163 -25.5 -263.5t-83.5 -155.5t-152 -74t-232 -19q-139 0 -233.5 19t-152 74t-82 155.5t-24.5 263.5zM311 1251q0 27 10 51t27 41.5t40 28t50 10.5 t51 -10.5t41.5 -28t28 -41.5t10.5 -51t-10.5 -50.5t-28 -41t-41.5 -27.5t-51 -10t-50 10t-40 27.5t-27 41t-10 50.5zM356 496q0 -67 4.5 -114t15.5 -79.5t28.5 -51.5t44 -28.5t62.5 -12.5t83 -3q69 0 115 7.5t74 37t39.5 87t11.5 157.5q0 103 -11.5 162.5t-39.5 90.5 t-74 39.5t-115 8.5q-71 0 -117 -8.5t-73 -39.5t-37.5 -90.5t-10.5 -162.5zM621 1251q0 27 9.5 51t27 41.5t40.5 28t50 10.5t50.5 -10.5t41 -28t27.5 -41.5t10 -51t-10 -50.5t-27.5 -41t-41 -27.5t-50.5 -10t-50 10t-40.5 27.5t-27 41t-9.5 50.5z" />
<glyph unicode="&#xf7;" horiz-adv-x="1233" d="M127 688q0 48 23 81.5t73 33.5h785q51 0 74.5 -33.5t23.5 -81.5q0 -24 -6 -45t-18 -37t-30.5 -25.5t-43.5 -9.5h-785q-25 0 -43 9.5t-30 25.5t-17.5 37t-5.5 45zM461 324q0 33 11.5 62t32 50.5t49 34t62.5 12.5q33 0 62 -12.5t50.5 -34t33.5 -50.5t12 -62q0 -35 -12 -64 t-33.5 -50t-50.5 -32.5t-62 -11.5q-34 0 -62.5 11.5t-49 32.5t-32 50t-11.5 64zM461 1038q0 33 11.5 62t32 51t49 34.5t62.5 12.5q33 0 62 -12.5t50.5 -34.5t33.5 -51t12 -62q0 -35 -12 -63.5t-33.5 -49.5t-50.5 -32.5t-62 -11.5q-34 0 -62.5 11.5t-49 32.5t-32 49.5 t-11.5 63.5z" />
<glyph unicode="&#xf8;" horiz-adv-x="1190" d="M102 492q0 162 24.5 265.5t82 162.5t152 81.5t233.5 22.5q85 0 151.5 -8t118.5 -27l78 109q12 17 28 23.5t31 6.5t31.5 -7.5t29.5 -20t21.5 -28.5t8.5 -32q0 -8 -3.5 -20t-11.5 -23l-78 -104q47 -62 67.5 -158.5t20.5 -242.5q0 -163 -25.5 -263.5t-83.5 -155.5t-152 -74 t-232 -19q-74 0 -133 4.5t-107 15.5l-88 -123q-11 -17 -24.5 -24t-28.5 -7q-20 0 -37.5 7.5t-30.5 19.5t-20.5 27.5t-7.5 31.5q0 11 3.5 20t12.5 23l70 103q-27 28 -46 66.5t-31.5 89t-18 114.5t-5.5 144zM356 496q0 -62 3.5 -107.5t13.5 -77.5l346 473q-25 8 -56 10.5 t-69 2.5q-71 0 -117 -8.5t-73 -39.5t-37.5 -90.5t-10.5 -162.5zM506 211q18 -3 40 -3.5t48 -0.5q69 0 115 7.5t74 37t39.5 87t11.5 157.5q0 46 -3 84t-8 67z" />
<glyph unicode="&#xf9;" horiz-adv-x="1206" d="M141 412v501q0 28 10 48.5t27 33.5t40 19t50 6q26 0 49 -6t40.5 -19t27.5 -33.5t10 -48.5v-489q0 -70 6 -112.5t27 -66t62 -31t112 -7.5t113 7.5t63.5 31t28 66t6.5 112.5v489q0 28 9.5 48.5t26.5 33.5t40 19t49 6t49 -6t40.5 -19t27.5 -33.5t10 -48.5v-501 q0 -95 -8.5 -164t-29.5 -117t-55.5 -77.5t-85.5 -46t-121.5 -22t-162.5 -5.5q-93 0 -163 5.5t-121.5 22t-85.5 46t-54 77.5t-28.5 117t-8.5 164zM428 1294q0 19 8.5 37t23 32t33 22t39.5 8q20 0 39 -8.5t39 -28.5l138 -139q14 -14 20 -30t6 -30q0 -31 -24.5 -52.5 t-59.5 -21.5q-31 0 -61 21l-160 119q-22 15 -31.5 34t-9.5 37z" />
<glyph unicode="&#xfa;" horiz-adv-x="1206" d="M141 412v501q0 28 10 48.5t27 33.5t40 19t50 6q26 0 49 -6t40.5 -19t27.5 -33.5t10 -48.5v-489q0 -70 6 -112.5t27 -66t62 -31t112 -7.5t113 7.5t63.5 31t28 66t6.5 112.5v489q0 28 9.5 48.5t26.5 33.5t40 19t49 6t49 -6t40.5 -19t27.5 -33.5t10 -48.5v-501 q0 -95 -8.5 -164t-29.5 -117t-55.5 -77.5t-85.5 -46t-121.5 -22t-162.5 -5.5q-93 0 -163 5.5t-121.5 22t-85.5 46t-54 77.5t-28.5 117t-8.5 164zM428 1157q0 14 6.5 30t20.5 30l137 139q37 37 78 37q21 0 39.5 -8t33 -22t23 -32t8.5 -37q0 -18 -9.5 -37t-31.5 -34l-160 -119 q-30 -21 -61 -21q-35 0 -59.5 21.5t-24.5 52.5z" />
<glyph unicode="&#xfb;" horiz-adv-x="1206" d="M141 412v501q0 28 10 48.5t27 33.5t40 19t50 6q26 0 49 -6t40.5 -19t27.5 -33.5t10 -48.5v-489q0 -70 6 -112.5t27 -66t62 -31t112 -7.5t113 7.5t63.5 31t28 66t6.5 112.5v489q0 28 9.5 48.5t26.5 33.5t40 19t49 6t49 -6t40.5 -19t27.5 -33.5t10 -48.5v-501 q0 -95 -8.5 -164t-29.5 -117t-55.5 -77.5t-85.5 -46t-121.5 -22t-162.5 -5.5q-93 0 -163 5.5t-121.5 22t-85.5 46t-54 77.5t-28.5 117t-8.5 164zM319 1161q0 20 8.5 39t28.5 35l133 102q26 20 55.5 31.5t55.5 11.5t55.5 -11.5t55.5 -31.5l133 -102q37 -32 37 -74 q0 -31 -19 -54.5t-53 -23.5q-16 0 -29.5 4.5t-25.5 10.5l-154 71l-154 -71q-12 -6 -25.5 -10.5t-29.5 -4.5q-34 0 -53 23.5t-19 54.5z" />
<glyph unicode="&#xfc;" horiz-adv-x="1206" d="M141 412v501q0 28 10 48.5t27 33.5t40 19t50 6q26 0 49 -6t40.5 -19t27.5 -33.5t10 -48.5v-489q0 -70 6 -112.5t27 -66t62 -31t112 -7.5t113 7.5t63.5 31t28 66t6.5 112.5v489q0 28 9.5 48.5t26.5 33.5t40 19t49 6t49 -6t40.5 -19t27.5 -33.5t10 -48.5v-501 q0 -95 -8.5 -164t-29.5 -117t-55.5 -77.5t-85.5 -46t-121.5 -22t-162.5 -5.5q-93 0 -163 5.5t-121.5 22t-85.5 46t-54 77.5t-28.5 117t-8.5 164zM324 1251q0 27 9.5 51t27 41.5t40.5 28t50 10.5t50.5 -10.5t41.5 -28t28.5 -41.5t10.5 -51t-10.5 -50.5t-28.5 -41t-41.5 -27.5 t-50.5 -10t-50 10t-40.5 27.5t-27 41t-9.5 50.5zM633 1251q0 27 9.5 51t27 41.5t40.5 28t50 10.5t50.5 -10.5t41 -28t27.5 -41.5t10 -51t-10 -50.5t-27.5 -41t-41 -27.5t-50.5 -10t-50 10t-40.5 27.5t-27 41t-9.5 50.5z" />
<glyph unicode="&#xfd;" horiz-adv-x="1104" d="M35 907q0 27 11.5 48t30 35.5t42 22t47.5 7.5q40 0 77.5 -20.5t57.5 -73.5l231 -617h29l250 615q20 49 57.5 72.5t79.5 23.5q23 0 45 -7t39.5 -21t28 -34t10.5 -45q0 -31 -16 -69l-504 -1145q-22 -50 -61 -74t-82 -24q-23 0 -44.5 7t-38 20t-26.5 32.5t-10 44.5 q0 12 1 23.5t4 24.5t9 29t16 36l103 207q-19 17 -32 38.5t-25 49.5l-316 731q-8 17 -11 33t-3 30zM377 1157q0 14 6 30t20 30l138 139q37 37 77 37q21 0 40 -8t33.5 -22t23 -32t8.5 -37q0 -18 -9.5 -37t-31.5 -34l-160 -119q-30 -21 -61 -21q-35 0 -59.5 21.5t-24.5 52.5z " />
<glyph unicode="&#xfe;" horiz-adv-x="1214" d="M139 -256v1524q0 27 11 47t29 32.5t41.5 18.5t49.5 6t49 -6t40.5 -18.5t27.5 -32.5t10 -47v-277q42 13 102 23t142 10q91 0 161.5 -8.5t123 -30t89 -58t59 -94t32.5 -137t10 -186.5q0 -162 -24 -265t-80 -162t-149 -81t-232 -22q-26 0 -57.5 2.5t-62.5 6t-59.5 7.5 t-48.5 8h-6v-260q0 -29 -10.5 -49.5t-28.5 -33t-42 -18t-50 -5.5q-27 0 -50 5.5t-40 18t-27 33t-10 49.5zM393 510q0 -103 11 -163t38.5 -91t73.5 -40t115 -9q70 0 116.5 8.5t73.5 39t38 90.5t11 163q0 96 -13 153t-41 87.5t-72 39.5t-105 9q-65 0 -111.5 -6.5t-76.5 -34.5 t-44 -85.5t-14 -160.5z" />
<glyph unicode="&#xff;" horiz-adv-x="1104" d="M35 907q0 27 11.5 48t30 35.5t42 22t47.5 7.5q40 0 77.5 -20.5t57.5 -73.5l231 -617h29l250 615q20 49 57.5 72.5t79.5 23.5q23 0 45 -7t39.5 -21t28 -34t10.5 -45q0 -31 -16 -69l-504 -1145q-22 -50 -61 -74t-82 -24q-23 0 -44.5 7t-38 20t-26.5 32.5t-10 44.5 q0 12 1 23.5t4 24.5t9 29t16 36l103 207q-19 17 -32 38.5t-25 49.5l-316 731q-8 17 -11 33t-3 30zM268 1251q0 27 10 51t27 41.5t40 28t50 10.5t51 -10.5t41.5 -28t28 -41.5t10.5 -51t-10.5 -50.5t-28 -41t-41.5 -27.5t-51 -10t-50 10t-40 27.5t-27 41t-10 50.5zM578 1251 q0 27 9.5 51t27 41.5t40.5 28t50 10.5t50.5 -10.5t41 -28t27.5 -41.5t10 -51t-10 -50.5t-27.5 -41t-41 -27.5t-50.5 -10t-50 10t-40.5 27.5t-27 41t-9.5 50.5z" />
<glyph unicode="&#x100;" horiz-adv-x="1417" d="M24.5 77.5q-6.5 35.5 14.5 82.5l475 1059q32 72 82 102.5t109 30.5q68 0 114.5 -35t75.5 -98l477 -1059q20 -46 13.5 -81.5t-30 -57.5t-58.5 -31t-71 -3t-67.5 28.5t-48.5 62.5l-115 268h-583l-111 -266q-17 -40 -49 -63t-68 -30t-71 1.5t-58.5 31t-30 58zM426 1565 q0 48 22.5 76t73.5 28h369q51 0 74.5 -28t23.5 -76t-23.5 -77.5t-74.5 -29.5h-369q-51 0 -73.5 29.5t-22.5 77.5zM508 580h389l-180 430h-29z" />
<glyph unicode="&#x101;" horiz-adv-x="1149" d="M94 305q0 85 14.5 145.5t60 99.5t130.5 57t225 18h234v41q0 37 -8.5 61.5t-30.5 38.5t-59 19.5t-95 5.5q-57 0 -103.5 -4t-84 -8.5t-66.5 -8.5t-51 -4q-60 0 -84 31.5t-24 85.5q0 34 17 60.5t60 44.5t117.5 27t190.5 9q142 0 233.5 -13.5t144.5 -51t74 -103t21 -170.5 v-387q0 -101 -24.5 -163.5t-80 -97t-146 -46.5t-222.5 -12t-218 12t-136 47t-69.5 98.5t-19.5 167.5zM293 1237q0 48 22.5 76t73.5 28h369q51 0 74.5 -28t23.5 -76t-23.5 -77.5t-74.5 -29.5h-369q-51 0 -73.5 29.5t-22.5 77.5zM342 313q0 -32 7.5 -53.5t29.5 -34t61.5 -17.5 t104.5 -5q64 0 105 4t65 13t33.5 24t9.5 37v137h-248q-53 0 -86 -5t-51 -17.5t-24.5 -32.5t-6.5 -50z" />
<glyph unicode="&#x102;" horiz-adv-x="1417" d="M24.5 77.5q-6.5 35.5 14.5 82.5l475 1059q32 72 82 102.5t109 30.5q68 0 114.5 -35t75.5 -98l477 -1059q20 -46 13.5 -81.5t-30 -57.5t-58.5 -31t-71 -3t-67.5 28.5t-48.5 62.5l-115 268h-583l-111 -266q-17 -40 -49 -63t-68 -30t-71 1.5t-58.5 31t-30 58zM424 1624 q0 31 21 53.5t55 22.5q36 0 57.5 -18.5t41 -41t44 -41t66.5 -18.5t66.5 18.5t44 41t41 41t57.5 18.5q34 0 54.5 -22.5t20.5 -53.5q0 -55 -24 -95t-63.5 -66.5t-91 -39t-105.5 -12.5q-55 0 -106.5 12.5t-91 39t-63.5 66.5t-24 95zM508 580h389l-180 430h-29z" />
<glyph unicode="&#x103;" horiz-adv-x="1149" d="M94 305q0 85 14.5 145.5t60 99.5t130.5 57t225 18h234v41q0 37 -8.5 61.5t-30.5 38.5t-59 19.5t-95 5.5q-57 0 -103.5 -4t-84 -8.5t-66.5 -8.5t-51 -4q-60 0 -84 31.5t-24 85.5q0 34 17 60.5t60 44.5t117.5 27t190.5 9q142 0 233.5 -13.5t144.5 -51t74 -103t21 -170.5 v-387q0 -101 -24.5 -163.5t-80 -97t-146 -46.5t-222.5 -12t-218 12t-136 47t-69.5 98.5t-19.5 167.5zM289 1296q0 31 20.5 53.5t55.5 22.5q24 0 41 -9t30.5 -22t26.5 -28.5t28 -28.5t34.5 -22t47.5 -9q42 0 66.5 18.5t44 41t41 41t57.5 18.5q34 0 55 -22.5t21 -53.5 q0 -55 -24 -95t-64 -66.5t-91 -39t-106 -12.5q-54 0 -105.5 12.5t-91 39t-63.5 66.5t-24 95zM342 313q0 -32 7.5 -53.5t29.5 -34t61.5 -17.5t104.5 -5q64 0 105 4t65 13t33.5 24t9.5 37v137h-248q-53 0 -86 -5t-51 -17.5t-24.5 -32.5t-6.5 -50z" />
<glyph unicode="&#x104;" horiz-adv-x="1417" d="M24.5 77.5q-6.5 35.5 14.5 82.5l475 1059q32 72 82 102.5t109 30.5q68 0 114.5 -35t75.5 -98l477 -1059q12 -27 14.5 -49.5t-3 -41t-17.5 -34t-27 -27.5q-69 -54 -110 -106.5t-41 -102.5q0 -21 11 -29.5t27.5 -11t36 -2.5t36 -4.5t27.5 -17.5t11 -41q0 -92 -143 -92 q-99 0 -149 41.5t-50 119.5q0 42 13.5 79t36 69t50 59t56.5 49q-11 11 -22 25.5t-19 34.5l-115 268h-583l-111 -266q-17 -40 -49 -63t-68 -30t-71 1.5t-58.5 31t-30 58zM508 580h389l-180 430h-29z" />
<glyph unicode="&#x105;" horiz-adv-x="1149" d="M94 305q0 85 14.5 145.5t60 99.5t130.5 57t225 18h234v41q0 37 -8.5 61.5t-30.5 38.5t-59 19.5t-95 5.5q-57 0 -103.5 -4t-84 -8.5t-66.5 -8.5t-51 -4q-60 0 -84 31.5t-24 85.5q0 34 17 60.5t60 44.5t117.5 27t190.5 9q142 0 233.5 -13.5t144.5 -51t74 -103t21 -170.5 v-387q0 -94 -17.5 -156t-60.5 -100q-32 -29 -58 -62t-45.5 -66t-30 -63.5t-10.5 -52.5q0 -21 11 -29.5t28 -11t36 -2.5t36 -4.5t28 -17.5t11 -41q0 -92 -143 -92q-99 0 -149 41.5t-50 119.5q0 54 20.5 112.5t51.5 109.5q-29 -2 -62.5 -3t-68.5 -1q-132 0 -218 12t-136 47 t-69.5 98.5t-19.5 167.5zM342 313q0 -32 7.5 -53.5t29.5 -34t61.5 -17.5t104.5 -5q64 0 105 4t65 13t33.5 24t9.5 37v137h-248q-53 0 -86 -5t-51 -17.5t-24.5 -32.5t-6.5 -50z" />
<glyph unicode="&#x106;" horiz-adv-x="1182" d="M131 653q0 207 30.5 342.5t99.5 214.5t179 110.5t269 31.5q138 0 221 -7t127.5 -24t58.5 -45t14 -70q0 -25 -5.5 -47.5t-17.5 -39t-31.5 -26.5t-47.5 -10q-32 0 -71 4t-80 8.5t-82 8.5t-78 4q-60 0 -107 -5t-82.5 -21.5t-60.5 -47t-40.5 -80.5t-22.5 -123t-7 -174t9 -172 t27 -119t45.5 -76t63.5 -42.5t81.5 -18.5t99.5 -4q38 0 77 4t77.5 8.5t76.5 8.5t74 4q28 0 47.5 -9.5t31.5 -25.5t17.5 -37.5t5.5 -46.5q0 -47 -17.5 -76.5t-64.5 -46t-129 -22.5t-210 -6q-104 0 -187.5 10t-147.5 36.5t-110 73.5t-75.5 122t-43.5 181t-14 250zM469 1485 q0 14 6.5 29.5t20.5 29.5l137 139q36 37 78 37q21 0 39.5 -8t33 -21.5t23 -31.5t8.5 -37t-9.5 -37.5t-31.5 -34.5l-160 -118q-15 -11 -30.5 -16t-30.5 -5q-35 0 -59.5 21.5t-24.5 52.5z" />
<glyph unicode="&#x107;" horiz-adv-x="991" d="M131 354v287q0 110 23 183.5t77 118t143 63t220 18.5q117 0 184.5 -9.5t101 -27.5t42 -45t8.5 -61q0 -50 -20.5 -78.5t-75.5 -28.5q-27 0 -53 3t-55 6.5t-62.5 6.5t-75.5 3q-59 0 -98.5 -9.5t-62.5 -29t-32.5 -49.5t-9.5 -70v-270q0 -34 8.5 -62t31.5 -48t62 -31t101 -11 q38 0 69 3t59 7t55.5 7t57.5 3q56 0 78.5 -30.5t22.5 -81.5q0 -48 -21.5 -75t-66.5 -40q-22 -6 -87 -16t-177 -10q-131 0 -217 23t-137 69.5t-72 116.5t-21 165zM352 1157q0 14 6.5 30t20.5 30l137 139q39 37 78 37q21 0 39.5 -8t33 -22t23 -32t8.5 -37q0 -18 -9.5 -37 t-31.5 -34l-159 -119q-32 -21 -62 -21q-35 0 -59.5 21.5t-24.5 52.5z" />
<glyph unicode="&#x108;" horiz-adv-x="1182" d="M131 653q0 207 30.5 342.5t99.5 214.5t179 110.5t269 31.5q138 0 221 -7t127.5 -24t58.5 -45t14 -70q0 -25 -5.5 -47.5t-17.5 -39t-31.5 -26.5t-47.5 -10q-32 0 -71 4t-80 8.5t-82 8.5t-78 4q-60 0 -107 -5t-82.5 -21.5t-60.5 -47t-40.5 -80.5t-22.5 -123t-7 -174t9 -172 t27 -119t45.5 -76t63.5 -42.5t81.5 -18.5t99.5 -4q38 0 77 4t77.5 8.5t76.5 8.5t74 4q28 0 47.5 -9.5t31.5 -25.5t17.5 -37.5t5.5 -46.5q0 -47 -17.5 -76.5t-64.5 -46t-129 -22.5t-210 -6q-104 0 -187.5 10t-147.5 36.5t-110 73.5t-75.5 122t-43.5 181t-14 250zM338 1489 q0 20 8.5 39t28.5 35l133 102q26 20 55 31.5t55 11.5t55.5 -11.5t55.5 -31.5l133 -102q37 -31 37 -74q0 -31 -19 -54.5t-53 -23.5q-15 0 -29 4t-26 10l-154 72l-153 -72q-12 -6 -26 -10t-29 -4q-34 0 -53 23.5t-19 54.5z" />
<glyph unicode="&#x109;" horiz-adv-x="991" d="M131 354v287q0 110 23 183.5t77 118t143 63t220 18.5q117 0 184.5 -9.5t101 -27.5t42 -45t8.5 -61q0 -50 -20.5 -78.5t-75.5 -28.5q-27 0 -53 3t-55 6.5t-62.5 6.5t-75.5 3q-59 0 -98.5 -9.5t-62.5 -29t-32.5 -49.5t-9.5 -70v-270q0 -34 8.5 -62t31.5 -48t62 -31t101 -11 q38 0 69 3t59 7t55.5 7t57.5 3q56 0 78.5 -30.5t22.5 -81.5q0 -48 -21.5 -75t-66.5 -40q-22 -6 -87 -16t-177 -10q-131 0 -217 23t-137 69.5t-72 116.5t-21 165zM231 1161q0 20 8.5 39t28.5 35l133 102q26 20 55.5 31.5t55.5 11.5t55.5 -11.5t55.5 -31.5l133 -102 q37 -32 37 -74q0 -31 -19 -54.5t-53 -23.5q-16 0 -29.5 4.5t-25.5 10.5l-154 71l-154 -71q-12 -6 -25.5 -10.5t-29.5 -4.5q-34 0 -53 23.5t-19 54.5z" />
<glyph unicode="&#x10a;" horiz-adv-x="1182" d="M131 653q0 207 30.5 342.5t99.5 214.5t179 110.5t269 31.5q138 0 221 -7t127.5 -24t58.5 -45t14 -70q0 -25 -5.5 -47.5t-17.5 -39t-31.5 -26.5t-47.5 -10q-32 0 -71 4t-80 8.5t-82 8.5t-78 4q-60 0 -107 -5t-82.5 -21.5t-60.5 -47t-40.5 -80.5t-22.5 -123t-7 -174t9 -172 t27 -119t45.5 -76t63.5 -42.5t81.5 -18.5t99.5 -4q38 0 77 4t77.5 8.5t76.5 8.5t74 4q28 0 47.5 -9.5t31.5 -25.5t17.5 -37.5t5.5 -46.5q0 -47 -17.5 -76.5t-64.5 -46t-129 -22.5t-210 -6q-104 0 -187.5 10t-147.5 36.5t-110 73.5t-75.5 122t-43.5 181t-14 250zM485 1565 q0 30 11 56.5t30 46t45 31t56 11.5t56.5 -11.5t46 -31t31 -46t11.5 -56.5t-11.5 -56.5t-31 -46t-46 -30.5t-56.5 -11t-56 11t-45 30.5t-30 46t-11 56.5z" />
<glyph unicode="&#x10b;" horiz-adv-x="991" d="M131 354v287q0 110 23 183.5t77 118t143 63t220 18.5q117 0 184.5 -9.5t101 -27.5t42 -45t8.5 -61q0 -50 -20.5 -78.5t-75.5 -28.5q-27 0 -53 3t-55 6.5t-62.5 6.5t-75.5 3q-59 0 -98.5 -9.5t-62.5 -29t-32.5 -49.5t-9.5 -70v-270q0 -34 8.5 -62t31.5 -48t62 -31t101 -11 q38 0 69 3t59 7t55.5 7t57.5 3q56 0 78.5 -30.5t22.5 -81.5q0 -48 -21.5 -75t-66.5 -40q-22 -6 -87 -16t-177 -10q-131 0 -217 23t-137 69.5t-72 116.5t-21 165zM375 1237q0 30 11 56.5t29.5 46t44.5 31t56 11.5t56.5 -11.5t46.5 -31t31.5 -46t11.5 -56.5t-11.5 -56 t-31.5 -45.5t-46.5 -30.5t-56.5 -11t-56 11t-44.5 30.5t-29.5 45.5t-11 56z" />
<glyph unicode="&#x10c;" horiz-adv-x="1182" d="M131 653q0 207 30.5 342.5t99.5 214.5t179 110.5t269 31.5q138 0 221 -7t127.5 -24t58.5 -45t14 -70q0 -25 -5.5 -47.5t-17.5 -39t-31.5 -26.5t-47.5 -10q-32 0 -71 4t-80 8.5t-82 8.5t-78 4q-60 0 -107 -5t-82.5 -21.5t-60.5 -47t-40.5 -80.5t-22.5 -123t-7 -174t9 -172 t27 -119t45.5 -76t63.5 -42.5t81.5 -18.5t99.5 -4q38 0 77 4t77.5 8.5t76.5 8.5t74 4q28 0 47.5 -9.5t31.5 -25.5t17.5 -37.5t5.5 -46.5q0 -47 -17.5 -76.5t-64.5 -46t-129 -22.5t-210 -6q-104 0 -187.5 10t-147.5 36.5t-110 73.5t-75.5 122t-43.5 181t-14 250zM342 1630 q0 15 5 29t14 25t22.5 17.5t30.5 6.5q15 0 29 -4t26 -10l154 -72l153 72q13 6 26.5 10t28.5 4q34 0 53 -24.5t19 -53.5q0 -20 -9 -40t-28 -34l-133 -102q-26 -20 -55 -31.5t-55 -11.5t-55.5 11.5t-55.5 31.5l-133 102q-20 14 -28.5 34t-8.5 40z" />
<glyph unicode="&#x10d;" horiz-adv-x="991" d="M131 354v287q0 110 23 183.5t77 118t143 63t220 18.5q117 0 184.5 -9.5t101 -27.5t42 -45t8.5 -61q0 -50 -20.5 -78.5t-75.5 -28.5q-27 0 -53 3t-55 6.5t-62.5 6.5t-75.5 3q-59 0 -98.5 -9.5t-62.5 -29t-32.5 -49.5t-9.5 -70v-270q0 -34 8.5 -62t31.5 -48t62 -31t101 -11 q38 0 69 3t59 7t55.5 7t57.5 3q56 0 78.5 -30.5t22.5 -81.5q0 -48 -21.5 -75t-66.5 -40q-22 -6 -87 -16t-177 -10q-131 0 -217 23t-137 69.5t-72 116.5t-21 165zM233 1303q0 29 19 53t53 24q16 0 29.5 -4t25.5 -10l154 -72l154 72q12 6 25.5 10t29.5 4q34 0 53 -24t19 -53 q0 -20 -9.5 -40t-27.5 -34l-133 -103q-26 -20 -55.5 -31.5t-55.5 -11.5t-55.5 11.5t-55.5 31.5l-133 103q-20 14 -28.5 34t-8.5 40z" />
<glyph unicode="&#x10e;" horiz-adv-x="1468" d="M162 109v1112q0 56 36.5 83t92.5 27h442q106 0 192.5 -10t154 -36.5t117.5 -73.5t82.5 -121.5t48 -180.5t15.5 -250t-18.5 -248.5t-55 -178t-89 -119t-120 -70.5t-150 -34t-177.5 -9h-442q-28 0 -51.5 6t-41 19t-27 34t-9.5 50zM428 242h295q87 0 153 14t110.5 58.5 t67.5 127t23 220.5q0 139 -22 223.5t-66 130.5t-110.5 61t-155.5 15h-295v-850zM453 1630q0 15 5 29t14 25t22 17.5t30 6.5q16 0 29.5 -4t26.5 -10l153 -72l154 72q12 6 26 10t29 4q17 0 30.5 -6.5t22.5 -17.5t14 -25t5 -29q0 -20 -9.5 -40t-27.5 -34l-133 -102 q-26 -20 -55.5 -31.5t-55.5 -11.5t-55 11.5t-55 31.5l-134 102q-20 14 -28 34t-8 40z" />
<glyph unicode="&#x10f;" horiz-adv-x="1364" d="M102 500q0 162 24.5 264t82 160t151.5 79t232 21q78 0 135.5 -8.5t99.5 -18.5v291q0 28 10.5 49t28 34t41 19.5t49.5 6.5t49.5 -6.5t41 -19.5t28 -34t10.5 -49v-788q0 -163 -25.5 -264.5t-83.5 -158.5t-152.5 -77t-231.5 -20q-92 0 -164.5 8.5t-126.5 30t-92 59t-62 95 t-34.5 138t-10.5 189.5zM356 504q0 -100 10.5 -159t37 -89.5t72 -39.5t116.5 -9q70 0 116 9t73.5 39.5t38.5 89.5t11 159q0 103 -11 161.5t-38.5 87.5t-73.5 36.5t-116 7.5q-71 0 -116.5 -7.5t-72 -36.5t-37 -87.5t-10.5 -161.5zM1149 1032v12.5t2 12.5l25 168q4 34 17 58 t31 39.5t39 22.5t42 7q22 0 42.5 -8t36 -23t24.5 -36.5t9 -47.5q0 -36 -18 -82l-60 -156q-12 -34 -40 -48.5t-56 -14.5q-37 0 -65.5 25.5t-28.5 70.5z" />
<glyph unicode="&#x110;" horiz-adv-x="1468" d="M20 686q0 48 23 81.5t74 33.5h45v420q0 56 36.5 83t92.5 27h442q106 0 192.5 -10t154 -36.5t117.5 -73.5t82.5 -121.5t48 -180.5t15.5 -250t-18.5 -248.5t-55 -178t-89 -119t-120 -70.5t-150 -34t-177.5 -9h-442q-28 0 -51.5 6t-41 19t-27 34t-9.5 50v460h-45 q-26 0 -44 9.5t-30 25.5t-17.5 37t-5.5 45zM428 242h295q87 0 153 14t110.5 58.5t67.5 127t23 220.5q0 139 -22 223.5t-66 130.5t-110.5 61t-155.5 15h-295v-291h225q51 0 75 -33.5t24 -81.5q0 -24 -6 -45t-18 -37t-31 -25.5t-44 -9.5h-225v-327z" />
<glyph unicode="&#x111;" horiz-adv-x="1227" d="M102 500q0 162 24.5 264t82 160t151.5 79t232 21q78 0 135.5 -9.5t99.5 -19.5v88h-252q-51 0 -73.5 29.5t-22.5 77.5t22.5 76t73.5 28h252q1 27 11.5 46.5t28.5 32t41 18.5t48 6q24 0 46.5 -6.5t40.5 -19.5t29 -31.5t13 -43.5q4 -2 8 -2h7h8q51 0 74.5 -28t23.5 -76 t-23.5 -77.5t-74.5 -29.5h-23v-583q0 -163 -25.5 -264.5t-83.5 -158.5t-152.5 -77t-231.5 -20q-92 0 -164.5 8.5t-126.5 30t-92 59t-62 95t-34.5 138t-10.5 189.5zM356 504q0 -100 10.5 -159t37 -89.5t72 -39.5t116.5 -9q70 0 116 9t73.5 39.5t38.5 89.5t11 159 q0 103 -11 161.5t-38.5 87.5t-73.5 36.5t-116 7.5q-71 0 -116.5 -7.5t-72 -36.5t-37 -87.5t-10.5 -161.5z" />
<glyph unicode="&#x112;" horiz-adv-x="1223" d="M162 111v1110q0 57 36.5 83.5t90.5 26.5h768q57 0 80.5 -35t23.5 -86q0 -25 -5.5 -46.5t-18 -37.5t-32.5 -25t-48 -9h-629v-295h481q28 0 48 -9t33 -25t18.5 -38t5.5 -47q0 -51 -24 -85t-81 -34h-481v-317h649q28 0 47.5 -9t32 -25t18 -38t5.5 -47q0 -26 -5.5 -48 t-18 -39t-32 -26.5t-47.5 -9.5h-788q-54 0 -90.5 27t-36.5 84zM346 1565q0 48 22.5 76t73.5 28h369q51 0 74.5 -28t23.5 -76t-23.5 -77.5t-74.5 -29.5h-369q-51 0 -73.5 29.5t-22.5 77.5z" />
<glyph unicode="&#x113;" horiz-adv-x="1171" d="M131 367v266q0 117 26 193t83.5 120t148 61t219.5 17q126 0 211.5 -18t137 -62.5t74 -118.5t22.5 -186v-117q0 -66 -26 -92.5t-83 -26.5h-559v-51q0 -80 55 -113.5t166 -33.5q42 0 87 3t88 6t81.5 6t67.5 3q55 0 80.5 -21t25.5 -79q0 -47 -17.5 -73t-68.5 -40 q-15 -5 -46.5 -10t-75 -9.5t-97.5 -7.5t-115 -3q-137 0 -230 18.5t-149.5 63.5t-81 119.5t-24.5 185.5zM307 1237q0 48 22.5 76t73.5 28h369q51 0 74.5 -28t23.5 -76t-23.5 -77.5t-74.5 -29.5h-369q-51 0 -73.5 29.5t-22.5 77.5zM385 606h418v45q0 45 -9.5 74.5t-33.5 47 t-64.5 24t-101.5 6.5q-58 0 -98 -6t-64.5 -23t-35.5 -46.5t-11 -76.5v-45z" />
<glyph unicode="&#x114;" horiz-adv-x="1223" d="M162 111v1110q0 57 36.5 83.5t90.5 26.5h768q57 0 80.5 -35t23.5 -86q0 -25 -5.5 -46.5t-18 -37.5t-32.5 -25t-48 -9h-629v-295h481q28 0 48 -9t33 -25t18.5 -38t5.5 -47q0 -51 -24 -85t-81 -34h-481v-317h649q28 0 47.5 -9t32 -25t18 -38t5.5 -47q0 -26 -5.5 -48 t-18 -39t-32 -26.5t-47.5 -9.5h-788q-54 0 -90.5 27t-36.5 84zM344 1624q0 31 21 53.5t55 22.5q36 0 57.5 -18.5t41 -41t44 -41t66.5 -18.5t66.5 18.5t44 41t41 41t57.5 18.5q34 0 54.5 -22.5t20.5 -53.5q0 -55 -24 -95t-63.5 -66.5t-91 -39t-105.5 -12.5q-55 0 -106.5 12.5 t-91 39t-63.5 66.5t-24 95z" />
<glyph unicode="&#x115;" horiz-adv-x="1171" d="M131 367v266q0 117 26 193t83.5 120t148 61t219.5 17q126 0 211.5 -18t137 -62.5t74 -118.5t22.5 -186v-117q0 -66 -26 -92.5t-83 -26.5h-559v-51q0 -80 55 -113.5t166 -33.5q42 0 87 3t88 6t81.5 6t67.5 3q55 0 80.5 -21t25.5 -79q0 -47 -17.5 -73t-68.5 -40 q-15 -5 -46.5 -10t-75 -9.5t-97.5 -7.5t-115 -3q-137 0 -230 18.5t-149.5 63.5t-81 119.5t-24.5 185.5zM305 1296q0 31 21 53.5t55 22.5q36 0 57.5 -18.5t41 -41t44 -41t66.5 -18.5t66.5 18.5t44 41t41 41t57.5 18.5q34 0 54.5 -22.5t20.5 -53.5q0 -55 -24 -95t-63.5 -66.5 t-91 -39t-105.5 -12.5q-55 0 -106.5 12.5t-91 39t-63.5 66.5t-24 95zM385 606h418v45q0 45 -9.5 74.5t-33.5 47t-64.5 24t-101.5 6.5q-58 0 -98 -6t-64.5 -23t-35.5 -46.5t-11 -76.5v-45z" />
<glyph unicode="&#x116;" horiz-adv-x="1223" d="M162 111v1110q0 57 36.5 83.5t90.5 26.5h768q57 0 80.5 -35t23.5 -86q0 -25 -5.5 -46.5t-18 -37.5t-32.5 -25t-48 -9h-629v-295h481q28 0 48 -9t33 -25t18.5 -38t5.5 -47q0 -51 -24 -85t-81 -34h-481v-317h649q28 0 47.5 -9t32 -25t18 -38t5.5 -47q0 -26 -5.5 -48 t-18 -39t-32 -26.5t-47.5 -9.5h-788q-54 0 -90.5 27t-36.5 84zM485 1565q0 30 11 56.5t30 46t45 31t56 11.5t56.5 -11.5t46 -31t31 -46t11.5 -56.5t-11.5 -56.5t-31 -46t-46 -30.5t-56.5 -11t-56 11t-45 30.5t-30 46t-11 56.5z" />
<glyph unicode="&#x117;" horiz-adv-x="1171" d="M131 367v266q0 117 26 193t83.5 120t148 61t219.5 17q126 0 211.5 -18t137 -62.5t74 -118.5t22.5 -186v-117q0 -66 -26 -92.5t-83 -26.5h-559v-51q0 -80 55 -113.5t166 -33.5q42 0 87 3t88 6t81.5 6t67.5 3q55 0 80.5 -21t25.5 -79q0 -47 -17.5 -73t-68.5 -40 q-15 -5 -46.5 -10t-75 -9.5t-97.5 -7.5t-115 -3q-137 0 -230 18.5t-149.5 63.5t-81 119.5t-24.5 185.5zM385 606h418v45q0 45 -9.5 74.5t-33.5 47t-64.5 24t-101.5 6.5q-58 0 -98 -6t-64.5 -23t-35.5 -46.5t-11 -76.5v-45zM449 1237q0 30 11 56.5t29.5 46t44.5 31t56 11.5 t56.5 -11.5t46 -31t31 -46t11.5 -56.5t-11.5 -56t-31 -45.5t-46 -30.5t-56.5 -11t-56 11t-44.5 30.5t-29.5 45.5t-11 56z" />
<glyph unicode="&#x118;" horiz-adv-x="1223" d="M162 111v1110q0 57 36.5 83.5t90.5 26.5h768q57 0 80.5 -35t23.5 -86q0 -25 -5.5 -46.5t-18 -37.5t-32.5 -25t-48 -9h-629v-295h481q28 0 48 -9t33 -25t18.5 -38t5.5 -47q0 -51 -24 -85t-81 -34h-481v-317h649q28 0 47.5 -9t32 -25t18 -38t5.5 -47q0 -34 -10 -61.5 t-31 -43.5h14q-35 -32 -64.5 -60.5t-52 -55t-35 -52.5t-12.5 -51q0 -21 11 -29.5t28 -11t36 -2.5t36 -4.5t28 -17.5t11 -41q0 -92 -144 -92q-99 0 -148.5 41.5t-49.5 119.5q0 39 11 73t29 63.5t41.5 55t49.5 46.5h-639q-54 0 -90.5 27t-36.5 84z" />
<glyph unicode="&#x119;" horiz-adv-x="1171" d="M131 367v266q0 117 26 193t83.5 120t148 61t219.5 17q126 0 211.5 -18t137 -62.5t74 -118.5t22.5 -186v-117q0 -66 -26 -92.5t-83 -26.5h-559v-51q0 -80 55 -113.5t166 -33.5q42 0 87 3t88 6t81.5 6t67.5 3q55 0 80.5 -21t25.5 -79q0 -32 -8 -53.5t-27 -38.5 q-63 -56 -99 -119t-36 -113q0 -21 11 -29.5t28 -11t36 -2.5t36 -4.5t28 -17.5t11 -41q0 -92 -144 -92q-99 0 -148.5 41.5t-49.5 119.5q0 62 21.5 119.5t56.5 102.5q-31 -2 -65.5 -3t-70.5 -1q-137 0 -230 18.5t-149.5 63.5t-81 119.5t-24.5 185.5zM385 606h418v45 q0 45 -9.5 74.5t-33.5 47t-64.5 24t-101.5 6.5q-58 0 -98 -6t-64.5 -23t-35.5 -46.5t-11 -76.5v-45z" />
<glyph unicode="&#x11a;" horiz-adv-x="1223" d="M162 111v1110q0 57 36.5 83.5t90.5 26.5h768q57 0 80.5 -35t23.5 -86q0 -25 -5.5 -46.5t-18 -37.5t-32.5 -25t-48 -9h-629v-295h481q28 0 48 -9t33 -25t18.5 -38t5.5 -47q0 -51 -24 -85t-81 -34h-481v-317h649q28 0 47.5 -9t32 -25t18 -38t5.5 -47q0 -26 -5.5 -48 t-18 -39t-32 -26.5t-47.5 -9.5h-788q-54 0 -90.5 27t-36.5 84zM344 1630q0 15 5 29t14 25t22.5 17.5t30.5 6.5q15 0 29 -4t26 -10l154 -72l153 72q13 6 26.5 10t29.5 4q17 0 30 -6.5t22 -17.5t14 -25t5 -29q0 -20 -9 -40t-28 -34l-133 -102q-26 -20 -55 -31.5t-55 -11.5 t-55.5 11.5t-55.5 31.5l-133 102q-20 14 -28.5 34t-8.5 40z" />
<glyph unicode="&#x11b;" horiz-adv-x="1171" d="M131 367v266q0 117 26 193t83.5 120t148 61t219.5 17q126 0 211.5 -18t137 -62.5t74 -118.5t22.5 -186v-117q0 -66 -26 -92.5t-83 -26.5h-559v-51q0 -80 55 -113.5t166 -33.5q42 0 87 3t88 6t81.5 6t67.5 3q55 0 80.5 -21t25.5 -79q0 -47 -17.5 -73t-68.5 -40 q-15 -5 -46.5 -10t-75 -9.5t-97.5 -7.5t-115 -3q-137 0 -230 18.5t-149.5 63.5t-81 119.5t-24.5 185.5zM303 1303q0 29 19 53t53 24q15 0 29 -4t26 -10l154 -72l153 72q13 6 26.5 10t29.5 4q34 0 52.5 -24t18.5 -53q0 -20 -9 -40t-28 -34l-133 -103q-26 -20 -55 -31.5 t-55 -11.5t-55.5 11.5t-55.5 31.5l-133 103q-20 14 -28.5 34t-8.5 40zM385 606h418v45q0 45 -9.5 74.5t-33.5 47t-64.5 24t-101.5 6.5q-58 0 -98 -6t-64.5 -23t-35.5 -46.5t-11 -76.5v-45z" />
<glyph unicode="&#x11c;" horiz-adv-x="1440" d="M131 653q0 141 15 248t47 184.5t82 129t120.5 82t162.5 43t208 12.5q61 0 125.5 -3.5t119.5 -8t94 -9.5t50 -8q48 -14 69 -45.5t21 -81.5q0 -51 -22 -83t-78 -32q-37 0 -80 4t-90 9.5t-98 9.5t-103 4q-70 0 -125 -4.5t-97 -20.5t-71.5 -45.5t-48 -79.5t-27 -124 t-8.5 -177q0 -98 9.5 -168t29 -118.5t48.5 -78t68 -45.5t87 -21t106 -5q84 0 142 16t94 51t51 89.5t12 132.5h-233q-57 0 -80.5 33.5t-23.5 83.5q0 25 5.5 47.5t18 39t32 26.5t48.5 10h371q26 0 49 -6.5t40.5 -21t27.5 -36t10 -51.5q0 -126 -11 -224t-37.5 -170.5 t-69.5 -122.5t-106.5 -80.5t-149.5 -44t-198 -13.5q-103 0 -187.5 9.5t-152 35.5t-117.5 73t-83 121.5t-49.5 181t-16.5 252.5zM438 1489q0 20 8.5 39t28.5 35l133 102q26 20 55.5 31.5t55.5 11.5t55 -11.5t55 -31.5l134 -102q36 -32 36 -74q0 -31 -18.5 -54.5t-52.5 -23.5 q-16 0 -29.5 4t-26.5 10l-153 72l-154 -72q-12 -6 -26 -10t-29 -4q-34 0 -53 23.5t-19 54.5z" />
<glyph unicode="&#x11d;" horiz-adv-x="1253" d="M143 -57v757q0 108 25 172t80.5 97.5t145 44t218.5 10.5q36 0 72.5 -1t70.5 -4t63.5 -7.5t51.5 -10.5h7v93q0 27 10 46t27 31t39.5 17.5t47.5 5.5t47 -5.5t39 -17.5t27 -31t10 -46v-426q0 -103 -27 -168t-84 -101.5t-145.5 -49.5t-212.5 -13q-48 0 -86 2t-68.5 5 t-55.5 7.5t-48 9.5h-6v-127h408q103 0 172.5 -15t111.5 -48.5t60 -88t18 -132.5q0 -98 -26.5 -164.5t-88.5 -107t-163.5 -58.5t-251.5 -18q-135 0 -228.5 16t-151 55.5t-83 105.5t-25.5 165zM344 1198q0 20 8.5 39t28.5 35l133 102q26 20 55.5 31.5t55.5 11.5t55 -11.5 t55 -31.5l133 -102q37 -31 37 -74q0 -31 -18.5 -54.5t-52.5 -23.5q-16 0 -29.5 4t-26.5 11l-153 71l-154 -71q-12 -7 -26 -11t-29 -4q-34 0 -53 23.5t-19 54.5zM391 12v-49q0 -45 10 -72.5t37 -42.5t74.5 -20.5t122.5 -5.5q84 0 137.5 5t85 17.5t43.5 33t12 52.5 q0 24 -6.5 40t-24.5 25t-49 13t-79 4h-363zM391 651q0 -30 8 -49t33.5 -29.5t73 -14t127.5 -3.5q84 0 133 4.5t73.5 18.5t31 40t6.5 68v100q-39 7 -103.5 12t-152.5 5q-79 0 -125 -5.5t-69 -18.5t-29.5 -33.5t-6.5 -51.5v-43z" />
<glyph unicode="&#x11e;" horiz-adv-x="1440" d="M131 653q0 141 15 248t47 184.5t82 129t120.5 82t162.5 43t208 12.5q61 0 125.5 -3.5t119.5 -8t94 -9.5t50 -8q48 -14 69 -45.5t21 -81.5q0 -51 -22 -83t-78 -32q-37 0 -80 4t-90 9.5t-98 9.5t-103 4q-70 0 -125 -4.5t-97 -20.5t-71.5 -45.5t-48 -79.5t-27 -124 t-8.5 -177q0 -98 9.5 -168t29 -118.5t48.5 -78t68 -45.5t87 -21t106 -5q84 0 142 16t94 51t51 89.5t12 132.5h-233q-57 0 -80.5 33.5t-23.5 83.5q0 25 5.5 47.5t18 39t32 26.5t48.5 10h371q26 0 49 -6.5t40.5 -21t27.5 -36t10 -51.5q0 -126 -11 -224t-37.5 -170.5 t-69.5 -122.5t-106.5 -80.5t-149.5 -44t-198 -13.5q-103 0 -187.5 9.5t-152 35.5t-117.5 73t-83 121.5t-49.5 181t-16.5 252.5zM434 1624q0 31 21 53.5t55 22.5q36 0 57.5 -18.5t41 -41t44 -41t66.5 -18.5t66.5 18.5t44 41t41 41t57.5 18.5q34 0 55 -22.5t21 -53.5 q0 -55 -24 -95t-64 -66.5t-91.5 -39t-105.5 -12.5q-55 0 -106.5 12.5t-91 39t-63.5 66.5t-24 95z" />
<glyph unicode="&#x11f;" horiz-adv-x="1253" d="M143 -57v757q0 108 25 172t80.5 97.5t145 44t218.5 10.5q36 0 72.5 -1t70.5 -4t63.5 -7.5t51.5 -10.5h7v93q0 27 10 46t27 31t39.5 17.5t47.5 5.5t47 -5.5t39 -17.5t27 -31t10 -46v-426q0 -103 -27 -168t-84 -101.5t-145.5 -49.5t-212.5 -13q-48 0 -86 2t-68.5 5 t-55.5 7.5t-48 9.5h-6v-127h408q103 0 172.5 -15t111.5 -48.5t60 -88t18 -132.5q0 -98 -26.5 -164.5t-88.5 -107t-163.5 -58.5t-251.5 -18q-135 0 -228.5 16t-151 55.5t-83 105.5t-25.5 165zM340 1296q0 31 21 53.5t55 22.5q36 0 57.5 -18.5t41 -41t44 -41t66.5 -18.5 t66.5 18.5t44 41t41 41t57.5 18.5q34 0 54.5 -22.5t20.5 -53.5q0 -55 -24 -95t-63.5 -66.5t-91 -39t-105.5 -12.5q-55 0 -106.5 12.5t-91 39t-63.5 66.5t-24 95zM391 12v-49q0 -45 10 -72.5t37 -42.5t74.5 -20.5t122.5 -5.5q84 0 137.5 5t85 17.5t43.5 33t12 52.5 q0 24 -6.5 40t-24.5 25t-49 13t-79 4h-363zM391 651q0 -30 8 -49t33.5 -29.5t73 -14t127.5 -3.5q84 0 133 4.5t73.5 18.5t31 40t6.5 68v100q-39 7 -103.5 12t-152.5 5q-79 0 -125 -5.5t-69 -18.5t-29.5 -33.5t-6.5 -51.5v-43z" />
<glyph unicode="&#x120;" horiz-adv-x="1440" d="M131 653q0 141 15 248t47 184.5t82 129t120.5 82t162.5 43t208 12.5q61 0 125.5 -3.5t119.5 -8t94 -9.5t50 -8q48 -14 69 -45.5t21 -81.5q0 -51 -22 -83t-78 -32q-37 0 -80 4t-90 9.5t-98 9.5t-103 4q-70 0 -125 -4.5t-97 -20.5t-71.5 -45.5t-48 -79.5t-27 -124 t-8.5 -177q0 -98 9.5 -168t29 -118.5t48.5 -78t68 -45.5t87 -21t106 -5q84 0 142 16t94 51t51 89.5t12 132.5h-233q-57 0 -80.5 33.5t-23.5 83.5q0 25 5.5 47.5t18 39t32 26.5t48.5 10h371q26 0 49 -6.5t40.5 -21t27.5 -36t10 -51.5q0 -126 -11 -224t-37.5 -170.5 t-69.5 -122.5t-106.5 -80.5t-149.5 -44t-198 -13.5q-103 0 -187.5 9.5t-152 35.5t-117.5 73t-83 121.5t-49.5 181t-16.5 252.5zM590 1565q0 30 11 56.5t29.5 46t44.5 31t56 11.5t56.5 -11.5t46.5 -31t31.5 -46t11.5 -56.5t-11.5 -56.5t-31.5 -46t-46.5 -30.5t-56.5 -11 t-56 11t-44.5 30.5t-29.5 46t-11 56.5z" />
<glyph unicode="&#x121;" horiz-adv-x="1253" d="M143 -57v757q0 108 25 172t80.5 97.5t145 44t218.5 10.5q36 0 72.5 -1t70.5 -4t63.5 -7.5t51.5 -10.5h7v93q0 27 10 46t27 31t39.5 17.5t47.5 5.5t47 -5.5t39 -17.5t27 -31t10 -46v-426q0 -103 -27 -168t-84 -101.5t-145.5 -49.5t-212.5 -13q-48 0 -86 2t-68.5 5 t-55.5 7.5t-48 9.5h-6v-127h408q103 0 172.5 -15t111.5 -48.5t60 -88t18 -132.5q0 -98 -26.5 -164.5t-88.5 -107t-163.5 -58.5t-251.5 -18q-135 0 -228.5 16t-151 55.5t-83 105.5t-25.5 165zM391 12v-49q0 -45 10 -72.5t37 -42.5t74.5 -20.5t122.5 -5.5q84 0 137.5 5 t85 17.5t43.5 33t12 52.5q0 24 -6.5 40t-24.5 25t-49 13t-79 4h-363zM391 651q0 -30 8 -49t33.5 -29.5t73 -14t127.5 -3.5q84 0 133 4.5t73.5 18.5t31 40t6.5 68v100q-39 7 -103.5 12t-152.5 5q-79 0 -125 -5.5t-69 -18.5t-29.5 -33.5t-6.5 -51.5v-43zM481 1237 q0 30 11 56.5t30 46t45 31t56 11.5t56 -11.5t46 -31t31.5 -46t11.5 -56.5t-11.5 -56t-31.5 -45.5t-46 -30.5t-56 -11t-56 11t-45 30.5t-30 45.5t-11 56z" />
<glyph unicode="&#x122;" horiz-adv-x="1440" d="M131 653q0 141 15 248t47 184.5t82 129t120.5 82t162.5 43t208 12.5q61 0 125.5 -3.5t119.5 -8t94 -9.5t50 -8q48 -14 69 -45.5t21 -81.5q0 -51 -22 -83t-78 -32q-37 0 -80 4t-90 9.5t-98 9.5t-103 4q-70 0 -125 -4.5t-97 -20.5t-71.5 -45.5t-48 -79.5t-27 -124 t-8.5 -177q0 -98 9.5 -168t29 -118.5t48.5 -78t68 -45.5t87 -21t106 -5q84 0 142 16t94 51t51 89.5t12 132.5h-233q-57 0 -80.5 33.5t-23.5 83.5q0 25 5.5 47.5t18 39t32 26.5t48.5 10h371q26 0 49 -6.5t40.5 -21t27.5 -36t10 -51.5q0 -126 -11 -224t-37.5 -170.5 t-69.5 -122.5t-106.5 -80.5t-149.5 -44t-198 -13.5q-103 0 -187.5 9.5t-152 35.5t-117.5 73t-83 121.5t-49.5 181t-16.5 252.5zM584 -348q0 6 2 12l24 127q13 68 49.5 97.5t79.5 29.5q22 0 43.5 -8t37.5 -23t26 -36.5t10 -47.5q0 -36 -22 -82l-60 -114q-17 -32 -42.5 -48 t-53.5 -16q-37 0 -65.5 26t-28.5 71v12z" />
<glyph unicode="&#x123;" horiz-adv-x="1253" d="M143 -57v757q0 108 25 172t80.5 97.5t145 44t218.5 10.5q36 0 72.5 -1t70.5 -4t63.5 -7.5t51.5 -10.5h7v93q0 27 10 46t27 31t39.5 17.5t47.5 5.5t47 -5.5t39 -17.5t27 -31t10 -46v-426q0 -103 -27 -168t-84 -101.5t-145.5 -49.5t-212.5 -13q-48 0 -86 2t-68.5 5 t-55.5 7.5t-48 9.5h-6v-127h408q103 0 172.5 -15t111.5 -48.5t60 -88t18 -132.5q0 -98 -26.5 -164.5t-88.5 -107t-163.5 -58.5t-251.5 -18q-135 0 -228.5 16t-151 55.5t-83 105.5t-25.5 165zM391 12v-49q0 -45 10 -72.5t37 -42.5t74.5 -20.5t122.5 -5.5q84 0 137.5 5 t85 17.5t43.5 33t12 52.5q0 24 -6.5 40t-24.5 25t-49 13t-79 4h-363zM391 651q0 -30 8 -49t33.5 -29.5t73 -14t127.5 -3.5q84 0 133 4.5t73.5 18.5t31 40t6.5 68v100q-39 7 -103.5 12t-152.5 5q-79 0 -125 -5.5t-69 -18.5t-29.5 -33.5t-6.5 -51.5v-43zM492 1223q0 36 22 82 l59 114q17 32 43 48t54 16q37 0 65.5 -26t28.5 -71v-12t-2 -12l-25 -127q-14 -68 -50.5 -97.5t-78.5 -29.5q-22 0 -43 8t-37 23t-26 36.5t-10 47.5z" />
<glyph unicode="&#x124;" horiz-adv-x="1456" d="M162 94v1141q0 29 10.5 50.5t28.5 35.5t42 20.5t52 6.5q26 0 50 -6.5t42.5 -20.5t29.5 -35.5t11 -50.5v-436h600v436q0 29 10.5 50.5t28.5 35.5t42 20.5t52 6.5q27 0 51 -6.5t42.5 -20.5t29 -35.5t10.5 -50.5v-1141q0 -30 -10.5 -51t-29 -34t-42.5 -19t-51 -6 q-28 0 -52 6t-42 19t-28.5 34t-10.5 51v465h-600v-465q0 -30 -11 -51t-29.5 -34t-42.5 -19t-50 -6q-28 0 -52 6t-42 19t-28.5 34t-10.5 51zM446 1489q0 20 8.5 39t28.5 35l133 102q26 20 55.5 31.5t55.5 11.5t55.5 -11.5t55.5 -31.5l133 -102q37 -32 37 -74q0 -31 -19 -54.5 t-53 -23.5q-16 0 -29.5 4t-25.5 10l-154 72l-154 -72q-12 -6 -25.5 -10t-29.5 -4q-34 0 -53 23.5t-19 54.5z" />
<glyph unicode="&#x125;" horiz-adv-x="1219" d="M143 90v1174q0 28 10.5 48.5t28 33.5t41 19.5t49.5 6.5q54 0 91.5 -26t37.5 -82v-265q21 5 49.5 9.5t59.5 8t62 5.5t57 2q87 0 154 -5.5t116.5 -22t83 -46t54 -77.5t29.5 -117t9 -164v-502q0 -29 -10 -49t-27.5 -32.5t-40.5 -18.5t-49 -6t-48.5 6t-39.5 18.5t-27 32.5 t-10 49v490q0 70 -7 112.5t-29.5 65.5t-65 31t-113.5 8q-24 0 -53.5 -2t-58 -5t-54 -6.5t-41.5 -7.5v-686q0 -57 -37.5 -81.5t-91.5 -24.5q-26 0 -49.5 6t-41 18.5t-28 32.5t-10.5 49zM328 1536q0 20 8.5 39t28.5 35l133 102q26 20 55 31.5t55 11.5t55.5 -11.5t55.5 -31.5 l133 -102q37 -31 37 -74q0 -31 -19 -54.5t-53 -23.5q-15 0 -29 4t-26 11l-154 71l-153 -71q-13 -7 -26.5 -11t-29.5 -4q-34 0 -52.5 23.5t-18.5 54.5z" />
<glyph unicode="&#x126;" horiz-adv-x="1456" d="M20 1040q0 48 23 81.5t74 33.5h45v80q0 29 10.5 50.5t28.5 35.5t42 20.5t52 6.5q26 0 50 -6.5t42.5 -20.5t29.5 -35.5t11 -50.5v-80h600v80q0 29 10.5 50.5t28.5 35.5t42 20.5t52 6.5q27 0 51 -6.5t42.5 -20.5t29 -35.5t10.5 -50.5v-80h45q51 0 75 -33.5t24 -81.5 q0 -24 -6 -45t-18 -36.5t-31 -25t-44 -9.5h-45v-830q0 -30 -10.5 -51t-29 -34t-42.5 -19t-51 -6q-28 0 -52 6t-42 19t-28.5 34t-10.5 51v422h-600v-422q0 -30 -11 -51t-29.5 -34t-42.5 -19t-50 -6q-28 0 -52 6t-42 19t-28.5 34t-10.5 51v830h-45q-26 0 -44 9.5t-30 25 t-17.5 36.5t-5.5 45zM428 756h600v168h-600v-168z" />
<glyph unicode="&#x127;" horiz-adv-x="1219" d="M20 1192q0 48 23 76t74 28h30q11 39 45.5 57.5t79.5 18.5t79.5 -18.5t45.5 -57.5h252q51 0 75 -28t24 -76t-24 -77.5t-75 -29.5h-248v-86q21 5 49.5 9.5t59.5 8t62 5.5t57 2q87 0 154 -5.5t116.5 -22t83 -46t54 -77.5t29.5 -117t9 -164v-502q0 -29 -10 -49t-27.5 -32.5 t-40.5 -18.5t-49 -6t-48.5 6t-39.5 18.5t-27 32.5t-10 49v490q0 70 -7 112.5t-29.5 65.5t-65 31t-113.5 8q-24 0 -53.5 -2t-58 -5t-54 -6.5t-41.5 -7.5v-686q0 -57 -37.5 -81.5t-91.5 -24.5q-26 0 -49.5 6t-41 18.5t-28 32.5t-10.5 49v995h-26q-51 0 -74 29.5t-23 77.5z" />
<glyph unicode="&#x128;" horiz-adv-x="831" d="M57 117q0 52 23 84t80 32h123v863h-123q-57 0 -80 32t-23 84q0 53 23 86t80 33h512q57 0 79.5 -33t22.5 -86q0 -52 -22.5 -84t-79.5 -32h-123v-863h123q57 0 79.5 -32t22.5 -84q0 -53 -22.5 -85t-79.5 -32h-512q-57 0 -80 32t-23 85zM133 1548q0 42 18.5 68t42 40 t45.5 18.5t29 4.5q34 0 67.5 -7.5t63 -16t53 -16t37.5 -7.5t26.5 7.5t26 16t29.5 16t37 7.5q35 0 61.5 -26.5t26.5 -75.5q0 -38 -16.5 -63t-39.5 -41t-48 -22.5t-43 -6.5q-21 0 -50 8t-58.5 17.5t-56 17.5t-44.5 8t-30 -7.5t-23.5 -16t-25.5 -16t-36 -7.5q-38 0 -65 25.5 t-27 74.5z" />
<glyph unicode="&#x129;" horiz-adv-x="541" d="M-10 1221q0 42 18.5 67.5t42 40t45.5 19t29 4.5q34 0 67.5 -7.5t63 -16t53 -16t37.5 -7.5t26.5 7.5t26 16t29.5 16t37 7.5q35 0 61.5 -26.5t26.5 -76.5q0 -38 -16.5 -63t-39.5 -41t-48 -22.5t-43 -6.5q-22 0 -50.5 8t-58 17.5t-56 17.5t-44.5 8t-30 -7.5t-24 -16t-26 -16 t-35 -7.5q-38 0 -65 25.5t-27 75.5zM143 90v821q0 28 10 49t27.5 34t40.5 19.5t49 6.5t49 -6.5t40.5 -19.5t27.5 -34t10 -49v-821q0 -29 -10 -49t-27.5 -32.5t-40.5 -18.5t-49 -6t-49 6t-40.5 18.5t-27.5 32.5t-10 49z" />
<glyph unicode="&#x12a;" horiz-adv-x="831" d="M57 117q0 52 23 84t80 32h123v863h-123q-57 0 -80 32t-23 84q0 53 23 86t80 33h512q57 0 79.5 -33t22.5 -86q0 -52 -22.5 -84t-79.5 -32h-123v-863h123q57 0 79.5 -32t22.5 -84q0 -53 -22.5 -85t-79.5 -32h-512q-57 0 -80 32t-23 85zM133 1565q0 48 22.5 76t73.5 28h369 q51 0 74.5 -28t23.5 -76t-23.5 -77.5t-74.5 -29.5h-369q-51 0 -73.5 29.5t-22.5 77.5z" />
<glyph unicode="&#x12b;" horiz-adv-x="541" d="M-10 1237q0 48 22.5 76t73.5 28h369q51 0 74.5 -28t23.5 -76t-23.5 -77.5t-74.5 -29.5h-369q-51 0 -73.5 29.5t-22.5 77.5zM143 90v821q0 28 10 49t27.5 34t40.5 19.5t49 6.5t49 -6.5t40.5 -19.5t27.5 -34t10 -49v-821q0 -29 -10 -49t-27.5 -32.5t-40.5 -18.5t-49 -6 t-49 6t-40.5 18.5t-27.5 32.5t-10 49z" />
<glyph unicode="&#x12c;" horiz-adv-x="831" d="M57 117q0 52 23 84t80 32h123v863h-123q-57 0 -80 32t-23 84q0 53 23 86t80 33h512q57 0 79.5 -33t22.5 -86q0 -52 -22.5 -84t-79.5 -32h-123v-863h123q57 0 79.5 -32t22.5 -84q0 -53 -22.5 -85t-79.5 -32h-512q-57 0 -80 32t-23 85zM131 1624q0 31 21 53.5t55 22.5 q36 0 57.5 -18.5t41 -41t44 -41t66.5 -18.5t66.5 18.5t44 41t41 41t57.5 18.5q34 0 54.5 -22.5t20.5 -53.5q0 -55 -24 -95t-63.5 -66.5t-91 -39t-105.5 -12.5q-55 0 -106.5 12.5t-91 39t-63.5 66.5t-24 95z" />
<glyph unicode="&#x12d;" horiz-adv-x="541" d="M-14 1296q0 31 20.5 53.5t54.5 22.5q36 0 57.5 -18.5t41 -41t44 -41t66.5 -18.5t66.5 18.5t44 41t41 41t57.5 18.5q34 0 55 -22.5t21 -53.5q0 -55 -24 -95t-64 -66.5t-91 -39t-106 -12.5q-54 0 -105.5 12.5t-91 39t-63.5 66.5t-24 95zM143 90v821q0 28 10 49t27.5 34 t40.5 19.5t49 6.5t49 -6.5t40.5 -19.5t27.5 -34t10 -49v-821q0 -29 -10 -49t-27.5 -32.5t-40.5 -18.5t-49 -6t-49 6t-40.5 18.5t-27.5 32.5t-10 49z" />
<glyph unicode="&#x12e;" horiz-adv-x="831" d="M57 117q0 52 23 84t80 32h123v863h-123q-57 0 -80 32t-23 84q0 53 23 86t80 33h512q57 0 79.5 -33t22.5 -86q0 -52 -22.5 -84t-79.5 -32h-123v-863h123q57 0 79.5 -32t22.5 -84q0 -34 -8.5 -59.5t-28.5 -39.5h6q-35 -32 -64.5 -60.5t-51.5 -55t-34.5 -52.5t-12.5 -51 q0 -21 11 -29.5t27.5 -11t36 -2.5t36 -4.5t27.5 -17.5t11 -41q0 -92 -143 -92q-99 0 -149 41.5t-50 119.5q0 39 11 73t29.5 63.5t42 55t48.5 46.5h-358q-57 0 -80 32t-23 85z" />
<glyph unicode="&#x12f;" horiz-adv-x="541" d="M92 -238q0 36 10 68.5t27 61t39.5 53.5t46.5 47q-32 9 -52 32.5t-20 65.5v821q0 28 10 49t27.5 34t40.5 19.5t49 6.5t49 -6.5t40.5 -19.5t27.5 -34t10 -49v-821q0 -23 -7 -41t-19 -31h78q-35 -32 -65 -60.5t-52 -55t-34.5 -52.5t-12.5 -51q0 -21 11 -29.5t27.5 -11 t36 -2.5t36 -4.5t27.5 -17.5t11 -41q0 -92 -143 -92q-99 0 -149 41.5t-50 119.5zM129 1247q0 30 11 56.5t29.5 46.5t44.5 31.5t56 11.5t56.5 -11.5t46.5 -31.5t31.5 -46.5t11.5 -56.5t-11.5 -56t-31.5 -45.5t-46.5 -30.5t-56.5 -11t-56 11t-44.5 30.5t-29.5 45.5t-11 56z " />
<glyph unicode="&#x130;" horiz-adv-x="831" d="M57 117q0 52 23 84t80 32h123v863h-123q-57 0 -80 32t-23 84q0 53 23 86t80 33h512q57 0 79.5 -33t22.5 -86q0 -52 -22.5 -84t-79.5 -32h-123v-863h123q57 0 79.5 -32t22.5 -84q0 -53 -22.5 -85t-79.5 -32h-512q-57 0 -80 32t-23 85zM272 1565q0 30 11 56.5t30 46t45 31 t56 11.5t56.5 -11.5t46 -31t31 -46t11.5 -56.5t-11.5 -56.5t-31 -46t-46 -30.5t-56.5 -11t-56 11t-45 30.5t-30 46t-11 56.5z" />
<glyph unicode="&#x131;" horiz-adv-x="541" d="M143 90v821q0 28 10 49t27.5 34t40.5 19.5t49 6.5t49 -6.5t40.5 -19.5t27.5 -34t10 -49v-821q0 -29 -10 -49t-27.5 -32.5t-40.5 -18.5t-49 -6t-49 6t-40.5 18.5t-27.5 32.5t-10 49z" />
<glyph unicode="&#x132;" horiz-adv-x="1942" d="M57 117q0 52 23 84t80 32h123v863h-123q-57 0 -80 32t-23 84q0 53 23 86t80 33h512q57 0 79.5 -33t22.5 -86q0 -52 -22.5 -84t-79.5 -32h-123v-863h123q57 0 79.5 -32t22.5 -84q0 -53 -22.5 -85t-79.5 -32h-512q-57 0 -80 32t-23 85zM885 403v37q0 29 10 50t27.5 34 t41 19t50.5 6q55 0 92 -25.5t37 -83.5v-14q0 -75 8 -118.5t29 -66t57 -28.5t92 -6t92.5 5.5t57.5 27.5t29 66t8 120v813q0 29 10.5 50t28 34t41 19t49.5 6q27 0 51.5 -6t43.5 -19t30.5 -34t11.5 -50v-836q0 -124 -22.5 -205.5t-75.5 -130t-140 -68t-215 -19.5 q-78 0 -141.5 5t-113 21t-85 44.5t-59 75.5t-34.5 115t-11 162z" />
<glyph unicode="&#x133;" horiz-adv-x="1085" d="M129 1247q0 30 11 56.5t29.5 46.5t44.5 31.5t56 11.5t56.5 -11.5t46.5 -31.5t31.5 -46.5t11.5 -56.5t-11.5 -56t-31.5 -45.5t-46.5 -30.5t-56.5 -11t-56 11t-44.5 30.5t-29.5 45.5t-11 56zM143 90v821q0 28 10 49t27.5 34t40.5 19.5t49 6.5t49 -6.5t40.5 -19.5t27.5 -34 t10 -49v-821q0 -29 -10 -49t-27.5 -32.5t-40.5 -18.5t-49 -6t-49 6t-40.5 18.5t-27.5 32.5t-10 49zM492 -276q0 24 5 45.5t17 37.5t31 25.5t47 9.5q24 0 41.5 5t29 17.5t16.5 33.5t5 53v954q0 58 36.5 83.5t90.5 25.5q26 0 50 -6t42 -19t28.5 -34t10.5 -50v-964 q0 -71 -12 -133t-44 -108t-89 -72.5t-148 -26.5q-38 0 -67 5.5t-49 19.5t-30.5 38t-10.5 60zM672 1247q0 30 11 56.5t29.5 46.5t44.5 31.5t56 11.5t56.5 -11.5t46 -31.5t31 -46.5t11.5 -56.5t-11.5 -56t-31 -45.5t-46 -30.5t-56.5 -11t-56 11t-44.5 30.5t-29.5 45.5t-11 56z " />
<glyph unicode="&#x134;" horiz-adv-x="1110" d="M53 403v37q0 29 10 50t27.5 34t41 19t50.5 6q28 0 51.5 -6t40.5 -19t27 -34t10 -50v-14q0 -75 8 -118.5t29 -66t57.5 -28.5t92.5 -6t92 5.5t57 27.5t29 66t8 120v813q0 29 10.5 50t28 34t41 19t49.5 6q27 0 52 -6t43.5 -19t30 -34t11.5 -50v-836q0 -124 -22.5 -205.5 t-75 -130t-139.5 -68t-215 -19.5q-78 0 -141.5 5t-113 21t-85.5 44.5t-59.5 75.5t-34.5 115t-11 162zM530 1489q0 20 8.5 39t28.5 35l133 102q26 20 55.5 31.5t55.5 11.5t55.5 -11.5t55.5 -31.5l133 -102q37 -32 37 -74q0 -31 -19 -54.5t-53 -23.5q-16 0 -29.5 4t-25.5 10 l-154 72l-154 -72q-12 -6 -25.5 -10t-29.5 -4q-34 0 -53 23.5t-19 54.5z" />
<glyph unicode="&#x135;" horiz-adv-x="545" d="M-49 -276q0 24 5 45.5t17 37.5t31 25.5t47 9.5h15q19 0 33.5 5t24 17.5t14.5 33.5t5 53v954q0 29 10 50t27 34t40 19t50 6q26 0 50 -6t42 -19t28.5 -34t10.5 -50v-964q0 -71 -11.5 -133t-44 -108t-89.5 -72.5t-147 -26.5q-38 0 -67.5 5.5t-49.5 19.5t-30.5 38t-10.5 60z M-8 1161q0 20 8.5 39t28.5 35l133 102q26 20 55 31.5t55 11.5t55.5 -11.5t55.5 -31.5l133 -102q37 -31 37 -74q0 -31 -19 -54.5t-53 -23.5q-15 0 -29 4.5t-26 10.5l-154 71l-153 -71q-13 -6 -26.5 -10.5t-29.5 -4.5q-34 0 -52.5 23.5t-18.5 54.5z" />
<glyph unicode="&#x136;" horiz-adv-x="1286" d="M162 94v1141q0 29 10.5 50.5t28 35.5t41.5 20.5t51 6.5t51.5 -6.5t43 -20.5t29.5 -35.5t11 -50.5v-1141q0 -30 -11 -51t-29.5 -34t-43 -19t-51.5 -6t-51 6t-41.5 19t-28 34t-10.5 51zM483 645q0 43 22 91t73 104l430 465q40 43 92 43q26 0 51 -9t44.5 -25t31.5 -37.5 t12 -45.5q0 -17 -6 -35.5t-25 -38.5l-473 -498l484 -442q26 -22 36.5 -53.5t10.5 -57.5q0 -30 -10.5 -53.5t-28.5 -39t-42.5 -23.5t-51.5 -8q-19 0 -41 9t-37 23l-482 453q-46 43 -68 88t-22 90zM496 -348q0 6 2 12l24 127q13 68 49.5 97.5t79.5 29.5q22 0 43.5 -8t37.5 -23 t26 -36.5t10 -47.5q0 -38 -23 -82l-59 -114q-17 -32 -42.5 -48t-53.5 -16q-37 0 -65.5 26t-28.5 71v12z" />
<glyph unicode="&#x137;" horiz-adv-x="1100" d="M143 90v1174q0 28 10.5 48.5t28 33.5t41 19.5t49.5 6.5q54 0 91.5 -26t37.5 -82v-664h5l409 373q25 21 57 33t58 12q36 0 65.5 -19.5t41 -51t0 -71t-57.5 -79.5l-225 -193l270 -385q31 -43 36 -83t-7 -71.5t-38 -52t-58 -25t-66 9.5t-62 52l-274 406l-154 -119v-246 q0 -57 -37.5 -81.5t-91.5 -24.5q-26 0 -49.5 6t-41 18.5t-28 32.5t-10.5 49zM412 -348q0 6 2 12l24 127q13 68 49.5 97.5t79.5 29.5q22 0 43.5 -8t37.5 -23t26 -36.5t10 -47.5q0 -36 -22 -82l-60 -114q-17 -32 -42.5 -48t-53.5 -16q-37 0 -65.5 26t-28.5 71v12z" />
<glyph unicode="&#x138;" horiz-adv-x="1100" d="M143 90v823q0 28 10.5 49t28 34t41 19.5t49.5 6.5q54 0 91.5 -26t37.5 -83v-313h5l409 373q23 21 54 33t57 12q46 0 79 -29t33 -76q0 -38 -31 -78t-76.5 -80.5t-97 -79.5t-92.5 -73l289 -391q20 -28 28.5 -52.5t8.5 -47.5q0 -27 -10.5 -50t-27.5 -39.5t-39.5 -26 t-47.5 -9.5q-31 0 -60.5 14.5t-52.5 48.5l-284 404l-144 -117v-246q0 -57 -37.5 -81.5t-91.5 -24.5q-26 0 -49.5 6t-41 18.5t-28 32.5t-10.5 49z" />
<glyph unicode="&#x139;" horiz-adv-x="1122" d="M162 109v1120q0 28 10.5 49t28 34.5t41.5 20t51 6.5q54 0 91.5 -26.5t37.5 -83.5v-987h569q28 0 47.5 -9.5t32 -26t18 -38.5t5.5 -47q0 -51 -24 -86t-79 -35h-700q-27 0 -50.5 6t-41 19t-27.5 34t-10 50zM233 1485q0 14 6.5 29.5t20.5 29.5l137 139q37 37 78 37 q21 0 40 -8t33.5 -21.5t23 -31.5t8.5 -37t-10 -37.5t-31 -34.5l-160 -118q-16 -11 -31 -16t-31 -5q-35 0 -59.5 21.5t-24.5 52.5z" />
<glyph unicode="&#x13a;" horiz-adv-x="545" d="M125 1532q0 14 6.5 29.5t20.5 29.5l137 140q36 36 78 36q21 0 39.5 -8t33 -21.5t23 -31.5t8.5 -37q0 -18 -9.5 -37t-31.5 -35l-160 -118q-15 -11 -30.5 -16t-30.5 -5q-35 0 -59.5 21.5t-24.5 52.5zM143 90v1174q0 28 10.5 48.5t28 33.5t41 19.5t49.5 6.5q54 0 91.5 -26 t37.5 -82v-1174q0 -57 -37.5 -81.5t-91.5 -24.5q-26 0 -49.5 6t-41 18.5t-28 32.5t-10.5 49z" />
<glyph unicode="&#x13b;" horiz-adv-x="1122" d="M162 109v1120q0 28 10.5 49t28 34.5t41.5 20t51 6.5q54 0 91.5 -26.5t37.5 -83.5v-987h569q28 0 47.5 -9.5t32 -26t18 -38.5t5.5 -47q0 -51 -24 -86t-79 -35h-700q-27 0 -50.5 6t-41 19t-27.5 34t-10 50zM424 -348q0 6 2 12l25 127q12 67 48.5 97t80.5 30q22 0 43 -8 t37 -23t26 -36.5t10 -47.5q0 -36 -22 -82l-60 -114q-17 -32 -42.5 -48t-53.5 -16q-37 0 -65.5 26t-28.5 71v12z" />
<glyph unicode="&#x13c;" horiz-adv-x="545" d="M135 -348q0 6 2 12l25 127q12 67 48.5 97t80.5 30q22 0 43 -8t37.5 -23t26.5 -36.5t10 -47.5q0 -18 -6 -39t-17 -43l-59 -114q-17 -32 -43 -48t-54 -16q-37 0 -65.5 26t-28.5 71v12zM143 90v1174q0 28 10.5 48.5t28 33.5t41 19.5t49.5 6.5q54 0 91.5 -26t37.5 -82v-1174 q0 -57 -37.5 -81.5t-91.5 -24.5q-26 0 -49.5 6t-41 18.5t-28 32.5t-10.5 49z" />
<glyph unicode="&#x13d;" horiz-adv-x="1122" d="M162 109v1120q0 28 10.5 49t28 34.5t41.5 20t51 6.5q54 0 91.5 -26.5t37.5 -83.5v-987h569q28 0 47.5 -9.5t32 -26t18 -38.5t5.5 -47q0 -51 -24 -86t-79 -35h-700q-27 0 -50.5 6t-41 19t-27.5 34t-10 50zM510 1032v12.5t2 12.5l25 168q4 34 17 58t31 39.5t39 22.5t42 7 q22 0 42.5 -8t36 -23t24.5 -36.5t9 -47.5q0 -36 -18 -82l-60 -156q-12 -34 -40 -48.5t-56 -14.5q-37 0 -65.5 25.5t-28.5 70.5z" />
<glyph unicode="&#x13e;" horiz-adv-x="678" d="M143 90v1174q0 28 10.5 48.5t28 33.5t41 19.5t49.5 6.5q54 0 91.5 -26t37.5 -82v-1174q0 -57 -37.5 -81.5t-91.5 -24.5q-26 0 -49.5 6t-41 18.5t-28 32.5t-10.5 49zM463 1032v12.5t2 12.5l24 168q5 34 18 58t31 39.5t38.5 22.5t41.5 7q22 0 42.5 -8t36.5 -23t25 -36.5 t9 -47.5q0 -36 -18 -82l-60 -156q-12 -34 -40 -48.5t-56 -14.5q-37 0 -65.5 25.5t-28.5 70.5z" />
<glyph unicode="&#x13f;" horiz-adv-x="1122" d="M162 109v1120q0 28 10.5 49t28 34.5t41.5 20t51 6.5q54 0 91.5 -26.5t37.5 -83.5v-987h569q28 0 47.5 -9.5t32 -26t18 -38.5t5.5 -47q0 -51 -24 -86t-79 -35h-700q-27 0 -50.5 6t-41 19t-27.5 34t-10 50zM569 682q0 34 12 63.5t33.5 52t50.5 35.5t64 13q34 0 63.5 -13 t51.5 -35.5t34.5 -52t12.5 -63.5q0 -35 -12.5 -65t-34.5 -51.5t-51.5 -33.5t-63.5 -12q-35 0 -64 12t-50.5 33.5t-33.5 51.5t-12 65z" />
<glyph unicode="&#x140;" horiz-adv-x="745" d="M143 90v1174q0 28 10.5 48.5t28 33.5t41 19.5t49.5 6.5q54 0 91.5 -26t37.5 -82v-1174q0 -57 -37.5 -81.5t-91.5 -24.5q-26 0 -49.5 6t-41 18.5t-28 32.5t-10.5 49zM463 682q0 34 12 63.5t33 52t50.5 35.5t64.5 13q34 0 63 -13t51 -35.5t34.5 -52t12.5 -63.5 q0 -35 -12.5 -65t-34.5 -51.5t-51 -33.5t-63 -12q-35 0 -64.5 12t-50.5 33.5t-33 51.5t-12 65z" />
<glyph unicode="&#x141;" horiz-adv-x="1122" d="M16 522q0 25 13.5 44.5t44.5 33.5l88 41v588q0 28 10.5 49t28 34.5t41.5 20t51 6.5q54 0 91.5 -26.5t37.5 -83.5v-465l80 37q24 12 49 12q18 0 35.5 -9.5t32 -26.5t23.5 -39.5t9 -47.5t-14 -46.5t-45 -35.5l-170 -78v-288h569q28 0 47.5 -9.5t32 -26t18 -38.5t5.5 -47 q0 -51 -24 -86t-79 -35h-700q-27 0 -50.5 6t-41 19t-27.5 34t-10 50v299q-13 -7 -23.5 -9t-21.5 -2q-18 0 -36.5 10.5t-32.5 27.5t-23 40t-9 47z" />
<glyph unicode="&#x142;" horiz-adv-x="545" d="M-45 727q0 25 13 44.5t44 33.5l131 61v398q0 28 10.5 48.5t28 33.5t41 19.5t49.5 6.5q54 0 91.5 -26t37.5 -82v-277l39 19q25 12 49 12q18 0 36 -9.5t32.5 -26.5t23.5 -39.5t9 -47.5t-14.5 -46.5t-45.5 -35.5l-129 -59v-664q0 -57 -37.5 -81.5t-91.5 -24.5q-26 0 -49.5 6 t-41 18.5t-28 32.5t-10.5 49v543l-41 -19q-24 -12 -47 -12q-19 0 -37 10.5t-32 28t-22.5 40t-8.5 46.5z" />
<glyph unicode="&#x143;" horiz-adv-x="1509" d="M164 94v1041q0 58 16 99t41.5 66.5t58 37.5t64.5 12q45 0 78 -10.5t58 -28t44 -41t35 -49.5l531 -856h8v872q0 57 36 84t89 27q55 0 89 -27t34 -84v-1040q0 -59 -17 -100t-43 -67t-59 -38t-64 -12q-45 0 -77.5 11t-56.5 29t-42.5 41.5t-34.5 49.5l-534 858h-4v-875 q0 -29 -10 -49.5t-27.5 -34t-40.5 -20t-49 -6.5q-57 0 -90 26.5t-33 83.5zM582 1485q0 14 6 29.5t20 29.5l137 139q37 37 78 37q21 0 40 -8t33.5 -21.5t23 -31.5t8.5 -37t-10 -37.5t-31 -34.5l-160 -118q-15 -11 -30.5 -16t-30.5 -5q-36 0 -60 21.5t-24 52.5z" />
<glyph unicode="&#x144;" horiz-adv-x="1219" d="M143 90v502q0 95 8.5 164t29 117t55 77.5t86 46t121.5 22t163 5.5q92 0 162.5 -5.5t123 -22t87.5 -46t56.5 -77.5t30.5 -117t9 -164v-502q0 -29 -10 -49t-27.5 -32.5t-40.5 -18.5t-49 -6t-48.5 6t-39.5 18.5t-27 32.5t-10 49v490q0 70 -7.5 112.5t-30.5 65.5t-65.5 31 t-113.5 8t-112 -8t-63 -31t-28 -65.5t-6 -112.5v-490q0 -29 -10 -49t-27.5 -32.5t-40.5 -18.5t-49 -6q-27 0 -50 6t-40 18.5t-27 32.5t-10 49zM434 1157q0 14 6.5 30t20.5 30l137 139q39 37 78 37q21 0 39.5 -8t33 -22t23 -32t8.5 -37q0 -18 -9.5 -37t-31.5 -34l-159 -119 q-32 -21 -62 -21q-35 0 -59.5 21.5t-24.5 52.5z" />
<glyph unicode="&#x145;" horiz-adv-x="1509" d="M164 94v1041q0 58 16 99t41.5 66.5t58 37.5t64.5 12q45 0 78 -10.5t58 -28t44 -41t35 -49.5l531 -856h8v872q0 57 36 84t89 27q55 0 89 -27t34 -84v-1040q0 -59 -17 -100t-43 -67t-59 -38t-64 -12q-45 0 -77.5 11t-56.5 29t-42.5 41.5t-34.5 49.5l-534 858h-4v-875 q0 -29 -10 -49.5t-27.5 -34t-40.5 -20t-49 -6.5q-57 0 -90 26.5t-33 83.5zM618 -360q0 6 0.5 12t2.5 12l24 127q13 68 49.5 97.5t79.5 29.5q22 0 43.5 -8t37.5 -23t26 -36.5t10 -47.5q0 -38 -23 -82l-59 -114q-17 -32 -42.5 -48t-53.5 -16q-18 0 -35.5 6.5t-30.5 19.5 t-21 30.5t-8 40.5z" />
<glyph unicode="&#x146;" horiz-adv-x="1219" d="M143 90v502q0 95 8.5 164t29 117t55 77.5t86 46t121.5 22t163 5.5q92 0 162.5 -5.5t123 -22t87.5 -46t56.5 -77.5t30.5 -117t9 -164v-502q0 -29 -10 -49t-27.5 -32.5t-40.5 -18.5t-49 -6t-48.5 6t-39.5 18.5t-27 32.5t-10 49v490q0 70 -7.5 112.5t-30.5 65.5t-65.5 31 t-113.5 8t-112 -8t-63 -31t-28 -65.5t-6 -112.5v-490q0 -29 -10 -49t-27.5 -32.5t-40.5 -18.5t-49 -6q-27 0 -50 6t-40 18.5t-27 32.5t-10 49zM471 -348q0 6 2 12l25 127q12 67 48.5 97t80.5 30q22 0 43 -8t37 -23t26 -36.5t10 -47.5q0 -36 -22 -82l-59 -114 q-17 -32 -43 -48t-54 -16q-37 0 -65.5 26t-28.5 71v12z" />
<glyph unicode="&#x147;" horiz-adv-x="1509" d="M164 94v1041q0 58 16 99t41.5 66.5t58 37.5t64.5 12q45 0 78 -10.5t58 -28t44 -41t35 -49.5l531 -856h8v872q0 57 36 84t89 27q55 0 89 -27t34 -84v-1040q0 -59 -17 -100t-43 -67t-59 -38t-64 -12q-45 0 -77.5 11t-56.5 29t-42.5 41.5t-34.5 49.5l-534 858h-4v-875 q0 -29 -10 -49.5t-27.5 -34t-40.5 -20t-49 -6.5q-57 0 -90 26.5t-33 83.5zM473 1630q0 15 5 29t14 25t22.5 17.5t30.5 6.5q15 0 29 -4t26 -10l154 -72l153 72q13 6 26.5 10t29.5 4q17 0 30 -6.5t22 -17.5t14 -25t5 -29q0 -20 -9 -40t-28 -34l-133 -102q-26 -20 -55 -31.5 t-55 -11.5t-55.5 11.5t-55.5 31.5l-133 102q-20 14 -28.5 34t-8.5 40z" />
<glyph unicode="&#x148;" horiz-adv-x="1219" d="M143 90v502q0 95 8.5 164t29 117t55 77.5t86 46t121.5 22t163 5.5q92 0 162.5 -5.5t123 -22t87.5 -46t56.5 -77.5t30.5 -117t9 -164v-502q0 -29 -10 -49t-27.5 -32.5t-40.5 -18.5t-49 -6t-48.5 6t-39.5 18.5t-27 32.5t-10 49v490q0 70 -7.5 112.5t-30.5 65.5t-65.5 31 t-113.5 8t-112 -8t-63 -31t-28 -65.5t-6 -112.5v-490q0 -29 -10 -49t-27.5 -32.5t-40.5 -18.5t-49 -6q-27 0 -50 6t-40 18.5t-27 32.5t-10 49zM328 1303q0 29 18.5 53t52.5 24q16 0 29.5 -4t26.5 -10l153 -72l154 72q12 6 26 10t29 4q34 0 53 -24t19 -53q0 -20 -9 -40 t-28 -34l-133 -103q-26 -20 -55.5 -31.5t-55.5 -11.5t-55 11.5t-55 31.5l-133 103q-20 14 -28.5 34t-8.5 40z" />
<glyph unicode="&#x149;" horiz-adv-x="1219" d="M143 90v502q0 95 8.5 164t29 117t55 77.5t86 46t121.5 22t163 5.5q92 0 162.5 -5.5t123 -22t87.5 -46t56.5 -77.5t30.5 -117t9 -164v-502q0 -29 -10 -49t-27.5 -32.5t-40.5 -18.5t-49 -6t-48.5 6t-39.5 18.5t-27 32.5t-10 49v490q0 70 -7.5 112.5t-30.5 65.5t-65.5 31 t-113.5 8t-112 -8t-63 -31t-28 -65.5t-6 -112.5v-490q0 -29 -10 -49t-27.5 -32.5t-40.5 -18.5t-49 -6q-27 0 -50 6t-40 18.5t-27 32.5t-10 49zM242 1204v12.5t2 12.5l24 127q13 68 49.5 97.5t79.5 29.5q22 0 43.5 -8t37.5 -23t26 -36.5t10 -47.5q0 -36 -22 -82l-60 -115 q-17 -32 -42.5 -47.5t-53.5 -15.5q-37 0 -65.5 25.5t-28.5 70.5z" />
<glyph unicode="&#x14a;" horiz-adv-x="1509" d="M164 94v1041q0 58 16 99t41.5 66.5t58 37.5t64.5 12q45 0 78 -10.5t58 -28t44 -41t35 -49.5l531 -856h8v872q0 57 36 84t89 27q55 0 89 -27t34 -84v-1296q0 -71 -10.5 -133t-41.5 -108t-86.5 -72.5t-146.5 -26.5q-38 0 -67 5.5t-49.5 19.5t-31 38t-10.5 60q0 24 5.5 45.5 t17.5 37.5t31 25.5t47 9.5q24 0 42.5 5t31 17.5t18.5 33.5t6 53v37q-29 6 -51.5 18.5t-40.5 29t-32 36t-26 39.5l-534 858h-4v-875q0 -29 -10 -49.5t-27.5 -34t-40.5 -20t-49 -6.5q-57 0 -90 26.5t-33 83.5z" />
<glyph unicode="&#x14b;" horiz-adv-x="1219" d="M143 90v502q0 95 8.5 164t29 117t55 77.5t86 46t121.5 22t163 5.5q92 0 162.5 -5.5t123 -22t87.5 -46t56.5 -77.5t30.5 -117t9 -164v-653q0 -71 -11 -132.5t-42 -107.5t-87 -72t-147 -26q-38 0 -67 5.5t-49 19.5t-30.5 38t-10.5 60q0 24 5 45.5t17 37.5t31 25.5t47 9.5 h14q19 0 34 5t24.5 17.5t14.5 33.5t5 53v629q0 70 -7.5 112.5t-30.5 65.5t-65.5 31t-113.5 8t-112 -8t-63 -31t-28 -65.5t-6 -112.5v-490q0 -29 -10 -49t-27.5 -32.5t-40.5 -18.5t-49 -6q-27 0 -50 6t-40 18.5t-27 32.5t-10 49z" />
<glyph unicode="&#x14c;" horiz-adv-x="1495" d="M131 653q0 143 14 251t44.5 185.5t79 128.5t117 80.5t158.5 41.5t204 12q113 0 203 -12t158.5 -42t117 -80.5t79 -128t44.5 -185.5t14 -251q0 -144 -14 -250t-44.5 -181t-79 -122t-117 -73.5t-158.5 -36.5t-203 -10q-114 0 -204 10t-158.5 36.5t-117 73.5t-79 122 t-44.5 181t-14 250zM397 657q0 -104 8.5 -176.5t26 -121t45.5 -76t67 -41.5t89.5 -17.5t114.5 -3.5q63 0 113.5 3.5t89.5 17.5t67 41.5t45.5 76t26 121t8.5 176.5q0 106 -8.5 181.5t-26 126t-45.5 80t-67 44.5t-89.5 19t-113.5 4q-64 0 -114.5 -4t-89.5 -19t-67 -44.5 t-45.5 -80t-26 -126t-8.5 -181.5zM465 1565q0 48 22.5 76t73.5 28h369q51 0 74.5 -28t23.5 -76t-23.5 -77.5t-74.5 -29.5h-369q-51 0 -73.5 29.5t-22.5 77.5z" />
<glyph unicode="&#x14d;" horiz-adv-x="1190" d="M102 492q0 162 24.5 265.5t82 162.5t152 81.5t233.5 22.5q138 0 232 -22.5t152 -81.5t83.5 -162.5t25.5 -265.5q0 -163 -25.5 -263.5t-83.5 -155.5t-152 -74t-232 -19q-139 0 -233.5 19t-152 74t-82 155.5t-24.5 263.5zM313 1237q0 48 23 76t74 28h368q51 0 75 -28 t24 -76t-24 -77.5t-75 -29.5h-368q-51 0 -74 29.5t-23 77.5zM356 496q0 -67 4.5 -114t15.5 -79.5t28.5 -51.5t44 -28.5t62.5 -12.5t83 -3q69 0 115 7.5t74 37t39.5 87t11.5 157.5q0 103 -11.5 162.5t-39.5 90.5t-74 39.5t-115 8.5q-71 0 -117 -8.5t-73 -39.5t-37.5 -90.5 t-10.5 -162.5z" />
<glyph unicode="&#x14e;" horiz-adv-x="1495" d="M131 653q0 143 14 251t44.5 185.5t79 128.5t117 80.5t158.5 41.5t204 12q113 0 203 -12t158.5 -42t117 -80.5t79 -128t44.5 -185.5t14 -251q0 -144 -14 -250t-44.5 -181t-79 -122t-117 -73.5t-158.5 -36.5t-203 -10q-114 0 -204 10t-158.5 36.5t-117 73.5t-79 122 t-44.5 181t-14 250zM397 657q0 -104 8.5 -176.5t26 -121t45.5 -76t67 -41.5t89.5 -17.5t114.5 -3.5q63 0 113.5 3.5t89.5 17.5t67 41.5t45.5 76t26 121t8.5 176.5q0 106 -8.5 181.5t-26 126t-45.5 80t-67 44.5t-89.5 19t-113.5 4q-64 0 -114.5 -4t-89.5 -19t-67 -44.5 t-45.5 -80t-26 -126t-8.5 -181.5zM463 1624q0 31 21 53.5t55 22.5q36 0 57.5 -18.5t41 -41t44 -41t66.5 -18.5q28 0 47.5 9t34.5 22t28 28.5t26.5 28.5t30.5 22t41 9q34 0 55 -22.5t21 -53.5q0 -55 -24 -95t-63.5 -66.5t-91 -39t-105.5 -12.5q-55 0 -106.5 12.5t-91 39 t-63.5 66.5t-24 95z" />
<glyph unicode="&#x14f;" horiz-adv-x="1190" d="M102 492q0 162 24.5 265.5t82 162.5t152 81.5t233.5 22.5q138 0 232 -22.5t152 -81.5t83.5 -162.5t25.5 -265.5q0 -163 -25.5 -263.5t-83.5 -155.5t-152 -74t-232 -19q-139 0 -233.5 19t-152 74t-82 155.5t-24.5 263.5zM309 1296q0 31 21 53.5t55 22.5q36 0 57.5 -18.5 t41 -41t44 -41t66.5 -18.5t66.5 18.5t44 41t41 41t57.5 18.5q34 0 55 -22.5t21 -53.5q0 -55 -24 -95t-64 -66.5t-91.5 -39t-105.5 -12.5t-105.5 12.5t-91.5 39t-64 66.5t-24 95zM356 496q0 -67 4.5 -114t15.5 -79.5t28.5 -51.5t44 -28.5t62.5 -12.5t83 -3q69 0 115 7.5 t74 37t39.5 87t11.5 157.5q0 103 -11.5 162.5t-39.5 90.5t-74 39.5t-115 8.5q-71 0 -117 -8.5t-73 -39.5t-37.5 -90.5t-10.5 -162.5z" />
<glyph unicode="&#x150;" horiz-adv-x="1495" d="M131 653q0 143 14 251t44.5 185.5t79 128.5t117 80.5t158.5 41.5t204 12q113 0 203 -12t158.5 -42t117 -80.5t79 -128t44.5 -185.5t14 -251q0 -144 -14 -250t-44.5 -181t-79 -122t-117 -73.5t-158.5 -36.5t-203 -10q-114 0 -204 10t-158.5 36.5t-117 73.5t-79 122 t-44.5 181t-14 250zM397 657q0 -104 8.5 -176.5t26 -121t45.5 -76t67 -41.5t89.5 -17.5t114.5 -3.5q63 0 113.5 3.5t89.5 17.5t67 41.5t45.5 76t26 121t8.5 176.5q0 106 -8.5 181.5t-26 126t-45.5 80t-67 44.5t-89.5 19t-113.5 4q-64 0 -114.5 -4t-89.5 -19t-67 -44.5 t-45.5 -80t-26 -126t-8.5 -181.5zM432 1489q0 12 4 26.5t15 28.5l90 131q17 25 39 35t45 10q21 0 40.5 -7t34.5 -19.5t24 -29t9 -34.5q0 -15 -6.5 -31.5t-21.5 -31.5l-136 -135q-14 -14 -28 -19.5t-29 -5.5t-29.5 6t-26 17t-18 26t-6.5 33zM760 1489q0 12 3.5 26.5 t14.5 28.5l90 131q17 25 39 35t45 10q21 0 40.5 -7t35 -19.5t24.5 -29t9 -34.5q0 -15 -6.5 -31.5t-22.5 -31.5l-135 -135q-14 -14 -28 -19.5t-29 -5.5t-29.5 6t-26 17t-18 26t-6.5 33z" />
<glyph unicode="&#x151;" horiz-adv-x="1190" d="M102 492q0 162 24.5 265.5t82 162.5t152 81.5t233.5 22.5q138 0 232 -22.5t152 -81.5t83.5 -162.5t25.5 -265.5q0 -163 -25.5 -263.5t-83.5 -155.5t-152 -74t-232 -19q-139 0 -233.5 19t-152 74t-82 155.5t-24.5 263.5zM281 1161q0 13 3.5 27.5t14.5 28.5l90 131 q17 24 39 34.5t45 10.5q21 0 40.5 -7t34.5 -19.5t24.5 -29t9.5 -34.5q0 -34 -29 -64l-135 -135q-14 -14 -28 -19.5t-30 -5.5q-15 0 -29.5 6t-25.5 17t-17.5 26t-6.5 33zM356 496q0 -67 4.5 -114t15.5 -79.5t28.5 -51.5t44 -28.5t62.5 -12.5t83 -3q69 0 115 7.5t74 37 t39.5 87t11.5 157.5q0 103 -11.5 162.5t-39.5 90.5t-74 39.5t-115 8.5q-71 0 -117 -8.5t-73 -39.5t-37.5 -90.5t-10.5 -162.5zM608 1161q0 13 4 27.5t15 28.5l90 131q17 24 39 34.5t45 10.5q21 0 40.5 -7t34.5 -19.5t24 -29t9 -34.5q0 -16 -6.5 -32t-21.5 -32l-136 -135 q-14 -14 -27.5 -19.5t-29.5 -5.5q-15 0 -29.5 6t-26 17t-18 26t-6.5 33z" />
<glyph unicode="&#x152;" horiz-adv-x="2017" d="M131 655q0 144 15.5 250t48 181t82.5 123t117.5 75t154 37t192.5 10h1110q57 0 81 -35t24 -86t-24 -84.5t-81 -33.5h-594v-295h447q28 0 48 -9t32.5 -25t18 -38t5.5 -47q0 -51 -23.5 -85t-80.5 -34h-447v-317h615q28 0 47.5 -9t31.5 -25t17.5 -38t5.5 -47q0 -26 -5.5 -48 t-17.5 -39t-31.5 -26.5t-47.5 -9.5h-1131q-95 0 -177.5 8.5t-150 33.5t-120 70t-89 117.5t-55 177t-18.5 248.5zM397 662q0 -138 23 -220.5t67.5 -127t111 -58.5t153.5 -14h239v850h-239q-89 0 -156 -15t-111 -61t-66 -130.5t-22 -223.5z" />
<glyph unicode="&#x153;" horiz-adv-x="1866" d="M102 492q0 162 24.5 265.5t82 162.5t152 81.5t233.5 22.5q124 0 208 -17.5t140 -64.5q52 46 140 64t221 18q126 0 211 -18t136.5 -62.5t74 -118.5t22.5 -186v-117q0 -66 -26 -92.5t-83 -26.5h-559v-51q0 -80 55 -113.5t166 -33.5q42 0 87 3t88 6t81.5 6t67.5 3 q55 0 81 -21t26 -79q0 -24 -4 -44t-18 -36t-41.5 -27.5t-74 -19.5t-115.5 -12t-167 -4q-134 0 -222.5 16.5t-142.5 58.5q-54 -43 -139.5 -59t-212.5 -16q-139 0 -233.5 19t-152 74t-82 155.5t-24.5 263.5zM356 496q0 -67 4.5 -114t15.5 -79.5t28.5 -51.5t44 -28.5 t62.5 -12.5t83 -3q69 0 115 7.5t74 37t39.5 87t11.5 157.5q0 103 -11.5 162.5t-39.5 90.5t-74 39.5t-115 8.5q-71 0 -117 -8.5t-73 -39.5t-37.5 -90.5t-10.5 -162.5zM1079 606h418v45q0 45 -9.5 74.5t-33.5 47t-64.5 24t-101.5 6.5q-57 0 -97 -6t-65 -23t-36 -46.5 t-11 -76.5v-45z" />
<glyph unicode="&#x154;" horiz-adv-x="1339" d="M162 92v1129q0 55 33.5 82.5t89.5 27.5h520q119 0 202 -19t135.5 -65.5t76.5 -125t24 -197.5q0 -85 -13 -149.5t-47 -111.5t-94.5 -78.5t-154.5 -49.5v-7l313 -311q36 -35 45.5 -72.5t0 -69.5t-34.5 -55.5t-58 -31t-70.5 3.5t-72.5 49l-406 432q-44 47 -56 93.5 t-0.5 83.5t43.5 60t77 23h90q48 0 80.5 10.5t53 33.5t29.5 59t9 86t-9 82.5t-29.5 52t-54 27.5t-81.5 8h-375v-1000q0 -29 -10.5 -49.5t-29 -33.5t-42.5 -19t-51 -6t-51 6t-42.5 19t-29 33.5t-10.5 49.5zM496 1485q0 14 6 29.5t20 29.5l137 139q37 37 78 37q21 0 40 -8 t33.5 -21.5t23 -31.5t8.5 -37t-10 -37.5t-31 -34.5l-160 -118q-15 -11 -30.5 -16t-30.5 -5q-36 0 -60 21.5t-24 52.5z" />
<glyph unicode="&#x155;" horiz-adv-x="846" d="M143 90v563q0 118 21 190.5t70 112.5t130 54t201 14q78 0 129 -9t80.5 -25.5t41 -40t11.5 -52.5q0 -53 -28 -85t-82 -32q-15 0 -30.5 1t-33.5 2.5t-40.5 3t-51.5 1.5q-51 0 -83 -5t-50 -21t-24.5 -47t-6.5 -82v-543q0 -29 -9.5 -49t-26.5 -32.5t-40 -18.5t-49 -6 q-27 0 -50.5 6t-41 18.5t-27.5 32.5t-10 49zM248 1157q0 14 6 30t20 30l138 139q37 37 77 37q21 0 40 -8t33.5 -22t23 -32t8.5 -37q0 -18 -9.5 -37t-31.5 -34l-160 -119q-30 -21 -61 -21q-35 0 -59.5 21.5t-24.5 52.5z" />
<glyph unicode="&#x156;" horiz-adv-x="1339" d="M162 92v1129q0 55 33.5 82.5t89.5 27.5h520q119 0 202 -19t135.5 -65.5t76.5 -125t24 -197.5q0 -85 -13 -149.5t-47 -111.5t-94.5 -78.5t-154.5 -49.5v-7l313 -311q36 -35 45.5 -72.5t0 -69.5t-34.5 -55.5t-58 -31t-70.5 3.5t-72.5 49l-406 432q-44 47 -56 93.5 t-0.5 83.5t43.5 60t77 23h90q48 0 80.5 10.5t53 33.5t29.5 59t9 86t-9 82.5t-29.5 52t-54 27.5t-81.5 8h-375v-1000q0 -29 -10.5 -49.5t-29 -33.5t-42.5 -19t-51 -6t-51 6t-42.5 19t-29 33.5t-10.5 49.5zM532 -360q0 6 0.5 12t2.5 12l24 127q12 67 49 97t80 30q22 0 43.5 -8 t37.5 -23t26 -36.5t10 -47.5q0 -38 -23 -82l-59 -114q-17 -32 -42.5 -48t-53.5 -16q-18 0 -35.5 6.5t-30.5 19.5t-21 30.5t-8 40.5z" />
<glyph unicode="&#x157;" horiz-adv-x="846" d="M143 90v563q0 118 21 190.5t70 112.5t130 54t201 14q78 0 129 -9t80.5 -25.5t41 -40t11.5 -52.5q0 -53 -28 -85t-82 -32q-15 0 -30.5 1t-33.5 2.5t-40.5 3t-51.5 1.5q-51 0 -83 -5t-50 -21t-24.5 -47t-6.5 -82v-543q0 -29 -9.5 -49t-26.5 -32.5t-40 -18.5t-49 -6 q-27 0 -50.5 6t-41 18.5t-27.5 32.5t-10 49zM285 -348q0 6 2 12l24 127q13 68 49.5 97.5t79.5 29.5q22 0 43.5 -8t37.5 -23t26 -36.5t10 -47.5q0 -36 -22 -82l-60 -114q-17 -32 -42.5 -48t-53.5 -16q-37 0 -65.5 26t-28.5 71v12z" />
<glyph unicode="&#x158;" horiz-adv-x="1339" d="M162 92v1129q0 55 33.5 82.5t89.5 27.5h520q119 0 202 -19t135.5 -65.5t76.5 -125t24 -197.5q0 -85 -13 -149.5t-47 -111.5t-94.5 -78.5t-154.5 -49.5v-7l313 -311q36 -35 45.5 -72.5t0 -69.5t-34.5 -55.5t-58 -31t-70.5 3.5t-72.5 49l-406 432q-44 47 -56 93.5 t-0.5 83.5t43.5 60t77 23h90q48 0 80.5 10.5t53 33.5t29.5 59t9 86t-9 82.5t-29.5 52t-54 27.5t-81.5 8h-375v-1000q0 -29 -10.5 -49.5t-29 -33.5t-42.5 -19t-51 -6t-51 6t-42.5 19t-29 33.5t-10.5 49.5zM387 1630q0 15 5 29t14 25t22.5 17.5t30.5 6.5q15 0 29 -4t26 -10 l154 -72l153 72q13 6 26.5 10t29.5 4q17 0 30 -6.5t22 -17.5t14 -25t5 -29q0 -20 -9 -40t-28 -34l-133 -102q-26 -20 -55 -31.5t-55 -11.5t-55.5 11.5t-55.5 31.5l-133 102q-20 14 -28.5 34t-8.5 40z" />
<glyph unicode="&#x159;" horiz-adv-x="846" d="M141 1303q0 29 19 53t53 24q15 0 29 -4t26 -10l154 -72l153 72q13 6 26.5 10t29.5 4q34 0 52.5 -24t18.5 -53q0 -20 -9 -40t-27 -34l-134 -103q-26 -20 -55 -31.5t-55 -11.5t-55.5 11.5t-55.5 31.5l-133 103q-20 14 -28.5 34t-8.5 40zM143 90v563q0 118 21 190.5 t70 112.5t130 54t201 14q78 0 129 -9t80.5 -25.5t41 -40t11.5 -52.5q0 -53 -28 -85t-82 -32q-15 0 -30.5 1t-33.5 2.5t-40.5 3t-51.5 1.5q-51 0 -83 -5t-50 -21t-24.5 -47t-6.5 -82v-543q0 -29 -9.5 -49t-26.5 -32.5t-40 -18.5t-49 -6q-27 0 -50.5 6t-41 18.5t-27.5 32.5 t-10 49z" />
<glyph unicode="&#x15a;" horiz-adv-x="1264" d="M106 145q0 51 27.5 87t77.5 36q38 0 86.5 -6.5t99.5 -14t101 -14t92 -6.5q152 0 228.5 38t76.5 132q0 56 -33.5 85t-88 43t-124.5 20t-143 16t-143 30t-124.5 63t-88 115.5t-33.5 186.5q0 102 32.5 176.5t101.5 123t175.5 72.5t253.5 24q89 0 167.5 -6.5t137 -23.5 t92 -46t33.5 -74q0 -56 -32.5 -87.5t-82.5 -31.5q-37 0 -79 4.5t-86 10t-88 10t-83 4.5q-144 0 -211 -40.5t-67 -113.5q0 -58 33.5 -88t88 -45t124 -21t142.5 -15.5t142.5 -28.5t124 -59t88 -108.5t33.5 -176.5t-31 -189.5t-99 -136t-176 -82.5t-261 -28q-90 0 -177 6.5 t-155 24.5t-110 50.5t-42 83.5zM459 1485q0 14 6 29.5t20 29.5l138 139q36 37 77 37q21 0 40 -8t33.5 -21.5t23 -31.5t8.5 -37t-9.5 -37.5t-31.5 -34.5l-160 -118q-15 -11 -30.5 -16t-30.5 -5q-35 0 -59.5 21.5t-24.5 52.5z" />
<glyph unicode="&#x15b;" horiz-adv-x="991" d="M70 702q0 72 25.5 131t80.5 101.5t141.5 66t208.5 23.5q112 0 182 -10t109 -29t52.5 -45.5t13.5 -60.5q0 -50 -24 -75.5t-87 -25.5q-23 0 -47.5 3.5t-55.5 8t-71.5 8t-95.5 3.5q-93 0 -135.5 -18.5t-42.5 -55.5q0 -30 26 -48t68 -30.5t96 -22.5t110 -24t110 -35t96 -55 t68 -85t26 -124q0 -85 -29.5 -146t-87 -100.5t-141.5 -58t-193 -18.5q-132 0 -210.5 9.5t-120 27.5t-54 43t-12.5 57q0 54 24.5 82t87.5 28q24 0 49.5 -4t58 -8.5t73.5 -8t96 -3.5q99 0 152 20.5t53 67.5q0 28 -26 45.5t-68 29.5t-96 22t-110 23.5t-110 34t-96 54t-68 82.5 t-26 120zM322 1157q0 14 6 30t20 30l137 139q39 37 78 37q21 0 40 -8t33.5 -22t23 -32t8.5 -37q0 -18 -10 -37t-31 -34l-160 -119q-32 -21 -61 -21q-36 0 -60 21.5t-24 52.5z" />
<glyph unicode="&#x15c;" horiz-adv-x="1264" d="M106 145q0 51 27.5 87t77.5 36q38 0 86.5 -6.5t99.5 -14t101 -14t92 -6.5q152 0 228.5 38t76.5 132q0 56 -33.5 85t-88 43t-124.5 20t-143 16t-143 30t-124.5 63t-88 115.5t-33.5 186.5q0 102 32.5 176.5t101.5 123t175.5 72.5t253.5 24q89 0 167.5 -6.5t137 -23.5 t92 -46t33.5 -74q0 -56 -32.5 -87.5t-82.5 -31.5q-37 0 -79 4.5t-86 10t-88 10t-83 4.5q-144 0 -211 -40.5t-67 -113.5q0 -58 33.5 -88t88 -45t124 -21t142.5 -15.5t142.5 -28.5t124 -59t88 -108.5t33.5 -176.5t-31 -189.5t-99 -136t-176 -82.5t-261 -28q-90 0 -177 6.5 t-155 24.5t-110 50.5t-42 83.5zM350 1489q0 20 8.5 39t28.5 35l133 102q26 20 55.5 31.5t55.5 11.5t55 -11.5t55 -31.5l133 -102q37 -31 37 -74q0 -31 -18.5 -54.5t-52.5 -23.5q-16 0 -29.5 4t-26.5 10l-153 72l-154 -72q-12 -6 -26 -10t-29 -4q-34 0 -53 23.5t-19 54.5z " />
<glyph unicode="&#x15d;" horiz-adv-x="991" d="M70 702q0 72 25.5 131t80.5 101.5t141.5 66t208.5 23.5q112 0 182 -10t109 -29t52.5 -45.5t13.5 -60.5q0 -50 -24 -75.5t-87 -25.5q-23 0 -47.5 3.5t-55.5 8t-71.5 8t-95.5 3.5q-93 0 -135.5 -18.5t-42.5 -55.5q0 -30 26 -48t68 -30.5t96 -22.5t110 -24t110 -35t96 -55 t68 -85t26 -124q0 -85 -29.5 -146t-87 -100.5t-141.5 -58t-193 -18.5q-132 0 -210.5 9.5t-120 27.5t-54 43t-12.5 57q0 54 24.5 82t87.5 28q24 0 49.5 -4t58 -8.5t73.5 -8t96 -3.5q99 0 152 20.5t53 67.5q0 28 -26 45.5t-68 29.5t-96 22t-110 23.5t-110 34t-96 54t-68 82.5 t-26 120zM213 1161q0 20 8.5 39t28.5 35l133 102q26 20 55.5 31.5t55.5 11.5t55 -11.5t55 -31.5l133 -102q37 -31 37 -74q0 -31 -18.5 -54.5t-53.5 -23.5q-15 0 -28.5 4.5t-26.5 10.5l-153 71l-154 -71q-12 -6 -26 -10.5t-29 -4.5q-34 0 -53 23.5t-19 54.5z" />
<glyph unicode="&#x15e;" horiz-adv-x="1264" d="M106 145q0 51 27.5 87t77.5 36q38 0 86.5 -6.5t99.5 -14t101 -14t92 -6.5q152 0 228.5 38t76.5 132q0 56 -33.5 85t-88 43t-124.5 20t-143 16t-143 30t-124.5 63t-88 115.5t-33.5 186.5q0 102 32.5 176.5t101.5 123t175.5 72.5t253.5 24q89 0 167.5 -6.5t137 -23.5 t92 -46t33.5 -74q0 -56 -32.5 -87.5t-82.5 -31.5q-37 0 -79 4.5t-86 10t-88 10t-83 4.5q-144 0 -211 -40.5t-67 -113.5q0 -58 33.5 -88t88 -45t124 -21t142.5 -15.5t142.5 -28.5t124 -59t88 -108.5t33.5 -176.5q0 -93 -23 -166.5t-73.5 -127.5t-129.5 -87.5t-190 -46.5 l-43 -49q34 -5 62.5 -15.5t49.5 -29t32.5 -46t11.5 -67.5q0 -56 -21.5 -91.5t-57 -55t-80 -26.5t-89.5 -7q-31 0 -65.5 3.5t-63.5 13.5t-48 27.5t-19 45.5q0 31 21.5 52t53.5 21q12 0 26 -4t29 -8.5t30.5 -8t31.5 -3.5q37 0 60.5 7t23.5 30q0 17 -15.5 23.5t-39 9t-51 3.5 t-51 7t-39 19.5t-15.5 41.5q0 31 31 62l35 37q-84 1 -162.5 9t-139 26.5t-97 50t-36.5 79.5z" />
<glyph unicode="&#x15f;" horiz-adv-x="991" d="M70 702q0 72 25.5 131t80.5 101.5t141.5 66t208.5 23.5q112 0 182 -10t109 -29t52.5 -45.5t13.5 -60.5q0 -50 -24 -75.5t-87 -25.5q-23 0 -47.5 3.5t-55.5 8t-71.5 8t-95.5 3.5q-93 0 -135.5 -18.5t-42.5 -55.5q0 -30 26 -48t68 -30.5t96 -22.5t110 -24t110 -35t96 -55 t68 -85t26 -124q0 -143 -82 -220t-240 -95l-41 -49q34 -5 62.5 -15.5t49.5 -29t32.5 -46t11.5 -67.5q0 -56 -21.5 -91.5t-57 -55t-80 -26.5t-89.5 -7q-31 0 -65.5 3.5t-64 13.5t-48.5 27.5t-19 45.5q0 31 22 52t54 21q12 0 26 -4t29 -8.5t30.5 -8t31.5 -3.5q37 0 60.5 7 t23.5 30q0 17 -15.5 23.5t-39 9t-51 3.5t-51 7t-39 19.5t-15.5 41.5q0 31 31 62l34 39q-108 2 -172.5 12.5t-99 28t-45 41.5t-10.5 53q0 54 24.5 82t87.5 28q24 0 49.5 -4t58 -8.5t73.5 -8t96 -3.5q99 0 152 20.5t53 67.5q0 28 -26 45.5t-68 29.5t-96 22t-110 23.5t-110 34 t-96 54t-68 82.5t-26 120z" />
<glyph unicode="&#x160;" horiz-adv-x="1264" d="M106 145q0 51 27.5 87t77.5 36q38 0 86.5 -6.5t99.5 -14t101 -14t92 -6.5q152 0 228.5 38t76.5 132q0 56 -33.5 85t-88 43t-124.5 20t-143 16t-143 30t-124.5 63t-88 115.5t-33.5 186.5q0 102 32.5 176.5t101.5 123t175.5 72.5t253.5 24q89 0 167.5 -6.5t137 -23.5 t92 -46t33.5 -74q0 -56 -32.5 -87.5t-82.5 -31.5q-37 0 -79 4.5t-86 10t-88 10t-83 4.5q-144 0 -211 -40.5t-67 -113.5q0 -58 33.5 -88t88 -45t124 -21t142.5 -15.5t142.5 -28.5t124 -59t88 -108.5t33.5 -176.5t-31 -189.5t-99 -136t-176 -82.5t-261 -28q-90 0 -177 6.5 t-155 24.5t-110 50.5t-42 83.5zM350 1630q0 15 5 29t14 25t22.5 17.5t30.5 6.5q15 0 29 -4t26 -10l154 -72l153 72q13 6 26.5 10t29.5 4q17 0 30 -6.5t22 -17.5t14 -25t5 -29q0 -20 -9 -40t-28 -34l-133 -102q-26 -20 -55 -31.5t-55 -11.5t-55.5 11.5t-55.5 31.5l-133 102 q-20 14 -28.5 34t-8.5 40z" />
<glyph unicode="&#x161;" horiz-adv-x="991" d="M70 702q0 72 25.5 131t80.5 101.5t141.5 66t208.5 23.5q112 0 182 -10t109 -29t52.5 -45.5t13.5 -60.5q0 -50 -24 -75.5t-87 -25.5q-23 0 -47.5 3.5t-55.5 8t-71.5 8t-95.5 3.5q-93 0 -135.5 -18.5t-42.5 -55.5q0 -30 26 -48t68 -30.5t96 -22.5t110 -24t110 -35t96 -55 t68 -85t26 -124q0 -85 -29.5 -146t-87 -100.5t-141.5 -58t-193 -18.5q-132 0 -210.5 9.5t-120 27.5t-54 43t-12.5 57q0 54 24.5 82t87.5 28q24 0 49.5 -4t58 -8.5t73.5 -8t96 -3.5q99 0 152 20.5t53 67.5q0 28 -26 45.5t-68 29.5t-96 22t-110 23.5t-110 34t-96 54t-68 82.5 t-26 120zM213 1303q0 29 19 53t53 24q15 0 29 -4t26 -10l154 -72l153 72q13 6 26.5 10t28.5 4q35 0 53.5 -24t18.5 -53q0 -20 -9 -40t-28 -34l-133 -103q-26 -20 -55 -31.5t-55 -11.5t-55.5 11.5t-55.5 31.5l-133 103q-20 14 -28.5 34t-8.5 40z" />
<glyph unicode="&#x162;" horiz-adv-x="1282" d="M41 1210q0 51 23 86t79 35h996q55 0 78.5 -35t23.5 -86q0 -50 -23.5 -84t-78.5 -34h-365v-1000q0 -29 -10.5 -49.5t-29 -33.5t-42.5 -19t-51 -6t-51 6t-42.5 19t-29 33.5t-10.5 49.5v1000h-365q-28 0 -47.5 9t-31.5 25t-17.5 37.5t-5.5 46.5zM504 -348q0 6 2 12l24 127 q13 68 49.5 97.5t79.5 29.5q22 0 43.5 -8t37.5 -23t26 -36.5t10 -47.5q0 -36 -22 -82l-60 -114q-17 -32 -42.5 -48t-53.5 -16q-37 0 -65.5 26t-28.5 71v12z" />
<glyph unicode="&#x163;" horiz-adv-x="815" d="M16 887q0 49 22.5 83t76.5 34h100v161q0 28 10 47.5t27 32.5t39.5 19t48.5 6q54 0 91.5 -25t37.5 -80v-161h211q27 0 44.5 -9t28 -25t15 -37.5t4.5 -45.5q0 -51 -19 -84t-73 -33h-211v-487q0 -22 6 -36.5t16.5 -23.5t24.5 -12.5t29 -3.5q46 0 76.5 3t62.5 3 q51 0 73.5 -25.5t22.5 -74.5q0 -36 -10.5 -61t-40.5 -41t-83.5 -23.5t-139.5 -7.5q-73 0 -127.5 12t-91 43.5t-54.5 86t-18 140.5v508h-100q-54 0 -76.5 33t-22.5 84zM270 -348q0 6 2 12l25 127q12 67 49 97t80 30q22 0 43 -8t37.5 -23t26.5 -36.5t10 -47.5q0 -38 -23 -82 l-59 -114q-17 -32 -43 -48t-53 -16q-19 0 -36 6.5t-30 19.5t-21 30.5t-8 40.5v12z" />
<glyph unicode="&#x164;" horiz-adv-x="1282" d="M41 1210q0 51 23 86t79 35h996q55 0 78.5 -35t23.5 -86q0 -50 -23.5 -84t-78.5 -34h-365v-1000q0 -29 -10.5 -49.5t-29 -33.5t-42.5 -19t-51 -6t-51 6t-42.5 19t-29 33.5t-10.5 49.5v1000h-365q-28 0 -47.5 9t-31.5 25t-17.5 37.5t-5.5 46.5zM360 1630q0 15 5 29t14 25 t22.5 17.5t30.5 6.5q16 0 29.5 -4t25.5 -10l154 -72l154 72q12 6 25.5 10t29.5 4q17 0 30.5 -6.5t22.5 -17.5t14 -25t5 -29q0 -20 -9.5 -40t-27.5 -34l-133 -102q-26 -20 -55.5 -31.5t-55.5 -11.5t-55.5 11.5t-55.5 31.5l-133 102q-20 14 -28.5 34t-8.5 40z" />
<glyph unicode="&#x165;" horiz-adv-x="815" d="M16 887q0 49 22.5 83t76.5 34h100v161q0 28 10 47.5t27 32.5t39.5 19t48.5 6q54 0 91.5 -25t37.5 -80v-161h211q27 0 44.5 -9t28 -25t15 -37.5t4.5 -45.5q0 -51 -19 -84t-73 -33h-211v-487q0 -22 6 -36.5t16.5 -23.5t24.5 -12.5t29 -3.5q46 0 76.5 3t62.5 3 q51 0 73.5 -25.5t22.5 -74.5q0 -36 -10.5 -61t-40.5 -41t-83.5 -23.5t-139.5 -7.5q-73 0 -127.5 12t-91 43.5t-54.5 86t-18 140.5v508h-100q-54 0 -76.5 33t-22.5 84zM549 1204v12.5t2 12.5l24 127q13 68 49.5 97.5t80.5 29.5q22 0 43 -8t37 -23t26 -36.5t10 -47.5 q0 -36 -22 -82l-60 -115q-17 -32 -42.5 -47.5t-53.5 -15.5q-37 0 -65.5 25.5t-28.5 70.5z" />
<glyph unicode="&#x166;" horiz-adv-x="1282" d="M41 1210q0 51 23 86t79 35h996q55 0 78.5 -35t23.5 -86q0 -50 -23.5 -84t-78.5 -34h-365v-291h197q51 0 74.5 -33.5t23.5 -81.5q0 -24 -6 -45t-18 -37t-30.5 -25.5t-43.5 -9.5h-197v-477q0 -29 -10.5 -49.5t-29 -33.5t-42.5 -19t-51 -6t-51 6t-42.5 19t-29 33.5 t-10.5 49.5v477h-199q-25 0 -43 9.5t-30 25.5t-17.5 37t-5.5 45q0 48 23 81.5t73 33.5h199v291h-365q-28 0 -47.5 9t-31.5 25t-17.5 37.5t-5.5 46.5z" />
<glyph unicode="&#x167;" horiz-adv-x="815" d="M18 498q0 49 22.5 82.5t76.5 33.5h100v156h-100q-54 0 -76.5 33t-22.5 84q0 49 22.5 83t76.5 34h100v161q0 28 10 47.5t27 32.5t39.5 19t48.5 6q54 0 91.5 -25t37.5 -80v-161h209q27 0 44.5 -9t28 -25t15 -37.5t4.5 -45.5q0 -51 -19 -84t-73 -33h-209v-156h209 q27 0 44.5 -9t28 -24.5t15 -37t4.5 -45.5q0 -51 -19 -84t-73 -33h-209v-98q0 -44 22 -60t54 -16q23 0 41 1t34 2t31 2t31 1q51 0 73.5 -25.5t22.5 -74.5q0 -36 -10.5 -61t-40 -41t-82.5 -23.5t-139 -7.5q-73 0 -127.5 12t-91 43.5t-54.5 86t-18 140.5v119h-100 q-54 0 -76.5 33t-22.5 84z" />
<glyph unicode="&#x168;" horiz-adv-x="1440" d="M160 440v799q0 29 10.5 50t29 34t42.5 19t51 6t51 -6t42.5 -19t29 -34t10.5 -50v-774q0 -79 15.5 -127.5t50 -74.5t89.5 -35t134 -9t136 9t93.5 35t54 74.5t17.5 127.5v774q0 29 10.5 50t29 34t42.5 19t51 6t51 -6t41.5 -19t28 -34t10.5 -50v-799q0 -106 -17 -181.5 t-50 -127t-81.5 -81.5t-111 -45.5t-139.5 -20t-166 -4.5q-90 0 -166 4.5t-137.5 20t-108.5 45.5t-79 81.5t-48 126.5t-16 182zM438 1548q0 42 18.5 68t42 40t45.5 18.5t29 4.5q34 0 68 -7.5t63.5 -16t53 -16t37.5 -7.5q13 0 25.5 7.5t26 16t29.5 16t37 7.5q36 0 62 -26.5 t26 -75.5q0 -38 -16.5 -63t-39.5 -41t-48 -22.5t-43 -6.5q-21 0 -50 8t-58.5 17.5t-56 17.5t-44.5 8t-30 -7.5t-23.5 -16t-25.5 -16t-36 -7.5q-38 0 -65 25.5t-27 74.5z" />
<glyph unicode="&#x169;" horiz-adv-x="1206" d="M141 412v501q0 28 10 48.5t27 33.5t40 19t50 6q26 0 49 -6t40.5 -19t27.5 -33.5t10 -48.5v-489q0 -70 6 -112.5t27 -66t62 -31t112 -7.5t113 7.5t63.5 31t28 66t6.5 112.5v489q0 28 9.5 48.5t26.5 33.5t40 19t49 6t49 -6t40.5 -19t27.5 -33.5t10 -48.5v-501 q0 -95 -8.5 -164t-29.5 -117t-55.5 -77.5t-85.5 -46t-121.5 -22t-162.5 -5.5q-93 0 -163 5.5t-121.5 22t-85.5 46t-54 77.5t-28.5 117t-8.5 164zM319 1221q0 42 18.5 67.5t42.5 40t46 19t29 4.5q34 0 67.5 -7.5t63 -16t53 -16t37.5 -7.5t26.5 7.5t26 16t29.5 16t37 7.5 q35 0 61.5 -26.5t26.5 -76.5q0 -38 -16.5 -63t-40 -41t-48.5 -22.5t-43 -6.5q-21 0 -50 8t-58.5 17.5t-56 17.5t-44.5 8t-30 -7.5t-23.5 -16t-25.5 -16t-35 -7.5q-39 0 -66 25.5t-27 75.5z" />
<glyph unicode="&#x16a;" horiz-adv-x="1440" d="M160 440v799q0 29 10.5 50t29 34t42.5 19t51 6t51 -6t42.5 -19t29 -34t10.5 -50v-774q0 -79 15.5 -127.5t50 -74.5t89.5 -35t134 -9t136 9t93.5 35t54 74.5t17.5 127.5v774q0 29 10.5 50t29 34t42.5 19t51 6t51 -6t41.5 -19t28 -34t10.5 -50v-799q0 -106 -17 -181.5 t-50 -127t-81.5 -81.5t-111 -45.5t-139.5 -20t-166 -4.5q-90 0 -166 4.5t-137.5 20t-108.5 45.5t-79 81.5t-48 126.5t-16 182zM438 1565q0 48 23 76t74 28h368q51 0 74.5 -28t23.5 -76t-23.5 -77.5t-74.5 -29.5h-368q-51 0 -74 29.5t-23 77.5z" />
<glyph unicode="&#x16b;" horiz-adv-x="1206" d="M141 412v501q0 28 10 48.5t27 33.5t40 19t50 6q26 0 49 -6t40.5 -19t27.5 -33.5t10 -48.5v-489q0 -70 6 -112.5t27 -66t62 -31t112 -7.5t113 7.5t63.5 31t28 66t6.5 112.5v489q0 28 9.5 48.5t26.5 33.5t40 19t49 6t49 -6t40.5 -19t27.5 -33.5t10 -48.5v-501 q0 -95 -8.5 -164t-29.5 -117t-55.5 -77.5t-85.5 -46t-121.5 -22t-162.5 -5.5q-93 0 -163 5.5t-121.5 22t-85.5 46t-54 77.5t-28.5 117t-8.5 164zM319 1237q0 48 23 76t74 28h368q51 0 75 -28t24 -76t-24 -77.5t-75 -29.5h-368q-51 0 -74 29.5t-23 77.5z" />
<glyph unicode="&#x16c;" horiz-adv-x="1440" d="M160 440v799q0 29 10.5 50t29 34t42.5 19t51 6t51 -6t42.5 -19t29 -34t10.5 -50v-774q0 -79 15.5 -127.5t50 -74.5t89.5 -35t134 -9t136 9t93.5 35t54 74.5t17.5 127.5v774q0 29 10.5 50t29 34t42.5 19t51 6t51 -6t41.5 -19t28 -34t10.5 -50v-799q0 -106 -17 -181.5 t-50 -127t-81.5 -81.5t-111 -45.5t-139.5 -20t-166 -4.5q-90 0 -166 4.5t-137.5 20t-108.5 45.5t-79 81.5t-48 126.5t-16 182zM434 1624q0 31 21 53.5t55 22.5q36 0 57.5 -18.5t41 -41t44 -41t66.5 -18.5t66.5 18.5t44 41t41 41t57.5 18.5q34 0 55 -22.5t21 -53.5 q0 -55 -24 -95t-64 -66.5t-91.5 -39t-105.5 -12.5q-55 0 -106.5 12.5t-91 39t-63.5 66.5t-24 95z" />
<glyph unicode="&#x16d;" horiz-adv-x="1206" d="M141 412v501q0 28 10 48.5t27 33.5t40 19t50 6q26 0 49 -6t40.5 -19t27.5 -33.5t10 -48.5v-489q0 -70 6 -112.5t27 -66t62 -31t112 -7.5t113 7.5t63.5 31t28 66t6.5 112.5v489q0 28 9.5 48.5t26.5 33.5t40 19t49 6t49 -6t40.5 -19t27.5 -33.5t10 -48.5v-501 q0 -95 -8.5 -164t-29.5 -117t-55.5 -77.5t-85.5 -46t-121.5 -22t-162.5 -5.5q-93 0 -163 5.5t-121.5 22t-85.5 46t-54 77.5t-28.5 117t-8.5 164zM315 1296q0 31 21 53.5t55 22.5q36 0 57.5 -18.5t41 -41t44 -41t66.5 -18.5t66.5 18.5t44 41t41 41t57.5 18.5q34 0 55 -22.5 t21 -53.5q0 -55 -24 -95t-64 -66.5t-91.5 -39t-105.5 -12.5t-105.5 12.5t-91.5 39t-64 66.5t-24 95z" />
<glyph unicode="&#x16e;" horiz-adv-x="1440" d="M160 440v799q0 29 10.5 50t29 34t42.5 19t51 6t51 -6t42.5 -19t29 -34t10.5 -50v-774q0 -79 15.5 -127.5t50 -74.5t89.5 -35t134 -9t136 9t93.5 35t54 74.5t17.5 127.5v774q0 29 10.5 50t29 34t42.5 19t51 6t51 -6t41.5 -19t28 -34t10.5 -50v-799q0 -106 -17 -181.5 t-50 -127t-81.5 -81.5t-111 -45.5t-139.5 -20t-166 -4.5q-90 0 -166 4.5t-137.5 20t-108.5 45.5t-79 81.5t-48 126.5t-16 182zM528 1575q0 45 15 80t41.5 59.5t61.5 37.5t75 13q39 0 73.5 -13t60.5 -37.5t41 -59.5t15 -80t-15 -80t-41 -60t-60.5 -38t-73.5 -13q-40 0 -75 13 t-61.5 38t-41.5 60t-15 80zM645 1575q0 -34 19 -58t57 -24t57 24t19 58t-19 58t-57 24t-57 -24t-19 -58z" />
<glyph unicode="&#x16f;" horiz-adv-x="1206" d="M141 412v501q0 28 10 48.5t27 33.5t40 19t50 6q26 0 49 -6t40.5 -19t27.5 -33.5t10 -48.5v-489q0 -70 6 -112.5t27 -66t62 -31t112 -7.5t113 7.5t63.5 31t28 66t6.5 112.5v489q0 28 9.5 48.5t26.5 33.5t40 19t49 6t49 -6t40.5 -19t27.5 -33.5t10 -48.5v-501 q0 -95 -8.5 -164t-29.5 -117t-55.5 -77.5t-85.5 -46t-121.5 -22t-162.5 -5.5q-93 0 -163 5.5t-121.5 22t-85.5 46t-54 77.5t-28.5 117t-8.5 164zM410 1247q0 45 15 80t41 60t61 38t75 13q39 0 74 -13t61 -38t41 -60t15 -80t-15 -80t-41 -59.5t-61 -37.5t-74 -13 q-40 0 -75 13t-61 37.5t-41 59.5t-15 80zM526 1247q0 -34 19 -58t57 -24t57 24t19 58t-19 58t-57 24t-57 -24t-19 -58z" />
<glyph unicode="&#x170;" horiz-adv-x="1440" d="M160 440v799q0 29 10.5 50t29 34t42.5 19t51 6t51 -6t42.5 -19t29 -34t10.5 -50v-774q0 -79 15.5 -127.5t50 -74.5t89.5 -35t134 -9t136 9t93.5 35t54 74.5t17.5 127.5v774q0 29 10.5 50t29 34t42.5 19t51 6t51 -6t41.5 -19t28 -34t10.5 -50v-799q0 -106 -17 -181.5 t-50 -127t-81.5 -81.5t-111 -45.5t-139.5 -20t-166 -4.5q-90 0 -166 4.5t-137.5 20t-108.5 45.5t-79 81.5t-48 126.5t-16 182zM406 1489q0 12 3.5 26.5t14.5 28.5l90 131q17 25 39 35t45 10q21 0 40.5 -7t34.5 -19.5t24.5 -29t9.5 -34.5q0 -15 -7 -31.5t-22 -31.5l-135 -135 q-14 -14 -28 -19.5t-30 -5.5q-15 0 -29.5 6t-25.5 17t-17.5 26t-6.5 33zM733 1489q0 12 4 26.5t15 28.5l90 131q17 25 39 35t45 10q21 0 40.5 -7t34.5 -19.5t24 -29t9 -34.5q0 -15 -6.5 -31.5t-21.5 -31.5l-136 -135q-14 -14 -27.5 -19.5t-29.5 -5.5q-15 0 -29.5 6t-26 17 t-18 26t-6.5 33z" />
<glyph unicode="&#x171;" horiz-adv-x="1206" d="M141 412v501q0 28 10 48.5t27 33.5t40 19t50 6q26 0 49 -6t40.5 -19t27.5 -33.5t10 -48.5v-489q0 -70 6 -112.5t27 -66t62 -31t112 -7.5t113 7.5t63.5 31t28 66t6.5 112.5v489q0 28 9.5 48.5t26.5 33.5t40 19t49 6t49 -6t40.5 -19t27.5 -33.5t10 -48.5v-501 q0 -95 -8.5 -164t-29.5 -117t-55.5 -77.5t-85.5 -46t-121.5 -22t-162.5 -5.5q-93 0 -163 5.5t-121.5 22t-85.5 46t-54 77.5t-28.5 117t-8.5 164zM287 1161q0 13 3.5 27.5t14.5 28.5l90 131q17 24 39 34.5t45 10.5q21 0 40.5 -7t35 -19.5t24.5 -29t9 -34.5q0 -16 -6.5 -32 t-22.5 -32l-135 -135q-14 -14 -28 -19.5t-29 -5.5t-29.5 6t-26 17t-18 26t-6.5 33zM614 1161q0 13 4 27.5t15 28.5l90 131q17 24 39 34.5t45 10.5q21 0 40.5 -7t34.5 -19.5t24 -29t9 -34.5q0 -16 -6.5 -32t-21.5 -32l-135 -135q-14 -14 -28 -19.5t-30 -5.5q-15 0 -29.5 6 t-26 17t-18 26t-6.5 33z" />
<glyph unicode="&#x172;" horiz-adv-x="1440" d="M160 440v799q0 29 10.5 50t29 34t42.5 19t51 6t51 -6t42.5 -19t29 -34t10.5 -50v-774q0 -79 15.5 -127.5t50 -74.5t89.5 -35t134 -9t136 9t93.5 35t54 74.5t17.5 127.5v774q0 29 10.5 50t29 34t42.5 19t51 6t51 -6t41.5 -19t28 -34t10.5 -50v-799q0 -139 -29 -226 t-84.5 -136.5t-136.5 -70t-184 -25.5q-54 -51 -88.5 -95t-34.5 -88q0 -21 11 -29.5t27.5 -11t36 -2.5t36 -4.5t27.5 -17.5t11 -41q0 -92 -143 -92q-99 0 -149 41.5t-50 119.5q0 34 9 64.5t24.5 57.5t35.5 51t42 45q-78 1 -143.5 8.5t-119 25.5t-94.5 50t-68.5 82.5 t-41.5 122.5t-14 171z" />
<glyph unicode="&#x173;" horiz-adv-x="1206" d="M141 412v501q0 28 10 48.5t27 33.5t40 19t50 6q26 0 49 -6t40.5 -19t27.5 -33.5t10 -48.5v-489q0 -70 6 -112.5t27 -66t62 -31t112 -7.5t113 7.5t63.5 31t28 66t6.5 112.5v489q0 28 9.5 48.5t26.5 33.5t40 19t49 6t49 -6t40.5 -19t27.5 -33.5t10 -48.5v-501 q0 -119 -14 -198t-48.5 -127.5t-92.5 -71t-146 -29.5q-56 -53 -91.5 -97.5t-35.5 -89.5q0 -21 11 -29.5t27.5 -11t36 -2.5t36 -4.5t27.5 -17.5t11 -41q0 -92 -143 -92q-99 0 -149 41.5t-50 119.5q0 34 8.5 64.5t23.5 57.5t35 51t42 45q-82 2 -145 9t-108.5 24.5t-76 48 t-49 78t-26 114.5t-7.5 158z" />
<glyph unicode="&#x174;" horiz-adv-x="2036" d="M29 1244.5q6 36.5 29 60.5t57.5 34.5t70 5t67 -28t48.5 -63.5l381 -919h29l163 397l-192 430q-21 47 -15 83.5t28.5 60.5t56.5 34.5t69 5t65.5 -28t47.5 -63.5l86 -215l84 213q17 44 48.5 67t66 28t68 -6.5t56 -36t28 -61t-14.5 -81.5l-193 -428l172 -397h29l373 915 q18 43 49.5 66t66.5 27.5t69 -6.5t56.5 -35.5t29 -61t-12.5 -80.5l-455 -1048q-31 -72 -80.5 -102.5t-109.5 -30.5q-68 0 -115.5 35t-75.5 98l-139 317l-137 -317q-31 -73 -82.5 -103t-110.5 -30q-68 0 -115 35t-75 98l-457 1048q-20 47 -14 83.5zM737 1489q0 20 8.5 39 t28.5 35l133 102q26 20 55.5 31.5t55.5 11.5t55 -11.5t55 -31.5l134 -102q36 -32 36 -74q0 -31 -18.5 -54.5t-52.5 -23.5q-16 0 -29.5 4t-26.5 10l-153 72l-154 -72q-12 -6 -26 -10t-29 -4q-34 0 -53 23.5t-19 54.5z" />
<glyph unicode="&#x175;" horiz-adv-x="1759" d="M59.5 929q8.5 36 32.5 57.5t57.5 29.5t66 0.5t59 -30t36.5 -60.5l183 -602h28l180 563q19 60 61.5 96.5t119.5 36.5q25 0 50.5 -5.5t49 -20.5t43 -41t31.5 -66l176 -563h29l184 600q12 39 40 62.5t61 31t66 0t56 -29t31 -58t-10 -86.5l-263 -731q-13 -37 -31 -62.5 t-40.5 -41t-49 -22.5t-55.5 -7q-68 0 -117 33.5t-69 99.5l-174 561h-29l-182 -561q-12 -38 -30 -63.5t-40.5 -41t-49 -22t-54.5 -6.5q-69 0 -118 34t-71 99l-249 731q-17 49 -8.5 85zM596 1161q0 20 8.5 39t28.5 35l133 102q26 20 55.5 31.5t55.5 11.5t55 -11.5t55 -31.5 l133 -102q37 -31 37 -74q0 -31 -19 -54.5t-53 -23.5q-15 0 -28.5 4.5t-26.5 10.5l-153 71l-154 -71q-12 -6 -26 -10.5t-29 -4.5q-34 0 -53 23.5t-19 54.5z" />
<glyph unicode="&#x176;" horiz-adv-x="1180" d="M16 1235q0 59 35 86t90 27q46 0 76 -24.5t51 -55.5l322 -475l321 475q22 32 52 56t75 24q56 0 90.5 -25t34.5 -84q0 -15 -4 -34t-12 -31l-424 -613v-469q0 -29 -10.5 -49.5t-29 -33.5t-42.5 -19t-51 -6q-28 0 -52 6t-42 19t-28.5 33.5t-10.5 49.5v471l-422 611 q-6 11 -12.5 27.5t-6.5 33.5zM309 1489q0 20 8.5 39t28.5 35l133 102q26 20 55.5 31.5t55.5 11.5t55 -11.5t55 -31.5l134 -102q36 -32 36 -74q0 -31 -18.5 -54.5t-52.5 -23.5q-16 0 -29.5 4t-26.5 10l-153 72l-154 -72q-12 -6 -26 -10t-29 -4q-34 0 -53 23.5t-19 54.5z" />
<glyph unicode="&#x177;" horiz-adv-x="1104" d="M35 907q0 27 11.5 48t30 35.5t42 22t47.5 7.5q40 0 77.5 -20.5t57.5 -73.5l231 -617h29l250 615q20 49 57.5 72.5t79.5 23.5q23 0 45 -7t39.5 -21t28 -34t10.5 -45q0 -31 -16 -69l-504 -1145q-22 -50 -61 -74t-82 -24q-23 0 -44.5 7t-38 20t-26.5 32.5t-10 44.5 q0 12 1 23.5t4 24.5t9 29t16 36l103 207q-19 17 -32 38.5t-25 49.5l-316 731q-8 17 -11 33t-3 30zM270 1161q0 20 8.5 39t28.5 35l133 102q26 20 55.5 31.5t55.5 11.5t55.5 -11.5t55.5 -31.5l133 -102q36 -32 36 -74q0 -31 -18.5 -54.5t-52.5 -23.5q-16 0 -29.5 4.5 t-25.5 10.5l-154 71l-154 -71q-12 -6 -26 -10.5t-29 -4.5q-34 0 -53 23.5t-19 54.5z" />
<glyph unicode="&#x178;" horiz-adv-x="1180" d="M16 1235q0 59 35 86t90 27q46 0 76 -24.5t51 -55.5l322 -475l321 475q22 32 52 56t75 24q56 0 90.5 -25t34.5 -84q0 -15 -4 -34t-12 -31l-424 -613v-469q0 -29 -10.5 -49.5t-29 -33.5t-42.5 -19t-51 -6q-28 0 -52 6t-42 19t-28.5 33.5t-10.5 49.5v471l-422 611 q-6 11 -12.5 27.5t-6.5 33.5zM307 1579q0 27 9.5 51t27 41.5t40.5 28t50 10.5t51 -10.5t41.5 -28t28 -41.5t10.5 -51t-10.5 -50.5t-28 -41t-41.5 -27.5t-51 -10t-50 10t-40.5 27.5t-27 41t-9.5 50.5zM616 1579q0 27 10 51t27 41.5t40 28t50 10.5t50.5 -10.5t41 -28 t27.5 -41.5t10 -51t-10 -50.5t-27.5 -41t-41 -27.5t-50.5 -10t-50 10t-40 27.5t-27 41t-10 50.5z" />
<glyph unicode="&#x179;" horiz-adv-x="1194" d="M25 180q0 22 6 45.5t16.5 46.5t23.5 43t27 35l725 742h-671q-28 0 -47.5 9.5t-32 25.5t-18 38t-5.5 47q0 51 23.5 85t79.5 34h800q39 0 74 -14.5t61 -39.5t41 -59t15 -73q0 -23 -6 -46t-15.5 -44t-22.5 -39t-28 -33l-723 -741h711q28 0 47.5 -9.5t31.5 -26t17.5 -38.5 t5.5 -47q0 -51 -22.5 -86t-79.5 -35h-848q-40 0 -74 12.5t-59 36t-39 57t-14 74.5zM424 1485q0 14 6.5 29.5t20.5 29.5l137 139q36 37 78 37q21 0 39.5 -8t33 -21.5t23 -31.5t8.5 -37t-9.5 -37.5t-31.5 -34.5l-160 -118q-15 -11 -30.5 -16t-30.5 -5q-35 0 -59.5 21.5 t-24.5 52.5z" />
<glyph unicode="&#x17a;" horiz-adv-x="952" d="M37 127q0 32 14 67.5t45 69.5l461 512h-387q-28 0 -47 8.5t-31 23.5t-17 35.5t-5 45.5q0 50 22 82.5t78 32.5h596q71 0 108 -36.5t37 -88.5q0 -32 -15 -69t-46 -71l-461 -512h424q55 0 77.5 -31.5t22.5 -80.5q0 -51 -22 -83t-78 -32h-627q-72 0 -110.5 36.5t-38.5 90.5z M301 1157q0 14 6.5 30t20.5 30l137 139q37 37 78 37q21 0 39.5 -8t33 -22t23 -32t8.5 -37q0 -18 -9.5 -37t-31.5 -34l-160 -119q-30 -21 -61 -21q-35 0 -59.5 21.5t-24.5 52.5z" />
<glyph unicode="&#x17b;" horiz-adv-x="1194" d="M25 180q0 22 6 45.5t16.5 46.5t23.5 43t27 35l725 742h-671q-28 0 -47.5 9.5t-32 25.5t-18 38t-5.5 47q0 51 23.5 85t79.5 34h800q39 0 74 -14.5t61 -39.5t41 -59t15 -73q0 -23 -6 -46t-15.5 -44t-22.5 -39t-28 -33l-723 -741h711q28 0 47.5 -9.5t31.5 -26t17.5 -38.5 t5.5 -47q0 -51 -22.5 -86t-79.5 -35h-848q-40 0 -74 12.5t-59 36t-39 57t-14 74.5zM453 1565q0 30 11 56.5t29.5 46t44.5 31t56 11.5t56.5 -11.5t46 -31t31 -46t11.5 -56.5t-11.5 -56.5t-31 -46t-46 -30.5t-56.5 -11t-56 11t-44.5 30.5t-29.5 46t-11 56.5z" />
<glyph unicode="&#x17c;" horiz-adv-x="952" d="M37 127q0 32 14 67.5t45 69.5l461 512h-387q-28 0 -47 8.5t-31 23.5t-17 35.5t-5 45.5q0 50 22 82.5t78 32.5h596q71 0 108 -36.5t37 -88.5q0 -32 -15 -69t-46 -71l-461 -512h424q55 0 77.5 -31.5t22.5 -80.5q0 -51 -22 -83t-78 -32h-627q-72 0 -110.5 36.5t-38.5 90.5z M332 1237q0 30 11 56.5t29.5 46t44.5 31t56 11.5t56.5 -11.5t46 -31t31 -46t11.5 -56.5t-11.5 -56t-31 -45.5t-46 -30.5t-56.5 -11t-56 11t-44.5 30.5t-29.5 45.5t-11 56z" />
<glyph unicode="&#x17d;" horiz-adv-x="1194" d="M25 180q0 22 6 45.5t16.5 46.5t23.5 43t27 35l725 742h-671q-28 0 -47.5 9.5t-32 25.5t-18 38t-5.5 47q0 51 23.5 85t79.5 34h800q39 0 74 -14.5t61 -39.5t41 -59t15 -73q0 -23 -6 -46t-15.5 -44t-22.5 -39t-28 -33l-723 -741h711q28 0 47.5 -9.5t31.5 -26t17.5 -38.5 t5.5 -47q0 -51 -22.5 -86t-79.5 -35h-848q-40 0 -74 12.5t-59 36t-39 57t-14 74.5zM315 1630q0 15 5 29t14 25t22.5 17.5t30.5 6.5q16 0 29.5 -4t25.5 -10l154 -72l154 72q12 6 25.5 10t29.5 4q17 0 30.5 -6.5t22.5 -17.5t14 -25t5 -29q0 -20 -9.5 -40t-27.5 -34l-133 -102 q-26 -20 -55.5 -31.5t-55.5 -11.5t-55.5 11.5t-55.5 31.5l-133 102q-20 14 -28.5 34t-8.5 40z" />
<glyph unicode="&#x17e;" horiz-adv-x="952" d="M37 127q0 32 14 67.5t45 69.5l461 512h-387q-28 0 -47 8.5t-31 23.5t-17 35.5t-5 45.5q0 50 22 82.5t78 32.5h596q71 0 108 -36.5t37 -88.5q0 -32 -15 -69t-46 -71l-461 -512h424q55 0 77.5 -31.5t22.5 -80.5q0 -51 -22 -83t-78 -32h-627q-72 0 -110.5 36.5t-38.5 90.5z M195 1303q0 29 18.5 53t52.5 24q16 0 29.5 -4t26.5 -10l153 -72l154 72q12 6 26 10t29 4q34 0 53 -24t19 -53q0 -20 -9.5 -40t-27.5 -34l-133 -103q-26 -20 -55.5 -31.5t-55.5 -11.5t-55 11.5t-55 31.5l-134 103q-20 14 -28 34t-8 40z" />
<glyph unicode="&#x17f;" horiz-adv-x="739" d="M20 887q0 50 22.5 83.5t78.5 33.5h98v30q0 100 16 165t55.5 103.5t105.5 54t167 15.5q89 0 143 -6t83 -20.5t38 -38.5t9 -60q0 -52 -34 -79t-85 -27q-14 0 -33.5 1t-40.5 2l-42 2t-38 1q-29 0 -46.5 -5t-28 -17t-14 -33t-3.5 -52v-950q0 -57 -36.5 -81.5t-90.5 -24.5 q-26 0 -49 6t-40 18.5t-26.5 32.5t-9.5 49v680h-98q-56 0 -78.5 33t-22.5 84z" />
<glyph unicode="&#x192;" horiz-adv-x="1233" d="M29 -287q0 57 31.5 88t109.5 31q31 0 59 -3t54 -3q35 0 56 8.5t33.5 26.5t19.5 46t14 66l104 594h-166q-26 0 -44 9.5t-29.5 25.5t-17 37t-5.5 45q0 48 22.5 81.5t73.5 33.5h207l33 180q20 110 49.5 182t75.5 114.5t112 59.5t160 17q64 0 108 -7t71.5 -21t39.5 -34.5 t12 -46.5q0 -60 -33 -91.5t-108 -31.5q-29 0 -58 3t-55 3q-35 0 -56 -8.5t-33.5 -26.5t-19 -46t-13.5 -66l-33 -180h198q51 0 75 -33.5t24 -81.5q0 -24 -6 -45t-18 -37t-31 -25.5t-44 -9.5h-239l-105 -594q-19 -107 -46.5 -178t-71.5 -114.5t-109.5 -61.5t-159.5 -18 q-121 0 -181 26.5t-60 85.5z" />
<glyph unicode="&#x218;" horiz-adv-x="1264" d="M106 145q0 51 27.5 87t77.5 36q38 0 86.5 -6.5t99.5 -14t101 -14t92 -6.5q152 0 228.5 38t76.5 132q0 56 -33.5 85t-88 43t-124.5 20t-143 16t-143 30t-124.5 63t-88 115.5t-33.5 186.5q0 102 32.5 176.5t101.5 123t175.5 72.5t253.5 24q89 0 167.5 -6.5t137 -23.5 t92 -46t33.5 -74q0 -56 -32.5 -87.5t-82.5 -31.5q-37 0 -79 4.5t-86 10t-88 10t-83 4.5q-144 0 -211 -40.5t-67 -113.5q0 -58 33.5 -88t88 -45t124 -21t142.5 -15.5t142.5 -28.5t124 -59t88 -108.5t33.5 -176.5t-31 -189.5t-99 -136t-176 -82.5t-261 -28q-90 0 -177 6.5 t-155 24.5t-110 50.5t-42 83.5zM485 -348q0 6 2 12l25 127q12 67 49 97t80 30q22 0 43 -8t37.5 -23t26.5 -36.5t10 -47.5q0 -38 -23 -82l-59 -114q-17 -32 -43 -48t-53 -16q-19 0 -36 6.5t-30 19.5t-21 30.5t-8 40.5v12z" />
<glyph unicode="&#x219;" horiz-adv-x="991" d="M70 702q0 72 25.5 131t80.5 101.5t141.5 66t208.5 23.5q112 0 182 -10t109 -29t52.5 -45.5t13.5 -60.5q0 -50 -24 -75.5t-87 -25.5q-23 0 -47.5 3.5t-55.5 8t-71.5 8t-95.5 3.5q-93 0 -135.5 -18.5t-42.5 -55.5q0 -30 26 -48t68 -30.5t96 -22.5t110 -24t110 -35t96 -55 t68 -85t26 -124q0 -85 -29.5 -146t-87 -100.5t-141.5 -58t-193 -18.5q-132 0 -210.5 9.5t-120 27.5t-54 43t-12.5 57q0 54 24.5 82t87.5 28q24 0 49.5 -4t58 -8.5t73.5 -8t96 -3.5q99 0 152 20.5t53 67.5q0 28 -26 45.5t-68 29.5t-96 22t-110 23.5t-110 34t-96 54t-68 82.5 t-26 120zM358 -348q0 6 2 12l25 127q12 67 49 97t80 30q22 0 43 -8t37.5 -23t26.5 -36.5t10 -47.5q0 -38 -23 -82l-59 -114q-17 -32 -43 -48t-53 -16q-19 0 -36 6.5t-30 19.5t-21 30.5t-8 40.5v12z" />
<glyph unicode="&#x21a;" horiz-adv-x="1282" d="M41 1210q0 51 23 86t79 35h996q55 0 78.5 -35t23.5 -86q0 -50 -23.5 -84t-78.5 -34h-365v-1000q0 -29 -10.5 -49.5t-29 -33.5t-42.5 -19t-51 -6t-51 6t-42.5 19t-29 33.5t-10.5 49.5v1000h-365q-28 0 -47.5 9t-31.5 25t-17.5 37.5t-5.5 46.5zM504 -348q0 6 2 12l24 127 q13 68 49.5 97.5t79.5 29.5q22 0 43.5 -8t37.5 -23t26 -36.5t10 -47.5q0 -36 -22 -82l-60 -114q-17 -32 -42.5 -48t-53.5 -16q-37 0 -65.5 26t-28.5 71v12z" />
<glyph unicode="&#x21b;" horiz-adv-x="815" d="M16 887q0 49 22.5 83t76.5 34h100v161q0 28 10 47.5t27 32.5t39.5 19t48.5 6q54 0 91.5 -25t37.5 -80v-161h211q27 0 44.5 -9t28 -25t15 -37.5t4.5 -45.5q0 -51 -19 -84t-73 -33h-211v-487q0 -22 6 -36.5t16.5 -23.5t24.5 -12.5t29 -3.5q46 0 76.5 3t62.5 3 q51 0 73.5 -25.5t22.5 -74.5q0 -36 -10.5 -61t-40.5 -41t-83.5 -23.5t-139.5 -7.5q-73 0 -127.5 12t-91 43.5t-54.5 86t-18 140.5v508h-100q-54 0 -76.5 33t-22.5 84zM270 -348q0 6 2 12l25 127q12 67 49 97t80 30q22 0 43 -8t37.5 -23t26.5 -36.5t10 -47.5q0 -38 -23 -82 l-59 -114q-17 -32 -43 -48t-53 -16q-19 0 -36 6.5t-30 19.5t-21 30.5t-8 40.5v12z" />
<glyph unicode="&#x237;" horiz-adv-x="545" d="M-49 -276q0 24 5 45.5t17 37.5t31 25.5t47 9.5h15q19 0 33.5 5t24 17.5t14.5 33.5t5 53v954q0 29 10 50t27 34t40 19t50 6q26 0 50 -6t42 -19t28.5 -34t10.5 -50v-964q0 -71 -11.5 -133t-44 -108t-89.5 -72.5t-147 -26.5q-38 0 -67.5 5.5t-49.5 19.5t-30.5 38t-10.5 60z " />
<glyph unicode="&#x2bc;" horiz-adv-x="459" d="M96 1204v12.5t2 12.5l25 127q12 67 49 97t80 30q22 0 43 -8t37.5 -23t26.5 -36.5t10 -47.5q0 -19 -6 -39.5t-17 -42.5l-59 -115q-17 -32 -43 -47.5t-54 -15.5q-37 0 -65.5 25.5t-28.5 70.5z" />
<glyph unicode="&#x2c6;" horiz-adv-x="573" d="M6 1161q0 20 8.5 39t28.5 35l133 102q26 20 55.5 31.5t55.5 11.5t55 -11.5t55 -31.5l133 -102q37 -31 37 -74q0 -31 -18.5 -54.5t-52.5 -23.5q-16 0 -29.5 4.5t-26.5 10.5l-153 71l-154 -71q-12 -6 -26 -10.5t-29 -4.5q-34 0 -53 23.5t-19 54.5z" />
<glyph unicode="&#x2c7;" horiz-adv-x="573" d="M6 1303q0 29 19 53t53 24q15 0 29 -4t26 -10l154 -72l153 72q13 6 26.5 10t29.5 4q34 0 52.5 -24t18.5 -53q0 -20 -9 -40t-28 -34l-133 -103q-26 -20 -55 -31.5t-55 -11.5t-55.5 11.5t-55.5 31.5l-133 103q-20 14 -28.5 34t-8.5 40z" />
<glyph unicode="&#x2c9;" horiz-adv-x="573" d="M6 1237q0 48 22.5 76t73.5 28h369q51 0 74.5 -28t23.5 -76t-23.5 -77.5t-74.5 -29.5h-369q-51 0 -73.5 29.5t-22.5 77.5z" />
<glyph unicode="&#x2d8;" horiz-adv-x="573" d="M2 1296q0 31 21 53.5t55 22.5q36 0 57.5 -18.5t41 -41t44 -41t66.5 -18.5t66.5 18.5t44 41t41 41t57.5 18.5q34 0 54.5 -22.5t20.5 -53.5q0 -55 -24 -95t-63.5 -66.5t-91 -39t-105.5 -12.5q-55 0 -106.5 12.5t-91 39t-63.5 66.5t-24 95z" />
<glyph unicode="&#x2d9;" horiz-adv-x="573" d="M143 1237q0 30 11 56.5t30 46t45 31t56 11.5t56.5 -11.5t46 -31t31 -46t11.5 -56.5t-11.5 -56t-31 -45.5t-46 -30.5t-56.5 -11t-56 11t-45 30.5t-30 45.5t-11 56z" />
<glyph unicode="&#x2da;" horiz-adv-x="573" d="M96 1247q0 45 15 80t41.5 60t61.5 38t75 13q39 0 73.5 -13t60.5 -38t41 -60t15 -80t-15 -80t-41 -59.5t-60.5 -37.5t-73.5 -13q-40 0 -75 13t-61.5 37.5t-41.5 59.5t-15 80zM213 1247q0 -34 19 -58t57 -24t57 24t19 58t-19 58t-57 24t-57 -24t-19 -58z" />
<glyph unicode="&#x2db;" horiz-adv-x="573" d="M106 -238q0 42 13.5 79t36 69t50 59t56.5 49h201q-35 -32 -64.5 -60.5t-52 -55t-35 -52.5t-12.5 -51q0 -21 11 -29.5t28 -11t36 -2.5t36 -4.5t28 -17.5t11 -41q0 -92 -144 -92q-99 0 -149 41.5t-50 119.5z" />
<glyph unicode="&#x2dc;" horiz-adv-x="573" d="M6 1221q0 42 18.5 67.5t42 40t45.5 19t29 4.5q34 0 67.5 -7.5t63 -16t53 -16t37.5 -7.5t26.5 7.5t26 16t29.5 16t37 7.5q35 0 61.5 -26.5t26.5 -76.5q0 -38 -16.5 -63t-39.5 -41t-48 -22.5t-43 -6.5q-21 0 -50 8t-58.5 17.5t-56 17.5t-44.5 8t-30 -7.5t-23.5 -16 t-25.5 -16t-36 -7.5q-38 0 -65 25.5t-27 75.5z" />
<glyph unicode="&#x2dd;" horiz-adv-x="573" d="M8 1161q0 13 4 27.5t15 28.5l90 131q17 24 39 34.5t45 10.5q21 0 40.5 -7t34.5 -19.5t24 -29t9 -34.5q0 -16 -6.5 -32t-21.5 -32l-136 -135q-14 -14 -27.5 -19.5t-29.5 -5.5q-15 0 -29.5 6t-26 17t-18 26t-6.5 33zM336 1161q0 13 3.5 27.5t14.5 28.5l90 131 q17 24 39 34.5t45 10.5q21 0 40.5 -7t35 -19.5t24.5 -29t9 -34.5q0 -16 -6.5 -32t-22.5 -32l-135 -135q-14 -14 -28 -19.5t-29 -5.5t-29.5 6t-26 17t-18 26t-6.5 33z" />
<glyph unicode="&#x3c0;" horiz-adv-x="1282" d="M12 887q0 49 22.5 83t76.5 34h1050q27 0 44.5 -9t28 -25t15 -37.5t4.5 -45.5q0 -51 -19 -84t-73 -33h-172v-502q0 -35 17 -48t45 -13q27 0 54.5 3t59.5 3q51 0 74 -25.5t23 -74.5q0 -36 -13 -61t-42.5 -41t-77 -23.5t-117.5 -7.5q-73 0 -125.5 12t-86 43.5t-49.5 86 t-16 140.5v508h-299v-682q0 -28 -10 -47.5t-27.5 -32t-41 -18.5t-50.5 -6q-25 0 -47.5 6t-40 18.5t-27.5 32t-10 47.5v682h-71q-54 0 -76.5 33t-22.5 84z" />
<glyph unicode="&#x1e80;" horiz-adv-x="2036" d="M29 1244.5q6 36.5 29 60.5t57.5 34.5t70 5t67 -28t48.5 -63.5l381 -919h29l163 397l-192 430q-21 47 -15 83.5t28.5 60.5t56.5 34.5t69 5t65.5 -28t47.5 -63.5l86 -215l84 213q17 44 48.5 67t66 28t68 -6.5t56 -36t28 -61t-14.5 -81.5l-193 -428l172 -397h29l373 915 q18 43 49.5 66t66.5 27.5t69 -6.5t56.5 -35.5t29 -61t-12.5 -80.5l-455 -1048q-31 -72 -80.5 -102.5t-109.5 -30.5q-68 0 -115.5 35t-75.5 98l-139 317l-137 -317q-31 -73 -82.5 -103t-110.5 -30q-68 0 -115 35t-75 98l-457 1048q-20 47 -14 83.5zM844 1622q0 19 8.5 37 t23 31.5t33 21.5t39.5 8q20 0 39 -8.5t39 -28.5l137 -139q14 -14 20.5 -29.5t6.5 -29.5q0 -31 -24.5 -52.5t-59.5 -21.5q-16 0 -31 5t-31 16l-159 118q-22 16 -31.5 34.5t-9.5 37.5z" />
<glyph unicode="&#x1e81;" horiz-adv-x="1759" d="M59.5 929q8.5 36 32.5 57.5t57.5 29.5t66 0.5t59 -30t36.5 -60.5l183 -602h28l180 563q19 60 61.5 96.5t119.5 36.5q25 0 50.5 -5.5t49 -20.5t43 -41t31.5 -66l176 -563h29l184 600q12 39 40 62.5t61 31t66 0t56 -29t31 -58t-10 -86.5l-263 -731q-13 -37 -31 -62.5 t-40.5 -41t-49 -22.5t-55.5 -7q-68 0 -117 33.5t-69 99.5l-174 561h-29l-182 -561q-12 -38 -30 -63.5t-40.5 -41t-49 -22t-54.5 -6.5q-69 0 -118 34t-71 99l-249 731q-17 49 -8.5 85zM705 1294q0 19 8.5 37t23 32t33 22t39.5 8q20 0 39 -8.5t39 -28.5l137 -139 q27 -29 27 -60t-24.5 -52.5t-59.5 -21.5q-31 0 -62 21l-160 119q-21 15 -30.5 34t-9.5 37z" />
<glyph unicode="&#x1e82;" horiz-adv-x="2036" d="M29 1244.5q6 36.5 29 60.5t57.5 34.5t70 5t67 -28t48.5 -63.5l381 -919h29l163 397l-192 430q-21 47 -15 83.5t28.5 60.5t56.5 34.5t69 5t65.5 -28t47.5 -63.5l86 -215l84 213q17 44 48.5 67t66 28t68 -6.5t56 -36t28 -61t-14.5 -81.5l-193 -428l172 -397h29l373 915 q18 43 49.5 66t66.5 27.5t69 -6.5t56.5 -35.5t29 -61t-12.5 -80.5l-455 -1048q-31 -72 -80.5 -102.5t-109.5 -30.5q-68 0 -115.5 35t-75.5 98l-139 317l-137 -317q-31 -73 -82.5 -103t-110.5 -30q-68 0 -115 35t-75 98l-457 1048q-20 47 -14 83.5zM844 1485q0 14 6 29.5 t20 29.5l138 139q36 37 77 37q21 0 40 -8t33.5 -21.5t23 -31.5t8.5 -37t-9.5 -37.5t-31.5 -34.5l-160 -118q-15 -11 -30.5 -16t-30.5 -5q-35 0 -59.5 21.5t-24.5 52.5z" />
<glyph unicode="&#x1e83;" horiz-adv-x="1759" d="M59.5 929q8.5 36 32.5 57.5t57.5 29.5t66 0.5t59 -30t36.5 -60.5l183 -602h28l180 563q19 60 61.5 96.5t119.5 36.5q25 0 50.5 -5.5t49 -20.5t43 -41t31.5 -66l176 -563h29l184 600q12 39 40 62.5t61 31t66 0t56 -29t31 -58t-10 -86.5l-263 -731q-13 -37 -31 -62.5 t-40.5 -41t-49 -22.5t-55.5 -7q-68 0 -117 33.5t-69 99.5l-174 561h-29l-182 -561q-12 -38 -30 -63.5t-40.5 -41t-49 -22t-54.5 -6.5q-69 0 -118 34t-71 99l-249 731q-17 49 -8.5 85zM705 1157q0 14 6 30t20 30l137 139q39 37 78 37q21 0 40 -8t33.5 -22t23 -32t8.5 -37 q0 -18 -10 -37t-31 -34l-160 -119q-32 -21 -62 -21q-35 0 -59 21.5t-24 52.5z" />
</font>
</defs>
</svg>
